<?xml version="1.0" encoding="windows-1252"?>
<!-- Generator: Adobe Illustrator 19.2.1, SVG Export Plug-In . SVG Version: 6.00 Build 0)  -->
<svg version="1.1" id="Layer_1" xmlns="http://www.w3.org/2000/svg" xmlns:xlink="http://www.w3.org/1999/xlink" x="0px" y="0px" width="64" height="64" viewBox="0 0 64 64" style="enable-background:new 0 0 64 64;" xml:space="preserve">
<g id="icon-m-share-mms_2_">
	<rect id="icon-m-share-mms_6_" style="opacity:0;fill:#FFFFFF;" width="64" height="64"/>
	<linearGradient id="icon-m-share-mms_1_" gradientUnits="userSpaceOnUse" x1="-7.194103e-010" y1="7.175913e-010" x2="64" y2="64">
		<stop offset="0.0049" style="stop-color:#08C0CC"/>
		<stop offset="1" style="stop-color:#1C8C79"/>
	</linearGradient>
	<rect id="icon-m-share-mms" style="fill:url(#icon-m-share-mms_1_);" width="64" height="64"/>
	<g id="icon-m-share-mms_7_">
		<g id="icon-m-share-mms_3_">
			<g id="icon-m-share-mms_5_">
				<path style="opacity:0.9;fill:#97FFF8;" d="M32,6.177c13.44,0,24.335,9.91,24.335,22.134v22.135v7.378      c-4.48,0-8.112-3.189-8.112-7.263H32c-13.44,0-24.335-10.025-24.335-22.25C7.665,16.087,18.56,6.177,32,6.177z"/>
			</g>
		</g>
		<g id="icon-m-share-mms_4_">
			<path style="opacity:0.8;fill:#7E3659;" d="M24.102,29.47c0,1.973-1.599,3.572-3.572,3.572h-0.893     c-1.973,0-3.572-1.599-3.572-3.572v-0.893c0-1.972,1.599-3.572,3.572-3.572h0.893c1.973,0,3.572,1.6,3.572,3.572V29.47z"/>
			<path style="opacity:0.8;fill:#7E3659;" d="M36.019,29.47c0,1.973-1.599,3.572-3.572,3.572h-0.893     c-1.973,0-3.572-1.599-3.572-3.572v-0.893c0-1.972,1.599-3.572,3.572-3.572h0.893c1.973,0,3.572,1.6,3.572,3.572V29.47z"/>
			<path style="opacity:0.8;fill:#7E3659;" d="M47.926,29.47c0,1.973-1.599,3.572-3.572,3.572h-0.893     c-1.973,0-3.572-1.599-3.572-3.572v-0.893c0-1.972,1.599-3.572,3.572-3.572h0.893c1.973,0,3.572,1.6,3.572,3.572V29.47z"/>
		</g>
	</g>
</g>
</svg>