<?xml version="1.0" encoding="iso-8859-1"?>
<!-- Generator: Adobe Illustrator 19.2.1, SVG Export Plug-In . SVG Version: 6.00 Build 0)  -->
<svg version="1.1" id="Layer_1" xmlns="http://www.w3.org/2000/svg" xmlns:xlink="http://www.w3.org/1999/xlink" x="0px" y="0px"	 width="64" height="64" viewBox="0 0 64 64" style="enable-background:new 0 0 64 64;" xml:space="preserve">
<g id="icon-m-edit-selected">
	<rect id="icon-m-edit-selected_1_" style="opacity:0;fill:#FFFFFF;" width="64" height="64"/>
	<g>
		<g>
			<path style="fill:#FFFFFF;" d="M44.361,14.184c-0.778-0.778-2.05-0.778-2.828,0L14.254,41.463
				c-0.778,0.778-1.56,2.302-1.737,3.388l-0.233,1.422c-0.178,1.086,0.313,2.61,1.091,3.388l2.368,2.369
				c0.778,0.778,2.302,1.269,3.388,1.091l1.423-0.233c1.086-0.178,2.61-0.959,3.388-1.737l27.277-27.278
				c0.778-0.778,0.778-2.051,0-2.829L44.361,14.184z"/>
			<path style="fill:#FFFFFF;" d="M18.65,54.157c-1.288,0-2.749-0.556-3.614-1.421l-2.368-2.369
				c-1.013-1.012-1.602-2.842-1.371-4.256l0.232-1.422c0.21-1.286,1.097-3.014,2.017-3.934l27.279-27.279
				c0.564-0.565,1.317-0.876,2.121-0.876l0,0c0.803,0,1.557,0.312,2.121,0.877l6.857,6.858c1.169,1.17,1.169,3.073,0,4.243
				L24.648,51.857c-0.921,0.921-2.649,1.807-3.933,2.018l-1.423,0.232C19.085,54.141,18.87,54.157,18.65,54.157z M42.947,14.601
				c-0.269,0-0.52,0.103-0.707,0.291L14.961,42.17c-0.632,0.632-1.313,1.96-1.458,2.843l-0.232,1.421
				c-0.125,0.769,0.261,1.97,0.811,2.52l2.368,2.369c0.551,0.55,1.748,0.94,2.519,0.811l1.423-0.232
				c0.881-0.144,2.209-0.825,2.842-1.457l27.277-27.279c0.39-0.39,0.39-1.024,0-1.415l-6.857-6.858c0,0,0,0-0.001,0
				C43.467,14.704,43.216,14.601,42.947,14.601L42.947,14.601z"/>
		</g>
		<g style="opacity:0.6;">
			<polyline style="fill:#FFFFFF;" points="11.961,48.246 9.905,55.499 17.157,53.443 			"/>
			<polygon style="fill:#FFFFFF;" points="8.455,56.948 10.999,47.974 12.923,48.519 11.356,54.048 16.885,52.481 17.43,54.405 			
				"/>
		</g>
		<g style="opacity:0.6;">
			<path style="fill:#FFFFFF;" d="M49.835,25.257l5.242-5.243c1.555-1.556,1.738-3.918,0.406-5.25
				c-1.332-1.332-3.511-3.512-4.843-4.844c-1.331-1.332-3.694-1.149-5.25,0.406l-5.104,5.103"/>
			<path style="fill:#FFFFFF;" d="M49.835,26.257c-0.256,0-0.512-0.098-0.707-0.293c-0.391-0.39-0.391-1.023,0-1.414l5.242-5.243
				c1.149-1.15,1.336-2.907,0.406-3.836l-4.843-4.844c-0.435-0.434-1.057-0.641-1.756-0.59c-0.757,0.059-1.495,0.413-2.079,0.996
				l-5.104,5.104c-0.391,0.391-1.023,0.391-1.414,0s-0.391-1.024,0-1.414l5.104-5.104c0.921-0.921,2.106-1.48,3.339-1.576
				c1.299-0.097,2.471,0.316,3.324,1.17l4.843,4.844c1.726,1.726,1.543,4.715-0.406,6.665l-5.242,5.243
				C50.347,26.16,50.091,26.257,49.835,26.257z"/>
		</g>
	</g>
</g>
</svg>
