<svg width="64" height="64" viewBox="0 0 64 64" fill="none" xmlns="http://www.w3.org/2000/svg">
<mask id="path-1-inside-1" fill="white">
<path fill-rule="evenodd" clip-rule="evenodd" d="M18.7678 33.6174C17.7915 32.6411 17.7915 31.0582 18.7678 30.0818L30.7886 18.061C31.3744 17.4752 32.3241 17.4752 32.9099 18.061C33.4957 18.6468 33.4957 19.5966 32.9099 20.1823L21.2426 31.8496L32.9099 43.5169C33.4957 44.1027 33.4957 45.0524 32.9099 45.6382C32.3241 46.224 31.3744 46.224 30.7886 45.6382L18.7678 33.6174Z"/>
</mask>
<path fill-rule="evenodd" clip-rule="evenodd" d="M18.7678 33.6174C17.7915 32.6411 17.7915 31.0582 18.7678 30.0818L30.7886 18.061C31.3744 17.4752 32.3241 17.4752 32.9099 18.061C33.4957 18.6468 33.4957 19.5966 32.9099 20.1823L21.2426 31.8496L32.9099 43.5169C33.4957 44.1027 33.4957 45.0524 32.9099 45.6382C32.3241 46.224 31.3744 46.224 30.7886 45.6382L18.7678 33.6174Z" fill="#00BB15"/>
<path d="M21.2426 31.8496L19.1213 29.7283L17 31.8496L19.1213 33.9709L21.2426 31.8496ZM16.6464 27.9605C14.4986 30.1084 14.4986 33.5908 16.6464 35.7387L20.8891 31.4961C21.0843 31.6913 21.0844 32.0079 20.8891 32.2032L16.6464 27.9605ZM28.6673 15.9397L16.6464 27.9605L20.8891 32.2032L32.9099 20.1823L28.6673 15.9397ZM35.0312 15.9397C33.2739 14.1823 30.4246 14.1823 28.6673 15.9397L32.9099 20.1823C32.3241 20.7681 31.3744 20.7681 30.7886 20.1823L35.0312 15.9397ZM35.0312 22.3037C36.7886 20.5463 36.7886 17.6971 35.0312 15.9397L30.7886 20.1823C30.2028 19.5966 30.2028 18.6468 30.7886 18.061L35.0312 22.3037ZM23.364 33.9709L35.0312 22.3037L30.7886 18.061L19.1213 29.7283L23.364 33.9709ZM35.0312 41.3956L23.364 29.7283L19.1213 33.9709L30.7886 45.6382L35.0312 41.3956ZM35.0312 47.7595C36.7886 46.0022 36.7886 43.1529 35.0312 41.3956L30.7886 45.6382C30.2028 45.0524 30.2028 44.1027 30.7886 43.5169L35.0312 47.7595ZM28.6673 47.7595C30.4246 49.5169 33.2739 49.5169 35.0312 47.7595L30.7886 43.5169C31.3744 42.9311 32.3241 42.9311 32.9099 43.5169L28.6673 47.7595ZM16.6464 35.7387L28.6673 47.7595L32.9099 43.5169L20.8891 31.4961L16.6464 35.7387Z" fill="#00BB15" mask="url(#path-1-inside-1)"/>
</svg>