<?xml version="1.0" encoding="iso-8859-1"?>
<!-- Generator: Adobe Illustrator 17.0.1, SVG Export Plug-In . SVG Version: 6.00 Build 0)  -->
<!DOCTYPE svg PUBLIC "-//W3C//DTD SVG 1.1//EN" "http://www.w3.org/Graphics/SVG/1.1/DTD/svg11.dtd">
<svg version="1.1" id="Layer_1" xmlns="http://www.w3.org/2000/svg" xmlns:xlink="http://www.w3.org/1999/xlink" x="0px" y="0px"
	 width="32px" height="32px" viewBox="0 0 32 32" style="enable-background:new 0 0 32 32;" xml:space="preserve">
<g id="icon-s-service-generic-calendar">
	<rect id="icon-s-service-generic-calendar_1_" style="opacity:0;fill:#FFFFFF;" width="32" height="32"/>
	<g>
		<rect x="0.3" y="0.3" style="fill:#F9F8D9;" width="31.4" height="31.4"/>
		<path style="opacity:0.8;fill:#661D87;" d="M10.968,20.829c0,0.199,0.162,0.361,0.361,0.361h3.345c0.2,0,0.362-0.162,0.362-0.361
			v-3.346c0-0.2-0.162-0.362-0.362-0.362H11.33c-0.2,0-0.361,0.162-0.361,0.362V20.829z"/>
		<g>
			<path style="fill:#FFA6A3;" d="M22.993,11.29h3.345c0.2,0,0.362,0.162,0.362,0.362v3.346c0,0.2-0.162,0.361-0.362,0.361h-3.345
				c-0.199,0-0.361-0.162-0.361-0.361v-3.346C22.632,11.452,22.794,11.29,22.993,11.29z"/>
			<path style="fill:#FFA6A3;" d="M17.162,11.29h3.345c0.2,0,0.362,0.162,0.362,0.362v3.346c0,0.2-0.162,0.361-0.362,0.361h-3.345
				c-0.2,0-0.362-0.162-0.362-0.361v-3.346C16.8,11.452,16.962,11.29,17.162,11.29z"/>
			<path style="fill:#FFA6A3;" d="M22.993,17.122h3.345c0.2,0,0.362,0.162,0.362,0.362v3.346c0,0.199-0.162,0.361-0.362,0.361
				h-3.345c-0.199,0-0.361-0.162-0.361-0.361v-3.346C22.632,17.284,22.794,17.122,22.993,17.122z"/>
			<path style="fill:#FFA6A3;" d="M17.162,17.122h3.345c0.2,0,0.362,0.162,0.362,0.362v3.346c0,0.199-0.162,0.361-0.362,0.361
				h-3.345c-0.2,0-0.362-0.162-0.362-0.361v-3.346C16.8,17.284,16.962,17.122,17.162,17.122z"/>
			<path style="fill:#FFA6A3;" d="M17.162,22.953h3.345c0.2,0,0.362,0.162,0.362,0.361v3.346c0,0.2-0.162,0.362-0.362,0.362h-3.345
				c-0.2,0-0.362-0.162-0.362-0.362v-3.346C16.8,23.115,16.962,22.953,17.162,22.953z"/>
			<path style="fill:#FFA6A3;" d="M11.33,11.29h3.345c0.2,0,0.362,0.162,0.362,0.362v3.346c0,0.2-0.162,0.361-0.362,0.361H11.33
				c-0.2,0-0.361-0.162-0.361-0.361v-3.346C10.968,11.452,11.13,11.29,11.33,11.29z"/>
			<path style="fill:#FFA6A3;" d="M5.498,11.3h3.345c0.2,0,0.362,0.162,0.362,0.362v3.346c0,0.2-0.162,0.362-0.362,0.362H5.498
				c-0.2,0-0.362-0.162-0.362-0.362v-3.346C5.137,11.462,5.299,11.3,5.498,11.3z"/>
			<path style="fill:#FFA6A3;" d="M5.498,17.122h3.345c0.2,0,0.362,0.162,0.362,0.362v3.346c0,0.199-0.162,0.361-0.362,0.361H5.498
				c-0.2,0-0.362-0.162-0.362-0.361v-3.346C5.137,17.284,5.299,17.122,5.498,17.122z"/>
			<path style="fill:#FFA6A3;" d="M11.33,22.953h3.345c0.2,0,0.362,0.162,0.362,0.361v3.346c0,0.2-0.162,0.362-0.362,0.362H11.33
				c-0.2,0-0.361-0.162-0.361-0.362v-3.346C10.968,23.115,11.13,22.953,11.33,22.953z"/>
			<path style="fill:#FFA6A3;" d="M5.498,22.953h3.345c0.2,0,0.362,0.162,0.362,0.361v3.346c0,0.2-0.162,0.362-0.362,0.362H5.498
				c-0.2,0-0.362-0.162-0.362-0.362v-3.346C5.137,23.115,5.299,22.953,5.498,22.953z"/>
		</g>
		<linearGradient id="SVGID_1_" gradientUnits="userSpaceOnUse" x1="0.3" y1="3.5563" x2="31.7" y2="3.5563">
			<stop  offset="0" style="stop-color:#FF4747"/>
			<stop  offset="1" style="stop-color:#FF9666"/>
		</linearGradient>
		<rect x="0.3" y="0.3" style="fill:url(#SVGID_1_);" width="31.4" height="6.513"/>
	</g>
</g>
</svg>
