<?xml version="1.0" encoding="iso-8859-1"?>
<!-- Generator: Adobe Illustrator 24.0.2, SVG Export Plug-In . SVG Version: 6.00 Build 0)  -->
<svg version="1.1" id="Layer_1" xmlns="http://www.w3.org/2000/svg" xmlns:xlink="http://www.w3.org/1999/xlink" x="0px" y="0px"	 width="64" height="64" viewBox="0 0 64 64" style="enable-background:new 0 0 64 64;" xml:space="preserve">
<g id="icon-m-wlan-2-light">
	<g id="icon-m-wlan-2_x2B_1_4_">
		<path style="opacity:0.6;fill:#FFFFFF;" d="M32.134,52.194c-1.341,0-2.681-0.51-3.701-1.53L7.654,29.886
			c-1.945-1.945-2.035-5.091-0.204-7.162l0.087-0.087c6.813-6.018,15.549-9.333,24.597-9.333c9.046,0,17.778,3.311,24.59,9.323
			l0.085,0.084c1.837,2.064,1.756,5.209-0.185,7.162L35.836,50.665C34.815,51.685,33.475,52.194,32.134,52.194z M8.91,24.093
			c-1.093,1.281-1.028,3.193,0.158,4.379L29.847,49.25c1.261,1.262,3.313,1.262,4.575,0l20.786-20.789
			c1.181-1.188,1.24-3.101,0.144-4.377c-6.438-5.662-14.682-8.78-23.218-8.78C23.595,15.305,15.351,18.425,8.91,24.093z"/>
		<path style="opacity:0.3;fill:#FFFFFF;" d="M12.087,33.907c-0.24,0-0.481-0.086-0.673-0.261c-0.408-0.372-0.438-1.004-0.066-1.413
			c5.333-5.854,12.908-9.212,20.782-9.212c7.874,0,15.451,3.357,20.789,9.211c0.372,0.408,0.343,1.041-0.065,1.413
			c-0.406,0.372-1.041,0.345-1.413-0.065c-4.959-5.439-11.997-8.559-19.311-8.559c-7.313,0-14.349,3.12-19.304,8.559
			C12.63,33.797,12.359,33.907,12.087,33.907z"/>
		<path style="fill:#FFFFFF;" d="M46.229,39.859c-0.256,0-0.512-0.098-0.707-0.293c-3.574-3.578-8.329-5.548-13.389-5.548
			c-5.058,0-9.813,1.97-13.388,5.546c-0.391,0.391-1.023,0.391-1.414,0s-0.391-1.023,0-1.414c3.953-3.954,9.21-6.132,14.802-6.132
			c5.595,0,10.852,2.179,14.803,6.134c0.391,0.391,0.391,1.024,0,1.414C46.74,39.762,46.484,39.859,46.229,39.859z"/>
		<path style="fill:#FFFFFF;" d="M39.976,46.109c-0.256,0-0.512-0.098-0.707-0.293c-1.906-1.906-4.44-2.956-7.136-2.956
			c-2.693,0-5.227,1.05-7.136,2.956c-0.39,0.391-1.023,0.391-1.414,0c-0.39-0.391-0.39-1.024,0.001-1.414
			c2.286-2.284,5.322-3.542,8.549-3.542c3.229,0,6.266,1.258,8.55,3.542c0.391,0.391,0.391,1.023,0,1.414
			C40.487,46.012,40.231,46.109,39.976,46.109z"/>
		<g>
			<path style="fill:#FFFFFF;" d="M32.134,52.194c-1.341,0-2.681-0.51-3.701-1.53l-11.21-11.21l1.414-1.414l11.21,11.21
				c1.261,1.262,3.313,1.262,4.575,0L45.52,38.152l1.414,1.414L35.836,50.665C34.815,51.685,33.475,52.194,32.134,52.194z"/>
			<g>
				<path style="fill:#FFFFFF;" d="M46.229,39.859c-0.256,0-0.512-0.098-0.707-0.293c-3.574-3.578-8.329-5.548-13.389-5.548
					c-5.058,0-9.813,1.97-13.388,5.546c-0.391,0.391-1.023,0.391-1.414,0s-0.391-1.023,0-1.414c3.953-3.954,9.21-6.132,14.802-6.132
					c5.595,0,10.852,2.179,14.803,6.134c0.391,0.391,0.391,1.024,0,1.414C46.74,39.762,46.484,39.859,46.229,39.859z"/>
				<path style="fill:#FFFFFF;" d="M39.976,46.109c-0.256,0-0.512-0.098-0.707-0.293c-1.906-1.906-4.44-2.956-7.136-2.956
					c-2.693,0-5.227,1.05-7.136,2.956c-0.39,0.391-1.023,0.391-1.414,0c-0.39-0.391-0.39-1.024,0.001-1.414
					c2.286-2.284,5.322-3.542,8.549-3.542c3.229,0,6.266,1.258,8.55,3.542c0.391,0.391,0.391,1.023,0,1.414
					C40.487,46.012,40.231,46.109,39.976,46.109z"/>
			</g>
		</g>
	</g>
	<path style="opacity:0.25;fill:#FFFFFF;" d="M17.696,39.106l8.75,9.115c2.97,3.094,7.834,3.094,10.806,0.002L46,39.109
		C42.379,35.336,37.373,33,31.846,33C26.324,33,21.318,35.336,17.696,39.106z"/>
	<rect id="icon-m-wlan-2-light_1_" style="opacity:0;fill:#FFFFFF;" width="64" height="64"/>
</g>
</svg>
