<?xml version="1.0" encoding="windows-1252"?>
<!-- Generator: Adobe Illustrator 22.1.0, SVG Export Plug-In . SVG Version: 6.00 Build 0)  -->
<svg version="1.1" id="Layer_1" xmlns="http://www.w3.org/2000/svg" xmlns:xlink="http://www.w3.org/1999/xlink" x="0px" y="0px" width="64" height="64" viewBox="0 0 64 64" style="enable-background:new 0 0 64 64;" xml:space="preserve">
<g id="icon-m-data-download">
	<rect id="icon-m-data-download_1_" style="opacity:0;fill:#FFFFFF;" width="64" height="64"/>
	<g>
		<path style="fill:#FFFFFF;" d="M27.405,52.409C27.405,52.409,27.405,52.409,27.405,52.409c-0.924-0.001-1.8-0.521-2.405-1.429    L12.152,31.515c-0.633-0.953-0.738-2.033-0.28-2.887c0.429-0.8,1.268-1.259,2.3-1.259h26.361c1.039,0,1.881,0.456,2.308,1.251    c0.451,0.84,0.345,1.908-0.283,2.856L29.713,51.052C29.137,51.916,28.297,52.409,27.405,52.409z M14.172,29.369    c-0.128,0-0.438,0.02-0.537,0.205c-0.077,0.143-0.074,0.447,0.185,0.837l12.847,19.464c0.222,0.333,0.499,0.534,0.738,0.534    c0,0,0,0,0,0c0.29,0,0.525-0.289,0.64-0.461l12.842-19.573c0.239-0.361,0.268-0.666,0.191-0.809    c-0.066-0.124-0.271-0.198-0.546-0.198H14.172z"/>
		<path style="opacity:0.3;fill:#FFFFFF;" d="M49.828,36.633H23.467c-1.04,0-1.881-0.457-2.308-1.253    c-0.451-0.841-0.344-1.909,0.286-2.857L34.287,12.95c0.575-0.865,1.415-1.358,2.308-1.358l0,0c0.924,0,1.801,0.521,2.405,1.429    l12.848,19.466c0.633,0.951,0.738,2.031,0.281,2.886C51.699,36.174,50.861,36.633,49.828,36.633z M36.595,13.591    c-0.289,0-0.524,0.289-0.639,0.461L23.113,33.625c-0.24,0.361-0.269,0.666-0.192,0.81c0.066,0.124,0.271,0.198,0.545,0.198h26.361    c0.129,0,0.438-0.02,0.537-0.205c0.077-0.143,0.074-0.447-0.186-0.837L37.332,14.125C37.11,13.792,36.834,13.591,36.595,13.591z"/>
	</g>
</g>
</svg>