<?xml version="1.0" encoding="iso-8859-1"?>
<!-- Generator: Adobe Illustrator 24.0.2, SVG Export Plug-In . SVG Version: 6.00 Build 0)  -->
<svg version="1.1" id="Layer_1" xmlns="http://www.w3.org/2000/svg" xmlns:xlink="http://www.w3.org/1999/xlink" x="0px" y="0px"	 width="64" height="64" viewBox="0 0 64 64" style="enable-background:new 0 0 64 64;" xml:space="preserve">
<g id="icon-m-wlan-hotspot-light_4_">
	<rect id="icon-m-wlan-hotspot-light_5_" style="opacity:0;fill:#FFFFFF;" width="64" height="64"/>
	<path style="fill:#FFFFFF;" d="M41.146,41.673l-0.723-0.731c-2.272-2.299-5.3-3.564-8.526-3.564c-3.094,0-6.035,1.185-8.281,3.335
		l-0.72,0.689L10.512,28.534c-1.741-1.741-1.821-4.578-0.17-6.444l0.087-0.087c6.007-5.307,13.709-8.229,21.689-8.229
		c7.975,0,15.676,2.919,21.683,8.22l0.085,0.085c1.655,1.861,1.582,4.698-0.167,6.458L41.146,41.673z M31.898,35.377
		c3.42,0,6.65,1.22,9.2,3.454L52.287,27.14c1.006-1.012,1.058-2.616,0.142-3.69c-5.635-4.951-12.845-7.677-20.311-7.677
		c-7.469,0-14.682,2.729-20.315,7.685c-0.913,1.077-0.857,2.68,0.138,3.675l11.039,11.469
		C25.488,36.516,28.619,35.377,31.898,35.377z"/>
	<g>
		<path style="opacity:0.6;fill:#FFFFFF;" d="M47.902,33.646c-4.276-4.278-9.962-6.634-16.011-6.634
			c-6.048,0-11.734,2.355-16.011,6.632l-1.414-1.415c4.654-4.654,10.843-7.218,17.425-7.218c6.583,0,12.772,2.564,17.425,7.22
			L47.902,33.646z"/>
	</g>
	<path style="fill:#FFFFFF;" d="M31.915,54.973c-3.496,0-6.34-2.844-6.34-6.34s2.844-6.34,6.34-6.34s6.339,2.844,6.339,6.34
		S35.41,54.973,31.915,54.973z M31.915,44.293c-2.393,0-4.34,1.947-4.34,4.34s1.947,4.34,4.34,4.34s4.339-1.947,4.339-4.34
		S34.308,44.293,31.915,44.293z"/>
</g>
</svg>
