<?xml version="1.0" encoding="windows-1252"?>
<!-- Generator: Adobe Illustrator 22.1.0, SVG Export Plug-In . SVG Version: 6.00 Build 0)  -->
<svg version="1.1" id="Layer_1" xmlns="http://www.w3.org/2000/svg" xmlns:xlink="http://www.w3.org/1999/xlink" x="0px" y="0px" width="32" height="32" viewBox="0 0 32 32" style="enable-background:new 0 0 32 32;" xml:space="preserve">
<g id="icon-s-incoming-call">
	<g style="opacity:0.6;">
		<path style="fill:#FFFFFF;" d="M20.94,12.109c-0.256,0-0.512-0.098-0.707-0.293c-0.391-0.391-0.391-1.023,0-1.414l6.416-6.417    c0.391-0.391,1.023-0.391,1.414,0s0.391,1.023,0,1.414l-6.416,6.417C21.452,12.012,21.196,12.109,20.94,12.109z"/>
		<g>
			<path style="fill:#FFFFFF;" d="M14.706,19.016c-0.469,0-0.895-0.167-1.208-0.481c-0.391-0.391-0.549-0.954-0.436-1.546     l1.749-8.854c0.123-0.65,0.538-1.147,1.109-1.324c0.552-0.171,1.147-0.004,1.597,0.444l7.289,7.29     c0.447,0.447,0.611,1.044,0.44,1.599c-0.178,0.577-0.678,0.996-1.336,1.121l-8.813,1.714     C14.964,19.003,14.833,19.016,14.706,19.016z M16.638,9.205l-1.527,7.732l7.752-1.508L16.638,9.205z"/>
		</g>
		<path style="fill:#FFFFFF;" d="M16.643,28.333c-7.182,0-13.025-5.844-13.025-13.026c0-0.566,0.459-1.025,1.025-1.025    s1.025,0.459,1.025,1.025c0,6.051,4.923,10.975,10.975,10.975c0.566,0,1.026,0.459,1.026,1.025S17.209,28.333,16.643,28.333z"/>
	</g>
	<rect id="icon-s-incoming-call_1_" style="opacity:0;fill:#FFFFFF;" width="32" height="32"/>
</g>
</svg>