<?xml version="1.0" encoding="iso-8859-1"?>
<!-- Generator: Adobe Illustrator 17.0.1, SVG Export Plug-In . SVG Version: 6.00 Build 0)  -->
<!DOCTYPE svg PUBLIC "-//W3C//DTD SVG 1.1//EN" "http://www.w3.org/Graphics/SVG/1.1/DTD/svg11.dtd">
<svg version="1.1" id="Layer_1" xmlns="http://www.w3.org/2000/svg" xmlns:xlink="http://www.w3.org/1999/xlink" x="0px" y="0px"
	 width="32px" height="32px" viewBox="0 0 32 32" style="enable-background:new 0 0 32 32;" xml:space="preserve">
<g id="icon-lock-facebook">
	<rect id="icon-lock-facebook_1_" style="opacity:0;fill:#FFFFFF;" width="32" height="32"/>
	<g>
		<path style="fill-rule:evenodd;clip-rule:evenodd;fill:#3B579C;" d="M32,30.667C32,31.4,31.4,32,30.667,32H1.333
			C0.6,32,0,31.4,0,30.667V1.333C0,0.6,0.6,0,1.333,0h29.333C31.4,0,32,0.6,32,1.333V30.667z"/>
		<g>
			<g>
				<path style="fill-rule:evenodd;clip-rule:evenodd;fill:#FEFEFE;" d="M22.114,32h-4.952c0,0-0.01-0.222-0.01-0.332
					c-0.001-3.907-0.003-7.813,0.006-11.72c0.001-0.26-0.071-0.319-0.321-0.317c-1.195,0.014-2.389,0.001-3.583,0.01
					c-0.212,0.002-0.284-0.047-0.283-0.273c0.01-1.417,0.01-2.833,0.001-4.249c-0.002-0.212,0.048-0.282,0.273-0.281
					c1.213,0.012,2.426-0.001,3.638,0.011c0.225,0.002,0.275-0.065,0.273-0.279c-0.009-1.166-0.01-2.333,0-3.499
					c0.009-1.165,0.235-2.284,0.81-3.307c0.953-1.694,2.469-2.538,4.349-2.752c1.514-0.171,3.031-0.034,4.545,0.089
					c0.162,0.013,0.194,0.078,0.193,0.224c-0.005,1.296-0.008,2.592,0.002,3.888c0.001,0.2-0.077,0.224-0.243,0.222
					c-0.759-0.006-1.519-0.004-2.276,0c-0.288,0-0.573,0.009-0.858,0.062c-0.931,0.173-1.418,0.706-1.517,1.652
					c-0.047,0.443-0.037,0.886-0.038,1.331c-0.002,0.703,0.008,1.407-0.006,2.111c-0.004,0.212,0.058,0.261,0.264,0.259
					c1.397-0.01,2.796,0,4.193-0.01c0.232-0.002,0.313,0.022,0.274,0.296c-0.2,1.409-0.38,2.823-0.552,4.237
					c-0.026,0.212-0.089,0.272-0.301,0.271c-1.185-0.011-2.37,0.001-3.554-0.011c-0.246-0.002-0.327,0.05-0.327,0.315
					c0.009,3.908,0.006,7.813,0.006,11.72C22.121,31.777,22.114,32,22.114,32z"/>
			</g>
		</g>
	</g>
</g>
</svg>
