<?xml version="1.0" encoding="iso-8859-1"?>
<!-- Generator: Adobe Illustrator 17.0.1, SVG Export Plug-In . SVG Version: 6.00 Build 0)  -->
<!DOCTYPE svg PUBLIC "-//W3C//DTD SVG 1.1//EN" "http://www.w3.org/Graphics/SVG/1.1/DTD/svg11.dtd">
<svg version="1.1" id="Layer_1" xmlns="http://www.w3.org/2000/svg" xmlns:xlink="http://www.w3.org/1999/xlink" x="0px" y="0px"
	 width="64px" height="64px" viewBox="0 0 64 64" style="enable-background:new 0 0 64 64;" xml:space="preserve">
<g id="icon-m-service-fruux">
	<rect id="icon-m-service-fruux_1_" style="opacity:0;fill:#FFFFFF;" width="64" height="64"/>
	<linearGradient id="SVGID_1_" gradientUnits="userSpaceOnUse" x1="10.1436" y1="69.8564" x2="53.8564" y2="-5.8564">
		<stop  offset="0" style="stop-color:#C9C9C9"/>
		<stop  offset="1" style="stop-color:#FFFFFF"/>
	</linearGradient>
	<rect style="fill:url(#SVGID_1_);" width="64" height="64"/>
	<g>
		
			<radialGradient id="SVGID_2_" cx="-146.5715" cy="496.5223" r="14.9258" fx="-146.5603" fy="502.0721" gradientTransform="matrix(1.1062 0 0 0.2864 193.0698 -89.89)" gradientUnits="userSpaceOnUse">
			<stop  offset="0.0753" style="stop-color:#000000;stop-opacity:0.7"/>
			<stop  offset="0.6348" style="stop-color:#191616;stop-opacity:0.2765"/>
			<stop  offset="1" style="stop-color:#231F20;stop-opacity:0"/>
		</radialGradient>
		<ellipse style="fill:url(#SVGID_2_);" cx="30.932" cy="52.314" rx="16.512" ry="4.274"/>
		<g>
			<path style="fill:#B5CD3B;" d="M42.659,18.966c-0.39,0-0.771-0.133-1.078-0.38c-0.357-0.287-0.585-0.705-0.634-1.161l-0.93-8.781
				c-0.1-0.945,0.585-1.793,1.531-1.893l2.91-0.308c0.061-0.006,0.121-0.01,0.181-0.01c0.392,0,0.775,0.134,1.082,0.383
				c0.355,0.287,0.582,0.704,0.63,1.158l0.437,4.131l9.901-1.107c0.065-0.007,0.13-0.011,0.193-0.011
				c0.865,0,1.611,0.651,1.709,1.531l0.325,2.909c0.051,0.454-0.081,0.909-0.366,1.266c-0.285,0.357-0.7,0.586-1.154,0.636
				l-14.548,1.627C42.787,18.963,42.723,18.966,42.659,18.966z"/>
			<path style="fill:#6F8502;" d="M42.659,19.139c-0.429,0-0.851-0.148-1.186-0.417c-0.392-0.314-0.646-0.779-0.697-1.277
				l-0.93-8.781c-0.109-1.039,0.646-1.973,1.684-2.083l2.91-0.308c0.505-0.051,1.003,0.097,1.391,0.411
				c0.394,0.318,0.64,0.77,0.692,1.273l0.42,3.958l9.728-1.088c1.073-0.123,1.978,0.642,2.093,1.671l0.325,2.909
				c0.057,0.502-0.087,0.997-0.402,1.393c-0.311,0.39-0.773,0.645-1.27,0.7L42.87,19.126C42.801,19.135,42.729,19.139,42.659,19.139
				z M44.641,6.606c-0.055,0-0.109,0.003-0.164,0.009l-2.909,0.308c-0.85,0.09-1.468,0.854-1.379,1.704l0.93,8.781
				c0.043,0.407,0.251,0.788,0.57,1.044c0.32,0.256,0.728,0.379,1.143,0.332l14.548-1.627c0.406-0.045,0.784-0.254,1.038-0.573
				c0.259-0.324,0.376-0.729,0.33-1.14l-0.325-2.909c-0.095-0.842-0.856-1.467-1.712-1.368l-10.073,1.127l-0.455-4.303
				c-0.044-0.412-0.245-0.782-0.567-1.042C45.34,6.729,44.994,6.606,44.641,6.606z"/>
		</g>
		<linearGradient id="SVGID_3_" gradientUnits="userSpaceOnUse" x1="41.3632" y1="16.7204" x2="55.4849" y2="8.5672">
			<stop  offset="0" style="stop-color:#95A831"/>
			<stop  offset="1" style="stop-color:#AABF39"/>
		</linearGradient>
		<path style="fill:url(#SVGID_3_);" d="M42.659,18.106c-0.195,0-0.387-0.067-0.539-0.19c-0.177-0.143-0.293-0.354-0.317-0.58
			l-0.93-8.781c-0.024-0.229,0.042-0.453,0.187-0.632c0.145-0.179,0.35-0.291,0.579-0.315l2.91-0.308
			c0.03-0.003,0.061-0.005,0.091-0.005c0.196,0,0.389,0.068,0.541,0.191c0.179,0.145,0.291,0.35,0.315,0.579l0.437,4.131
			c0.024,0.228,0.138,0.437,0.317,0.58c0.154,0.123,0.344,0.19,0.539,0.19c0.032,0,0.064-0.002,0.096-0.005l9.901-1.107
			c0.033-0.004,0.066-0.005,0.098-0.005c0.438,0,0.805,0.329,0.853,0.765l0.325,2.909c0.026,0.229-0.039,0.453-0.183,0.633
			c-0.144,0.18-0.348,0.293-0.577,0.318L42.755,18.1C42.723,18.104,42.691,18.106,42.659,18.106z"/>
		<g>
			<g>
				<linearGradient id="SVGID_4_" gradientUnits="userSpaceOnUse" x1="15.4314" y1="47.5125" x2="44.7448" y2="18.1992">
					<stop  offset="0" style="stop-color:#A10000"/>
					<stop  offset="1" style="stop-color:#E3231B"/>
				</linearGradient>
				<path style="fill:url(#SVGID_4_);" d="M30.014,54.106c-1.985,0-3.951-0.276-5.847-0.819c0.167-0.662,0.251-1.341,0.251-2.022
					c0-4.557-3.707-8.264-8.264-8.264c-1.454,0-2.878,0.381-4.13,1.105c-2.086-3.35-3.187-7.211-3.187-11.176
					c0-11.677,9.5-21.176,21.177-21.176c2.799,0,5.519,0.538,8.084,1.599l0.698,6.589c0.053,0.498,0.307,0.963,0.697,1.277
					c0.335,0.269,0.756,0.418,1.186,0.418c0.07,0,0.141-0.004,0.211-0.012l6.547-0.732c2.456,3.548,3.754,7.708,3.754,12.038
					C51.191,44.606,41.691,54.106,30.014,54.106z M30.014,21.05c-6.55,0-11.879,5.329-11.879,11.879s5.329,11.88,11.879,11.88
					s11.879-5.329,11.879-11.88S36.565,21.05,30.014,21.05z"/>
			</g>
			<g>
				<path style="fill:#6D151A;" d="M30.014,54.364c-2.009,0-4-0.278-5.918-0.829l-0.24-0.068l0.061-0.243
					c0.162-0.641,0.244-1.3,0.244-1.958c0-4.414-3.591-8.006-8.006-8.006c-1.407,0-2.79,0.37-4,1.07l-0.216,0.125l-0.132-0.212
					C9.695,40.853,8.58,36.94,8.58,32.93c0-11.819,9.616-21.435,21.435-21.435c2.833,0,5.586,0.544,8.183,1.618l0.142,0.059
					l0.714,6.742c0.046,0.43,0.265,0.832,0.603,1.103c0.336,0.271,0.78,0.399,1.205,0.351l6.701-0.75l0.087,0.127
					c2.486,3.589,3.8,7.803,3.8,12.186C51.448,44.749,41.833,54.364,30.014,54.364z M24.476,53.105
					c1.798,0.493,3.66,0.743,5.538,0.743c11.535,0,20.918-9.385,20.918-20.919c0-4.226-1.252-8.29-3.621-11.765l-6.394,0.715
					c-0.553,0.064-1.144-0.106-1.587-0.462s-0.732-0.884-0.792-1.45l-0.681-6.436c-2.492-1.009-5.131-1.521-7.844-1.521
					c-11.534,0-20.918,9.384-20.918,20.918c0,3.831,1.043,7.57,3.019,10.83c1.235-0.665,2.626-1.016,4.04-1.016
					c4.699,0,8.522,3.822,8.522,8.521C24.677,51.883,24.609,52.501,24.476,53.105z M30.014,45.067
					c-6.693,0-12.138-5.444-12.138-12.138c0-6.693,5.445-12.138,12.138-12.138s12.137,5.445,12.137,12.138
					C42.151,39.623,36.707,45.067,30.014,45.067z M30.014,21.309c-6.408,0-11.621,5.213-11.621,11.621
					c0,6.408,5.213,11.622,11.621,11.622s11.622-5.214,11.622-11.622C41.636,26.522,36.422,21.309,30.014,21.309z"/>
			</g>
		</g>
		<g>
			<path style="fill:#EFA292;" d="M9.01,33.446c0-11.582,9.422-21.004,21.004-21.004c2.742,0,5.407,0.52,7.924,1.547l0.687,5.97
				c0.057,0.543,0.335,1.051,0.76,1.393c0.366,0.294,0.825,0.456,1.294,0.456c0.077,0,0.154-0.004,0.23-0.013l6.444-0.721
				c2.398,3.5,3.665,8.113,3.665,12.372c0,2.367-0.394,4.643-1.119,6.767c0.835-2.272,1.291-4.726,1.291-7.284
				c0-4.331-1.298-8.491-3.754-12.038l-6.547,0.732c-0.07,0.008-0.14,0.012-0.211,0.012c-0.43,0-0.851-0.148-1.186-0.418
				c-0.39-0.314-0.644-0.779-0.697-1.277l-0.698-6.589c-2.566-1.061-5.285-1.599-8.084-1.599c-11.677,0-21.177,9.5-21.177,21.176
				c0,2.525,0.448,5.006,1.311,7.341C9.399,38.088,9.01,35.785,9.01,33.446z"/>
			<path style="fill:#EFA292;" d="M42.066,33.102c0-1.499-0.277-2.589-0.779-3.914c0.392,1.177,0.607,2.434,0.607,3.741
				c0,6.55-5.329,11.88-11.879,11.88S18.135,39.48,18.135,32.93c0-1.307,0.215-2.564,0.607-3.741
				c-0.502,1.325-0.779,2.415-0.779,3.914c0,6.645,5.406,11.88,12.052,11.88S42.066,39.747,42.066,33.102z"/>
		</g>
		<g>
			<linearGradient id="SVGID_5_" gradientUnits="userSpaceOnUse" x1="30.0142" y1="38.8348" x2="30.0142" y2="20.7058">
				<stop  offset="0" style="stop-color:#EFA292"/>
				<stop  offset="1" style="stop-color:#A10000"/>
			</linearGradient>
			<path style="fill:url(#SVGID_5_);" d="M42.066,32.757c0-6.645-5.406-12.052-12.052-12.052s-12.052,5.406-12.052,12.052
				c0,2.286,0.64,4.254,1.75,6.077c-1.002-1.741-1.578-3.756-1.578-5.905c0-6.55,5.329-11.879,11.879-11.879
				s11.879,5.329,11.879,11.879c0,2.149-0.576,4.164-1.578,5.905C41.426,37.012,42.066,35.044,42.066,32.757z"/>
			<g>
				<linearGradient id="SVGID_6_" gradientUnits="userSpaceOnUse" x1="30.0142" y1="54.1062" x2="30.0142" y2="22.1853">
					<stop  offset="0" style="stop-color:#EFA292"/>
					<stop  offset="1" style="stop-color:#A10000"/>
				</linearGradient>
				<path style="fill:url(#SVGID_6_);" d="M48.264,22.185c1.806,3.158,2.755,6.718,2.755,10.4c0,11.582-9.423,21.177-21.004,21.177
					c-1.913,0-3.809-0.258-5.641-0.768c0.144-0.624,0.217-1.091,0.217-1.729c0-4.652-3.785-8.436-8.436-8.436
					c-1.425,0-2.829,0.361-4.07,1.045C10.072,40.586,9.01,36.46,9.01,32.585c0-3.752,0.99-7.277,2.721-10.329
					C9.893,25.392,8.838,29.04,8.838,32.93c0,3.965,1.102,7.826,3.187,11.176c1.252-0.723,2.676-1.105,4.13-1.105
					c4.557,0,8.264,3.707,8.264,8.264c0,0.68-0.085,1.36-0.251,2.022c1.896,0.543,3.862,0.819,5.847,0.819
					c11.677,0,21.177-9.328,21.177-21.004C51.191,29.287,50.183,25.433,48.264,22.185z"/>
			</g>
		</g>
	</g>
</g>
</svg>
