<svg width="64" height="64" viewBox="0 0 64 64" fill="none" xmlns="http://www.w3.org/2000/svg">
<path opacity="0.2" d="M32 56C45.2548 56 56 45.2548 56 32C56 18.7452 45.2548 8 32 8C18.7452 8 8 18.7452 8 32C8 45.2548 18.7452 56 32 56Z" fill="white"/>
<path d="M43.2256 39.8897C43.2256 42.0897 41.7766 42.8207 40.0066 41.5157L30.3276 34.3757C28.5576 33.0697 28.5576 30.9327 30.3276 29.6267L40.0066 22.4867C41.7766 21.1807 43.2256 21.9127 43.2256 24.1127L43.2256 39.8897Z" fill="white"/>
<path d="M31.2256 39.8897C31.2256 42.0897 29.7766 42.8207 28.0066 41.5157L18.3276 34.3757C16.5576 33.0697 16.5576 30.9327 18.3276 29.6267L28.0066 22.4867C29.7766 21.1807 31.2256 21.9127 31.2256 24.1127L31.2256 39.8897Z" fill="white"/>
</svg>
