<?xml version="1.0" encoding="iso-8859-1"?>
<!-- Generator: Adobe Illustrator 17.0.1, SVG Export Plug-In . SVG Version: 6.00 Build 0)  -->
<!DOCTYPE svg PUBLIC "-//W3C//DTD SVG 1.1//EN" "http://www.w3.org/Graphics/SVG/1.1/DTD/svg11.dtd">
<svg version="1.1" id="Layer_1" xmlns="http://www.w3.org/2000/svg" xmlns:xlink="http://www.w3.org/1999/xlink" x="0px" y="0px"
	 width="32px" height="32px" viewBox="0 0 32 32" style="enable-background:new 0 0 32 32;" xml:space="preserve">
<g id="icon-s-service-memotoo">
	<g id="icon-s-service-memotoo_1_" style="opacity:0;">
		<rect style="fill:#FFFFFF;" width="32" height="32"/>
	</g>
	<rect style="fill:#37609E;" width="32" height="32"/>
	<g style="opacity:0.1;">
		<radialGradient id="SVGID_1_" cx="9.9043" cy="24" r="7.1119" gradientUnits="userSpaceOnUse">
			<stop  offset="0" style="stop-color:#FFFFFF;stop-opacity:0"/>
			<stop  offset="1" style="stop-color:#FFFFFF"/>
		</radialGradient>
		<polygon style="fill:url(#SVGID_1_);" points="3.809,32 9.309,32 16,16 16,16 		"/>
		<radialGradient id="SVGID_2_" cx="9.9043" cy="8" r="7.1119" gradientUnits="userSpaceOnUse">
			<stop  offset="0" style="stop-color:#FFFFFF;stop-opacity:0"/>
			<stop  offset="1" style="stop-color:#FFFFFF"/>
		</radialGradient>
		<polygon style="fill:url(#SVGID_2_);" points="3.809,0 16,16 9.309,0 		"/>
		<radialGradient id="SVGID_3_" cx="16.0001" cy="8" r="5.8399" gradientUnits="userSpaceOnUse">
			<stop  offset="0" style="stop-color:#FFFFFF;stop-opacity:0"/>
			<stop  offset="1" style="stop-color:#FFFFFF"/>
		</radialGradient>
		<polygon style="fill:url(#SVGID_3_);" points="13.949,0 16,16 18.052,0 		"/>
		<radialGradient id="SVGID_4_" cx="16.0001" cy="24" r="5.8399" gradientUnits="userSpaceOnUse">
			<stop  offset="0" style="stop-color:#FFFFFF;stop-opacity:0"/>
			<stop  offset="1" style="stop-color:#FFFFFF"/>
		</radialGradient>
		<polygon style="fill:url(#SVGID_4_);" points="18.052,32 16,16 13.949,32 		"/>
		<radialGradient id="SVGID_5_" cx="22.0958" cy="24" r="7.1119" gradientUnits="userSpaceOnUse">
			<stop  offset="0" style="stop-color:#FFFFFF;stop-opacity:0"/>
			<stop  offset="1" style="stop-color:#FFFFFF"/>
		</radialGradient>
		<polygon style="fill:url(#SVGID_5_);" points="28.192,32 16,16 22.691,32 		"/>
		<radialGradient id="SVGID_6_" cx="24" cy="9.9043" r="7.1119" gradientUnits="userSpaceOnUse">
			<stop  offset="0" style="stop-color:#FFFFFF;stop-opacity:0"/>
			<stop  offset="1" style="stop-color:#FFFFFF"/>
		</radialGradient>
		<polygon style="fill:url(#SVGID_6_);" points="32,3.809 16,16 32,9.309 		"/>
		<radialGradient id="SVGID_7_" cx="7.9999" cy="9.9042" r="7.1119" gradientUnits="userSpaceOnUse">
			<stop  offset="0" style="stop-color:#FFFFFF;stop-opacity:0"/>
			<stop  offset="1" style="stop-color:#FFFFFF"/>
		</radialGradient>
		<polygon style="fill:url(#SVGID_7_);" points="0,3.808 0,9.309 16,16 		"/>
		<radialGradient id="SVGID_8_" cx="7.9999" cy="22.0958" r="7.1119" gradientUnits="userSpaceOnUse">
			<stop  offset="0" style="stop-color:#FFFFFF;stop-opacity:0"/>
			<stop  offset="1" style="stop-color:#FFFFFF"/>
		</radialGradient>
		<polygon style="fill:url(#SVGID_8_);" points="0,28.191 16,16 0,22.691 		"/>
		<radialGradient id="SVGID_9_" cx="7.9999" cy="16" r="5.8398" gradientUnits="userSpaceOnUse">
			<stop  offset="0" style="stop-color:#FFFFFF;stop-opacity:0"/>
			<stop  offset="1" style="stop-color:#FFFFFF"/>
		</radialGradient>
		<polygon style="fill:url(#SVGID_9_);" points="0,18.051 16,16 0,13.948 		"/>
		<radialGradient id="SVGID_10_" cx="22.0958" cy="8" r="7.1119" gradientUnits="userSpaceOnUse">
			<stop  offset="0" style="stop-color:#FFFFFF;stop-opacity:0"/>
			<stop  offset="1" style="stop-color:#FFFFFF"/>
		</radialGradient>
		<polygon style="fill:url(#SVGID_10_);" points="22.691,0 16,16 28.191,0 		"/>
		<radialGradient id="SVGID_11_" cx="24" cy="21.07" r="7.5734" gradientUnits="userSpaceOnUse">
			<stop  offset="0" style="stop-color:#FFFFFF;stop-opacity:0"/>
			<stop  offset="1" style="stop-color:#FFFFFF"/>
		</radialGradient>
		<polygon style="fill:url(#SVGID_11_);" points="32,13.948 16,16 32,28.191 32,22.691 16,16 32,18.051 		"/>
	</g>
	<rect style="fill:none;" width="32" height="32"/>
	<g>
		<g>
			<linearGradient id="SVGID_12_" gradientUnits="userSpaceOnUse" x1="16.0395" y1="8.7398" x2="16.0395" y2="24.2351">
				<stop  offset="0" style="stop-color:#E0EDF6"/>
				<stop  offset="0.2928" style="stop-color:#DEECF6"/>
				<stop  offset="0.4447" style="stop-color:#D6E9F5"/>
				<stop  offset="0.5643" style="stop-color:#C9E4F3"/>
				<stop  offset="0.667" style="stop-color:#B5DDF0"/>
				<stop  offset="0.759" style="stop-color:#9DD3EC"/>
				<stop  offset="0.8431" style="stop-color:#7EC8E8"/>
				<stop  offset="0.9215" style="stop-color:#5ABAE3"/>
				<stop  offset="0.9932" style="stop-color:#31ABDD"/>
				<stop  offset="1" style="stop-color:#2DA9DC"/>
			</linearGradient>
			<path style="fill:url(#SVGID_12_);" d="M26.074,16.598c0.002-0.037,0.006-0.073,0.006-0.111c0-1.25-1.014-2.264-2.264-2.264
				c-0.109,0-0.215,0.01-0.32,0.025c-0.715-3.154-3.532-5.509-6.902-5.509c-2.587,0-4.848,1.388-6.083,3.459
				c-2.413,0.014-4.366,1.969-4.377,4.383c-1.903,0.225-3.393,1.853-3.393,3.813c0,2.112,1.729,3.84,3.843,3.84h18.911
				c2.114,0,3.843-1.728,3.843-3.84C29.338,18.479,27.916,16.879,26.074,16.598z"/>
			<path style="fill:#2DA9DC;" d="M25.495,24.354H6.584c-2.185,0-3.962-1.775-3.962-3.959c0-1.971,1.452-3.636,3.395-3.917
				c0.066-2.398,2.024-4.348,4.426-4.397c1.301-2.136,3.652-3.46,6.151-3.46c3.349,0,6.209,2.255,6.992,5.497
				c0.084-0.009,0.159-0.013,0.229-0.013c1.314,0,2.383,1.069,2.383,2.383c0,0.004,0,0.008,0,0.011
				c1.865,0.338,3.259,1.994,3.259,3.896C29.457,22.578,27.68,24.354,25.495,24.354z M16.594,8.858c-2.438,0-4.73,1.303-5.982,3.401
				l-0.034,0.058l-0.067,0c-2.337,0.014-4.248,1.927-4.259,4.265l0,0.105L6.147,16.7c-1.874,0.221-3.288,1.81-3.288,3.695
				c0,2.053,1.671,3.723,3.725,3.723h18.911c2.054,0,3.726-1.67,3.726-3.723c0-1.822-1.36-3.404-3.164-3.679l-0.106-0.016
				l0.008-0.146c0.002-0.022,0.004-0.044,0.004-0.066c0-1.183-0.963-2.146-2.146-2.146c-0.09,0-0.184,0.007-0.304,0.024
				l-0.108,0.015l-0.023-0.106C22.657,11.085,19.867,8.858,16.594,8.858z"/>
		</g>
		<radialGradient id="SVGID_13_" cx="11.9128" cy="-3.6306" r="26.3017" gradientUnits="userSpaceOnUse">
			<stop  offset="0.5591" style="stop-color:#FFFFFF"/>
			<stop  offset="0.8652" style="stop-color:#FFFFFF;stop-opacity:0.1243"/>
			<stop  offset="0.9086" style="stop-color:#FFFFFF;stop-opacity:0"/>
		</radialGradient>
		<path style="fill:url(#SVGID_13_);" d="M6.584,23.203c-1.55,0-2.811-1.26-2.811-2.809c0-1.422,1.067-2.621,2.482-2.788
			l0.907-0.107l0.004-0.913c0.008-1.84,1.512-3.345,3.351-3.356l0.582-0.003l0.298-0.5c1.087-1.823,3.079-2.956,5.197-2.956
			c2.844,0,5.316,2.673,5.896,4.705c0.151,0.53,0.237,0.97,0.237,0.97s0.544-0.191,1.089-0.191c0.676,0,1.232,0.591,1.232,1.222
			s-0.21,1.147-0.21,1.147l1.081-0.006c1.361,0.208,2.388,1.401,2.388,2.776c0,1.549-1.261,2.809-2.812,2.809H6.584z"/>
		<polygon style="fill:#1D456D;" points="5.456,21.98 5.741,19.678 6.493,21.98 6.763,21.98 7.575,19.736 7.852,21.976 8.53,21.98 
			8.071,18.656 7.29,18.656 6.658,20.691 6.009,18.656 5.211,18.656 4.76,21.98 		"/>
		<path style="fill:#1D456D;" d="M10.389,21.29c-0.108,0.133-0.248,0.22-0.425,0.22c-0.268,0-0.453-0.167-0.526-0.43h1.067
			c-0.001,0.003,0.065-0.006,0.064-0.003h0.481c0.011-0.067,0.018-0.135,0.018-0.205c0-0.636-0.495-1.153-1.104-1.153
			c-0.609,0-1.104,0.517-1.104,1.153c0,0.636,0.495,1.153,1.104,1.153c0.379,0,0.778-0.252,0.977-0.557L10.389,21.29z M9.964,20.235
			c0.255,0,0.429,0.175,0.513,0.419H9.443C9.526,20.41,9.709,20.235,9.964,20.235z"/>
		<path style="fill:#1D456D;" d="M12.209,21.971v-1.252c0-0.221,0.181-0.401,0.401-0.401c0.221,0,0.401,0.181,0.401,0.401v1.252
			h0.604v-1.344c0.042-0.176,0.201-0.309,0.389-0.309c0.221,0,0.401,0.181,0.401,0.401v1.252h0.604v-1.465
			c0-0.387-0.317-0.703-0.703-0.703c-0.358,0-0.656,0.258-0.697,0.502c-0.035-0.254-0.34-0.502-0.697-0.502
			c-0.387,0-0.703,0.306-0.703,0.589v-0.57h-0.63v2.149H12.209z"/>
		<polygon style="fill:#1D456D;" points="22.45,19.822 22.125,19.822 22.125,19 21.485,19 21.485,19.822 21.17,19.822 21.17,20.357 
			21.485,20.357 21.485,21.98 22.125,21.98 22.125,20.357 22.45,20.357 		"/>
		<path style="fill:#1D456D;" d="M23.854,19.726c-0.633,0-1.146,0.513-1.146,1.146c0,0.633,0.513,1.146,1.146,1.146
			c0.633,0,1.146-0.513,1.146-1.146C25,20.239,24.487,19.726,23.854,19.726z M23.844,21.426c-0.306,0-0.554-0.248-0.554-0.554
			c0-0.306,0.248-0.554,0.554-0.554s0.554,0.248,0.554,0.554C24.399,21.178,24.15,21.426,23.844,21.426z"/>
		<path style="fill:#1D456D;" d="M26.672,19.726c-0.633,0-1.146,0.513-1.146,1.146c0,0.633,0.513,1.146,1.146,1.146
			c0.633,0,1.146-0.513,1.146-1.146C27.819,20.239,27.305,19.726,26.672,19.726z M26.663,21.426c-0.306,0-0.554-0.248-0.554-0.554
			c0-0.306,0.248-0.554,0.554-0.554s0.554,0.248,0.554,0.554C27.217,21.178,26.969,21.426,26.663,21.426z"/>
		<path style="fill:#FFFFFF;" d="M19.595,19.029l-1.148-1.148v0.592c-0.708-0.141-1.472,0.062-2.02,0.609
			c-0.872,0.872-0.872,2.29,0,3.161l0.73-0.73c-0.469-0.469-0.469-1.233,0-1.702c0.348-0.348,0.859-0.438,1.291-0.269v0.635
			L19.595,19.029z"/>
		<path style="fill:#FFFFFF;" d="M16.869,22.659l1.148,1.148v-0.592c0.708,0.141,1.472-0.062,2.02-0.609
			c0.872-0.872,0.872-2.29,0-3.161l-0.73,0.73c0.469,0.469,0.469,1.233,0,1.702c-0.348,0.348-0.859,0.438-1.291,0.269V21.51
			L16.869,22.659z"/>
	</g>
</g>
</svg>
