<?xml version="1.0" encoding="iso-8859-1"?>
<!-- Generator: Adobe Illustrator 19.1.0, SVG Export Plug-In . SVG Version: 6.00 Build 0)  -->
<svg version="1.1" id="Layer_1" xmlns="http://www.w3.org/2000/svg" xmlns:xlink="http://www.w3.org/1999/xlink" x="0px" y="0px"
	 viewBox="0 0 64 64" style="enable-background:new 0 0 64 64;" xml:space="preserve">
<g id="icon-m-file-apk">
	<rect id="icon-m-file-apk_1_" style="opacity:0;fill:#FFFFFF;" width="64" height="64"/>
	<path style="fill:#FFFFFF;" d="M31.833,56.61c-0.884,0-1.768-0.228-2.556-0.683l-16.887-9.75c-1.577-0.91-2.556-2.606-2.556-4.428
		v-19.5c0-1.821,0.979-3.518,2.556-4.428l16.887-9.75c1.576-0.911,3.537-0.911,5.113,0l16.888,9.75
		c1.576,0.91,2.556,2.606,2.556,4.428v19.5c0,1.821-0.979,3.518-2.556,4.428l-16.888,9.75C33.602,56.383,32.717,56.61,31.833,56.61z
		 M31.833,9.389c-0.538,0-1.076,0.139-1.556,0.416l-16.887,9.75c-0.96,0.554-1.556,1.586-1.556,2.695v19.5
		c0,1.108,0.596,2.142,1.556,2.695l16.887,9.75c0.961,0.556,2.153,0.555,3.113,0l16.888-9.75c0.96-0.554,1.556-1.587,1.556-2.695
		v-19.5c0-1.109-0.596-2.142-1.556-2.695L33.39,9.805C32.91,9.527,32.372,9.389,31.833,9.389z"/>
	<g>
		<path style="fill:#FFFFFF;" d="M35,47.75c-1.189,0-1.792-0.731-1.792-2.173v-3.911H30.75v3.911c0,0.537,0,2.173-1.75,2.173
			s-1.75-1.636-1.75-2.173v-3.959c-1.625-0.045-3-0.378-3-2.896V26.25h15.5v12.473c0,2.367-1.646,2.78-3,2.867v3.987
			C36.75,46.114,36.75,47.75,35,47.75z M34.793,46.224c0.002,0,0.058,0.026,0.207,0.026c0.146,0,0.194-0.025,0.194-0.025
			c0.01-0.023,0.056-0.163,0.056-0.647V40.13l0.735-0.014c2.089-0.039,2.265-0.373,2.265-1.394V27.75h-12.5v10.973
			c0,1.335,0.105,1.4,2.251,1.403l0.749,0.001v5.45c0,0.467,0.042,0.613,0.07,0.659c0.009-0.012,0.061,0.014,0.18,0.014
			c0.146,0,0.194-0.025,0.195-0.025c0.009-0.023,0.055-0.163,0.055-0.647v-5.411h5.458v5.411
			C34.708,46.093,34.778,46.205,34.793,46.224L34.793,46.224z"/>
		<path style="fill:#FFFFFF;" d="M23,38.897c-1.517,0-2.75-1.233-2.75-2.749v-6.999c0-1.516,1.233-2.75,2.75-2.75
			s2.75,1.233,2.75,2.75v6.999C25.75,37.664,24.517,38.897,23,38.897z M23,27.9c-0.689,0-1.25,0.561-1.25,1.25v6.999
			c0,0.688,0.561,1.249,1.25,1.249s1.25-0.561,1.25-1.249v-6.999C24.25,28.46,23.689,27.9,23,27.9z"/>
		<path style="fill:#FFFFFF;" d="M39.75,27.75h-15.5V27c0-2.263,1.027-4.27,2.909-5.72l-0.849-1.429
			c-0.481-1.06-0.286-2.027,0.436-2.429c0.333-0.187,0.719-0.224,1.084-0.103c0.457,0.151,0.853,0.537,1.086,1.058l0.818,1.51
			c0.751-0.256,1.593-0.354,2.225-0.354c0.17,0,1.378,0.012,2.351,0.338l0.827-1.484c0.204-0.461,0.547-0.807,0.962-0.944
			c0.246-0.081,0.629-0.126,1.069,0.119c0.744,0.414,0.972,1.303,0.565,2.211l-0.893,1.505c1.882,1.45,2.909,3.457,2.909,5.72V27.75
			z M25.797,26.25h12.406c-0.268-2.076-1.617-3.38-2.77-4.13l-0.483-0.315l-0.086,0.154l-0.686-0.506
			c-0.308-0.227-1.325-0.419-2.22-0.419c-0.804,0-1.686,0.189-2.194,0.47l-0.663,0.367l-0.04-0.074l-0.496,0.323
			C27.414,22.87,26.064,24.174,25.797,26.25z"/>
		<path style="fill:#FFFFFF;" d="M41,38.897c-1.517,0-2.75-1.233-2.75-2.749v-6.999c0-1.516,1.233-2.75,2.75-2.75
			s2.75,1.233,2.75,2.75v6.999C43.75,37.664,42.517,38.897,41,38.897z M41,27.9c-0.689,0-1.25,0.561-1.25,1.25v6.999
			c0,0.688,0.561,1.249,1.25,1.249s1.25-0.561,1.25-1.249v-6.999C42.25,28.46,41.689,27.9,41,27.9z"/>
		<ellipse style="fill:#FFFFFF;" cx="29" cy="24.394" rx="0.636" ry="0.606"/>
		<ellipse style="fill:#FFFFFF;" cx="35" cy="24.394" rx="0.636" ry="0.606"/>
	</g>
	<path style="opacity:0.2;fill:#FFFFFF;" d="M31.971,33.66L11.779,22.098c-0.479-0.274-0.645-0.885-0.371-1.365
		c0.274-0.479,0.886-0.645,1.365-0.371L31.946,31.34l18.481-11.133c0.471-0.285,1.087-0.133,1.372,0.34s0.133,1.088-0.341,1.373
		L31.971,33.66z"/>
</g>
</svg>
