<svg width="96" height="96" viewBox="0 0 96 96" fill="none" xmlns="http://www.w3.org/2000/svg">
<path opacity="0.5" d="M59.1707 13.5447C59.9195 12.7328 59.923 11.4691 59.1419 10.688L49.365 0.911133C23.9863 26.2899 24.2896 67.7401 50.0425 93.493L59.6568 83.8787C60.4378 83.0977 60.4346 81.8339 59.6844 81.0233C55.8649 76.8965 52.858 72.2932 50.6653 67.4212C50.3367 66.691 49.62 66.2066 48.8193 66.2008L43.8372 66.1643C42.5754 66.155 41.4468 65.3591 41.0679 64.1555C37.4423 52.6386 37.4862 40.2591 41.2133 28.8635C41.6064 27.6617 42.7485 26.8792 44.013 26.8884L49.0801 26.9256C49.8785 26.9314 50.6005 26.4602 50.9416 25.7383C53.0048 21.3733 55.7474 17.2563 59.1707 13.5447Z" fill="white"/>
<mask id="mask0" mask-type="alpha" maskUnits="userSpaceOnUse" x="0" y="0" width="97" height="96">
<path d="M48.1433 0.416016L96.0001 48.2728L48.8386 95.4343L0.981834 47.5775L48.1433 0.416016Z" fill="#C4C4C4"/>
</mask>
<g mask="url(#mask0)">
<path d="M142.796 95.0693C117.35 120.515 75.7587 120.233 49.8992 94.374C24.0397 68.5145 23.7577 26.9232 49.2039 1.47702C74.6501 -23.9692 116.241 -23.6871 142.101 2.17234C167.96 28.0318 168.242 69.6231 142.796 95.0693Z" stroke="white" stroke-width="3"/>
</g>
</svg>