<svg width="64" height="64" viewBox="0 0 64 64" fill="none" xmlns="http://www.w3.org/2000/svg">
<g clip-path="url(#clip0)">
<path d="M28 11.952C28 11.4262 27.5738 11 27.048 11H16.5C13.769 11 11.548 13.221 11.548 15.952V27.048C11.548 27.5738 11.9742 28 12.5 28C13.0257 28 13.452 27.5738 13.452 27.048V15.952C13.452 14.271 14.819 12.904 16.5 12.904H27.048C27.5738 12.904 28 12.4778 28 11.952Z" fill="white"/>
<path d="M28 51.952C28 51.4262 27.5738 51 27.048 51H16.5C14.819 51 13.452 49.633 13.452 47.952V36.952C13.452 36.4262 13.0257 36 12.5 36C11.9742 36 11.548 36.4262 11.548 36.952V47.952C11.548 50.682 13.769 52.904 16.5 52.904H27.048C27.5738 52.904 28 52.4778 28 51.952Z" fill="white"/>
<path d="M36.952 52.904C36.4262 52.904 36 52.4778 36 51.952C36 51.4262 36.4262 51 36.952 51H48.5C50.181 51 51.548 49.633 51.548 47.952V36.952C51.548 36.4262 51.9742 36 52.5 36C53.0257 36 53.452 36.4262 53.452 36.952V47.952C53.452 50.682 51.23 52.904 48.5 52.904H36.952Z" fill="white"/>
<path d="M36.952 12.904C36.4262 12.904 36 12.4778 36 11.952C36 11.4262 36.4262 11 36.952 11H48.5C51.23 11 53.452 13.221 53.452 15.952V27.048C53.452 27.5738 53.0257 28 52.5 28C51.9742 28 51.548 27.5738 51.548 27.048V15.952C51.548 14.271 50.181 12.904 48.5 12.904H36.952Z" fill="white"/>
<path d="M57.8407 33H6.15926C5.51854 33 5 32.5527 5 32C5 31.4473 5.51854 31 6.15926 31H57.8407C58.4815 31 59 31.4473 59 32C59 32.5527 58.4815 33 57.8407 33Z" fill="white"/>
</g>
<defs>
<clipPath id="clip0">
<path d="M0 0H64V64H0V0Z" fill="white"/>
</clipPath>
</defs>
</svg>
