<?xml version="1.0" encoding="iso-8859-1"?>
<!-- Generator: Adobe Illustrator 19.1.0, SVG Export Plug-In . SVG Version: 6.00 Build 0)  -->
<svg version="1.1" id="Layer_1" xmlns="http://www.w3.org/2000/svg" xmlns:xlink="http://www.w3.org/1999/xlink" x="0px" y="0px"
	 viewBox="0 0 32 32" style="enable-background:new 0 0 32 32;" xml:space="preserve">
<g id="icon-s-service-vk_1_">
	<rect id="icon-s-service-vk" style="opacity:0;fill:#FFFFFF;" width="32" height="32"/>
	<rect style="fill:#4D75A3;" width="32" height="32"/>
	<g>
		<linearGradient id="SVGID_1_" gradientUnits="userSpaceOnUse" x1="16" y1="23.1847" x2="16" y2="8.8153">
			<stop  offset="0" style="stop-color:#000000"/>
			<stop  offset="1" style="stop-color:#000000"/>
		</linearGradient>
		<path style="opacity:0.1;fill-rule:evenodd;clip-rule:evenodd;fill:url(#SVGID_1_);" d="M23.477,23.185
			c-0.012,0-0.023-0.001-0.035-0.003c-1.277-0.209-2.139-1.076-2.912-1.946c-0.079-0.088-0.165-0.198-0.259-0.316
			c-0.329-0.416-0.779-0.986-1.226-0.986c-0.028,0-0.056,0.002-0.085,0.007c-0.451,0.073-0.514,0.562-0.565,1.36
			c-0.029,0.457-0.06,0.93-0.25,1.265c-0.227,0.399-0.8,0.592-1.752,0.592c-0.471,0-0.972-0.047-1.356-0.088
			c-3.421-0.363-5.123-2.206-6.573-4.062c-1.434-1.836-2.688-3.89-3.948-6.464c-0.047-0.097-0.097-0.196-0.148-0.296
			c-0.341-0.677-0.727-1.444-0.727-2.3c0-0.064,0.029-0.125,0.079-0.166c0.386-0.315,0.907-0.357,1.366-0.357
			c0.165,0,0.337,0.006,0.511,0.012C5.772,9.443,5.951,9.449,6.13,9.449c0.186,0,0.402-0.011,0.63-0.022
			c0.256-0.013,0.52-0.026,0.777-0.026c0.527,0,0.888,0.059,1.135,0.185c0.304,0.155,0.544,0.655,0.85,1.346
			c0.054,0.122,0.106,0.24,0.156,0.347c0.556,1.186,1.077,2.086,1.859,3.211c0.039,0.056,0.08,0.117,0.123,0.182
			c0.248,0.371,0.622,0.931,0.963,0.931c0.02,0,0.041-0.002,0.061-0.006c0.397-0.08,0.44-1.622,0.454-2.129
			c0.047-1.687-0.115-2.357-0.259-2.623c-0.143-0.263-0.361-0.352-0.664-0.475c-0.155-0.063-0.332-0.135-0.509-0.24
			c-0.096-0.057-0.132-0.179-0.082-0.278c0.473-0.95,1.732-1.028,3.092-1.028c0.14,0,0.286-0.002,0.437-0.004
			c0.16-0.002,0.325-0.004,0.491-0.004c1.041,0,2.057,0.089,2.441,0.738c0.37,0.625,0.286,1.551,0.204,2.447
			c-0.028,0.303-0.054,0.589-0.061,0.853c-0.005,0.172-0.013,0.345-0.022,0.516c-0.044,0.896-0.085,1.744,0.431,2.154
			c0.386-0.081,0.644-0.438,0.917-0.816c0.056-0.077,0.111-0.154,0.167-0.227c0.808-1.059,1.291-1.976,1.852-3.201
			c0.054-0.118,0.109-0.254,0.166-0.396c0.225-0.561,0.481-1.198,0.92-1.364c0.263-0.1,0.593-0.146,1.036-0.146
			c0.284,0,0.579,0.018,0.89,0.037c0.309,0.019,0.63,0.038,0.936,0.038c0.167,0,0.365-0.01,0.575-0.02
			c0.244-0.012,0.495-0.025,0.743-0.025c0.558,0,1.224,0.058,1.434,0.509c0.294,0.632-0.541,2.034-0.637,2.192
			c-0.533,0.874-1.052,1.521-1.603,2.205c-0.24,0.299-0.489,0.608-0.741,0.941c-0.054,0.071-0.118,0.15-0.186,0.234
			c-0.324,0.399-0.767,0.946-0.738,1.445c0.021,0.372,0.384,0.699,0.735,1.015c0.056,0.05,0.111,0.1,0.164,0.149
			c0.847,0.786,1.504,1.415,2.241,2.357c0.471,0.601,0.899,1.223,0.84,1.693c-0.126,1.009-1.519,1.009-2.114,1.009
			c-0.318,0-0.647-0.014-0.966-0.028c-0.301-0.013-0.586-0.025-0.846-0.025c-0.36,0-0.606,0.024-0.774,0.075
			c-0.02,0.006-0.041,0.009-0.062,0.009H23.477z"/>
		<path style="fill-rule:evenodd;clip-rule:evenodd;fill:#F2F2F2;" d="M23.591,22.971c-0.038,0-0.076,0-0.114,0
			c-1.232-0.202-2.071-1.072-2.787-1.877c-0.405-0.455-1.024-1.484-1.763-1.365c-1.05,0.169-0.529,1.962-0.967,2.73
			c-0.354,0.621-1.862,0.508-2.901,0.398c-3.281-0.348-4.957-2.099-6.427-3.981c-1.571-2.011-2.794-4.116-3.924-6.427
			c-0.366-0.748-0.853-1.576-0.853-2.503C4.387,9.513,5.255,9.662,6.13,9.662c0.743,0,1.902-0.163,2.446,0.114
			c0.323,0.164,0.649,1.036,0.91,1.593c0.599,1.277,1.15,2.196,1.877,3.242c0.315,0.453,0.798,1.308,1.365,1.194
			c0.55-0.11,0.602-1.465,0.626-2.332c0.027-0.984-0.001-2.207-0.284-2.73c-0.267-0.493-0.756-0.502-1.251-0.796
			c0.412-0.828,1.54-0.91,2.901-0.91c1.143,0,2.739-0.127,3.185,0.626c0.454,0.766,0.143,2.149,0.114,3.185
			c-0.032,1.164-0.233,2.366,0.569,2.901c0.618-0.067,0.95-0.668,1.308-1.138c0.784-1.028,1.27-1.918,1.877-3.242
			c0.249-0.544,0.516-1.479,0.967-1.649c0.686-0.26,1.781-0.057,2.787-0.057c0.823,0,2.295-0.227,2.559,0.341
			c0.219,0.472-0.426,1.663-0.626,1.991c-0.761,1.249-1.509,2.044-2.332,3.128c-0.329,0.433-1.007,1.127-0.967,1.82
			c0.03,0.527,0.559,0.93,0.967,1.308c0.883,0.82,1.502,1.418,2.218,2.332c0.27,0.344,0.852,1.09,0.796,1.536
			C27.968,23.507,24.694,22.637,23.591,22.971z"/>
	</g>
</g>
</svg>
