<?xml version="1.0" encoding="iso-8859-1"?>
<!-- Generator: Adobe Illustrator 17.0.1, SVG Export Plug-In . SVG Version: 6.00 Build 0)  -->
<!DOCTYPE svg PUBLIC "-//W3C//DTD SVG 1.1//EN" "http://www.w3.org/Graphics/SVG/1.1/DTD/svg11.dtd">
<svg version="1.1" id="Layer_1" xmlns="http://www.w3.org/2000/svg" xmlns:xlink="http://www.w3.org/1999/xlink" x="0px" y="0px"
	 width="64px" height="64px" viewBox="0 0 64 64" style="enable-background:new 0 0 64 64;" xml:space="preserve">
<g id="icon-m-service-exchange">
	<g id="icon-m-service-exchange_1_" style="opacity:0;">
		<rect style="fill:#FFFFFF;" width="64" height="64"/>
	</g>
	<g>
		<rect style="fill:#FFA015;" width="64" height="64"/>
		<path style="fill-rule:evenodd;clip-rule:evenodd;fill:#FCFCFC;" d="M28.976,34.572c-1.296,1.563-2.485,0.494-3.518-0.012
			c-4.372-2.144-8.022-5.281-11.498-8.637c-0.686-0.662-0.919-1.443-0.906-2.385c0.035-2.653,0.085-5.31-0.013-7.961
			c-0.071-1.927,0.74-2.648,2.613-2.597c2.751,0.075,5.504-0.011,8.256,0.031c1.337,0.021,5.425,3.5,5.589,4.72
			c0.113,0.838-0.416,1.505-0.877,2.112c-0.61,0.804-1.278,0.237-1.756-0.199c-2.185-1.994-4.842-1.086-7.321-1.257
			c-0.488-0.034-1.147,0.052-1.113,0.65c0.137,2.466-0.926,5.065,1.01,7.34C22.188,29.605,25.152,32.555,28.976,34.572z"/>
		<path style="fill-rule:evenodd;clip-rule:evenodd;fill:#FCFCFC;" d="M29.376,29.14c-0.954-1.639-0.283-2.775,0.261-3.852
			c2.151-4.252,5.166-7.875,8.398-11.333c0.572-0.611,1.221-0.934,2.069-0.931c2.852,0.01,5.705,0.011,8.556-0.025
			c1.656-0.021,2.248,0.805,2.22,2.38c-0.049,2.852,0.014,5.705-0.023,8.557c-0.018,1.376-3.4,5.436-4.651,5.638
			c-0.854,0.138-1.52-0.392-2.123-0.855c-0.792-0.607-0.229-1.29,0.203-1.771c1.967-2.189,1.136-4.84,1.281-7.328
			c0.036-0.614-0.084-1.28-0.865-1.255c-2.66,0.088-5.4-0.758-7.746,1.606C34.211,22.735,31.526,25.514,29.376,29.14z"/>
		<path style="fill-rule:evenodd;clip-rule:evenodd;fill:#FCFCFC;" d="M34.726,35.929c-0.685,4.029-3.503,6.873-5.454,10.214
			c-3.54,6.062-9.198,4.807-14.576,4.704c-1.381-0.027-1.387-1.189-1.398-2.172c-0.031-2.755-0.045-5.512,0-8.267
			c0.023-1.393,3.206-5.217,4.444-5.472c0.771-0.159,1.345,0.32,1.874,0.7c0.703,0.506,0.106,1.061-0.198,1.504
			c-0.732,1.064-1.28,2.55-1.317,3.942c-0.048,1.853-0.531,4.657,0.968,4.798c2.587,0.244,5.58,1.101,7.993-1.39
			C29.722,41.746,32.491,39.124,34.726,35.929z"/>
		<path style="fill-rule:evenodd;clip-rule:evenodd;fill:#FCFCFC;" d="M35.694,29.819c1.569-0.469,2.663-0.116,3.685,0.549
			c1.396,0.908,2.812,1.789,4.163,2.759c7.115,5.104,8.014,7.165,7.149,15.705c-0.146,1.443-0.675,2.12-2.168,2.095
			c-2.844-0.049-5.693,0.091-8.531-0.042c-2.738-0.129-3.671-2.623-5.088-4.388c-0.446-0.556,0.178-1.312,0.592-1.841
			c0.522-0.668,1.098-0.206,1.496,0.16c2.166,1.991,4.816,1.16,7.294,1.307c0.693,0.041,1.558,0.019,1.556-0.907
			c-0.005-2.577,0.935-5.328-1.163-7.581c-1.335-1.433-2.664-2.875-4.062-4.247C39.229,32.028,37.735,30.783,35.694,29.819z"/>
	</g>
</g>
</svg>
