<?xml version="1.0" encoding="iso-8859-1"?>
<!-- Generator: Adobe Illustrator 17.0.1, SVG Export Plug-In . SVG Version: 6.00 Build 0)  -->
<!DOCTYPE svg PUBLIC "-//W3C//DTD SVG 1.1//EN" "http://www.w3.org/Graphics/SVG/1.1/DTD/svg11.dtd">
<svg version="1.1" id="Layer_1" xmlns="http://www.w3.org/2000/svg" xmlns:xlink="http://www.w3.org/1999/xlink" x="0px" y="0px"
	 width="64px" height="64px" viewBox="0 0 64 64" style="enable-background:new 0 0 64 64;" xml:space="preserve">
<g id="icon-m-crash-reporter">
	<rect id="icon-m-crash-reporter_1_" style="opacity:0;fill:#FFFFFF;" width="64" height="64"/>
	<g>
		<g>
			<g>
				<path style="fill:#FFFFFF;" d="M32.039,51.502c-5.932,0-14.055,0-15.569-6.936l-0.249-1.14l1.164-0.071
					c1.579-0.098,2.816-1.405,2.816-2.978c0-1.339-0.911-2.522-2.214-2.878l-1.078-0.294l0.412-1.039
					c2.409-6.083,8.186-10.015,14.718-10.015c6.531,0,12.308,3.931,14.717,10.015l0.411,1.039L46.089,37.5
					c-1.304,0.355-2.214,1.539-2.214,2.878c0,1.572,1.237,2.88,2.816,2.978l1.164,0.071l-0.249,1.141
					C46.092,51.502,37.97,51.502,32.039,51.502z M18.715,45.127c1.398,3.669,5.709,4.375,13.324,4.375
					c7.613,0,11.924-0.706,13.323-4.375c-2.029-0.644-3.487-2.54-3.487-4.749c0-1.852,1.037-3.524,2.625-4.382
					c-2.298-4.796-7.087-7.844-12.461-7.844c-5.375,0-10.165,3.047-12.462,7.844c1.587,0.858,2.625,2.53,2.625,4.382
					C22.202,42.587,20.744,44.483,18.715,45.127z"/>
				<path style="fill:#FFFFFF;" d="M17.202,45.378c-2.757,0-5-2.243-5-5s2.243-5,5-5c0.413,0,0.83,0.062,1.312,0.192l-0.525,1.93
					c-0.306-0.083-0.556-0.122-0.786-0.122c-1.654,0-3,1.346-3,3s1.346,3,3,3c0.064-0.012,0.119-0.018,0.175-0.021l0.141,1.994
					C17.39,45.368,17.298,45.378,17.202,45.378z"/>
				<path style="fill:#FFFFFF;" d="M17.446,45.354c-0.524,0-0.964-0.408-0.997-0.938c-0.034-0.551,0.385-1.025,0.937-1.06
					c1.579-0.098,2.816-1.405,2.816-2.978c0-1.339-0.911-2.522-2.214-2.878c-0.533-0.146-0.847-0.695-0.702-1.229
					c0.146-0.532,0.697-0.849,1.228-0.701c2.171,0.593,3.688,2.569,3.688,4.808c0,2.627-2.062,4.812-4.693,4.974
					C17.488,45.353,17.467,45.354,17.446,45.354z"/>
				<path style="fill:#FFFFFF;" d="M46.875,45.378c-0.096,0-0.188-0.01-0.28-0.022l0.105-1.999c0.056,0.004,0.11,0.01,0.165,0.018
					c0.002,0,0.005,0,0.007,0c1.661,0,3.003-1.344,3.003-2.996c0-1.654-1.346-3-3-3c-0.231,0-0.481,0.039-0.785,0.122l-0.527-1.93
					c0.48-0.131,0.898-0.192,1.313-0.192c2.757,0,5,2.243,5,5S49.632,45.378,46.875,45.378z"/>
				<path style="fill:#FFFFFF;" d="M46.631,45.354c-0.021,0-0.042-0.001-0.063-0.002c-2.632-0.162-4.693-2.347-4.693-4.974
					c0-2.238,1.517-4.215,3.688-4.808c0.527-0.146,1.082,0.168,1.228,0.702c0.146,0.532-0.169,1.082-0.702,1.228
					c-1.304,0.355-2.214,1.539-2.214,2.878c0,1.572,1.237,2.88,2.816,2.978c0.551,0.034,0.971,0.508,0.937,1.06
					C47.596,44.945,47.155,45.354,46.631,45.354z"/>
			</g>
			<g style="opacity:0.5;">
				<path style="fill:#FFFFFF;" d="M18.845,48.179c-0.041,0-0.082-0.002-0.123-0.008c-5.477-0.67-11.763-2.738-11.763-12.857
					c0-13.817,11.24-25.058,25.057-25.058s25.057,11.241,25.057,25.058c0,10.101-6.258,12.174-11.709,12.851
					c-0.551,0.076-1.048-0.321-1.115-0.869c-0.068-0.548,0.321-1.047,0.869-1.115c5.976-0.742,9.955-2.874,9.955-10.866
					c0-12.714-10.343-23.058-23.057-23.058c-12.713,0-23.057,10.344-23.057,23.058c0,8.007,4,10.137,10.006,10.873
					c0.548,0.066,0.938,0.565,0.871,1.113C19.774,47.808,19.343,48.179,18.845,48.179z"/>
				<path style="opacity:0.6;fill:#FFFFFF;" d="M32.016,27.25c-0.552,0-1-0.448-1-1V11.256c0-0.552,0.448-1,1-1s1,0.448,1,1V26.25
					C33.016,26.802,32.568,27.25,32.016,27.25z"/>
				<g>
					<path style="fill:#FFFFFF;" d="M8.39,52.813c-0.379,0-0.742-0.217-0.91-0.584c-0.23-0.502-0.009-1.096,0.493-1.325
						c2.811-1.286,4.732-2.853,5.872-4.786c0.281-0.476,0.893-0.633,1.369-0.354c0.476,0.28,0.634,0.894,0.354,1.369
						c-1.355,2.299-3.567,4.127-6.763,5.589C8.671,52.784,8.529,52.813,8.39,52.813z"/>
					<path style="fill:#FFFFFF;" d="M20.517,56.424c-0.264,0-0.527-0.104-0.723-0.31c-0.381-0.399-0.367-1.032,0.033-1.414
						c1.574-1.502,2.691-3.129,3.417-4.973c0.203-0.514,0.782-0.766,1.297-0.564c0.514,0.202,0.767,0.783,0.564,1.297
						c-0.834,2.119-2.109,3.979-3.897,5.688C21.014,56.332,20.766,56.424,20.517,56.424z"/>
					<path style="fill:#FFFFFF;" d="M44.5,56.424c-0.248,0-0.497-0.092-0.69-0.276c-1.789-1.709-3.064-3.569-3.897-5.688
						c-0.202-0.515,0.051-1.095,0.564-1.297c0.512-0.2,1.094,0.051,1.297,0.564c0.725,1.843,1.843,3.47,3.417,4.973
						c0.399,0.382,0.414,1.015,0.033,1.414C45.026,56.32,44.764,56.424,44.5,56.424z"/>
					<path style="fill:#FFFFFF;" d="M56.626,52.813c-0.139,0-0.28-0.029-0.415-0.091c-3.195-1.462-5.407-3.29-6.763-5.589
						c-0.28-0.476-0.122-1.089,0.354-1.369c0.474-0.279,1.088-0.122,1.369,0.354c1.141,1.934,3.062,3.5,5.872,4.786
						c0.502,0.229,0.723,0.823,0.493,1.325C57.368,52.597,57.006,52.813,56.626,52.813z"/>
				</g>
			</g>
		</g>
	</g>
</g>
</svg>
