<?xml version="1.0" encoding="iso-8859-1"?>
<!-- Generator: Adobe Illustrator 22.1.0, SVG Export Plug-In . SVG Version: 6.00 Build 0)  -->
<svg version="1.1" id="Layer_1" xmlns="http://www.w3.org/2000/svg" xmlns:xlink="http://www.w3.org/1999/xlink" x="0px" y="0px"	 width="32" height="32" viewBox="0 0 32 32" style="enable-background:new 0 0 32 32;" xml:space="preserve">
<g id="icon-s-filled-warning">
	<rect id="icon-s-filled-warning_1_" x="3.512" y="3.288" style="opacity:0;fill:#FFFFFF;" width="25.832" height="25.424"/>
	<path style="fill:#FFFFFF;" d="M29.074,25.091L17.577,5.493c-0.632-1.078-1.667-1.078-2.299,0L3.782,25.091
		c-0.632,1.078-0.115,1.96,1.15,1.96h22.992C29.189,27.051,29.706,26.169,29.074,25.091z M15.905,10.648h1.045
		c0.566,0,1.01,0.455,0.99,1.011l-0.028,0.72c-0.021,0.556-0.07,1.465-0.108,2.02l-0.3,4.293c-0.038,0.555-0.522,1.009-1.076,1.009
		c-0.553,0-1.038-0.454-1.076-1.009l-0.299-4.293c-0.039-0.555-0.088-1.464-0.109-2.02l-0.028-0.72
		C14.895,11.103,15.34,10.648,15.905,10.648z M17.66,24.304c-0.331,0.323-0.74,0.487-1.232,0.487c-0.491,0-0.901-0.164-1.231-0.487
		c-0.33-0.324-0.494-0.73-0.494-1.219c0-0.478,0.164-0.878,0.494-1.202c0.33-0.326,0.74-0.487,1.231-0.487
		c0.491,0,0.901,0.161,1.232,0.487c0.328,0.324,0.492,0.724,0.492,1.202C18.152,23.574,17.988,23.981,17.66,24.304z"/>
	<rect id="icon-s-warning_4_" style="opacity:0;fill:#FFFFFF;" width="32.856" height="32"/>
</g>
</svg>
