<?xml version="1.0" encoding="iso-8859-1"?>
<!-- Generator: Adobe Illustrator 22.1.0, SVG Export Plug-In . SVG Version: 6.00 Build 0)  -->
<svg version="1.1" id="Layer_1" xmlns="http://www.w3.org/2000/svg" xmlns:xlink="http://www.w3.org/1999/xlink" x="0px" y="0px"	 width="64" height="64" viewBox="0 0 64 64" style="enable-background:new 0 0 64 64;" xml:space="preserve">
<g id="icon-m-reply-all_1_">
	<rect id="icon-m-reply-all_2_" style="opacity:0;fill:#FFFFFF;" width="64" height="64"/>
	<g id="icon-m-reply-all">
		<path style="opacity:0.6;fill:none;stroke:#FFFFFF;stroke-width:2;stroke-linecap:round;stroke-miterlimit:10;" d="M32,32"/>
		<path style="opacity:0.6;fill:none;stroke:#FFFFFF;stroke-width:2;stroke-linecap:round;stroke-miterlimit:10;" d="M32,32"/>
		<g>
			<path style="fill:#FFFFFF;" d="M32.692,43.945c-0.57,0-1.183-0.206-1.778-0.61l-12.979-8.821
				c-0.929-0.631-1.461-1.547-1.461-2.514c0-0.966,0.533-1.882,1.461-2.513l12.979-8.822c0.967-0.657,1.98-0.79,2.782-0.366
				c0.801,0.424,1.261,1.338,1.261,2.507v18.389c0,1.169-0.46,2.083-1.261,2.508C33.388,43.865,33.048,43.945,32.692,43.945z
				 M32.686,22.053c-0.117,0-0.342,0.058-0.648,0.266l-12.979,8.822c-0.377,0.256-0.585,0.562-0.585,0.859
				c0,0.298,0.208,0.603,0.585,0.859l12.979,8.821c0.396,0.269,0.658,0.288,0.722,0.253c0.064-0.033,0.197-0.259,0.197-0.739V22.806
				c0-0.48-0.132-0.706-0.197-0.74C32.746,22.058,32.721,22.053,32.686,22.053z"/>
			<g style="opacity:0.6;">
				<path style="fill:#FFFFFF;" d="M56.955,45.194c-0.552,0-0.999-0.446-1-0.999l-0.008-6.074c-0.003-2.799-2.549-5.075-5.675-5.075
					l-16.315-0.001c-0.553,0-1-0.448-1-1s0.447-1,1-1l0,0l16.315,0c4.228,0,7.67,3.173,7.675,7.074l0.008,6.074
					C57.956,44.745,57.509,45.193,56.955,45.194L56.955,45.194z"/>
			</g>
			<path style="fill:#FFFFFF;" d="M22.174,42.928c-0.163,0-0.328-0.048-0.473-0.146L8.663,33.92
				c-0.783-0.532-1.232-1.305-1.232-2.119c0-0.815,0.449-1.587,1.232-2.12l13.038-8.861c0.385-0.261,0.91-0.161,1.171,0.223
				c0.262,0.385,0.162,0.91-0.223,1.171L9.611,31.076c-0.318,0.216-0.494,0.474-0.494,0.725c0,0.25,0.175,0.508,0.494,0.725
				l13.038,8.861c0.385,0.262,0.485,0.786,0.223,1.171C22.709,42.798,22.444,42.928,22.174,42.928z"/>
		</g>
	</g>
</g>
</svg>
