<?xml version="1.0" encoding="iso-8859-1"?>
<!-- Generator: Adobe Illustrator 17.0.1, SVG Export Plug-In . SVG Version: 6.00 Build 0)  -->
<!DOCTYPE svg PUBLIC "-//W3C//DTD SVG 1.1//EN" "http://www.w3.org/Graphics/SVG/1.1/DTD/svg11.dtd">
<svg version="1.1" id="Layer_1" xmlns="http://www.w3.org/2000/svg" xmlns:xlink="http://www.w3.org/1999/xlink" x="0px" y="0px"
	 width="32px" height="32px" viewBox="0 0 32 32" style="enable-background:new 0 0 32 32;" xml:space="preserve">
<g id="icon-s-service-twitter">
	
		<rect id="icon-s-service-twitter_1_" style="opacity:0;fill-rule:evenodd;clip-rule:evenodd;fill:#FFFFFF;" width="32" height="32"/>
	<rect style="fill-rule:evenodd;clip-rule:evenodd;fill:#00ACED;" width="32" height="32"/>
	<path style="fill:#FFFFFF;" d="M18.43,8.492c-3.108,0.902-2.607,4.593-2.607,4.593s-1.516,0.028-3.911-0.918
		c-2.548-1.007-4.059-3.2-4.059-3.2s-0.741,1.203-0.444,2.815c0.267,1.452,1.541,2.43,1.541,2.43s-0.415-0.03-0.83-0.148
		c-0.415-0.118-0.829-0.355-0.829-0.355s0.022,1.442,0.889,2.548c0.859,1.096,2.281,1.333,2.281,1.333s-0.386,0.144-0.889,0.178
		c-0.444,0.03-0.889-0.059-0.889-0.059s0.237,1.156,1.304,1.896c1.067,0.741,2.222,0.681,2.222,0.681s-0.83,1.067-2.489,1.422
		c-1.659,0.355-3.17,0.267-3.17,0.267s2.37,1.807,6.104,1.778c3.733-0.03,7.922-2.171,9.748-6.252
		c1.511-3.378,1.067-5.333,1.067-5.333s0.652-0.444,1.096-0.889c0.444-0.444,0.919-1.155,0.919-1.155s-0.563,0.296-1.067,0.415
		s-1.096,0.178-1.096,0.178s0.474-0.267,0.918-0.83c0.444-0.563,0.682-1.244,0.682-1.244S24,9.055,23.585,9.233
		C23.17,9.41,22.4,9.529,22.4,9.529S21.185,7.692,18.43,8.492z"/>
</g>
</svg>
