<?xml version="1.0" encoding="iso-8859-1"?>
<!-- Generator: Adobe Illustrator 22.1.0, SVG Export Plug-In . SVG Version: 6.00 Build 0)  -->
<svg version="1.1" id="Layer_1" xmlns="http://www.w3.org/2000/svg" xmlns:xlink="http://www.w3.org/1999/xlink" x="0px" y="0px"	 width="42" height="42" viewBox="0 0 42 42" style="enable-background:new 0 0 42 42;" xml:space="preserve">
<g id="icon-m-messaging_2_">
	<rect id="icon-m-messaging_3_" style="opacity:0;fill:#FFFFFF;" width="42" height="42"/>
	<path style="opacity:0.5;fill:#FFFFFF;" d="M38.111,37.668h-1c-2.779,0-4.959-1.644-5.449-3.958H17.958
		c-8.083,0-14.659-6.181-14.659-13.779c0-7.561,6.576-13.712,14.659-13.712c0.102,0,5.716,0.001,5.817,0.003
		c7.905,0.16,14.337,6.31,14.337,13.709V37.668z M17.958,8.219c-6.98,0-12.659,5.254-12.659,11.712
		c0,6.495,5.679,11.779,12.659,11.779h15.601v1c0,1.422,1.027,2.52,2.553,2.854V19.931c0-6.318-5.552-11.571-12.377-11.709
		C23.551,8.22,18.058,8.219,17.958,8.219z"/>
	<path style="fill:#FFFFFF;" d="M14.037,23.641h-0.511c-1.677,0-3.042-1.364-3.042-3.042v-0.511c0-1.677,1.364-3.042,3.042-3.042
		h0.511c1.677,0,3.042,1.364,3.042,3.042v0.511C17.078,22.276,15.714,23.641,14.037,23.641z M13.526,19.047
		c-0.574,0-1.042,0.467-1.042,1.042v0.511c0,0.574,0.467,1.042,1.042,1.042h0.511c0.574,0,1.042-0.467,1.042-1.042v-0.511
		c0-0.574-0.467-1.042-1.042-1.042H13.526z"/>
	<path style="fill:#FFFFFF;" d="M21.255,23.641h-0.511c-1.677,0-3.042-1.364-3.042-3.042v-0.511c0-1.677,1.364-3.042,3.042-3.042
		h0.511c1.677,0,3.042,1.364,3.042,3.042v0.511C24.297,22.276,22.933,23.641,21.255,23.641z M20.745,19.047
		c-0.574,0-1.042,0.467-1.042,1.042v0.511c0,0.574,0.467,1.042,1.042,1.042h0.511c0.574,0,1.042-0.467,1.042-1.042v-0.511
		c0-0.574-0.467-1.042-1.042-1.042H20.745z"/>
	<path style="fill:#FFFFFF;" d="M28.474,23.641h-0.51c-1.678,0-3.042-1.364-3.042-3.042v-0.511c0-1.677,1.364-3.042,3.042-3.042
		h0.51c1.678,0,3.042,1.364,3.042,3.042v0.511C31.516,22.276,30.151,23.641,28.474,23.641z M27.964,19.047
		c-0.574,0-1.042,0.467-1.042,1.042v0.511c0,0.574,0.468,1.042,1.042,1.042h0.51c0.574,0,1.042-0.467,1.042-1.042v-0.511
		c0-0.574-0.468-1.042-1.042-1.042H27.964z"/>
</g>
</svg>
