<?xml version="1.0" encoding="iso-8859-1"?>
<!-- Generator: Adobe Illustrator 19.2.1, SVG Export Plug-In . SVG Version: 6.00 Build 0)  -->
<svg version="1.1" id="Layer_1" xmlns="http://www.w3.org/2000/svg" xmlns:xlink="http://www.w3.org/1999/xlink" x="0px" y="0px"	 width="32" height="32" viewBox="0 0 32 32" style="enable-background:new 0 0 32 32;" xml:space="preserve">
<g id="icon-m-file-compressed">
	<g id="icon-m-zip-folder_49_">
		<rect id="icon-m-zip-folder_38_" x="21.965" y="17.185" style="fill:#FFFFFF;" width="5.195" height="3.456"/>
		<rect id="icon-m-zip-folder_37_" x="21.965" y="10.348" style="fill:#FFFFFF;" width="5.196" height="3.456"/>
		<rect id="icon-m-zip-folder_36_" x="26.752" y="20.604" style="fill:#FFFFFF;" width="5.195" height="3.456"/>
		<rect id="icon-m-zip-folder_35_" x="26.752" y="6.93" style="fill:#FFFFFF;" width="5.196" height="3.456"/>
		<rect id="icon-m-zip-folder_32_" x="21.965" y="3.497" style="fill:#FFFFFF;" width="5.196" height="3.456"/>
		<rect id="icon-m-zip-folder_3_" x="26.752" y="0.078" style="fill:#FFFFFF;" width="5.196" height="3.456"/>
		<rect id="icon-m-zip-folder_34_" x="26.752" y="13.767" style="fill:#FFFFFF;" width="5.196" height="3.456"/>
		<path style="fill:#FFFFFF;" d="M26.926,31.822c-2.766,0-5.017-2.236-5.017-4.986v-2.818h10.025l0.009,2.818
			C31.944,29.585,29.693,31.822,26.926,31.822z M23.869,25.915v0.878c0,1.747,1.371,3.132,3.058,3.132
			c1.686,0,3.058-1.384,3.059-3.087l-0.003-0.923H23.869z"/>
	</g>
	<rect id="icon-m-file-compressed_1_" style="opacity:0;fill:#FFFFFF;" width="32" height="32"/>
</g>
</svg>
