<?xml version="1.0" encoding="iso-8859-1"?>
<!-- Generator: Adobe Illustrator 17.0.1, SVG Export Plug-In . SVG Version: 6.00 Build 0)  -->
<!DOCTYPE svg PUBLIC "-//W3C//DTD SVG 1.1//EN" "http://www.w3.org/Graphics/SVG/1.1/DTD/svg11.dtd">
<svg version="1.1" id="Layer_1" xmlns="http://www.w3.org/2000/svg" xmlns:xlink="http://www.w3.org/1999/xlink" x="0px" y="0px"
	 width="32px" height="32px" viewBox="0 -6 32 32" style="enable-background:new 0 0 32 32;" xml:space="preserve">
<g id="icon-phone-dialer-voicemail">
	<rect id="icon-phone-dialer-voicemail_1_" style="opacity:0;fill:#FFFFFF;" width="32" height="32"/>
	<g>
		<path style="fill:#FFFFFF;" d="M6.998,15.977c-3.846,0-6.975-3.129-6.975-6.977s3.129-6.977,6.975-6.977
			c3.848,0,6.979,3.129,6.979,6.977S10.846,15.977,6.998,15.977z M6.998,3.977C4.229,3.977,1.977,6.23,1.977,9
			s2.253,5.023,5.021,5.023c2.771,0,5.025-2.253,5.025-5.023S9.769,3.977,6.998,3.977z"/>
		<g style="opacity:0.5;">
			<path style="fill:#FFFFFF;" d="M24.54,15.977H7.448c-0.54,0-0.977-0.437-0.977-0.977s0.437-0.977,0.977-0.977H24.54
				c0.539,0,0.977,0.437,0.977,0.977S25.079,15.977,24.54,15.977z"/>
			<path style="fill:#FFFFFF;" d="M25.001,15.977c-3.848,0-6.978-3.129-6.978-6.977s3.13-6.977,6.978-6.977
				c3.847,0,6.976,3.129,6.976,6.977S28.848,15.977,25.001,15.977z M25.001,3.977c-2.771,0-5.024,2.253-5.024,5.023
				s2.254,5.023,5.024,5.023c2.77,0,5.022-2.253,5.022-5.023S27.771,3.977,25.001,3.977z"/>
		</g>
	</g>
</g>
</svg>
