<?xml version="1.0" encoding="iso-8859-1"?>
<!-- Generator: Adobe Illustrator 22.1.0, SVG Export Plug-In . SVG Version: 6.00 Build 0)  -->
<svg version="1.1" id="Layer_1" xmlns="http://www.w3.org/2000/svg" xmlns:xlink="http://www.w3.org/1999/xlink" x="0px" y="0px"	 width="64" height="64" viewBox="0 0 64 64" style="enable-background:new 0 0 64 64;" xml:space="preserve">
<g id="icon-m-forward_3_">
	<rect id="icon-m-forward_4_" x="0" y="0" style="opacity:0;fill:#FFFFFF;" width="64" height="64"/>
	<g id="icon-m-forward_1_">
		<path style="opacity:0.6;fill:none;stroke:#FFFFFF;stroke-width:2;stroke-linecap:round;stroke-miterlimit:10;" d="M37.754,32"/>
		<path style="opacity:0.6;fill:none;stroke:#FFFFFF;stroke-width:2;stroke-linecap:round;stroke-miterlimit:10;" d="M9.421,32"/>
		<g>
			<path style="fill:#FFFFFF;" d="M39.02,43.945c-0.356,0-0.696-0.08-1.005-0.244c-0.801-0.424-1.261-1.338-1.261-2.507V22.806
				c0-1.169,0.459-2.083,1.261-2.507c0.802-0.425,1.815-0.291,2.782,0.366l12.98,8.822c0.929,0.631,1.461,1.547,1.461,2.514
				c-0.001,0.966-0.533,1.882-1.463,2.513l-12.978,8.821C40.202,43.739,39.59,43.945,39.02,43.945z M39.025,22.053
				c-0.035,0-0.061,0.005-0.075,0.013c-0.063,0.034-0.196,0.259-0.196,0.74v18.389c0,0.48,0.133,0.706,0.196,0.739
				c0.066,0.034,0.328,0.016,0.723-0.253l12.979-8.821c0.379-0.257,0.587-0.562,0.587-0.859s-0.208-0.603-0.586-0.859l-12.979-8.822
				C39.367,22.111,39.142,22.053,39.025,22.053z"/>
			<g style="opacity:0.6;">
				<path style="fill:#FFFFFF;" d="M8.305,45.194c0,0-0.001,0-0.001,0c-0.552-0.001-0.999-0.449-0.999-1.001l0.007-6.074
					c0.005-3.9,3.448-7.074,7.674-7.074l22.67,0c0.553,0,1,0.448,1,1s-0.447,1-1,1l-22.67,0.001c-3.125,0-5.67,2.276-5.674,5.075
					l-0.007,6.074C9.304,44.747,8.856,45.194,8.305,45.194z"/>
			</g>
		</g>
	</g>
</g>
</svg>
