<?xml version="1.0" encoding="iso-8859-1"?>
<!-- Generator: Adobe Illustrator 22.1.0, SVG Export Plug-In . SVG Version: 6.00 Build 0)  -->
<svg version="1.1" id="Layer_1" xmlns="http://www.w3.org/2000/svg" xmlns:xlink="http://www.w3.org/1999/xlink" x="0px" y="0px"	 width="32" height="32" viewBox="0 0 32 32" style="enable-background:new 0 0 32 32;" xml:space="preserve">
<g id="icon-s-outline-secure">
	<rect id="icon-s-outline-secure_1_" style="opacity:0;fill:#FFFFFF;" width="32" height="32"/>
	<g style="opacity:0.6;">
		<path style="fill:#FFFFFF;" d="M24.677,27.854H7.534c-1.296,0-2.352-1.055-2.352-2.352V14.79c0-1.296,1.055-2.352,2.352-2.352
			h17.143c1.297,0,2.352,1.055,2.352,2.352v10.713C27.028,26.8,25.974,27.854,24.677,27.854z M7.534,14.284
			c-0.274,0-0.506,0.231-0.506,0.506v10.713c0,0.274,0.231,0.506,0.506,0.506h17.143c0.274,0,0.506-0.231,0.506-0.506V14.79
			c0-0.274-0.231-0.506-0.506-0.506H7.534z"/>
	</g>
	<path style="fill:#FFFFFF;" d="M24.105,10.918h-2c0-3.309-2.691-6-6-6s-6,2.691-6,6h-2c0-4.411,3.589-8,8-8
		S24.105,6.507,24.105,10.918z"/>
	<rect x="8.105" y="10.918" style="fill:#FFFFFF;" width="2" height="1.554"/>
	<rect x="22.105" y="10.918" style="fill:#FFFFFF;" width="2" height="1.554"/>
</g>
</svg>
