<?xml version="1.0" encoding="iso-8859-1"?>
<!-- Generator: Adobe Illustrator 19.1.0, SVG Export Plug-In . SVG Version: 6.00 Build 0)  -->
<svg version="1.1" id="Layer_1" xmlns="http://www.w3.org/2000/svg" xmlns:xlink="http://www.w3.org/1999/xlink" x="0px" y="0px"
	 viewBox="0 0 64 64" style="enable-background:new 0 0 64 64;" xml:space="preserve">
<g id="icon-m-repeat">
	<rect id="icon-m-repeat_1_" style="opacity:0;fill:#FFFFFF;" width="64" height="64"/>
	<path style="opacity:0.6;fill:#FFFFFF;" d="M39.6,51.931H24.29c-9.897,0-17.65-7.563-17.65-17.217
		c0-8.87,6.705-16.315,15.596-17.319l0.112-0.006h3.587c0.552,0,1,0.448,1,1s-0.448,1-1,1h-3.53
		C14.554,20.302,8.64,26.881,8.64,34.714c0,8.533,6.874,15.217,15.65,15.217H39.6c8.838,0,15.761-6.731,15.761-15.325
		c0-7.177-4.894-13.312-11.901-14.917l-2.727-0.419c-0.546-0.084-0.92-0.595-0.836-1.141s0.595-0.917,1.141-0.835l2.798,0.433
		c7.993,1.829,13.525,8.765,13.525,16.88C57.36,44.158,49.393,51.931,39.6,51.931z"/>
	<g id="XMLID_13_">
		<path style="fill:#FFFFFF;" d="M26.712,28.681c-0.264,0-0.519-0.058-0.754-0.176c-0.65-0.325-1.022-1.038-1.022-1.955V9.671
			c0-0.917,0.373-1.629,1.022-1.955s1.444-0.196,2.178,0.354l10.72,8.041c0.674,0.505,1.061,1.234,1.061,2
			c0,0.766-0.387,1.494-1.061,2l-10.72,8.04C27.668,28.501,27.176,28.681,26.712,28.681z M26.936,9.671v16.88c0,0,0,0,0,0l0,0
			l10.72-8.04c0.167-0.126,0.26-0.268,0.26-0.4s-0.093-0.274-0.261-0.4L26.936,9.671L26.936,9.671L26.936,9.671z"/>
	</g>
</g>
</svg>
