<?xml version="1.0" encoding="iso-8859-1"?>
<!-- Generator: Adobe Illustrator 17.0.1, SVG Export Plug-In . SVG Version: 6.00 Build 0)  -->
<!DOCTYPE svg PUBLIC "-//W3C//DTD SVG 1.1//EN" "http://www.w3.org/Graphics/SVG/1.1/DTD/svg11.dtd">
<svg version="1.1" id="Layer_1" xmlns="http://www.w3.org/2000/svg" xmlns:xlink="http://www.w3.org/1999/xlink" x="0px" y="0px"
	 width="64px" height="64px" viewBox="0 0 64 64" style="enable-background:new 0 0 64 64;" xml:space="preserve">
<g id="icon-m-orientition-lock">
	<rect id="icon-m-orientition-lock_1_" style="opacity:0;fill:#FFFFFF;" width="64" height="64"/>
	<path style="opacity:0.6;fill:#FFFFFF;" d="M36.261,55.745l-0.371-2.068c10.432-1.87,18.004-10.933,18.004-21.548
		c0-12.072-9.821-21.894-21.894-21.894c-12.072,0-21.893,9.822-21.893,21.894c0,5.848,2.277,11.345,6.413,15.48l-1.486,1.486
		C10.5,44.563,8.004,38.538,8.004,32.128C8.004,18.897,18.769,8.132,32,8.132c13.231,0,23.995,10.765,23.995,23.997
		C55.995,43.764,47.695,53.696,36.261,55.745z"/>
	<path style="fill:#FFFFFF;" d="M39.342,42H24.659c-1.654,0-3-1.346-3-3v-8.679c0-1.654,1.346-3,3-3h14.683c1.654,0,3,1.346,3,3V39
		C42.342,40.654,40.996,42,39.342,42z M24.659,29.321c-0.551,0-1,0.449-1,1V39c0,0.552,0.449,1,1,1h14.683c0.552,0,1-0.448,1-1
		v-8.679c0-0.551-0.448-1-1-1H24.659z"/>
	<path style="fill:#FFFFFF;" d="M39.762,28.593h-2V27.33c0-3.229-2.531-5.757-5.762-5.757c-3.231,0-5.762,2.529-5.762,5.757v1.264
		h-2V27.33c0-4.35,3.409-7.757,7.762-7.757s7.762,3.407,7.762,7.757V28.593z"/>
	<path style="opacity:0.2;fill:none;stroke:#FFFFFF;stroke-miterlimit:10;" d="M32,24.812"/>
	<path style="opacity:0.4;fill:none;stroke:#FFFFFF;stroke-miterlimit:10;" d="M32,24.812"/>
	<path style="opacity:0.7;fill:none;stroke:#FFFFFF;stroke-miterlimit:10;" d="M32,24.812"/>
	<g id="XMLID_2_">
		<path style="fill:#FFFFFF;" d="M34.352,61.928c-0.598,0-1.213-0.234-1.828-0.696l-5.486-4.114c-0.883-0.662-1.39-1.61-1.39-2.6
			s0.506-1.938,1.39-2.6l5.486-4.114c0.615-0.462,1.23-0.696,1.828-0.696c1.081,0,2.172,0.834,2.172,2.696v9.429
			C36.523,61.094,35.433,61.928,34.352,61.928z M34.367,49.105c-0.128,0.002-0.353,0.08-0.643,0.298l-5.486,4.114
			c-0.38,0.285-0.59,0.641-0.59,1s0.209,0.715,0.59,1l5.485,4.114c0.291,0.218,0.516,0.296,0.628,0.296
			c0.017,0,0.024-0.002,0.024-0.002c0.024-0.021,0.147-0.214,0.147-0.693v-9.429C34.523,49.323,34.4,49.131,34.367,49.105z"/>
	</g>
</g>
</svg>
