<?xml version="1.0" encoding="iso-8859-1"?>
<!-- Generator: Adobe Illustrator 17.0.1, SVG Export Plug-In . SVG Version: 6.00 Build 0)  -->
<!DOCTYPE svg PUBLIC "-//W3C//DTD SVG 1.1//EN" "http://www.w3.org/Graphics/SVG/1.1/DTD/svg11.dtd">
<svg version="1.1" id="Layer_1" xmlns="http://www.w3.org/2000/svg" xmlns:xlink="http://www.w3.org/1999/xlink" x="0px" y="0px"
	 width="64px" height="64px" viewBox="0 0 64 64" style="enable-background:new 0 0 64 64;" xml:space="preserve">
<g id="icon-m-service-sip">
	<rect id="icon-m-service-sip_1_" style="opacity:0;fill:#FFFFFF;" width="64" height="64"/>
	<linearGradient id="SVGID_1_" gradientUnits="userSpaceOnUse" x1="32" y1="64" x2="32" y2="-1.436092e-009">
		<stop  offset="0" style="stop-color:#004B7A"/>
		<stop  offset="1" style="stop-color:#007E94"/>
	</linearGradient>
	<rect style="fill:url(#SVGID_1_);" width="64" height="64"/>
	
		<linearGradient id="SVGID_2_" gradientUnits="userSpaceOnUse" x1="181.0233" y1="16.5" x2="181.0233" y2="51.5" gradientTransform="matrix(-1 0 0 1 213.1376 0)">
		<stop  offset="0" style="stop-color:#007E94"/>
		<stop  offset="1" style="stop-color:#1DAD82"/>
	</linearGradient>
	<path style="fill:url(#SVGID_2_);" d="M15.198,16.5h16.917c9.665,0,17.5,7.832,17.5,17.498v16.919c0,0.322-0.261,0.583-0.583,0.583
		H32.114c-9.665,0-17.5-7.836-17.5-17.502V17.083C14.614,16.761,14.875,16.5,15.198,16.5z"/>
	<g>
		<g>
			<path style="fill:#8AFFC6;" d="M21.684,33.707l3.963-2.172c-0.003-0.006-0.006-0.01-0.009-0.016
				c2.147-1.155,3.008-3.845,2.448-6.06C27.681,23.856,27.073,21,27.073,21s-2.456,0-4.182,0c-2.313,0-4.585,3.322-3.497,7.181
				C19.942,30.122,20.724,31.969,21.684,33.707z"/>
			<path style="fill:#8AFFC6;" d="M40.722,38.12c-2.102-0.529-4.711,0.322-5.924,2.14l-2.281,4.204
				c1.665,0.914,3.424,1.669,5.263,2.225c3.845,1.161,7.334-1.136,7.334-3.451c0-1.711-0.008-4.011-0.008-4.011
				S42.324,38.524,40.722,38.12z"/>
		</g>
		<path style="fill:#65FC8D;" d="M34.646,40.504c-0.009,0.015-0.02,0.029-0.027,0.044c-3.341-1.819-5.69-4.002-7.753-7.059
			c-0.308-0.447-0.599-0.906-0.875-1.375c-0.118-0.196-0.235-0.392-0.352-0.594c0.002-0.001,0.005-0.003,0.007-0.005
			c-1.712-3.128-2.699-6.708-2.747-10.515l-0.007,0c-2.313,0.029-4.585,3.322-3.497,7.181c2.494,8.844,9.595,15.854,18.385,18.508
			c3.845,1.161,7.303-1.136,7.334-3.451c0-0.002,0-0.005,0-0.007C41.327,43.183,37.763,42.204,34.646,40.504z"/>
	</g>
	<radialGradient id="SVGID_3_" cx="31.6999" cy="64.1774" r="54.5717" gradientUnits="userSpaceOnUse">
		<stop  offset="0.4909" style="stop-color:#F9F8D9;stop-opacity:0"/>
		<stop  offset="1" style="stop-color:#FFFFFF"/>
	</radialGradient>
	<path style="fill:url(#SVGID_3_);" d="M38.461,37.704h11.762c3.986,0,7.217-3.468,7.217-7.453c0-3.987-3.231-7.337-7.217-7.337
		c-0.207,0-0.401-0.016-0.6,0.001c0.381-0.879,0.6-1.878,0.6-2.898c0-3.987-3.233-7.232-7.219-7.232
		c-2.848,0-5.286,1.656-6.459,4.052c-2.05-3.48-5.824-5.826-10.157-5.826c-6.513,0-11.789,5.275-11.789,11.787
		c-3.986,0-7.217,3.468-7.217,7.454c0,3.986,3.231,7.453,7.217,7.453h11.696H38.461z"/>
</g>
</svg>
