<?xml version="1.0" encoding="windows-1252"?>
<!-- Generator: Adobe Illustrator 22.1.0, SVG Export Plug-In . SVG Version: 6.00 Build 0)  -->
<svg version="1.1" id="Layer_1" xmlns="http://www.w3.org/2000/svg" xmlns:xlink="http://www.w3.org/1999/xlink" x="0px" y="0px" width="64" height="64" viewBox="0 0 64 64" style="enable-background:new 0 0 64 64;" xml:space="preserve">
<g id="icon-m-sim-1_1_">
	<g id="icon-m-sim-1">
		<g>
			<path style="fill:#FFFFFF;" d="M45.907,56H18.092C15.836,56,14,54.164,14,51.907V23.375c0-1.744,0.452-3.956,1.315-4.807     c0.557-0.55,1.985-1.989,3.173-3.198l4.78-4.865C24.649,9.1,27.272,8,29.241,8h16.666C48.164,8,50,9.836,50,12.092v39.815     C50,54.164,48.164,56,45.907,56z M29.241,10c-1.424,0-3.548,0.891-4.546,1.906l-4.78,4.865c-1.197,1.218-2.635,2.667-3.195,3.22     C16.476,20.243,16,21.667,16,23.375v28.533C16,53.062,16.938,54,18.092,54h27.815C47.062,54,48,53.062,48,51.907V12.092     C48,10.938,47.062,10,45.907,10H29.241z"/>
		</g>
		<g>
			<g style="opacity:0.6;">
				<path style="fill:#FFFFFF;" d="M41.038,48H22.962C21.88,48,21,47.12,21,46.038V27.962C21,26.88,21.88,26,22.962,26h18.076      C42.12,26,43,26.88,43,27.962v18.076C43,47.12,42.12,48,41.038,48z M41,27.962L22.962,28L23,46.038L41,46V27.962z"/>
			</g>
		</g>
		<path style="fill:none;stroke:#FFFFFF;stroke-width:2;stroke-miterlimit:10;" d="M32,46.823"/>
		<path style="fill:none;stroke:#FFFFFF;stroke-width:2;stroke-miterlimit:10;" d="M32,26.823"/>
		<path style="fill:none;stroke:#FFFFFF;stroke-width:2;stroke-miterlimit:10;" d="M22.197,37"/>
		<path style="fill:none;stroke:#FFFFFF;stroke-width:2;stroke-miterlimit:10;" d="M42.197,37"/>
	</g>
	<rect id="icon-m-sim-1_2_" style="opacity:0;fill:#FFFFFF;" width="64" height="64"/>
	<path style="fill:#FFFFFF;" d="M35.787,31.962h-0.045l-2.613,1.407l-0.394-1.545l3.284-1.755h1.734v15h-1.966V31.962z"/>
</g>
</svg>