<?xml version="1.0" encoding="iso-8859-1"?>
<!-- Generator: Adobe Illustrator 17.0.1, SVG Export Plug-In . SVG Version: 6.00 Build 0)  -->
<!DOCTYPE svg PUBLIC "-//W3C//DTD SVG 1.1//EN" "http://www.w3.org/Graphics/SVG/1.1/DTD/svg11.dtd">
<svg version="1.1" id="Layer_1" xmlns="http://www.w3.org/2000/svg" xmlns:xlink="http://www.w3.org/1999/xlink" x="0px" y="0px"
	 width="32px" height="32px" viewBox="0 0 32 32" style="enable-background:new 0 0 32 32;" xml:space="preserve">
<g id="icon-s-android-label">
	<rect id="icon-s-android-label_1_" style="opacity:0;fill:#FFFFFF;" width="32" height="32"/>
	<g>
		<g>
			<circle style="fill:#FFFFFF;" cx="16" cy="15.779" r="12"/>
		</g>
		<path style="fill:#A4C439;" d="M9.406,13.259c-0.582,0-1.054,0.47-1.054,1.049l0.001,4.393c0,0.581,0.472,1.049,1.054,1.049
			c0.583,0,1.054-0.469,1.054-1.049v-4.394C10.461,13.728,9.988,13.258,9.406,13.259 M18.472,9.198l1.122-1.479
			c0.039-0.07,0.279-0.402,0-0.574c-0.226-0.139-0.414,0.208-0.452,0.278L17.969,9c-0.625-0.277-1.241-0.307-1.981-0.306
			c-0.738-0.001-1.301-0.018-1.923,0.258l-1.251-1.576c-0.039-0.071-0.217-0.345-0.387-0.218c-0.209,0.156-0.167,0.385-0.127,0.455
			l1.278,1.599c-1.446,0.742-2.54,2.194-2.539,3.817l9.878-0.001c0-1.623-0.878-3.034-2.322-3.778 M11.071,13.66l0.002,6.542
			c0,0.619,0.338,1.119,0.96,1.119l0.975,0l0.001,2.325c0,0.579,0.472,1.049,1.053,1.049c0.582,0,1.054-0.471,1.054-1.05
			l-0.001-2.324l1.773,0l0.001,2.324c0,0.578,0.466,1.043,1.047,1.042c0.582,0,1.061-0.464,1.061-1.043l-0.001-2.324l0.923-0.001
			c0.62,0,1.064-0.5,1.065-1.12l-0.001-6.543L11.071,13.66z M23.647,14.332c0-0.579-0.472-1.049-1.054-1.049
			c-0.582,0-1.054,0.47-1.054,1.049l0.001,4.393c0,0.58,0.472,1.049,1.054,1.049c0.582,0,1.054-0.469,1.054-1.049L23.647,14.332z"/>
		<path style="fill:#FFFFFF;" d="M13.499,11.894c-0.196,0-0.356-0.159-0.356-0.356c0-0.195,0.16-0.356,0.357-0.356
			c0.198,0,0.358,0.161,0.358,0.356C13.858,11.735,13.697,11.894,13.499,11.894"/>
		<path style="fill:#FFFFFF;" d="M18.5,11.894c-0.197,0-0.358-0.159-0.358-0.356c0.001-0.195,0.16-0.356,0.358-0.357
			c0.196,0.001,0.357,0.161,0.357,0.357C18.858,11.734,18.698,11.894,18.5,11.894"/>
	</g>
</g>
</svg>
