<?xml version="1.0" encoding="utf-8"?>
<!-- Generator: Adobe Illustrator 23.0.3, SVG Export Plug-In . SVG Version: 6.00 Build 0)  -->
<svg version="1.1" id="Layer_1" xmlns="http://www.w3.org/2000/svg" xmlns:xlink="http://www.w3.org/1999/xlink" x="0px" y="0px"
	 viewBox="0 0 32 32" style="enable-background:new 0 0 32 32;" xml:space="preserve">
<style type="text/css">
	.st0{fill:#FFFFFF;}
</style>
<g>
	<path class="st0" d="M25.7,15.5C25.7,15.5,25.7,15.5,25.7,15.5v2.2c0,5.2,0,8.3-1.1,9.4c-1.1,1.1-4,1.1-9.3,1.1h-0.9
		c-5.3,0-8.2,0-9.3-1.1c-1.1-1.1-1.1-4.2-1.1-9.4v-0.9c0-5.2,0-8.3,1.1-9.4c1.1-1.1,4-1.1,9.3-1.1h2.2c0,0,0,0,0,0V3.9c0,0,0,0,0,0
		h-2.2c-12.4,0-13,0.6-13,13v0.9c0,12.4,0.6,13,13,13h0.9c12.4,0,13-0.6,13-13v-2.2c0,0,0,0,0,0H25.7z"/>
	<polygon class="st0" points="19,1.3 19,3.8 28.1,3.8 28.1,12.9 30.6,12.9 30.6,1.3 	"/>
</g>
</svg>
