<?xml version="1.0" encoding="windows-1252"?>
<!-- Generator: Adobe Illustrator 22.1.0, SVG Export Plug-In . SVG Version: 6.00 Build 0)  -->
<svg version="1.1" id="Layer_1" xmlns="http://www.w3.org/2000/svg" xmlns:xlink="http://www.w3.org/1999/xlink" x="0px" y="0px" width="32" height="32" viewBox="0 0 32 32" style="enable-background:new 0 0 32 32;" xml:space="preserve">
<g id="icon-s-alarm_2_">
	<rect id="icon-s-alarm_3_" style="opacity:0;fill:#FFFFFF;" width="32" height="32"/>
	<path style="fill:#FFFFFF;" d="M20.993,25.454c-1.167,0-2.333-0.444-3.221-1.332l1.414-1.414c0.996,0.997,2.619,0.996,3.615-0.001   c0.483-0.482,0.749-1.124,0.749-1.807s-0.266-1.324-0.749-1.806l1.414-1.416c0.86,0.86,1.335,2.004,1.335,3.221   c0,1.218-0.474,2.362-1.335,3.223C23.327,25.01,22.16,25.454,20.993,25.454z"/>
	<g style="opacity:0.4;">
		<path style="fill:#FFFFFF;" d="M12.95,28.5c-0.118,0-0.236-0.021-0.35-0.063c-0.367-0.137-0.62-0.476-0.647-0.867    c-0.124-1.771-0.881-3.435-2.133-4.684L6.32,18.705C2.657,15.048,2.512,9.577,6.043,6.043c3.533-3.531,9.005-3.387,12.728,0.337    l4.047,3.38c1.315,1.31,2.98,2.067,4.754,2.193c0.391,0.028,0.729,0.281,0.865,0.648c0.138,0.367,0.048,0.78-0.229,1.057    l-14.55,14.548C13.466,28.398,13.21,28.5,12.95,28.5z M12.091,5.513c-1.689,0-3.334,0.647-4.633,1.945    c-2.725,2.727-2.58,6.982,0.337,9.899l3.499,4.18c1.071,1.064,1.864,2.419,2.299,3.907l11.854-11.852    c-1.494-0.439-2.863-1.245-3.977-2.356l-4.047-3.381C15.86,6.295,13.949,5.513,12.091,5.513z"/>
	</g>
</g>
</svg>