<?xml version="1.0" encoding="windows-1252"?>
<!-- Generator: Adobe Illustrator 22.1.0, SVG Export Plug-In . SVG Version: 6.00 Build 0)  -->
<svg version="1.1" id="Layer_1" xmlns="http://www.w3.org/2000/svg" xmlns:xlink="http://www.w3.org/1999/xlink" x="0px" y="0px" width="64" height="64" viewBox="0 0 64 64" style="enable-background:new 0 0 64 64;" xml:space="preserve">
<g id="icon-m-remove">
	<rect id="icon-m-remove_1_" style="opacity:0;fill:#FFFFFF;" width="64" height="64"/>
	<g>
		<path style="fill:#FFFFFF;" d="M42.099,43.101c-0.256,0-0.512-0.098-0.707-0.293l-7.877-7.878    c-0.753-0.753-1.168-1.758-1.168-2.829s0.415-2.075,1.168-2.828l7.879-7.879c0.391-0.391,1.023-0.391,1.414,0s0.391,1.023,0,1.414    l-7.879,7.879c-0.376,0.375-0.582,0.877-0.582,1.414s0.207,1.039,0.582,1.415l7.877,7.878c0.391,0.391,0.391,1.023,0,1.414    C42.61,43.003,42.354,43.101,42.099,43.101z"/>
		<path style="fill:#FFFFFF;" d="M22.101,43.101c-0.256,0-0.512-0.098-0.707-0.293c-0.391-0.391-0.391-1.023,0-1.414l7.878-7.878    c0.779-0.78,0.779-2.049,0-2.829l-7.878-7.878c-0.391-0.391-0.391-1.023,0-1.414s1.023-0.391,1.414,0l7.878,7.878    c1.559,1.56,1.559,4.098,0,5.657l-7.878,7.878C22.613,43.003,22.357,43.101,22.101,43.101z"/>
	</g>
</g>
</svg>