<?xml version="1.0" encoding="windows-1252"?>
<!-- Generator: Adobe Illustrator 22.1.0, SVG Export Plug-In . SVG Version: 6.00 Build 0)  -->
<svg version="1.1" id="Layer_1" xmlns="http://www.w3.org/2000/svg" xmlns:xlink="http://www.w3.org/1999/xlink" x="0px" y="0px" width="64" height="64" viewBox="0 0 64 64" style="enable-background:new 0 0 64 64;" xml:space="preserve">
<g id="icon-m-clear">
	<rect id="icon-m-clear_1_" style="opacity:0;fill:#FFFFFF;" width="64" height="64"/>
	<g>
		
			<ellipse transform="matrix(0.9239 -0.3827 0.3827 0.9239 -9.8101 14.6817)" style="opacity:0.2;fill:#FFFFFF;" cx="32" cy="32" rx="16" ry="16"/>
		<path style="fill:#FFFFFF;" d="M38.6,39.6c-0.256,0-0.512-0.098-0.707-0.293l-3.3-3.299c-2.209-2.209-2.209-5.804,0-8.014l3.3-3.3    c0.391-0.391,1.023-0.391,1.414,0c0.391,0.39,0.391,1.023,0,1.414l-3.3,3.3c-1.43,1.43-1.43,3.756,0,5.186l3.3,3.299    c0.391,0.39,0.391,1.023,0,1.414C39.111,39.502,38.855,39.6,38.6,39.6z"/>
		<path style="fill:#FFFFFF;" d="M25.4,39.601c-0.256,0-0.512-0.098-0.707-0.293c-0.391-0.391-0.391-1.023,0-1.414l3.3-3.3    c0.689-0.689,1.068-1.61,1.068-2.593c0-0.983-0.379-1.903-1.068-2.592l-3.3-3.3c-0.391-0.391-0.391-1.023,0-1.414    s1.023-0.391,1.414,0l3.3,3.3c1.067,1.066,1.654,2.489,1.654,4.006s-0.587,2.94-1.654,4.007l-3.3,3.3    C25.913,39.503,25.656,39.601,25.4,39.601z"/>
	</g>
</g>
</svg>