<?xml version="1.0" encoding="iso-8859-1"?>
<!-- Generator: Adobe Illustrator 22.1.0, SVG Export Plug-In . SVG Version: 6.00 Build 0)  -->
<svg version="1.1" id="Layer_1" xmlns="http://www.w3.org/2000/svg" xmlns:xlink="http://www.w3.org/1999/xlink" x="0px" y="0px"	 width="64" height="64" viewBox="0 0 64 64" style="enable-background:new 0 0 64 64;" xml:space="preserve">
<g id="icon-m-asterix">
	<rect id="icon-m-asterix_1_" style="opacity:0;fill:#FFFFFF;" width="64" height="64"/>
	<g id="icon-m-asterix_2_">
		<g style="opacity:0.6;">
			<path style="fill:#FFFFFF;" d="M23.132,44.657c-0.394-0.277-0.495-0.83-0.225-1.229l6.301-9.315
				c0.27-0.399,0.128-0.88-0.314-1.069l-8.92-3.815c-0.443-0.189-0.67-0.714-0.506-1.167l0.089-0.244
				c0.164-0.452,0.669-0.689,1.122-0.526l9.107,3.284c0.453,0.163,0.835-0.097,0.849-0.578l0.314-10.573
				c0.014-0.481,0.42-0.875,0.901-0.875h0.299c0.481,0,0.887,0.394,0.901,0.875l0.315,10.573c0.014,0.481,0.396,0.741,0.849,0.578
				l9.106-3.284c0.453-0.163,0.958,0.073,1.122,0.525l0.089,0.244c0.165,0.452-0.063,0.977-0.505,1.166l-8.92,3.815
				c-0.443,0.189-0.584,0.67-0.314,1.069l6.302,9.315c0.27,0.399,0.168,0.952-0.225,1.229l-0.407,0.286
				c-0.394,0.277-0.948,0.186-1.231-0.203l-6.714-9.202c-0.284-0.389-0.748-0.389-1.032,0L24.77,44.74
				c-0.284,0.389-0.838,0.48-1.231,0.203L23.132,44.657z"/>
		</g>
	</g>
</g>
</svg>
