<?xml version="1.0" encoding="iso-8859-1"?>
<!-- Generator: Adobe Illustrator 22.1.0, SVG Export Plug-In . SVG Version: 6.00 Build 0)  -->
<svg version="1.1" id="Layer_1" xmlns="http://www.w3.org/2000/svg" xmlns:xlink="http://www.w3.org/1999/xlink" x="0px" y="0px"	 width="64" height="64" viewBox="0 0 64 64" style="enable-background:new 0 0 64 64;" xml:space="preserve">
<g id="icon-m-reply">
	<rect id="icon-m-reply_1_" style="opacity:0;fill:#FFFFFF;" width="64" height="64"/>
	<path style="opacity:0.6;fill:none;stroke:#FFFFFF;stroke-width:2;stroke-linecap:round;stroke-miterlimit:10;" d="M32,32"/>
	<path style="opacity:0.6;fill:none;stroke:#FFFFFF;stroke-width:2;stroke-linecap:round;stroke-miterlimit:10;" d="M32,32"/>
	<g>
		<path style="fill:#FFFFFF;" d="M24.98,43.945c-0.57,0-1.183-0.206-1.778-0.61l-12.979-8.821C9.295,33.883,8.762,32.966,8.762,32
			c0-0.966,0.533-1.882,1.461-2.513l12.979-8.822c0.967-0.657,1.982-0.79,2.783-0.366c0.801,0.424,1.261,1.338,1.261,2.507v18.389
			c0,1.169-0.459,2.083-1.261,2.507C25.677,43.865,25.337,43.945,24.98,43.945z M24.975,22.053c-0.116,0-0.342,0.058-0.648,0.266
			l-12.979,8.822c-0.377,0.256-0.585,0.562-0.585,0.859c0,0.298,0.208,0.603,0.585,0.859l12.979,8.821
			c0.397,0.27,0.659,0.286,0.723,0.253c0.064-0.033,0.197-0.259,0.197-0.739V22.806c0-0.48-0.133-0.706-0.197-0.74
			C25.035,22.058,25.009,22.053,24.975,22.053z"/>
		<g style="opacity:0.6;">
			<path style="fill:#FFFFFF;" d="M55.695,45.194c-0.552,0-0.999-0.447-1-0.999l-0.008-6.074c-0.003-2.799-2.549-5.075-5.674-5.075
				l-22.67-0.001c-0.552,0-1-0.448-1-1s0.448-1,1-1l0,0l22.67,0c4.227,0,7.669,3.173,7.674,7.074l0.008,6.074
				C56.696,44.745,56.249,45.193,55.695,45.194L55.695,45.194z"/>
		</g>
	</g>
</g>
</svg>
