<?xml version="1.0" encoding="iso-8859-1"?>
<!-- Generator: Adobe Illustrator 17.0.1, SVG Export Plug-In . SVG Version: 6.00 Build 0)  -->
<!DOCTYPE svg PUBLIC "-//W3C//DTD SVG 1.1//EN" "http://www.w3.org/Graphics/SVG/1.1/DTD/svg11.dtd">
<svg version="1.1" id="Layer_1" xmlns="http://www.w3.org/2000/svg" xmlns:xlink="http://www.w3.org/1999/xlink" x="0px" y="0px"
	 width="32px" height="32px" viewBox="0 0 32 32" style="enable-background:new 0 0 32 32;" xml:space="preserve">
<g id="icon-s-service-facebook">
	
		<rect id="icon-s-service-facebook_1_" style="opacity:0;fill-rule:evenodd;clip-rule:evenodd;fill:#FFFFFF;" width="32" height="32"/>
	<g>
		<rect style="fill-rule:evenodd;clip-rule:evenodd;fill:#3B579C;" width="32" height="32"/>
		<path style="fill-rule:evenodd;clip-rule:evenodd;fill:#FEFEFE;" d="M22.114,32c-1.651,0-3.301,0-4.952,0
			c-0.004-0.111-0.011-0.222-0.011-0.333c0-3.907-0.003-7.813,0.006-11.72c0.001-0.26-0.071-0.319-0.322-0.317
			c-1.194,0.014-2.388,0.001-3.583,0.011c-0.212,0.002-0.284-0.047-0.282-0.273c0.01-1.416,0.009-2.833,0-4.249
			c-0.002-0.212,0.048-0.283,0.273-0.281c1.213,0.012,2.425-0.001,3.638,0.011c0.225,0.002,0.274-0.065,0.273-0.278
			c-0.009-1.167-0.01-2.333,0-3.5c0.009-1.165,0.234-2.284,0.81-3.307c0.953-1.694,2.469-2.538,4.349-2.751
			c1.515-0.172,3.032-0.034,4.545,0.088c0.162,0.013,0.194,0.077,0.193,0.224c-0.005,1.296-0.007,2.592,0.002,3.888
			c0.001,0.2-0.077,0.224-0.243,0.222c-0.759-0.006-1.518-0.004-2.277-0.002c-0.287,0.001-0.573,0.01-0.858,0.064
			c-0.931,0.173-1.418,0.705-1.517,1.65c-0.047,0.444-0.036,0.888-0.038,1.332c-0.003,0.703,0.008,1.407-0.006,2.11
			c-0.004,0.212,0.058,0.261,0.264,0.259c1.397-0.009,2.795,0,4.193-0.01c0.232-0.002,0.313,0.022,0.274,0.295
			c-0.2,1.41-0.38,2.824-0.552,4.238c-0.026,0.212-0.089,0.273-0.301,0.271c-1.185-0.01-2.37,0.002-3.555-0.01
			c-0.245-0.002-0.327,0.05-0.326,0.315c0.01,3.907,0.007,7.813,0.006,11.72C22.122,31.777,22.116,31.889,22.114,32z"/>
	</g>
</g>
</svg>
