<?xml version="1.0" encoding="iso-8859-1"?>
<!-- Generator: Adobe Illustrator 19.1.0, SVG Export Plug-In . SVG Version: 6.00 Build 0)  -->
<svg version="1.1" id="Layer_1" xmlns="http://www.w3.org/2000/svg" xmlns:xlink="http://www.w3.org/1999/xlink" x="0px" y="0px"
	 viewBox="0 0 64 64" style="enable-background:new 0 0 64 64;" xml:space="preserve">
<g id="icon-m-file-image">
	<rect id="icon-m-file-image_1_" style="opacity:0;fill:#FFFFFF;" width="64" height="64"/>
	<path style="fill:#FFFFFF;" d="M47.188,47H16.813c-1,0-1.813-0.813-1.813-1.813V14.813c0-1,0.813-1.813,1.813-1.813h30.375
		C48.187,13,49,13.813,49,14.813v30.375C49,46.187,48.187,47,47.188,47z M17,45h30V15H17V45z"/>
	<path style="fill:#FFFFFF;" d="M34.509,42.06c-0.396,0-0.707-0.108-0.793-0.141c-2.623-1.021-4.564-3.254-5.182-5.863
		c-2.31,1.295-5.143,1.447-7.676,0.364c-0.275-0.083-0.816-0.313-1.116-0.895c-0.182-0.353-0.324-0.936,0.029-1.717
		c0.491-1.094,1.285-2.096,2.296-2.894c0.421-0.33,0.881-0.62,1.37-0.865c-0.993-0.912-1.797-2.106-2.282-3.434
		c-0.708-1.941-0.675-3.917,0.093-5.565c0.07-0.145,0.899-1.923,0.899-1.923c0.597-1.07,1.656-1.448,2.667-1.006l0,0
		c0,0,3.492,1.42,3.578,1.457c2.374,1.108,4.185,3.39,4.864,5.975c2.359-1.248,5.186-1.512,7.586-0.639
		c0.049,0.018,0.121,0.044,3.596,1.618c0.726,0.288,1.021,0.742,1.143,1.076c0.113,0.313,0.178,0.807-0.132,1.415
		c-0.127,0.358-0.668,1.886-0.698,1.963c-1.224,2.959-4.858,4.893-8.218,4.69c0.157,0.519,0.259,1.046,0.302,1.571
		c0.112,1.287-0.227,2.734-0.551,3.582c-0.185,0.491-0.522,0.862-0.975,1.065C35.031,42.019,34.754,42.06,34.509,42.06z
		 M30.465,31.701l-0.018,2.451c-0.004,0.205,0,0.41,0.018,0.614c0.199,2.236,1.725,4.237,3.901,5.132
		c0.231-0.683,0.426-1.679,0.356-2.473c-0.073-0.893-0.383-1.797-0.896-2.621l-1.634-2.618l2.897,1.063
		c2.816,1.033,6.628-0.478,7.694-3.053c0.034-0.095,0.479-1.353,0.638-1.799c-0.673-0.305-3.146-1.424-3.344-1.508
		c-2.169-0.789-4.977-0.287-6.95,1.262l-1.586,1.244l-0.125-2.011c-0.156-2.498-1.719-4.857-3.891-5.872
		c-0.107-0.044-3.057-1.244-3.483-1.417c-0.166,0.337-0.848,1.798-0.885,1.873c-0.519,1.112-0.527,2.513-0.013,3.921
		c0.574,1.572,1.713,2.88,3.049,3.5l2.859,1.327l-3.08,0.669c-0.971,0.211-1.869,0.625-2.598,1.195
		c-0.688,0.543-1.237,1.208-1.594,1.93c2.181,0.893,4.728,0.567,6.531-0.847c0.116-0.09,0.221-0.188,0.326-0.284L30.465,31.701z"/>
	<path style="opacity:0.6;fill:#FFFFFF;" d="M50.125,56h-36.25C11.738,56,10,54.262,10,52.125v-40.25C10,9.738,11.738,8,13.875,8
		h36.25C52.262,8,54,9.738,54,11.875v40.25C54,54.262,52.262,56,50.125,56z M13.875,10C12.841,10,12,10.841,12,11.875v40.25
		C12,53.159,12.841,54,13.875,54h36.25C51.159,54,52,53.159,52,52.125v-40.25C52,10.841,51.159,10,50.125,10H13.875z"/>
</g>
</svg>
