<?xml version="1.0" encoding="iso-8859-1"?>
<!-- Generator: Adobe Illustrator 24.0.2, SVG Export Plug-In . SVG Version: 6.00 Build 0)  -->
<svg version="1.1" id="Layer_1" xmlns="http://www.w3.org/2000/svg" xmlns:xlink="http://www.w3.org/1999/xlink" x="0px" y="0px"	 width="64" height="64" viewBox="0 0 64 64" style="enable-background:new 0 0 64 64;" xml:space="preserve">
<g id="icon-m-user-admin">
	<rect id="icon-m-user-admin_1_" style="opacity:0;fill:#FFFFFF;" width="64" height="64"/>
	<path style="fill:#00FFFF;" d="M53.015,51.5c0.03-0.329,0.045-0.663,0.045-1c0-6.075-4.925-11-11-11h-20c-6.075,0-11,4.925-11,11
		c0,0.337,0.015,0.671,0.045,1H53.015z"/>
	<path style="fill:#FFFF00;" d="M32.06,35.5c-6.617,0-12-5.383-12-12s5.383-12,12-12c6.617,0,12,5.383,12,12S38.677,35.5,32.06,35.5
		z M32.06,13.5c-5.514,0-10,4.486-10,10s4.486,10,10,10c5.514,0,10-4.486,10-10S37.573,13.5,32.06,13.5z"/>
	<path style="opacity:0.6;fill:#66FF99;" d="M22,41.5h20c4.971,0,9,4.029,9,9c0,0.338-0.019,0.672-0.055,1h2.01
		c0.03-0.329,0.045-0.663,0.045-1c0-6.075-4.925-11-11-11H22c-6.075,0-11,4.925-11,11c0,0.337,0.015,0.671,0.045,1h2.01
		C13.019,51.172,13,50.838,13,50.5C13,45.529,17.029,41.5,22,41.5z"/>
	<path style="fill:#FFFF00;" d="M40.348,50.536c-0.08-0.474-0.538-0.842-1.018-0.819l-1.035,0.051
		c-0.48,0.024-1.069-0.298-1.309-0.714l-0.347-0.603c-0.24-0.416-0.224-1.087,0.037-1.491l0.561-0.871
		c0.26-0.404,0.157-0.968-0.229-1.254l-1.659-0.956c-0.439-0.195-0.978-0.004-1.197,0.424l-0.474,0.925
		c-0.219,0.428-0.791,0.778-1.272,0.778h-0.695c-0.48,0-1.053-0.35-1.272-0.778l-0.474-0.925c-0.219-0.428-0.758-0.619-1.197-0.424
		l-1.659,0.956c-0.386,0.286-0.489,0.85-0.229,1.254l0.561,0.871c0.26,0.404,0.277,1.075,0.037,1.491l-0.347,0.603
		c-0.24,0.416-0.829,0.737-1.309,0.714l-1.035-0.051c-0.48-0.024-0.938,0.345-1.018,0.819c0,0-0.057,0.337-0.057,0.964
		s0.057,0.964,0.057,0.964c0.08,0.474,0.538,0.842,1.018,0.819l1.035-0.051c0.48-0.024,1.068,0.298,1.309,0.714l0.347,0.603
		c0.24,0.416,0.224,1.088-0.037,1.491l-0.561,0.871c-0.26,0.404-0.157,0.968,0.229,1.254l1.659,0.955
		c0.439,0.195,0.978,0.004,1.197-0.424l0.474-0.925c0.219-0.428,0.791-0.778,1.272-0.778h0.695c0.48,0,1.053,0.35,1.272,0.778
		l0.474,0.925c0.219,0.428,0.758,0.618,1.197,0.424l1.659-0.955c0.386-0.286,0.489-0.85,0.229-1.254l-0.561-0.871
		c-0.26-0.404-0.277-1.075-0.037-1.491l0.347-0.603c0.24-0.416,0.829-0.738,1.309-0.714l1.035,0.051
		c0.48,0.024,0.938-0.345,1.018-0.819c0,0,0.057-0.337,0.057-0.964S40.348,50.536,40.348,50.536z M32.059,54.577
		c-1.698,0-3.075-1.378-3.075-3.077s1.377-3.077,3.075-3.077c1.698,0,3.074,1.378,3.074,3.077S33.757,54.577,32.059,54.577z"/>
</g>
</svg>
