<?xml version="1.0" encoding="iso-8859-1"?>
<!-- Generator: Adobe Illustrator 24.0.2, SVG Export Plug-In . SVG Version: 6.00 Build 0)  -->
<svg version="1.1" id="Layer_1" xmlns="http://www.w3.org/2000/svg" xmlns:xlink="http://www.w3.org/1999/xlink" x="0px" y="0px"	 width="32" height="32" viewBox="0 0 32 32" style="enable-background:new 0 0 32 32;" xml:space="preserve">
<g id="icon-s-backup">
	<rect id="icon-s-backup_1_" y="0.005" style="opacity:0;fill:#FFFFFF;" width="32" height="32"/>
	<g>
		<circle style="fill:#3993C7;" cx="16.013" cy="16" r="16"/>
		<path style="fill:#FFFFFF;" d="M6.899,22.917c-0.092,0-0.177-0.041-0.234-0.113c-1.07-1.34-1.587-2.233-2.025-3.903
			c-0.211-0.804-0.354-2.034-0.342-2.641c0.001-0.081,0.029-0.13,0.085-0.188c0.056-0.057,0.134-0.061,0.214-0.061h4.4
			c0.096,0,0.186,0.017,0.243,0.095c0.057,0.078,0.072,0.164,0.042,0.255l-2.098,6.356c-0.034,0.105-0.123,0.178-0.232,0.198
			L6.899,22.917z"/>
		<path style="fill:#FFFFFF;" d="M20.851,17.686h-5.548c-0.552,0-1-0.448-1-1v-6.206c0-0.552,0.448-1,1-1s1,0.448,1,1v5.206h4.548
			c0.553,0,1,0.448,1,1S21.403,17.686,20.851,17.686z"/>
		<path style="fill:#FFFFFF;" d="M15.962,27.672c-2.456,0-4.806-0.754-6.794-2.181c-0.449-0.322-0.551-0.946-0.229-1.396
			c0.321-0.449,0.945-0.553,1.396-0.229c1.646,1.182,3.592,1.806,5.628,1.806c5.33,0,9.666-4.336,9.666-9.667
			c0-5.33-4.336-9.667-9.666-9.667c-5.331,0-9.667,4.336-9.667,9.667c0,1.062,0.171,2.106,0.508,3.102
			C6.98,19.63,6.7,20.198,6.177,20.375c-0.523,0.18-1.091-0.104-1.268-0.627c-0.407-1.202-0.614-2.462-0.614-3.743
			c0-6.433,5.234-11.667,11.667-11.667c6.433,0,11.666,5.233,11.666,11.667S22.395,27.672,15.962,27.672z"/>
	</g>
</g>
</svg>
