<?xml version="1.0" encoding="iso-8859-1"?>
<!-- Generator: Adobe Illustrator 19.2.1, SVG Export Plug-In . SVG Version: 6.00 Build 0)  -->
<svg version="1.1" id="Layer_1" xmlns="http://www.w3.org/2000/svg" xmlns:xlink="http://www.w3.org/1999/xlink" x="0px" y="0px"	 width="64" height="64" viewBox="0 0 64 64" style="enable-background:new 0 0 64 64;" xml:space="preserve">
<g id="icon-m-note">
	<g style="opacity:0.6;">
		<rect x="21" y="21" style="fill:#FFFFFF;" width="22" height="2"/>
		<rect x="21" y="30" style="fill:#FFFFFF;" width="22" height="2"/>
		<rect x="21" y="39" style="fill:#FFFFFF;" width="22" height="2"/>
	</g>
	<rect id="icon-m-note_1_" style="opacity:0;fill:#FFFFFF;" width="64" height="64"/>
	<path style="fill:#FFFFFF;" d="M58,56.981h-1c-4.141,0-7.35-2.53-7.865-6.031H27.813C15.785,50.95,6,41.767,6,30.478
		c0-11.232,9.785-20.371,21.813-20.371c0.086,0,8.685,0.001,8.854,0.004C48.431,10.349,58,19.485,58,30.478V56.981z M27.813,12.106
		C16.888,12.106,8,20.348,8,30.478C8,40.663,16.888,48.95,27.813,48.95h23.25v1c0,2.578,2.063,4.586,4.938,4.967V30.478
		c0-9.912-8.69-18.151-19.373-18.367C36.381,12.108,27.966,12.106,27.813,12.106z"/>
</g>
</svg>
