<?xml version="1.0" encoding="iso-8859-1"?>
<!-- Generator: Adobe Illustrator 19.1.0, SVG Export Plug-In . SVG Version: 6.00 Build 0)  -->
<svg version="1.1" id="Layer_1" xmlns="http://www.w3.org/2000/svg" xmlns:xlink="http://www.w3.org/1999/xlink" x="0px" y="0px"
	 viewBox="0 0 64 64" style="enable-background:new 0 0 64 64;" xml:space="preserve">
<g id="icon-m-filemanager-pdf">
	<rect id="icon-m-filemanager-pdf_1_" style="opacity:0;fill:#000000;" width="64" height="64"/>
	<g style="opacity:0.6;">
		<path style="fill:#000000;" d="M47.907,56H16.092C13.836,56,12,54.164,12,51.907V12.092C12,9.836,13.836,8,16.092,8h19.859
			c1.966,0,4.595,1.091,5.983,2.484l7.591,7.62C50.913,19.496,52,22.127,52,24.092v27.815C52,54.164,50.164,56,47.907,56z
			 M16.092,10C14.938,10,14,10.938,14,12.092v39.815C14,53.062,14.938,54,16.092,54h31.815C49.062,54,50,53.062,50,51.907V24.092
			c0-1.427-0.884-3.566-1.891-4.577l-7.591-7.619C39.511,10.886,37.377,10,35.951,10H16.092z"/>
		<path style="fill:none;stroke:#000000;stroke-width:2"
			d="m 38.888849,9.659394 v 9.289818 c 0,0.925 0.878,2.012 1.821,2.012 h 9.480818"/>
	</g>
	<path style="fill:#a83223;" d="M19.935,49.703c-0.714,0-1.385-0.336-1.929-0.974c-0.685-0.806-0.88-1.743-0.565-2.711
		c0.673-2.065,3.72-3.96,7.072-5.381c0.623-1.543,1.219-3.251,1.74-5.029c0.567-1.936,0.975-3.981,1.213-5.894
		c-2.348-3.19-4.019-6.288-3.505-8.174c0.158-0.581,0.58-1.347,1.694-1.697l0,0c0.978-0.307,1.894-0.104,2.581,0.57
		c1.468,1.439,1.688,5.003,1.304,8.726c1.104,1.455,2.474,3.105,4.13,4.936c1.152,1.274,2.38,2.421,3.587,3.401
		c3.779-0.383,7.642-0.268,9.125,1.264c0.62,0.641,0.824,1.493,0.574,2.4c-0.274,0.997-0.961,1.674-1.933,1.904
		c-2.018,0.479-5.26-1.113-8.355-3.494c-1.744,0.203-3.612,0.528-5.45,0.97c-1.796,0.431-3.577,1.01-5.192,1.658
		c-1.434,3.39-3.44,7.012-5.596,7.471C20.265,49.686,20.099,49.703,19.935,49.703z M23.264,43.44
		c-2.122,1.105-3.619,2.269-3.921,3.197c-0.081,0.25-0.081,0.481,0.187,0.795c0.263,0.309,0.401,0.279,0.485,0.261
		C20.862,47.513,22.054,45.883,23.264,43.44z M39.782,39.31c2.082,1.332,3.873,2.001,4.78,1.79c0.22-0.053,0.375-0.152,0.468-0.49
		c0.077-0.282,0.008-0.384-0.084-0.479C44.328,39.492,42.37,39.229,39.782,39.31z M29.157,31.894
		c-0.267,1.529-0.61,3.001-0.984,4.277c-0.118,0.402-0.531,1.778-1.164,3.509c1.32-0.458,2.609-0.832,3.744-1.104
		c1.064-0.255,2.401-0.526,3.847-0.754c-0.853-0.771-1.667-1.582-2.411-2.404C31.186,34.309,30.146,33.113,29.157,31.894z
		 M26.525,21.703c-0.072,0-0.16,0.014-0.27,0.049l0,0c-0.305,0.096-0.339,0.221-0.364,0.313c-0.189,0.696,0.367,2.221,1.817,4.476
		c0.049-2.295-0.233-4.072-0.872-4.699C26.762,21.768,26.678,21.703,26.525,21.703z"/>
</g>
</svg>
