<?xml version="1.0" encoding="iso-8859-1"?>
<!-- Generator: Adobe Illustrator 17.0.1, SVG Export Plug-In . SVG Version: 6.00 Build 0)  -->
<!DOCTYPE svg PUBLIC "-//W3C//DTD SVG 1.1//EN" "http://www.w3.org/Graphics/SVG/1.1/DTD/svg11.dtd">
<svg version="1.1" id="Layer_1" xmlns="http://www.w3.org/2000/svg" xmlns:xlink="http://www.w3.org/1999/xlink" x="0px" y="0px"
	 width="32px" height="32px" viewBox="0 0 32 32" style="enable-background:new 0 0 32 32;" xml:space="preserve">
<g id="icon-s-service-jolla">
	<rect id="icon-s-service-jolla_2_" style="opacity:0;fill:#FFFFFF;" width="32" height="32"/>
	<linearGradient id="SVGID_1_" gradientUnits="userSpaceOnUse" x1="32" y1="-1.076842e-009" x2="1.077932e-009" y2="32">
		<stop  offset="0.0054" style="stop-color:#51EAEE"/>
		<stop  offset="1" style="stop-color:#00B4E6"/>
	</linearGradient>
	<rect style="fill:url(#SVGID_1_);" width="32" height="32"/>
	<g>
		<g>
			<path style="fill:#FFFFFF;" d="M28.471,15.241c-0.025-0.051-0.062-0.11-0.128-0.113c-0.06-0.003-0.124,0.038-0.197,0.124
				c0,0-1.428,2.461-2.667,2.035c-0.273-0.094-0.371-0.244-0.371-0.284c0.002-0.191,0.089-0.517,0.196-0.708
				c0.019-0.033,0.46-0.809,0.618-1.401c0.131-0.493,0.193-1.277-0.176-1.423c-0.074-0.032-0.128-0.047-0.167-0.048
				c-0.011,0-0.049-0.002-0.08,0.031c-0.087,0.094-0.223,0.193-0.323,0.149c-0.136-0.059-0.417-0.091-0.726-0.049
				c-0.908,0.121-2.034,0.992-2.74,2.682c-0.027,0.035-0.903,0.93-1.273,0.916c-0.037-0.064-0.088-0.256-0.052-0.669
				c0.028-0.352,0.126-0.962,0.431-1.873l0-0.001c3.069-3.289,4.576-5.661,4.357-6.86c-0.053-0.293-0.213-0.513-0.46-0.635
				c-0.078-0.039-0.183-0.047-0.259-0.047c-0.227,0-1.056,0.086-2.07,1.2c-1.067,1.172-1.969,3.056-2.682,5.603
				c-0.109,0.399-0.211,0.781-0.301,1.14c-0.198,0.185-0.393,0.374-0.584,0.559c-0.759,0.736-1.545,1.498-1.937,1.498
				c-0.042,0-0.078-0.011-0.109-0.033c-0.029-0.035-0.103-0.263-0.041-0.861c0.063-0.561,0.223-1.256,0.46-1.96
				c3.059-3.279,4.51-5.505,4.308-6.615c-0.057-0.289-0.218-0.507-0.478-0.633c-0.077-0.038-0.183-0.048-0.257-0.048
				c-0.228,0-1.056,0.087-2.07,1.201c-1.065,1.168-1.965,3.047-2.676,5.582c-0.087,0.11-0.488,0.472-0.726,0.619
				c-0.053-0.409-0.396-0.724-0.748-0.808c-0.082-0.018-0.167-0.029-0.252-0.029c-0.459,0-0.886,0.285-1.243,0.564
				c-0.428,0.333-0.922,0.776-1.337,1.52c-0.561,1.011-1.023,2.646-0.293,3.119c0.165,0.108,0.349,0.163,0.545,0.163h0
				c0.993,0,2.042-1.382,2.361-1.915c0.342-0.566,0.683-1.304,0.861-1.776c0.167-0.054,0.354-0.141,0.526-0.234
				c-0.423,1.782-0.445,2.889-0.069,3.371c0.144,0.185,0.341,0.281,0.588,0.281c0.384,0,0.796-0.234,1.073-0.408
				c0.273-0.171,0.913-0.749,1.777-1.603c-0.1,0.78-0.029,1.306,0.218,1.603c0.146,0.176,0.346,0.264,0.593,0.264
				c0.279,0,0.575-0.116,0.827-0.247c0.339-0.165,0.621-0.353,0.638-0.367c0.068-0.057,0.143-0.086,0.21-0.083
				c0.072,0.002,0.132,0.038,0.162,0.101c0.012,0.027,0.416,0.678,0.873,0.678c0.761,0,1.274-0.574,1.305-0.6
				c0.058-0.049,0.123-0.073,0.179-0.071c0.073,0.003,0.127,0.069,0.177,0.132c0.088,0.109,0.516,0.477,1.008,0.497
				c0.76,0.03,1.495-0.322,2.157-1.032c0.212-0.228,1.116-1.592,1.117-1.778C28.544,15.551,28.522,15.345,28.471,15.241z
				 M23.617,8.281c0.388,1.365-1.419,3.662-2.356,4.793C21.837,11.216,23.165,9.006,23.617,8.281z M19.924,8.119
				c0.403,1.338-1.367,3.41-2.308,4.495C18.181,10.798,19.478,8.783,19.924,8.119z M13.394,16.742
				c-0.233,0.247-0.462,0.396-0.617,0.396c-0.018,0-0.037-0.003-0.053-0.009c-0.155-0.051-0.25-0.166-0.289-0.355
				c-0.092-0.435,0.125-1.078,0.3-1.437c0.075,0.125,0.202,0.245,0.408,0.314c0.117,0.039,0.239,0.06,0.364,0.06
				c0.2,0,0.381-0.052,0.531-0.111C13.966,15.946,13.718,16.396,13.394,16.742z M24.626,15.151c-0.001,0.006-0.47,1.329-0.591,1.499
				c-0.1,0.141-0.443,0.476-0.822,0.43c-0.211-0.024-0.634-0.378-0.465-0.9c0.314-0.97,1.028-1.58,1.534-1.582
				C24.669,14.597,24.695,14.966,24.626,15.151z M11.047,11.835c-0.139,0.157-0.347,0.252-0.553,0.252l0,0
				c-0.271,0-0.492-0.153-0.605-0.421c-0.184-0.431-0.285-0.932,0.354-1.372c0.071-0.05,0.147-0.076,0.226-0.076
				c0.326,0,0.575,0.427,0.667,0.612C11.338,11.243,11.314,11.535,11.047,11.835z M10.416,17.529c0.12-0.341,0.23-0.649,0.328-0.922
				c0.381-1.055,0.591-1.638,0.577-2.136c-0.014-0.482-0.249-0.888-0.585-1.006c-0.062-0.022-0.128-0.034-0.194-0.034
				c-0.253,0-0.461,0.152-0.564,0.285c-0.131,0.17-0.094,0.397-0.056,0.617c0.016,0.096,0.033,0.195,0.036,0.291
				c0.016,0.554-0.329,1.977-0.523,2.462c-0.161,0.405-1.737,1.643-2.028,1.855c-1.088,0.795-3.038,2.398-3.878,4.213
				c-0.688,1.49-0.178,2.257-0.118,2.339l0.004,0.005c0.263,0.361,0.602,0.437,0.841,0.437l0,0c0.267,0,0.564-0.092,0.882-0.274
				c1.29-0.738,3.504-3.93,4.412-6.025c0.055-0.13,0.321-0.681,0.392-0.766c0.025-0.031,0.107-0.08,0.187-0.125
				c0.112-0.066,0.239-0.142,0.298-0.214c0.108-0.129,0.207-0.405,0.015-0.594c-0.14-0.139-0.1-0.231-0.053-0.339
				C10.397,17.576,10.408,17.552,10.416,17.529z M4.433,23.618c-0.093-0.431,0.59-1.426,1.104-1.996l0.018-0.019
				c0.551-0.609,0.884-0.974,1.642-1.559c0.693-0.534,1.006-0.67,1.146-0.696c-0.076,0.204-0.184,0.46-0.431,0.868
				c-1.055,1.739-2.51,3.611-3.205,3.611c-0.044,0-0.086-0.008-0.122-0.024C4.503,23.768,4.453,23.707,4.433,23.618z"/>
		</g>
	</g>
</g>
</svg>
