<?xml version="1.0" encoding="iso-8859-1"?>
<!-- Generator: Adobe Illustrator 22.1.0, SVG Export Plug-In . SVG Version: 6.00 Build 0)  -->
<svg version="1.1" id="Layer_1" xmlns="http://www.w3.org/2000/svg" xmlns:xlink="http://www.w3.org/1999/xlink" x="0px" y="0px"	 width="32" height="32" viewBox="0 0 32 32" style="enable-background:new 0 0 32 32;" xml:space="preserve">
<g id="icon-s-down">
	<rect id="icon-s-down_1_" x="0" y="0" style="opacity:0;fill:#FFFFFF;" width="32" height="32"/>
	
		<ellipse transform="matrix(0.9239 -0.3827 0.3827 0.9239 -4.905 7.3409)" style="opacity:0.2;fill:#FFFFFF;" cx="16" cy="16" rx="16" ry="16"/>
	<path style="fill:#FFFFFF;" d="M16,21.259c-0.939,0-1.878-0.357-2.593-1.072l-6.115-6.115c-0.391-0.391-0.391-1.023,0-1.414
		s1.023-0.391,1.414,0l6.115,6.115c0.65,0.651,1.707,0.649,2.357,0l6.114-6.114c0.391-0.391,1.023-0.391,1.414,0
		s0.391,1.023,0,1.414l-6.114,6.114C17.878,20.901,16.939,21.259,16,21.259z"/>
</g>
</svg>
