<?xml version="1.0" encoding="UTF-8"?>
<!-- Generator: Adobe Illustrator 22.1.0, SVG Export Plug-In . SVG Version: 6.00 Build 0)  -->
<svg version="1.1" id="Layer_1" xmlns="http://www.w3.org/2000/svg" xmlns:xlink="http://www.w3.org/1999/xlink" x="0px" y="0px" viewBox="0 0 96 96" style="enable-background:new 0 0 96 96;" xml:space="preserve">
<style type="text/css">
	.st0{opacity:0.5;fill:#00BB15;enable-background:new    ;}
	.st1{fill:none;stroke:#FFFFFF;stroke-width:3;}
	.st2{fill:none;stroke:#33FF00;stroke-width:3;}
</style>
<path class="st0" d="M41.9,18.8c0.3-1.1-0.3-2.2-1.3-2.5l-10.9-3.5C20.3,42.2,36.5,73.6,65.9,83l3.5-10.9c0.3-1.1-0.2-2.2-1.3-2.6  c-4.3-1.6-8.2-3.8-11.6-6.5c-0.6-0.5-1.5-0.6-2.2-0.2L51,64.5c-1.1,0.6-2.5,0.4-3.4-0.5c-7-7.2-11.6-16.5-13.2-26.4  c-0.2-1.2,0.4-2.4,1.6-3l3.4-1.8c0.7-0.4,1.1-1.1,1.1-1.9C40.4,26.9,40.8,22.8,41.9,18.8z"/>
<g>
	<path class="st1" d="M66,83c-29.4-9.4-45.6-40.8-36.2-70.2"/>
</g>
<g>
	<path class="st2" d="M66,83c-29.4-9.4-45.6-40.8-36.2-70.2"/>
</g>
</svg>