<?xml version="1.0" encoding="iso-8859-1"?>
<!-- Generator: Adobe Illustrator 19.1.0, SVG Export Plug-In . SVG Version: 6.00 Build 0)  -->
<svg version="1.1" id="Layer_1" xmlns="http://www.w3.org/2000/svg" xmlns:xlink="http://www.w3.org/1999/xlink" x="0px" y="0px"
	 viewBox="0 0 64 64" style="enable-background:new 0 0 64 64;" xml:space="preserve">
<g id="icon-m-service-vk_1_">
	<rect id="icon-m-service-vk" style="opacity:0;fill:#FFFFFF;" width="64" height="64"/>
	<rect style="fill:#4D75A3;" width="64" height="64"/>
	<g>
		<linearGradient id="SVGID_1_" gradientUnits="userSpaceOnUse" x1="32" y1="46.3694" x2="32" y2="17.6306">
			<stop  offset="0" style="stop-color:#000000"/>
			<stop  offset="1" style="stop-color:#000000"/>
		</linearGradient>
		<path style="opacity:0.1;fill-rule:evenodd;clip-rule:evenodd;fill:url(#SVGID_1_);" d="M46.954,46.369
			c-0.023,0-0.046-0.002-0.069-0.006c-2.554-0.419-4.277-2.152-5.823-3.891c-0.158-0.177-0.331-0.395-0.518-0.633
			c-0.658-0.833-1.559-1.973-2.452-1.973c-0.056,0-0.112,0.005-0.17,0.014c-0.901,0.145-1.028,1.124-1.13,2.72
			c-0.059,0.915-0.119,1.86-0.5,2.53c-0.454,0.797-1.6,1.184-3.504,1.184c-0.942,0-1.945-0.093-2.713-0.175
			c-6.843-0.726-10.246-4.411-13.145-8.124c-2.867-3.671-5.376-7.78-7.896-12.929c-0.095-0.195-0.195-0.392-0.295-0.592
			c-0.682-1.354-1.454-2.888-1.455-4.6c0-0.128,0.058-0.25,0.157-0.331c0.773-0.629,1.814-0.714,2.731-0.714
			c0.331,0,0.673,0.012,1.022,0.024c0.351,0.012,0.708,0.025,1.067,0.025c0.373,0,0.803-0.021,1.26-0.044
			c0.511-0.025,1.04-0.051,1.554-0.051c1.054,0,1.776,0.117,2.271,0.369c0.609,0.31,1.089,1.311,1.7,2.691
			c0.108,0.245,0.213,0.48,0.313,0.693c1.112,2.371,2.154,4.172,3.718,6.421c0.078,0.111,0.16,0.235,0.247,0.365
			c0.495,0.741,1.245,1.861,1.926,1.861c0.04,0,0.081-0.004,0.123-0.012c0.795-0.16,0.881-3.244,0.909-4.257
			c0.094-3.374-0.23-4.714-0.517-5.245c-0.285-0.526-0.723-0.704-1.328-0.95c-0.311-0.126-0.663-0.269-1.017-0.479
			c-0.192-0.114-0.264-0.357-0.164-0.557c0.945-1.899,3.464-2.057,6.183-2.057c0.28,0,0.573-0.004,0.874-0.008
			c0.321-0.004,0.65-0.009,0.982-0.009c2.081,0,4.113,0.179,4.882,1.477c0.741,1.251,0.572,3.102,0.409,4.893
			c-0.055,0.606-0.107,1.178-0.122,1.706c-0.01,0.344-0.027,0.69-0.043,1.032c-0.087,1.792-0.17,3.489,0.862,4.308
			c0.771-0.162,1.289-0.877,1.834-1.631c0.112-0.155,0.222-0.307,0.335-0.454c1.616-2.118,2.582-3.951,3.705-6.403
			c0.108-0.235,0.217-0.507,0.332-0.793c0.451-1.123,0.962-2.395,1.839-2.727c0.527-0.199,1.185-0.292,2.073-0.292
			c0.568,0,1.157,0.036,1.781,0.074c0.619,0.038,1.259,0.077,1.871,0.077c0.335,0,0.731-0.02,1.151-0.041
			c0.487-0.024,0.991-0.049,1.486-0.049c1.115,0,2.449,0.116,2.869,1.019c0.587,1.265-1.082,4.068-1.274,4.383
			c-1.065,1.748-2.105,3.041-3.205,4.41c-0.48,0.597-0.977,1.215-1.483,1.882c-0.109,0.143-0.235,0.3-0.372,0.468
			c-0.647,0.798-1.533,1.892-1.476,2.89c0.043,0.743,0.769,1.397,1.471,2.03c0.112,0.1,0.222,0.2,0.327,0.298
			c1.695,1.572,3.008,2.831,4.482,4.714c0.942,1.203,1.797,2.446,1.68,3.387c-0.251,2.018-3.038,2.018-4.228,2.018
			c-0.637,0-1.295-0.028-1.932-0.055c-0.603-0.026-1.172-0.05-1.692-0.05c-0.72,0-1.212,0.048-1.548,0.15
			c-0.04,0.012-0.082,0.018-0.124,0.018H46.954z"/>
		<path style="fill-rule:evenodd;clip-rule:evenodd;fill:#F2F2F2;" d="M47.182,45.943c-0.076,0-0.152,0-0.228,0
			c-2.464-0.404-4.142-2.143-5.574-3.754c-0.809-0.91-2.048-2.968-3.526-2.73c-2.099,0.338-1.058,3.923-1.934,5.46
			c-0.707,1.241-3.723,1.017-5.801,0.796c-6.562-0.696-9.914-4.198-12.854-7.963c-3.141-4.022-5.587-8.232-7.849-12.854
			c-0.732-1.497-1.706-3.151-1.706-5.005c1.064-0.867,2.799-0.569,4.55-0.569c1.485,0,3.804-0.326,4.891,0.228
			c0.646,0.328,1.298,2.073,1.82,3.185c1.197,2.554,2.3,4.393,3.754,6.484c0.63,0.906,1.597,2.616,2.73,2.389
			c1.1-0.221,1.203-2.929,1.251-4.664c0.055-1.968-0.002-4.415-0.569-5.46c-0.534-0.985-1.513-1.005-2.503-1.593
			c0.824-1.655,3.081-1.82,5.801-1.82c2.287,0,5.478-0.255,6.37,1.251c0.908,1.533,0.285,4.298,0.228,6.37
			c-0.065,2.328-0.466,4.732,1.138,5.801c1.236-0.134,1.899-1.335,2.616-2.275c1.569-2.056,2.541-3.836,3.754-6.484
			c0.498-1.087,1.032-2.958,1.934-3.299c1.373-0.519,3.563-0.114,5.574-0.114c1.647,0,4.59-0.455,5.119,0.683
			c0.439,0.944-0.852,3.326-1.251,3.981c-1.522,2.498-3.018,4.088-4.664,6.256c-0.657,0.866-2.014,2.254-1.934,3.64
			c0.061,1.053,1.119,1.86,1.934,2.616c1.767,1.639,3.005,2.836,4.436,4.664c0.539,0.689,1.703,2.18,1.593,3.071
			C55.936,47.015,49.389,45.274,47.182,45.943z"/>
	</g>
</g>
</svg>
