<?xml version="1.0" encoding="iso-8859-1"?>
<!-- Generator: Adobe Illustrator 17.0.1, SVG Export Plug-In . SVG Version: 6.00 Build 0)  -->
<!DOCTYPE svg PUBLIC "-//W3C//DTD SVG 1.1//EN" "http://www.w3.org/Graphics/SVG/1.1/DTD/svg11.dtd">
<svg version="1.1" id="Layer_1" xmlns="http://www.w3.org/2000/svg" xmlns:xlink="http://www.w3.org/1999/xlink" x="0px" y="0px"
	 width="64px" height="64px" viewBox="0 0 64 64" style="enable-background:new 0 0 64 64;" xml:space="preserve">
<g id="icon-m-service-yahoo">
	<rect id="icon-m-service-yahoo_1_" style="opacity:0;fill:#FFFFFF;" width="64" height="64"/>
	<rect style="fill:#8A2A8F;" width="64" height="64"/>
	<g>
		<polygon style="fill-rule:evenodd;clip-rule:evenodd;fill:#FFFFFF;" points="52.465,45.898 47.197,45.254 47.782,40.631 
			53.05,41.274 52.465,45.898 		"/>
		<polygon style="fill-rule:evenodd;clip-rule:evenodd;fill:#FFFFFF;" points="57.734,17.858 48.719,16.746 48.777,37.646 
			52.7,38.172 57.734,17.858 		"/>
		<polygon style="fill-rule:evenodd;clip-rule:evenodd;fill:#FFFFFF;" points="54.455,41.274 54.046,41.274 54.046,40.983 
			55.158,40.983 55.158,41.274 54.749,41.274 54.749,42.387 54.455,42.387 54.455,41.274 		"/>
		<polygon style="fill-rule:evenodd;clip-rule:evenodd;fill:#FFFFFF;" points="55.743,41.392 55.743,42.387 55.451,42.387 
			55.451,40.983 55.802,40.983 56.212,41.685 56.622,40.983 56.914,40.983 56.914,42.387 56.622,42.387 56.622,41.392 
			56.212,42.095 56.153,42.095 55.743,41.392 		"/>
		<polygon style="fill-rule:evenodd;clip-rule:evenodd;fill:#FFFFFF;" points="52.465,45.898 47.197,45.254 47.782,40.631 
			53.05,41.274 52.465,45.898 		"/>
		<polygon style="fill-rule:evenodd;clip-rule:evenodd;fill:#FFFFFF;" points="57.734,17.858 48.719,16.746 48.777,37.646 
			52.7,38.172 57.734,17.858 		"/>
		<path style="fill-rule:evenodd;clip-rule:evenodd;fill:#FFFFFF;" d="M39.587,21.488c-3.63-2.751-8.313-4.097-13.991-4.097
			c-5.737,0-10.419,1.346-13.991,4.097C7.975,24.18,6.16,27.635,6.16,31.908c0,4.332,1.815,7.845,5.444,10.538
			c2.962,2.233,6.689,3.54,11.148,3.921h5.663c4.427-0.381,8.16-1.688,11.171-3.921c3.571-2.693,5.386-6.206,5.386-10.538
			C44.972,27.635,43.157,24.18,39.587,21.488z M36.894,28.337l-2.751,0.586c-0.41,0.116-1.522,0.936-3.454,2.517
			c-2.049,1.639-3.103,2.692-3.278,3.22l-0.117,1.463l-0.059,0.879l0.234,2.223l3.629,0.059l-0.059,1.112h-5.912l-5.269,0.059
			l0.176-1.054l1.697-0.058c0.879-0.059,1.406-0.175,1.581-0.352c0.117-0.116,0.175-0.819,0.175-2.048v-0.76L23.43,34.66
			c-0.117-0.351-1.054-1.639-2.868-3.864c-1.873-2.283-3.103-3.63-3.689-4.099l-3.395-0.468v-0.996
			c0.176-0.116,2.05-0.116,5.503-0.058c2.4-0.058,4.39-0.058,5.971,0.058l-0.117,0.82l-3.571,0.352
			c1.112,1.639,2.81,3.921,5.093,6.79c2.986-2.283,4.566-3.747,4.624-4.39l-3.043-0.469l-0.235-1.053h5.093l4.799,0.059
			L36.894,28.337z"/>
		<polygon style="fill-rule:evenodd;clip-rule:evenodd;fill:#FFFFFF;" points="54.455,41.274 54.046,41.274 54.046,40.983 
			55.158,40.983 55.158,41.274 54.749,41.274 54.749,42.387 54.455,42.387 54.455,41.274 		"/>
		<polygon style="fill-rule:evenodd;clip-rule:evenodd;fill:#FFFFFF;" points="55.743,41.392 55.743,42.387 55.451,42.387 
			55.451,40.983 55.802,40.983 56.212,41.685 56.622,40.983 56.914,40.983 56.914,42.387 56.622,42.387 56.622,41.392 
			56.212,42.095 56.153,42.095 55.743,41.392 		"/>
	</g>
</g>
</svg>
