<?xml version="1.0" encoding="iso-8859-1"?>
<!-- Generator: Adobe Illustrator 24.0.2, SVG Export Plug-In . SVG Version: 6.00 Build 0)  -->
<svg version="1.1" id="Layer_1" xmlns="http://www.w3.org/2000/svg" xmlns:xlink="http://www.w3.org/1999/xlink" x="0px" y="0px"	 width="64" height="64" viewBox="0 0 64 64" style="enable-background:new 0 0 64 64;" xml:space="preserve">
<g id="icon-m-wlan-4-light_2_">
	<g id="icon-m-wlan-4_x2B_1_x2B_1_4_">
		<g>
			<path style="fill:#FFFFFF;" d="M32.134,52.194c-1.341,0-2.681-0.51-3.701-1.53L7.654,29.886
				c-1.945-1.946-2.035-5.092-0.204-7.162l0.087-0.087c6.813-6.018,15.547-9.333,24.597-9.333c9.046,0,17.778,3.311,24.59,9.321
				l0.085,0.085c1.837,2.064,1.756,5.21-0.185,7.162L35.836,50.665C34.815,51.685,33.475,52.194,32.134,52.194z M8.91,24.093
				c-1.093,1.28-1.028,3.192,0.158,4.379L29.847,49.25c1.262,1.263,3.314,1.262,4.575,0l20.786-20.789
				c1.181-1.188,1.241-3.101,0.144-4.377c-6.438-5.662-14.682-8.779-23.218-8.779C23.594,15.305,15.35,18.425,8.91,24.093z"/>
			<g>
				<path style="fill:#FFFFFF;" d="M12.087,33.906c-0.24,0-0.481-0.086-0.673-0.261c-0.408-0.372-0.438-1.004-0.066-1.413
					c5.334-5.854,12.909-9.211,20.782-9.211c7.874,0,15.451,3.357,20.789,9.211c0.372,0.408,0.343,1.041-0.065,1.413
					c-0.406,0.372-1.041,0.344-1.413-0.065c-4.959-5.439-11.998-8.559-19.311-8.559c-7.312,0-14.348,3.119-19.304,8.559
					C12.63,33.796,12.359,33.906,12.087,33.906z"/>
				<path style="fill:#FFFFFF;" d="M46.229,39.858c-0.256,0-0.512-0.098-0.707-0.293c-3.574-3.577-8.329-5.547-13.389-5.547
					c-5.058,0-9.813,1.97-13.388,5.545c-0.391,0.391-1.023,0.391-1.414,0s-0.391-1.023,0-1.414c3.954-3.953,9.21-6.131,14.802-6.131
					c5.594,0,10.852,2.178,14.803,6.133c0.391,0.391,0.391,1.024,0,1.414C46.74,39.761,46.484,39.858,46.229,39.858z"/>
				<path style="fill:#FFFFFF;" d="M39.976,46.109c-0.256,0-0.512-0.098-0.707-0.293c-1.906-1.907-4.44-2.957-7.136-2.957
					c-2.693,0-5.228,1.05-7.135,2.957c-0.391,0.391-1.024,0.391-1.414,0c-0.391-0.391-0.391-1.023,0-1.414
					c2.286-2.285,5.322-3.543,8.549-3.543c3.229,0,6.267,1.258,8.55,3.543c0.391,0.391,0.391,1.023,0,1.414
					C40.487,46.012,40.231,46.109,39.976,46.109z"/>
			</g>
		</g>
	</g>
	<path style="opacity:0.15;fill:#FFFFFF;" d="M7,26l17,19c5.352,6.622,10.645,7.619,16,1l18-19.927C51.476,18,41.958,14,32,14
		C22.049,14,13.527,17.932,7,26z"/>
	<rect id="icon-m-wlan-4-light" style="opacity:0;fill:#FFFFFF;" width="64" height="64"/>
</g>
</svg>
