<?xml version="1.0" encoding="iso-8859-1"?>
<!-- Generator: Adobe Illustrator 19.1.0, SVG Export Plug-In . SVG Version: 6.00 Build 0)  -->
<svg version="1.1" id="Layer_1" xmlns="http://www.w3.org/2000/svg" xmlns:xlink="http://www.w3.org/1999/xlink" x="0px" y="0px"
	 viewBox="0 0 64 64" style="enable-background:new 0 0 64 64;" xml:space="preserve">
<g id="icon-m-file-formatted_2_">
	<rect id="icon-m-file-formatted_3_" style="opacity:0;fill:#FFFFFF;" width="64" height="64"/>
	<g style="opacity:0.6;">
		<path style="fill:#FFFFFF;" d="M47.907,56H16.092C13.836,56,12,54.164,12,51.907V12.092C12,9.836,13.836,8,16.092,8h19.859
			c1.966,0,4.595,1.091,5.983,2.484l7.591,7.62C50.913,19.496,52,22.127,52,24.092v27.815C52,54.164,50.164,56,47.907,56z
			 M16.092,10C14.938,10,14,10.938,14,12.092v39.815C14,53.062,14.938,54,16.092,54h31.815C49.062,54,50,53.062,50,51.907V24.092
			c0-1.427-0.884-3.566-1.891-4.577l-7.591-7.619C39.511,10.886,37.377,10,35.951,10H16.092z"/>
	</g>
	<path style="fill:#FFFFFF;" d="M40.865,21h10.179l-12-12v9.988C39.044,19.913,39.922,21,40.865,21z"/>
	<g>
		<rect x="32" y="26" style="fill:#9CBDFF;" width="11" height="2"/>
		<rect x="21" y="35" style="fill:#9CBDFF;" width="22" height="2"/>
		<rect x="21" y="44" style="fill:#9CBDFF;" width="22" height="2"/>
	</g>
	<g>
		<path style="fill:#9CBDFF;" d="M30.875,19v2h-0.833c-0.123-0.5-0.047-0.311-0.196-0.529s-0.354-0.392-0.615-0.522
			c-0.146-0.071-1.295-0.106-1.659-0.106h-0.58l-0.018,8.099c0,0.409,0.022,0.665,0.065,0.767c0.043,0.102,0.128,0.192,0.254,0.268
			c0.126,0.077,1.193,0.115,1.411,0.115H29V30h-5.895L23,29.092h0.207c0.222,0,1.4-0.041,1.536-0.124
			c0.098-0.055,0.175-0.149,0.231-0.283c0.041-0.094,0.062-0.342,0.062-0.743l-0.018-8.099h-0.563c-0.525,0-1.906,0.114-2.144,0.342
			c-0.333,0.319-0.348,0.226-0.436,0.816H21v-2H30.875z"/>
	</g>
</g>
</svg>
