<?xml version="1.0" encoding="iso-8859-1"?>
<!-- Generator: Adobe Illustrator 17.0.1, SVG Export Plug-In . SVG Version: 6.00 Build 0)  -->
<!DOCTYPE svg PUBLIC "-//W3C//DTD SVG 1.1//EN" "http://www.w3.org/Graphics/SVG/1.1/DTD/svg11.dtd">
<svg version="1.1" id="Layer_1" xmlns="http://www.w3.org/2000/svg" xmlns:xlink="http://www.w3.org/1999/xlink" x="0px" y="0px"
	 width="64px" height="64px" viewBox="0 0 64 64" style="enable-background:new 0 0 64 64;" xml:space="preserve">
<g id="icon-m-service-owncloud">
	<rect id="icon-m-service-owncloud_1_" style="opacity:0;fill:#FFFFFF;" width="64" height="64"/>
	<linearGradient id="SVGID_1_" gradientUnits="userSpaceOnUse" x1="10.1436" y1="69.8564" x2="53.8564" y2="-5.8564">
		<stop  offset="0" style="stop-color:#C9C9C9"/>
		<stop  offset="1" style="stop-color:#FFFFFF"/>
	</linearGradient>
	<rect style="fill:url(#SVGID_1_);" width="64" height="64"/>
	<g>
		<path style="fill:#567B8F;" d="M57.273,43.492h-0.978c-1.653,0-2.999-1.398-2.999-3.116s1.346-3.115,2.999-3.115h2.553v-5.006
			h0.475v5.244c0.001,0.092,0.027,2.931,0,3.911C59.289,42.563,58.174,43.492,57.273,43.492z M56.296,37.735
			c-1.393,0-2.524,1.185-2.524,2.641c0,1.457,1.132,2.642,2.524,2.642h0.978c0.674,0,1.551-0.764,1.575-1.622
			c0.023-0.816,0.009-2.949,0.002-3.66H56.296z"/>
		<path style="fill:#567B8F;" d="M48.847,43.492c-1.653,0-2.999-1.398-2.999-3.116V37.47h0.475v2.906
			c0,1.457,1.132,2.642,2.524,2.642c1.392,0,2.523-1.185,2.523-2.642V37.47h0.475v2.906C51.845,42.094,50.5,43.492,48.847,43.492z"
			/>
		<path style="fill:#567B8F;" d="M41.512,43.492c-1.653,0-2.998-1.398-2.998-3.116s1.345-3.115,2.998-3.115s2.999,1.397,2.999,3.115
			S43.165,43.492,41.512,43.492z M41.512,37.735c-1.392,0-2.523,1.185-2.523,2.641c0,1.457,1.132,2.642,2.523,2.642
			c1.393,0,2.524-1.185,2.524-2.642C44.036,38.92,42.904,37.735,41.512,37.735z"/>
		<path style="fill:#567B8F;" d="M33.746,43.463c-2.573,0-4.667-2.165-4.667-4.825s2.093-4.825,4.667-4.825v0.475
			c-2.312,0-4.193,1.951-4.193,4.351s1.881,4.351,4.193,4.351V43.463z"/>
		<path style="fill:#567B8F;" d="M37.601,43.492c-1.114,0-2.021-0.938-2.021-2.09v-9.148h0.475v9.148
			c0,0.891,0.693,1.615,1.547,1.615V43.492z"/>
		<path style="fill:#E76E34;" d="M27.598,43.226h-0.474v-2.906c0-1.456-1.133-2.641-2.524-2.641s-2.524,1.185-2.524,2.641v2.906
			h-0.474v-2.906c0-1.718,1.345-3.115,2.998-3.115s2.998,1.397,2.998,3.115V43.226z"/>
		<path style="fill:#E76E34;" d="M17.984,43.492c-0.771,0-1.443-0.449-1.783-1.108c-0.34,0.659-1.012,1.108-1.783,1.108
			c-1.114,0-2.02-0.938-2.02-2.09V37.47h0.474v3.933c0,0.891,0.694,1.615,1.546,1.615s1.546-0.725,1.546-1.615V37.47h0.474v3.933
			c0,0.891,0.694,1.615,1.546,1.615c0.853,0,1.547-0.725,1.547-1.615V37.47h0.474v3.933C20.004,42.555,19.098,43.492,17.984,43.492z
			"/>
		<path style="fill:#E76E34;" d="M7.859,43.492c-1.653,0-2.998-1.398-2.998-3.116s1.345-3.115,2.998-3.115
			c1.653,0,2.999,1.397,2.999,3.115S9.513,43.492,7.859,43.492z M7.859,37.735c-1.392,0-2.524,1.185-2.524,2.641
			c0,1.457,1.132,2.642,2.524,2.642c1.392,0,2.525-1.185,2.525-2.642C10.384,38.92,9.251,37.735,7.859,37.735z"/>
	</g>
	<linearGradient id="SVGID_2_" gradientUnits="userSpaceOnUse" x1="39.0549" y1="35.1585" x2="39.0549" y2="16.7347">
		<stop  offset="0" style="stop-color:#8BA7B5"/>
		<stop  offset="1" style="stop-color:#CCE5F2"/>
	</linearGradient>
	<path style="fill:url(#SVGID_2_);" d="M27.443,27.248c0-2.721,2.151-4.935,4.794-4.935c0.088,0,0.174,0.009,0.261,0.014
		c0.158,0.81,0.501,1.552,0.979,2.18c-0.84,1.172-1.342,2.612-1.342,4.173c0,0.294,0.023,0.581,0.057,0.866
		c-0.092-0.009-0.182-0.022-0.276-0.022c-1.135,0-2.125,0.643-2.648,1.593C28.158,30.211,27.443,28.815,27.443,27.248z
		 M32.237,21.656c0.06,0,0.119,0.007,0.179,0.009c-0.008-0.122-0.018-0.243-0.018-0.367c0-0.723,0.144-1.412,0.404-2.038
		c-0.344-0.219-0.744-0.351-1.177-0.351c-1.246,0-2.259,1.046-2.259,2.332c0,0.395,0.105,0.762,0.274,1.089
		C30.412,21.9,31.297,21.656,32.237,21.656z M42.424,22.5c1.114,0.638,2.037,1.582,2.663,2.72c0.613-0.311,1.288-0.512,2.003-0.567
		c-0.219-2.306-2.105-4.113-4.393-4.113c-0.064,0-0.127,0.007-0.19,0.01c0.035,0.245,0.058,0.494,0.058,0.749
		C42.565,21.712,42.514,22.114,42.424,22.5z M39.055,21.599c0.979,0,1.91,0.212,2.756,0.589c0.055-0.288,0.086-0.586,0.086-0.89
		c0-2.516-1.98-4.563-4.415-4.563c-2.435,0-4.415,2.047-4.415,4.563c0,0.996,0.314,1.916,0.84,2.667
		C35.174,22.517,37.009,21.599,39.055,21.599z M29.003,31.745c-1.349-1.019-2.23-2.653-2.23-4.497c0-0.458,0.06-0.901,0.162-1.327
		c-0.02,0-0.04-0.003-0.06-0.003c-2.434,0-4.415,2.047-4.415,4.563c0,2.517,1.981,4.564,4.415,4.564
		c0.903,0,1.743-0.283,2.443-0.765c-0.281-0.474-0.446-1.029-0.446-1.624C28.872,32.339,28.918,32.033,29.003,31.745z
		 M47.505,25.288c-0.766,0-1.487,0.19-2.13,0.521c0.383,0.878,0.6,1.848,0.6,2.87c0,1.912-0.748,3.646-1.956,4.921
		c0.875,0.957,2.112,1.558,3.486,1.558c2.643,0,4.794-2.214,4.794-4.935S50.148,25.288,47.505,25.288z M53.274,29.894
		c-0.11,0-0.215,0.019-0.321,0.034c0.005,0.099,0.015,0.196,0.015,0.296c0,1.462-0.556,2.791-1.457,3.789
		c0.435,0.507,1.061,0.832,1.763,0.832c1.31,0,2.375-1.11,2.375-2.475C55.65,31.004,54.584,29.894,53.274,29.894z M32.305,30.221
		c-0.127-0.022-0.256-0.041-0.389-0.041c-1.31,0-2.375,1.11-2.375,2.475s1.066,2.475,2.375,2.475c0.983,0,1.828-0.625,2.189-1.514
		C33.224,32.692,32.59,31.524,32.305,30.221z M45.305,28.679c0,3.541-2.804,6.423-6.25,6.423c-3.447,0-6.251-2.881-6.251-6.423
		c0-3.542,2.804-6.423,6.251-6.423C42.501,22.256,45.305,25.137,45.305,28.679z"/>
</g>
</svg>
