<?xml version="1.0" encoding="iso-8859-1"?>
<!-- Generator: Adobe Illustrator 19.1.0, SVG Export Plug-In . SVG Version: 6.00 Build 0)  -->
<svg version="1.1" id="Layer_1" xmlns="http://www.w3.org/2000/svg" xmlns:xlink="http://www.w3.org/1999/xlink" x="0px" y="0px"
	 viewBox="0 0 64 64" style="enable-background:new 0 0 64 64;" xml:space="preserve">
<g id="icon-m-file-note">
	<rect id="icon-m-file-note_1_" style="opacity:0;fill:#FFFFFF;" width="64" height="64"/>
	<g>
		<path style="opacity:0.6;fill:#FFFFFF;" d="M38.414,53H14.386C12.784,53,11,51.725,11,49.895V14.105
			C11,12.275,12.784,11,14.386,11H50c1.683,0,3,1.364,3,3.105v24.309L38.414,53z M14.386,13C13.712,13,13,13.568,13,14.105v35.789
			C13,50.432,13.712,51,14.386,51h23.2L51,37.586v-23.48C51,13.475,50.57,13,50,13H14.386z"/>
		<path style="fill:#FFFFFF;" d="M38,40.125V52l14-14H40.347C39.268,38,38,39.025,38,40.125z"/>
		<path style="opacity:0.6;fill:#FFFFFF;" d="M50.5,21h-37c-0.552,0-1-0.448-1-1s0.448-1,1-1h37c0.553,0,1,0.448,1,1
			S51.053,21,50.5,21z"/>
	</g>
	<g>
		<rect x="21.083" y="26" style="fill:#FFFFFF;" width="22" height="2"/>
		<rect x="21.083" y="34" style="fill:#FFFFFF;" width="22" height="2"/>
		<rect x="21.083" y="42" style="fill:#FFFFFF;" width="22" height="2"/>
	</g>
</g>
</svg>
