<?xml version="1.0" encoding="windows-1252"?>
<!-- Generator: Adobe Illustrator 22.1.0, SVG Export Plug-In . SVG Version: 6.00 Build 0)  -->
<svg version="1.1" id="Layer_1" xmlns="http://www.w3.org/2000/svg" xmlns:xlink="http://www.w3.org/1999/xlink" x="0px" y="0px" width="32" height="32" viewBox="0 0 32 32" style="enable-background:new 0 0 32 32;" xml:space="preserve">
<g id="icon-s-maybe_3_">
	<g style="opacity:0.6;">
		<path style="fill:#FFFFFF;" d="M25.402,27.432H6.597c-1.128,0-2.046-0.918-2.046-2.047V6.58c0-1.128,0.918-2.046,2.046-2.046    h18.806c1.129,0,2.047,0.918,2.047,2.046v18.805C27.449,26.514,26.531,27.432,25.402,27.432z M6.597,6.533L6.55,25.385    l18.852,0.047L25.449,6.58L6.597,6.533z"/>
	</g>
	<path style="fill:#FFFFFF;" d="M17.467,12.47c0-1.007-0.64-1.697-1.74-1.697c-0.862,0-1.57,0.435-2.192,1.1l-1.374-1.254   c0.951-1.075,2.261-1.851,3.865-1.851c2.227,0,3.814,1.22,3.814,3.532c0,2.712-3.319,3.677-3.02,6.423h-2.158   C14.216,15.609,17.467,14.397,17.467,12.47z"/>
	<path style="fill:#FFFFFF;" d="M14.252,21.668c0-0.912,0.699-1.581,1.604-1.581c0.907,0,1.606,0.669,1.606,1.581   c0,0.895-0.699,1.565-1.606,1.565C14.951,23.233,14.252,22.563,14.252,21.668z"/>
	<rect id="icon-s-maybe_4_" style="opacity:0;fill:#FFFFFF;" width="32" height="32"/>
</g>
</svg>