<?xml version="1.0" encoding="windows-1252"?>
<!-- Generator: Adobe Illustrator 22.1.0, SVG Export Plug-In . SVG Version: 6.00 Build 0)  -->
<svg version="1.1" id="Layer_1" xmlns="http://www.w3.org/2000/svg" xmlns:xlink="http://www.w3.org/1999/xlink" x="0px" y="0px" width="32" height="32" viewBox="0 0 32 32" style="enable-background:new 0 0 32 32;" xml:space="preserve">
<g id="icon-s-missed-call">
	<g>
		<path style="fill:#FFFFFF;" d="M27.289,20.58h-9.885c-0.602,0-1.089-0.487-1.089-1.089s0.488-1.089,1.089-1.089h9.885    c0.602,0,1.089,0.487,1.089,1.089S27.891,20.58,27.289,20.58z"/>
		<path style="fill:#FFFFFF;" d="M17.404,20.452c-0.602,0-1.089-0.487-1.089-1.089v-6.456c0-0.602,0.488-1.089,1.089-1.089    s1.089,0.488,1.089,1.089v6.456C18.493,19.965,18.006,20.452,17.404,20.452z"/>
		<g>
			<path style="fill:#FFFFFF;" d="M22.56,14H12.251c-0.666,0-1.235-0.324-1.521-0.867c-0.298-0.563-0.239-1.247,0.158-1.829     l5.019-7.444c0.371-0.545,0.923-0.856,1.517-0.857h0.001c0.582,0,1.119,0.3,1.476,0.823l5.025,7.5     c0.391,0.574,0.451,1.253,0.155,1.812C23.796,13.677,23.227,14,22.56,14z M22.121,12.545h0.01H22.121z M13.166,11.821h8.47     l-4.222-6.3L13.166,11.821z"/>
		</g>
		<path style="opacity:0.6;fill:#FFFFFF;" d="M16.711,28.934c-7.182,0-13.025-5.844-13.025-13.026c0-0.566,0.459-1.025,1.025-1.025    s1.025,0.459,1.025,1.025c0,6.051,4.923,10.975,10.975,10.975c0.566,0,1.026,0.459,1.026,1.025S17.277,28.934,16.711,28.934z"/>
	</g>
	<rect id="icon-s-missed-call_1_" style="opacity:0;fill:#FFFFFF;" width="32" height="32"/>
</g>
</svg>