<?xml version="1.0" encoding="iso-8859-1"?>
<!-- Generator: Adobe Illustrator 17.0.1, SVG Export Plug-In . SVG Version: 6.00 Build 0)  -->
<!DOCTYPE svg PUBLIC "-//W3C//DTD SVG 1.1//EN" "http://www.w3.org/Graphics/SVG/1.1/DTD/svg11.dtd">
<svg version="1.1" id="Layer_1" xmlns="http://www.w3.org/2000/svg" xmlns:xlink="http://www.w3.org/1999/xlink" x="0px" y="0px"
	 width="32px" height="32px" viewBox="0 0 32 32" style="enable-background:new 0 0 32 32;" xml:space="preserve">
<g id="icon-s-service-yahoo">
	<rect id="icon-s-service-yahoo_1_" style="opacity:0;fill:#FFFFFF;" width="32" height="32"/>
	<rect style="fill:#8A2A8F;" width="32" height="32"/>
	<g>
		<polygon style="fill-rule:evenodd;clip-rule:evenodd;fill:#FFFFFF;" points="26.232,22.949 23.598,22.627 23.891,20.316 
			26.525,20.637 26.232,22.949 		"/>
		<polygon style="fill-rule:evenodd;clip-rule:evenodd;fill:#FFFFFF;" points="28.867,8.929 24.36,8.373 24.388,18.823 
			26.35,19.086 28.867,8.929 		"/>
		<polygon style="fill-rule:evenodd;clip-rule:evenodd;fill:#FFFFFF;" points="27.228,20.637 27.023,20.637 27.023,20.491 
			27.579,20.491 27.579,20.637 27.374,20.637 27.374,21.193 27.228,21.193 27.228,20.637 		"/>
		<polygon style="fill-rule:evenodd;clip-rule:evenodd;fill:#FFFFFF;" points="27.872,20.696 27.872,21.193 27.725,21.193 
			27.725,20.491 27.901,20.491 28.106,20.842 28.311,20.491 28.457,20.491 28.457,21.193 28.311,21.193 28.311,20.696 
			28.106,21.047 28.076,21.047 27.872,20.696 		"/>
		<polygon style="fill-rule:evenodd;clip-rule:evenodd;fill:#FFFFFF;" points="26.232,22.949 23.598,22.627 23.891,20.316 
			26.525,20.637 26.232,22.949 		"/>
		<polygon style="fill-rule:evenodd;clip-rule:evenodd;fill:#FFFFFF;" points="28.867,8.929 24.36,8.373 24.388,18.823 
			26.35,19.086 28.867,8.929 		"/>
		<path style="fill-rule:evenodd;clip-rule:evenodd;fill:#FFFFFF;" d="M19.793,10.744c-1.815-1.375-4.156-2.049-6.996-2.049
			c-2.868,0-5.21,0.673-6.995,2.049c-1.815,1.346-2.722,3.074-2.722,5.21c0,2.166,0.908,3.922,2.722,5.269
			c1.481,1.116,3.345,1.77,5.574,1.961h2.832c2.213-0.191,4.08-0.844,5.585-1.961c1.785-1.347,2.693-3.103,2.693-5.269
			C22.486,13.817,21.579,12.09,19.793,10.744z M18.447,14.168l-1.375,0.293c-0.205,0.058-0.761,0.468-1.727,1.259
			c-1.025,0.819-1.552,1.346-1.639,1.61l-0.059,0.731l-0.029,0.44l0.117,1.112l1.815,0.029l-0.029,0.556h-2.956l-2.634,0.029
			l0.088-0.527l0.849-0.029c0.439-0.029,0.703-0.088,0.79-0.176c0.059-0.058,0.088-0.409,0.088-1.024v-0.38l-0.029-0.761
			c-0.059-0.176-0.527-0.819-1.434-1.932c-0.937-1.141-1.552-1.815-1.844-2.049l-1.698-0.234v-0.498
			c0.088-0.058,1.025-0.058,2.752-0.029c1.2-0.029,2.195-0.029,2.985,0.029l-0.059,0.41l-1.786,0.176
			c0.556,0.819,1.405,1.961,2.547,3.395c1.493-1.141,2.283-1.873,2.312-2.195l-1.522-0.234l-0.117-0.527h2.547l2.4,0.029
			L18.447,14.168z"/>
		<polygon style="fill-rule:evenodd;clip-rule:evenodd;fill:#FFFFFF;" points="27.228,20.637 27.023,20.637 27.023,20.491 
			27.579,20.491 27.579,20.637 27.374,20.637 27.374,21.193 27.228,21.193 27.228,20.637 		"/>
		<polygon style="fill-rule:evenodd;clip-rule:evenodd;fill:#FFFFFF;" points="27.872,20.696 27.872,21.193 27.725,21.193 
			27.725,20.491 27.901,20.491 28.106,20.842 28.311,20.491 28.457,20.491 28.457,21.193 28.311,21.193 28.311,20.696 
			28.106,21.047 28.076,21.047 27.872,20.696 		"/>
	</g>
</g>
</svg>
