<?xml version="1.0" encoding="utf-8"?>
<!-- Generator: Adobe Illustrator 23.0.3, SVG Export Plug-In . SVG Version: 6.00 Build 0)  -->
<svg version="1.1" id="Layer_1" xmlns="http://www.w3.org/2000/svg" xmlns:xlink="http://www.w3.org/1999/xlink" x="0px" y="0px"
	 viewBox="0 0 32 32" style="enable-background:new 0 0 32 32;" xml:space="preserve">
<style type="text/css">
	.st0{fill:url(#SVGID_1_);}
	.st1{fill:#FFFFFF;}
</style>
<radialGradient id="SVGID_1_" cx="-281.3513" cy="434.3658" r="0.25" gradientTransform="matrix(116.5081 -146.8192 -123.0718 -97.6634 86241.3281 1149.3646)" gradientUnits="userSpaceOnUse">
	<stop  offset="0" style="stop-color:#FF7A00"/>
	<stop  offset="1" style="stop-color:#9E00FF"/>
</radialGradient>
<path class="st0" d="M31.5,0H16C7.2,0,0,7.2,0,16v15.5C0,31.8,0.2,32,0.5,32H16c8.8,0,16-7.2,16-16V0.5C32,0.2,31.8,0,31.5,0z"/>
<path class="st1" d="M16.6,4.7l-0.5-0.9c0-0.1-0.2-0.1-0.2,0L5.8,21.5c0,0.1,0,0.2,0.1,0.2l6.2,0c0,0,0.1,0,0.1,0.1l3.7,6.5
	c0,0.1,0.2,0.1,0.2,0l3.7-6.5c0,0,0.1-0.1,0.1-0.1l6.2,0c0.1,0,0.1-0.1,0.1-0.2l-0.5-0.9c0,0-0.1-0.1-0.1-0.1l-1.7,0
	c-0.1,0-0.1-0.1-0.1-0.2l0.8-1.5c0,0,0-0.1,0-0.1l-0.5-0.9c0-0.1-0.2-0.1-0.2,0l-1.5,2.6c0,0-0.1,0.1-0.1,0.1h-1.7
	c-0.1,0-0.1-0.1-0.1-0.2l2.5-4.3c0,0,0-0.1,0-0.1L22.5,15c0-0.1-0.2-0.1-0.2,0l-6.3,10.9c0,0.1-0.2,0.1-0.2,0l-0.8-1.5
	c0,0,0-0.1,0-0.1l6.4-11.1c0,0,0-0.1,0-0.1l-0.5-0.9c0-0.1-0.2-0.1-0.2,0l-6.3,10.9c0,0.1-0.2,0.1-0.2,0l-0.9-1.5c0,0,0-0.1,0-0.1
	l6.4-11.1c0,0,0-0.1,0-0.1l-0.5-0.8c0-0.1-0.2-0.1-0.2,0l-6.3,11c0,0-0.1,0.1-0.1,0.1l-1.7,0c-0.1,0-0.1-0.1-0.1-0.2l7.3-12.7
	c0,0,0-0.1,0-0.1l-0.5-0.9c0-0.1-0.2-0.1-0.2,0L9.6,20.5c0,0-0.1,0.1-0.1,0.1H7.8c-0.1,0-0.1-0.1-0.1-0.2l8.9-15.6
	C16.6,4.8,16.6,4.7,16.6,4.7z"/>
</svg>
