<?xml version="1.0" encoding="iso-8859-1"?>
<!-- Generator: Adobe Illustrator 17.0.1, SVG Export Plug-In . SVG Version: 6.00 Build 0)  -->
<!DOCTYPE svg PUBLIC "-//W3C//DTD SVG 1.1//EN" "http://www.w3.org/Graphics/SVG/1.1/DTD/svg11.dtd">
<svg version="1.1" id="Layer_1" xmlns="http://www.w3.org/2000/svg" xmlns:xlink="http://www.w3.org/1999/xlink" x="0px" y="0px"
	 width="32px" height="32px" viewBox="0 0 32 32" style="enable-background:new 0 0 32 32;" xml:space="preserve">
<g id="icon-s-service-fruux">
	<rect id="icon-s-service-fruux_1_" style="opacity:0;fill:#FFFFFF;" width="32" height="32"/>
	<linearGradient id="SVGID_1_" gradientUnits="userSpaceOnUse" x1="5.0718" y1="34.9282" x2="26.9282" y2="-2.9282">
		<stop  offset="0" style="stop-color:#C9C9C9"/>
		<stop  offset="1" style="stop-color:#FFFFFF"/>
	</linearGradient>
	<rect style="fill:url(#SVGID_1_);" width="32" height="32"/>
	<g>
		
			<radialGradient id="SVGID_2_" cx="-162.089" cy="445.0578" r="7.4629" fx="-162.0834" fy="447.8327" gradientTransform="matrix(1.1062 0 0 0.2864 194.769 -101.3076)" gradientUnits="userSpaceOnUse">
			<stop  offset="0.0753" style="stop-color:#000000;stop-opacity:0.7"/>
			<stop  offset="0.6348" style="stop-color:#191616;stop-opacity:0.2765"/>
			<stop  offset="1" style="stop-color:#231F20;stop-opacity:0"/>
		</radialGradient>
		<ellipse style="fill:url(#SVGID_2_);" cx="15.466" cy="26.157" rx="8.256" ry="2.137"/>
		<g>
			<path style="fill:#B5CD3B;" d="M21.33,9.483c-0.195,0-0.386-0.067-0.539-0.19c-0.179-0.143-0.293-0.352-0.317-0.58l-0.465-4.39
				c-0.05-0.473,0.293-0.897,0.765-0.947l1.455-0.154c0.03-0.003,0.061-0.005,0.091-0.005c0.196,0,0.387,0.067,0.541,0.191
				c0.178,0.144,0.291,0.352,0.315,0.579l0.219,2.066l4.95-0.554c0.033-0.004,0.065-0.005,0.097-0.005
				c0.433,0,0.805,0.325,0.854,0.765l0.163,1.454c0.025,0.227-0.04,0.454-0.183,0.633s-0.35,0.293-0.577,0.318l-7.274,0.813
				C21.393,9.481,21.362,9.483,21.33,9.483z"/>
			<path style="fill:#6F8502;" d="M21.33,9.569c-0.215,0-0.426-0.074-0.594-0.208c-0.195-0.158-0.321-0.39-0.349-0.639l-0.465-4.39
				c-0.055-0.52,0.323-0.987,0.843-1.042l1.455-0.154c0.247-0.027,0.501,0.048,0.694,0.206c0.194,0.156,0.32,0.388,0.347,0.637
				l0.209,1.979l4.864-0.544c0.037-0.004,0.072-0.006,0.107-0.006c0.481,0,0.886,0.362,0.94,0.841l0.162,1.455
				c0.027,0.248-0.046,0.502-0.201,0.696c-0.156,0.195-0.388,0.322-0.635,0.35l-7.273,0.813C21.399,9.567,21.364,9.569,21.33,9.569z
				 M22.32,3.303c-0.027,0-0.055,0.002-0.083,0.004l-1.454,0.154c-0.425,0.045-0.733,0.427-0.688,0.853l0.465,4.39
				c0.021,0.204,0.125,0.394,0.284,0.523c0.159,0.127,0.36,0.186,0.573,0.166l7.272-0.813c0.203-0.023,0.393-0.127,0.52-0.287
				s0.188-0.367,0.164-0.569l-0.162-1.455c-0.047-0.422-0.418-0.725-0.857-0.684l-5.035,0.563l-0.01-0.086L23.09,3.997
				c-0.021-0.203-0.124-0.393-0.282-0.521C22.669,3.364,22.496,3.303,22.32,3.303z"/>
		</g>
		<linearGradient id="SVGID_3_" gradientUnits="userSpaceOnUse" x1="20.6816" y1="8.3602" x2="27.7425" y2="4.2836">
			<stop  offset="0" style="stop-color:#95A831"/>
			<stop  offset="1" style="stop-color:#AABF39"/>
		</linearGradient>
		<path style="fill:url(#SVGID_3_);" d="M21.33,9.053c-0.098,0-0.193-0.034-0.27-0.095c-0.089-0.071-0.146-0.177-0.158-0.29
			l-0.465-4.39c-0.012-0.114,0.021-0.227,0.093-0.316c0.072-0.089,0.175-0.145,0.289-0.158l1.455-0.154
			c0.015-0.002,0.03-0.002,0.045-0.002c0.098,0,0.194,0.034,0.271,0.096c0.089,0.072,0.145,0.175,0.157,0.289l0.219,2.066
			c0.012,0.114,0.069,0.218,0.158,0.29c0.077,0.062,0.172,0.095,0.27,0.095c0.016,0,0.032-0.001,0.048-0.003l4.95-0.554
			c0.017-0.002,0.033-0.003,0.049-0.003c0.219,0,0.402,0.165,0.427,0.383l0.163,1.454c0.013,0.114-0.02,0.227-0.091,0.316
			c-0.072,0.09-0.174,0.146-0.288,0.159L21.378,9.05C21.362,9.052,21.346,9.053,21.33,9.053z"/>
		<g>
			<g>
				<linearGradient id="SVGID_4_" gradientUnits="userSpaceOnUse" x1="7.7157" y1="23.7562" x2="22.3724" y2="9.0996">
					<stop  offset="0" style="stop-color:#A10000"/>
					<stop  offset="1" style="stop-color:#E3231B"/>
				</linearGradient>
				<path style="fill:url(#SVGID_4_);" d="M15.007,27.053c-0.992,0-1.976-0.138-2.923-0.41c0.083-0.331,0.126-0.671,0.126-1.011
					c0-2.278-1.854-4.132-4.132-4.132c-0.727,0-1.439,0.191-2.065,0.552c-1.043-1.675-1.594-3.605-1.594-5.588
					c0-5.838,4.75-10.588,10.588-10.588c1.4,0,2.759,0.269,4.042,0.799l0.349,3.294c0.026,0.249,0.153,0.482,0.348,0.638
					c0.168,0.135,0.378,0.209,0.593,0.209c0.035,0,0.07-0.002,0.105-0.006l3.273-0.366c1.228,1.774,1.877,3.854,1.877,6.019
					C25.595,22.303,20.846,27.053,15.007,27.053z M15.007,10.525c-3.275,0-5.94,2.665-5.94,5.94c0,3.275,2.665,5.94,5.94,5.94
					s5.94-2.664,5.94-5.94C20.947,13.19,18.282,10.525,15.007,10.525z"/>
			</g>
			<g>
				<path style="fill:#6D151A;" d="M15.007,27.182c-1.004,0-2-0.139-2.959-0.414l-0.12-0.034l0.03-0.121
					c0.081-0.322,0.122-0.651,0.122-0.979c0-2.207-1.796-4.003-4.003-4.003c-0.704,0-1.395,0.185-2,0.534l-0.108,0.063l-0.066-0.105
					c-1.056-1.695-1.613-3.65-1.613-5.656c0-5.91,4.808-10.717,10.717-10.717c1.417,0,2.792,0.272,4.091,0.809l0.07,0.029
					l0.357,3.371c0.023,0.215,0.133,0.416,0.302,0.552c0.168,0.135,0.389,0.198,0.603,0.175l3.351-0.374l0.044,0.063
					c1.242,1.796,1.899,3.903,1.899,6.093C25.725,22.374,20.917,27.182,15.007,27.182z M12.238,26.553
					c0.9,0.246,1.831,0.371,2.77,0.371c5.767,0,10.459-4.692,10.459-10.459c0-2.112-0.626-4.144-1.811-5.882L20.46,10.94
					c-0.286,0.029-0.572-0.053-0.794-0.23c-0.222-0.179-0.366-0.443-0.396-0.726l-0.342-3.218c-1.246-0.505-2.565-0.761-3.921-0.761
					c-5.767,0-10.459,4.692-10.459,10.459c0,1.916,0.522,3.785,1.51,5.415c0.618-0.333,1.313-0.508,2.02-0.508
					c2.35,0,4.261,1.911,4.261,4.261C12.338,25.94,12.305,26.249,12.238,26.553z M15.007,22.533c-3.347,0-6.069-2.722-6.069-6.068
					s2.722-6.069,6.069-6.069c3.346,0,6.069,2.722,6.069,6.069S18.354,22.533,15.007,22.533z M15.007,10.654
					c-3.204,0-5.811,2.607-5.811,5.811s2.607,5.811,5.811,5.811c3.204,0,5.811-2.606,5.811-5.811S18.211,10.654,15.007,10.654z"/>
			</g>
		</g>
		<g>
			<path style="fill:#EFA292;" d="M4.505,16.723c0-5.791,4.711-10.502,10.502-10.502c1.371,0,2.704,0.26,3.962,0.773l0.343,2.985
				c0.029,0.272,0.167,0.525,0.38,0.696c0.183,0.147,0.413,0.228,0.647,0.228c0.038,0,0.077-0.002,0.115-0.006l3.222-0.36
				c1.199,1.75,1.833,4.057,1.833,6.186c0,1.183-0.197,2.321-0.559,3.384c0.417-1.136,0.646-2.363,0.646-3.642
				c0-2.165-0.649-4.245-1.877-6.019l-3.273,0.366c-0.035,0.004-0.07,0.006-0.105,0.006c-0.215,0-0.426-0.074-0.593-0.209
				c-0.195-0.157-0.322-0.389-0.348-0.638l-0.349-3.294c-1.283-0.53-2.642-0.799-4.042-0.799c-5.838,0-10.588,4.75-10.588,10.588
				c0,1.262,0.224,2.503,0.655,3.67C4.7,19.044,4.505,17.892,4.505,16.723z"/>
			<path style="fill:#EFA292;" d="M21.033,16.551c0-0.749-0.139-1.294-0.39-1.957c0.196,0.589,0.304,1.217,0.304,1.871
				c0,3.275-2.665,5.94-5.94,5.94s-5.94-2.664-5.94-5.94c0-0.653,0.108-1.282,0.304-1.871c-0.251,0.662-0.39,1.208-0.39,1.957
				c0,3.323,2.703,5.94,6.026,5.94C18.33,22.491,21.033,19.874,21.033,16.551z"/>
		</g>
		<g>
			<linearGradient id="SVGID_5_" gradientUnits="userSpaceOnUse" x1="15.0071" y1="19.4174" x2="15.0071" y2="10.3529">
				<stop  offset="0" style="stop-color:#EFA292"/>
				<stop  offset="1" style="stop-color:#A10000"/>
			</linearGradient>
			<path style="fill:url(#SVGID_5_);" d="M21.033,16.379c0-3.323-2.703-6.026-6.026-6.026c-3.323,0-6.026,2.703-6.026,6.026
				c0,1.143,0.32,2.127,0.875,3.039c-0.501-0.87-0.789-1.878-0.789-2.953c0-3.275,2.665-5.94,5.94-5.94s5.94,2.665,5.94,5.94
				c0,1.074-0.288,2.082-0.789,2.953C20.713,18.506,21.033,17.522,21.033,16.379z"/>
			<g>
				<linearGradient id="SVGID_6_" gradientUnits="userSpaceOnUse" x1="15.0071" y1="27.0531" x2="15.0071" y2="11.0927">
					<stop  offset="0" style="stop-color:#EFA292"/>
					<stop  offset="1" style="stop-color:#A10000"/>
				</linearGradient>
				<path style="fill:url(#SVGID_6_);" d="M24.132,11.093c0.903,1.579,1.377,3.359,1.377,5.2c0,5.791-4.711,10.588-10.502,10.588
					c-0.956,0-1.905-0.129-2.82-0.384c0.072-0.312,0.109-0.545,0.109-0.865c0-2.326-1.892-4.218-4.218-4.218
					c-0.713,0-1.414,0.181-2.035,0.523c-1.006-1.645-1.537-3.707-1.537-5.645c0-1.876,0.495-3.639,1.36-5.164
					c-0.919,1.568-1.446,3.392-1.446,5.337c0,1.983,0.551,3.913,1.594,5.588c0.626-0.361,1.338-0.552,2.065-0.552
					c2.278,0,4.132,1.854,4.132,4.132c0,0.34-0.042,0.68-0.126,1.011c0.948,0.272,1.931,0.41,2.923,0.41
					c5.838,0,10.588-4.664,10.588-10.502C25.595,14.644,25.091,12.717,24.132,11.093z"/>
			</g>
		</g>
	</g>
</g>
</svg>
