<?xml version="1.0" encoding="windows-1252"?>
<!-- Generator: Adobe Illustrator 22.1.0, SVG Export Plug-In . SVG Version: 6.00 Build 0)  -->
<svg version="1.1" id="Layer_1" xmlns="http://www.w3.org/2000/svg" xmlns:xlink="http://www.w3.org/1999/xlink" x="0px" y="0px" width="32" height="32" viewBox="0 0 32 32" style="enable-background:new 0 0 32 32;" xml:space="preserve">
<g id="icon-s-decline_5_">
	<g style="opacity:0.6;">
		<path style="fill:#FFFFFF;" d="M25.402,27.432H6.597c-1.128,0-2.046-0.918-2.046-2.047V6.58c0-1.128,0.918-2.046,2.046-2.046    h18.806c1.129,0,2.047,0.918,2.047,2.046v18.805C27.449,26.514,26.531,27.432,25.402,27.432z M6.597,6.533L6.55,25.385    l18.852,0.047L25.449,6.58L6.597,6.533z"/>
	</g>
	<rect id="icon-s-decline_8_" x="3.68" y="3.68" style="opacity:0;fill:#FFFFFF;" width="24.641" height="24.641"/>
	<path style="fill:#FFFFFF;" d="M21.082,22.082c-0.256,0-0.512-0.098-0.707-0.293l-2.541-2.54c-1.791-1.791-1.791-4.705,0-6.496   l2.541-2.541c0.391-0.391,1.023-0.391,1.414,0s0.391,1.023,0,1.414l-2.541,2.541c-1.011,1.011-1.011,2.657,0,3.668l2.541,2.54   c0.391,0.39,0.391,1.023,0,1.414C21.594,21.984,21.338,22.082,21.082,22.082z"/>
	<path style="fill:#FFFFFF;" d="M10.918,22.083c-0.256,0-0.512-0.098-0.707-0.293c-0.391-0.391-0.391-1.023,0-1.414l2.541-2.541   c1.011-1.011,1.011-2.657,0-3.668l-2.541-2.541c-0.391-0.391-0.391-1.023,0-1.414s1.023-0.391,1.414,0l2.541,2.541   c1.791,1.791,1.791,4.705,0,6.496l-2.541,2.541C11.43,21.985,11.174,22.083,10.918,22.083z"/>
	<rect id="icon-s-decline_7_" style="opacity:0;fill:#FFFFFF;" width="32" height="32"/>
</g>
</svg>