<?xml version="1.0" encoding="iso-8859-1"?>
<!-- Generator: Adobe Illustrator 19.1.0, SVG Export Plug-In . SVG Version: 6.00 Build 0)  -->
<svg version="1.1" id="Layer_1" xmlns="http://www.w3.org/2000/svg" xmlns:xlink="http://www.w3.org/1999/xlink" x="0px" y="0px"
	 viewBox="0 0 64 64" style="enable-background:new 0 0 64 64;" xml:space="preserve">
<g id="icon-m-media-albums">
	<g>
		<g style="opacity:0.6;">
			<path style="fill:#FFFFFF;" d="M51,55H13c-2.206,0-4-1.794-4-4V13c0-2.206,1.794-4,4-4h38c2.206,0,4,1.794,4,4v38
				C55,53.206,53.206,55,51,55z M13,11c-1.103,0-2,0.897-2,2v38c0,1.103,0.897,2,2,2h38c1.103,0,2-0.897,2-2V13c0-1.103-0.897-2-2-2
				H13z"/>
		</g>
		<path style="fill:#FFFFFF;" d="M32,48c-8.822,0-16-7.178-16-16s7.178-16,16-16s16,7.178,16,16S40.822,48,32,48z M32,18
			c-7.72,0-14,6.28-14,14s6.28,14,14,14s14-6.28,14-14S39.72,18,32,18z"/>
		<path style="fill:#FFFFFF;" d="M32,38c-3.309,0-6-2.691-6-6s2.691-6,6-6s6,2.691,6,6S35.309,38,32,38z M32,28
			c-2.206,0-4,1.794-4,4c0,2.206,1.794,4,4,4c2.206,0,4-1.794,4-4C36,29.794,34.206,28,32,28z"/>
	</g>
	<rect id="icon-m-media-albums_1_" style="opacity:0;fill:#FFFFFF;" width="64" height="64"/>
</g>
</svg>
