<svg width="64" height="64" viewBox="0 0 64 64" fill="none" xmlns="http://www.w3.org/2000/svg">
<path d="M10 8H54C55.1046 8 56 8.89543 56 10V54C56 55.1046 55.1046 56 54 56H41.6923L40.3077 58H54C56.2091 58 58 56.2091 58 54V10C58 7.79086 56.2091 6 54 6H10C7.79086 6 6 7.79086 6 10V54C6 56.2091 7.79086 58 10 58H23.6923L22.3077 56H10C8.89543 56 8 55.1046 8 54V10C8 8.89543 8.89543 8 10 8Z" fill="white"/>
<path fill-rule="evenodd" clip-rule="evenodd" d="M33.0002 38C33.0002 37.4477 32.5525 37 32.0002 37C31.4479 37 31.0002 37.4477 31.0002 38L31.0002 46L23.8043 46C23.0189 46 22.5401 46.864 22.9563 47.53L31.1521 60.6432C31.5438 61.2699 32.4564 61.2699 32.8481 60.6432L41.0438 47.53C41.4601 46.864 40.9813 46 40.1958 46L33.0002 46L33.0002 38ZM38.3916 48L32.0001 58.2264L25.6086 48L38.3916 48Z" fill="white"/>
<path d="M17.033 32C16.9197 32 16.8233 31.9603 16.744 31.881C16.6647 31.8017 16.625 31.7053 16.625 31.592V20.525C16.625 20.4003 16.659 20.2983 16.727 20.219C16.8063 20.1397 16.9083 20.1 17.033 20.1H21.589C22.9603 20.1 24.037 20.423 24.819 21.069C25.601 21.715 25.992 22.6557 25.992 23.891C25.992 25.115 25.601 26.0443 24.819 26.679C24.037 27.3023 22.9603 27.614 21.589 27.614H19.09V31.592C19.09 31.7167 19.0503 31.8187 18.971 31.898C18.8917 31.966 18.7897 32 18.665 32H17.033ZM21.504 25.71C22.1613 25.71 22.66 25.557 23 25.251C23.3513 24.9337 23.527 24.4747 23.527 23.874C23.527 23.2847 23.357 22.8257 23.017 22.497C22.6883 22.1683 22.184 22.004 21.504 22.004H19.056V25.71H21.504Z" fill="white"/>
<path d="M28.2557 32C28.1423 32 28.046 31.9603 27.9667 31.881C27.8873 31.8017 27.8477 31.7053 27.8477 31.592V20.525C27.8477 20.4003 27.8817 20.2983 27.9497 20.219C28.029 20.1397 28.131 20.1 28.2557 20.1H32.4037C35.747 20.1 37.4527 21.6413 37.5207 24.724C37.5433 25.3813 37.5547 25.8233 37.5547 26.05C37.5547 26.2653 37.5433 26.7017 37.5207 27.359C37.4753 28.9457 37.0447 30.1187 36.2287 30.878C35.424 31.626 34.1773 32 32.4887 32H28.2557ZM32.4037 30.028C33.3443 30.028 34.0243 29.8183 34.4437 29.399C34.863 28.9797 35.084 28.2827 35.1067 27.308C35.1293 26.628 35.1407 26.203 35.1407 26.033C35.1407 25.8517 35.1293 25.4323 35.1067 24.775C35.084 23.8457 34.8517 23.1657 34.4097 22.735C33.9677 22.293 33.2707 22.072 32.3187 22.072H30.2447V30.028H32.4037Z" fill="white"/>
<path d="M40.2088 32C40.0954 32 39.9991 31.9603 39.9198 31.881C39.8404 31.8017 39.8008 31.7053 39.8008 31.592V20.525C39.8008 20.4003 39.8348 20.2983 39.9028 20.219C39.9821 20.1397 40.0841 20.1 40.2088 20.1H47.6038C47.7284 20.1 47.8304 20.1397 47.9098 20.219C47.9891 20.2983 48.0288 20.4003 48.0288 20.525V21.749C48.0288 21.8623 47.9891 21.9587 47.9098 22.038C47.8304 22.1173 47.7284 22.157 47.6038 22.157H42.1638V25.353H47.2638C47.3884 25.353 47.4904 25.3927 47.5698 25.472C47.6491 25.5513 47.6888 25.6477 47.6888 25.761V26.985C47.6888 27.0983 47.6491 27.1947 47.5698 27.274C47.4904 27.3533 47.3884 27.393 47.2638 27.393H42.1638V31.592C42.1638 31.7053 42.1241 31.8017 42.0448 31.881C41.9654 31.9603 41.8634 32 41.7388 32H40.2088Z" fill="white"/>
</svg>
