<?xml version="1.0" encoding="iso-8859-1"?>
<!-- Generator: Adobe Illustrator 19.1.0, SVG Export Plug-In . SVG Version: 6.00 Build 0)  -->
<svg version="1.1" id="Layer_1" xmlns="http://www.w3.org/2000/svg" xmlns:xlink="http://www.w3.org/1999/xlink" x="0px" y="0px"
	 viewBox="0 0 64 64" style="enable-background:new 0 0 64 64;" xml:space="preserve">
<g id="icon-m-media-playlists">
	<rect id="icon-m-media-playlists_1_" style="opacity:0;fill:#FFFFFF;" width="64" height="64"/>
	<g>
		<path style="fill:#FFFFFF;" d="M26.594,44.434c-0.477,0-0.85-0.129-1.099-0.255C24.937,43.896,24,43.13,24,41.159V22.841
			c0-1.971,0.937-2.738,1.495-3.02c0.558-0.282,1.732-0.581,3.318,0.59l11.402,8.41c1.103,0.813,1.734,1.972,1.734,3.18
			c0,1.207-0.633,2.366-1.734,3.179l-11.402,8.409C27.936,44.236,27.185,44.434,26.594,44.434z M26.587,21.568
			c-0.08,0-0.144,0.014-0.191,0.038C26.213,21.699,26,22.078,26,22.841v18.318c0,0.763,0.213,1.142,0.396,1.234
			c0.183,0.091,0.615,0.04,1.229-0.414l11.402-8.409c0.595-0.438,0.922-0.996,0.922-1.569c0-0.574-0.327-1.132-0.922-1.57
			l-11.402-8.41C27.17,21.685,26.815,21.568,26.587,21.568z"/>
		<g style="opacity:0.6;">
			<path style="fill:#FFFFFF;" d="M51,55H13c-2.206,0-4-1.794-4-4V13c0-2.206,1.794-4,4-4h38c2.206,0,4,1.794,4,4v38
				C55,53.206,53.206,55,51,55z M13,11c-1.103,0-2,0.897-2,2v38c0,1.103,0.897,2,2,2h38c1.103,0,2-0.897,2-2V13c0-1.103-0.897-2-2-2
				H13z"/>
		</g>
	</g>
</g>
</svg>
