<?xml version="1.0" encoding="iso-8859-1"?>
<!-- Generator: Adobe Illustrator 19.1.0, SVG Export Plug-In . SVG Version: 6.00 Build 0)  -->
<svg version="1.1" id="Layer_1" xmlns="http://www.w3.org/2000/svg" xmlns:xlink="http://www.w3.org/1999/xlink" x="0px" y="0px"
	 viewBox="0 0 64 64" style="enable-background:new 0 0 64 64;" xml:space="preserve">
<g id="icon-m-shuffle">
	<rect id="icon-m-shuffle_1_" style="opacity:0;fill:#FFFFFF;" width="64" height="64"/>
	<path style="fill:#FFFFFF;" d="M10.446,48.218c-0.226,0-0.453-0.076-0.64-0.232c-0.424-0.354-0.481-0.984-0.127-1.408
		l16.829-20.164c3.042-3.646,7.913-6.501,11.089-6.501h5.195c0.553,0,1,0.448,1,1s-0.447,1-1,1h-5.195
		c-2.563,0-6.938,2.648-9.554,5.782L11.214,47.858C11.016,48.096,10.732,48.218,10.446,48.218z"/>
	<g>
		<path style="fill:#FFFFFF;" d="M44.929,29.466c-0.283,0-0.556-0.064-0.805-0.194c-0.648-0.337-1.02-1.053-1.02-1.962V13.144
			c0-0.91,0.372-1.625,1.02-1.963c0.649-0.338,1.447-0.231,2.191,0.29l9.703,6.79c0.701,0.49,1.103,1.207,1.103,1.966
			s-0.401,1.476-1.103,1.966l-9.702,6.79C45.858,29.302,45.38,29.466,44.929,29.466z M45.106,13.068
			c-0.001,0.022-0.002,0.048-0.002,0.075v14.166c0,0.028,0.001,0.053,0.002,0.076c0.02-0.012,0.041-0.026,0.063-0.042l9.702-6.79
			c0.153-0.107,0.249-0.233,0.249-0.327s-0.096-0.22-0.249-0.327l-9.703-6.79C45.146,13.094,45.126,13.08,45.106,13.068z"/>
	</g>
	<g style="opacity:0.5;">
		<path style="fill:#FFFFFF;" d="M42.792,44.912h-5.195c-3.175,0-8.046-2.855-11.089-6.5L9.658,18.229
			c-0.354-0.424-0.297-1.054,0.127-1.408c0.423-0.354,1.054-0.298,1.408,0.127l16.849,20.184c2.617,3.134,6.993,5.781,9.554,5.781
			h5.195c0.553,0,1,0.447,1,1S43.345,44.912,42.792,44.912z"/>
		<path style="fill:#FFFFFF;" d="M44.883,52.823c-0.272,0-0.535-0.062-0.777-0.185c-0.649-0.331-1.021-1.045-1.021-1.958V36.22
			c0-0.913,0.372-1.627,1.021-1.958c0.649-0.329,1.445-0.212,2.185,0.325l9.474,6.878c0.686,0.499,1.079,1.223,1.079,1.984
			c0,0.763-0.394,1.486-1.079,1.984l-9.474,6.881C45.826,52.65,45.341,52.823,44.883,52.823z M45.084,36.184
			c0,0.012,0,0.023,0,0.036v14.461c0,0.013,0,0.024,0,0.036c0.01-0.007,0.021-0.014,0.03-0.021l9.474-6.881
			c0.162-0.117,0.255-0.251,0.255-0.366c0-0.114-0.093-0.248-0.255-0.366l-9.474-6.878C45.104,36.197,45.094,36.19,45.084,36.184z"
			/>
	</g>
</g>
</svg>
