<?xml version="1.0" encoding="utf-8"?>
<!-- Generator: Adobe Illustrator 22.1.0, SVG Export Plug-In . SVG Version: 6.00 Build 0)  -->
<svg version="1.1" id="Layer_1" xmlns="http://www.w3.org/2000/svg" xmlns:xlink="http://www.w3.org/1999/xlink" x="0px" y="0px"
	 viewBox="0 0 64 64" style="enable-background:new 0 0 64 64;" xml:space="preserve">
<metadata><?xpacket begin="﻿" id="W5M0MpCehiHzreSzNTczkc9d"?>
<x:xmpmeta xmlns:x="adobe:ns:meta/" x:xmptk="Adobe XMP Core 5.6-c148 79.163858, 2019/03/06-03:18:36        ">
   <rdf:RDF xmlns:rdf="http://www.w3.org/1999/02/22-rdf-syntax-ns#">
      <rdf:Description rdf:about=""
            xmlns:xmp="http://ns.adobe.com/xap/1.0/"
            xmlns:xmpMM="http://ns.adobe.com/xap/1.0/mm/"
            xmlns:stEvt="http://ns.adobe.com/xap/1.0/sType/ResourceEvent#">
         <xmp:Label>Select</xmp:Label>
         <xmp:MetadataDate>2019-07-05T14:59:22+03:00</xmp:MetadataDate>
         <xmpMM:InstanceID>xmp.iid:8b6dd009-4f70-4148-bb18-f2f62ff503f2</xmpMM:InstanceID>
         <xmpMM:DocumentID>xmp.did:8b6dd009-4f70-4148-bb18-f2f62ff503f2</xmpMM:DocumentID>
         <xmpMM:OriginalDocumentID>xmp.did:8b6dd009-4f70-4148-bb18-f2f62ff503f2</xmpMM:OriginalDocumentID>
         <xmpMM:History>
            <rdf:Seq>
               <rdf:li>
                  <rdf:Description>
                     <stEvt:action>saved</stEvt:action>
                     <stEvt:instanceID>xmp.iid:8b6dd009-4f70-4148-bb18-f2f62ff503f2</stEvt:instanceID>
                     <stEvt:when>2019-07-05T14:59:22+03:00</stEvt:when>
                     <stEvt:softwareAgent>Adobe Bridge 2019 (Windows)</stEvt:softwareAgent>
                     <stEvt:changed>/metadata</stEvt:changed>
                  </rdf:Description>
               </rdf:li>
            </rdf:Seq>
         </xmpMM:History>
      </rdf:Description>
   </rdf:RDF>
</x:xmpmeta>
                                                                                                    
                                                                                                    
                                                                                                    
                                                                                                    
                                                                                                    
                                                                                                    
                                                                                                    
                                                                                                    
                                                                                                    
                                                                                                    
                                                                                                    
                                                                                                    
                                                                                                    
                                                                                                    
                                                                                                    
                                                                                                    
                                                                                                    
                                                                                                    
                                                                                                    
                                                                                                    
                           
<?xpacket end="w"?></metadata>
<style type="text/css">
	.st0{fill:#FFFFFF;}
</style>
<path class="st0" d="M33.4,6.1L32.2,4c-0.1-0.2-0.4-0.2-0.5,0L8.6,44.5c-0.1,0.2,0,0.4,0.2,0.4l14.2,0c0.1,0,0.2,0.1,0.2,0.1
	L31.8,60c0.1,0.2,0.4,0.2,0.5,0L40.8,45c0-0.1,0.1-0.1,0.2-0.1l14.2,0c0.2,0,0.3-0.2,0.2-0.4l-1.1-2c0-0.1-0.1-0.1-0.2-0.1l-3.9,0
	c-0.2,0-0.3-0.2-0.2-0.4l1.9-3.4c0-0.1,0-0.2,0-0.3l-1.2-2.1c-0.1-0.2-0.4-0.2-0.5,0l-3.4,6c0,0.1-0.1,0.1-0.2,0.1h-3.8
	c-0.2,0-0.3-0.2-0.2-0.4l5.7-9.9c0-0.1,0-0.2,0-0.3L47,29.8c-0.1-0.2-0.4-0.2-0.5,0l-14.3,25c-0.1,0.2-0.4,0.2-0.5,0l-1.9-3.4
	c0-0.1,0-0.2,0-0.3l14.6-25.5c0-0.1,0-0.2,0-0.3l-1.1-2c-0.1-0.2-0.4-0.2-0.5,0l-14.3,25c-0.1,0.2-0.4,0.2-0.5,0l-2-3.5
	c0-0.1,0-0.2,0-0.3l14.6-25.5c0-0.1,0-0.2,0-0.3L39.7,17c-0.1-0.2-0.4-0.2-0.5,0L24.7,42.3c0,0.1-0.1,0.1-0.2,0.1l-3.8,0
	c-0.2,0-0.3-0.2-0.2-0.4l16.7-29.1c0-0.1,0-0.2,0-0.3l-1.2-2.1c-0.1-0.2-0.4-0.2-0.5,0L17.3,42.3c0,0.1-0.1,0.1-0.2,0.1h-3.8
	c-0.2,0-0.3-0.2-0.2-0.4L33.4,6.4C33.5,6.3,33.5,6.2,33.4,6.1z"/>
</svg>
