<?xml version="1.0" encoding="iso-8859-1"?>
<!-- Generator: Adobe Illustrator 17.0.1, SVG Export Plug-In . SVG Version: 6.00 Build 0)  -->
<!DOCTYPE svg PUBLIC "-//W3C//DTD SVG 1.1//EN" "http://www.w3.org/Graphics/SVG/1.1/DTD/svg11.dtd">
<svg version="1.1" id="Layer_1" xmlns="http://www.w3.org/2000/svg" xmlns:xlink="http://www.w3.org/1999/xlink" x="0px" y="0px"
	 width="64px" height="64px" viewBox="0 0 64 64" style="enable-background:new 0 0 64 64;" xml:space="preserve">
<g id="icon-m-service-twitter">
	
		<rect id="icon-m-service-twitter_1_" style="opacity:0;fill-rule:evenodd;clip-rule:evenodd;fill:#FFFFFF;" width="64" height="64"/>
	<rect style="fill-rule:evenodd;clip-rule:evenodd;fill:#00ACED;" width="64" height="64"/>
	<path style="fill:#FFFFFF;" d="M36.859,16.984c-6.216,1.805-5.215,9.185-5.215,9.185s-3.032,0.057-7.822-1.837
		c-5.096-2.015-8.119-6.4-8.119-6.4s-1.481,2.406-0.889,5.63c0.533,2.904,3.081,4.859,3.081,4.859s-0.83-0.059-1.659-0.296
		c-0.83-0.237-1.659-0.711-1.659-0.711s0.043,2.884,1.777,5.096c1.719,2.193,4.563,2.667,4.563,2.667s-0.773,0.289-1.778,0.355
		c-0.889,0.059-1.778-0.118-1.778-0.118s0.474,2.311,2.607,3.793c2.133,1.481,4.444,1.363,4.444,1.363s-1.659,2.133-4.978,2.844
		c-3.319,0.711-6.341,0.533-6.341,0.533s4.741,3.615,12.207,3.556C32.77,47.443,41.149,43.16,44.8,34.999
		c3.022-6.756,2.133-10.667,2.133-10.667s1.304-0.889,2.193-1.778c0.889-0.889,1.837-2.311,1.837-2.311s-1.126,0.593-2.133,0.83
		c-1.007,0.237-2.193,0.355-2.193,0.355s0.948-0.533,1.837-1.659c0.889-1.126,1.363-2.489,1.363-2.489S48,18.11,47.17,18.465
		c-0.83,0.356-2.37,0.593-2.37,0.593S42.37,15.384,36.859,16.984z"/>
</g>
</svg>
