<?xml version="1.0" encoding="iso-8859-1"?>
<!-- Generator: Adobe Illustrator 19.2.1, SVG Export Plug-In . SVG Version: 6.00 Build 0)  -->
<svg version="1.1" id="Layer_1" xmlns="http://www.w3.org/2000/svg" xmlns:xlink="http://www.w3.org/1999/xlink" x="0px" y="0px"	 width="64" height="64" viewBox="0 0 64 64" style="enable-background:new 0 0 64 64;" xml:space="preserve">
<g id="icon-m-vpn">
	<g>
		<path style="fill:#FFFFFF;" d="M32,57.188c-0.398,0-0.398,0-3.064-2.372c-0.561-0.499-13.761-12.319-15.655-20.439
			c-1.501-6.434-1.931-18.181-2.001-20.471l-0.008-0.252c-0.023-0.888,0.409-1.042,3.799-1.983l13.573-3.77
			C31.845,7.01,31.845,7.01,32,7.01c0.156,0,0.156,0,3.356,0.89l13.573,3.77c3.391,0.941,3.822,1.095,3.8,1.979l-0.008,0.257
			c-0.071,2.289-0.501,14.032-2.002,20.47c-1.895,8.121-15.095,19.941-15.655,20.44C32.398,57.188,32.398,57.188,32,57.188z
			 M13.293,14.286c0.104,3.044,0.556,13.722,1.935,19.635c1.751,7.51,14.905,19.282,15.037,19.4c0.682,0.606,1.3,1.155,1.735,1.539
			c0.435-0.384,1.053-0.933,1.734-1.539c0.133-0.118,13.286-11.896,15.038-19.4c1.379-5.917,1.831-16.591,1.936-19.635
			c-0.486-0.161-1.28-0.403-2.313-0.69l-13.573-3.77c-1.258-0.35-2.35-0.651-2.821-0.781c-0.472,0.129-1.563,0.431-2.822,0.781
			l-13.573,3.77C14.573,13.883,13.779,14.125,13.293,14.286z"/>
		<rect x="31" y="7.813" style="opacity:0.6;fill:#FFFFFF;" width="2" height="47.535"/>
	</g>
	<g id="icon-m-vpn_1_" style="opacity:0;">
		<rect style="opacity:0;fill:#FFFFFF;" width="64" height="64"/>
	</g>
</g>
</svg>
