<?xml version="1.0" encoding="iso-8859-1"?>
<!-- Generator: Adobe Illustrator 22.1.0, SVG Export Plug-In . SVG Version: 6.00 Build 0)  -->
<svg version="1.1" id="Layer_1" xmlns="http://www.w3.org/2000/svg" xmlns:xlink="http://www.w3.org/1999/xlink" x="0px" y="0px"	 width="32" height="32" viewBox="0 0 32 32" style="enable-background:new 0 0 32 32;" xml:space="preserve">
<g id="icon-s-sim2">
	<g id="icon-s-sim2_1_">
		<g>
			<g style="opacity:0.4;">
				<path style="fill:#FFFFFF;" d="M23,29H9c-1.654,0-3-1.346-3-3V12.641c0-0.25,0.024-2.458,0.857-3.233
					c0.294-0.274,1.18-1.119,1.969-1.877l1.941-1.866C11.739,4.731,13.555,4,14.902,4H23c1.654,0,3,1.346,3,3v19
					C26,27.654,24.654,29,23,29z M8.275,10.82C8.169,11.041,8,11.778,8,12.641V26c0,0.552,0.449,1,1,1h14c0.552,0,1-0.448,1-1V7
					c0-0.551-0.448-1-1-1h-8.098c-0.836,0-2.146,0.527-2.749,1.107l-1.941,1.866C9.459,9.697,8.618,10.499,8.275,10.82z
					 M8.292,10.789C8.292,10.789,8.292,10.789,8.292,10.789z"/>
			</g>
		</g>
		<g style="opacity:0.5;">
			<path style="fill:none;stroke:#FFFFFF;stroke-width:2;stroke-miterlimit:10;" d="M16,23.912"/>
			<path style="fill:none;stroke:#FFFFFF;stroke-width:2;stroke-miterlimit:10;" d="M16,14"/>
			<path style="fill:none;stroke:#FFFFFF;stroke-width:2;stroke-miterlimit:10;" d="M11.147,19.044"/>
			<path style="fill:none;stroke:#FFFFFF;stroke-width:2;stroke-miterlimit:10;" d="M21.049,19.044"/>
		</g>
	</g>
	<path style="fill:#FFFFFF;" d="M11.292,24.959v-1.225l1.565-1.521c3.768-3.585,5.469-5.491,5.492-7.716
		c0-1.497-0.726-2.881-2.927-2.881c-1.34,0-2.452,0.68-3.132,1.247l-0.636-1.406c1.022-0.863,2.474-1.499,4.176-1.499
		c3.176,0,4.516,2.178,4.516,4.289c0,2.724-1.975,4.924-5.083,7.919l-1.181,1.09v0.044h6.626v1.657H11.292z"/>
	<rect id="icon-s-sim2_2_" style="opacity:0;fill:#FFFFFF;" width="32" height="32"/>
</g>
</svg>
