<?xml version="1.0" encoding="UTF-8"?>
<!-- Generator: Adobe Illustrator 22.1.0, SVG Export Plug-In . SVG Version: 6.00 Build 0)  -->
<svg version="1.1" id="Layer_1" xmlns="http://www.w3.org/2000/svg" xmlns:xlink="http://www.w3.org/1999/xlink" x="0px" y="0px" viewBox="0 0 96 96" style="enable-background:new 0 0 96 96;" xml:space="preserve">
<style type="text/css">
	.st0{opacity:0.5;fill:#FF0000;enable-background:new    ;}
	.st1{fill:none;stroke:#FFFFFF;stroke-width:3;}
	.st2{fill:none;stroke:#FF0000;stroke-width:3;}
</style>
<path class="st0" d="M77.3,57.4c0.8,0.7,2.1,0.7,2.9,0l8.3-8.3C66.2,26.8,30,26.8,7.6,49.1l8.3,8.3c0.8,0.8,2,0.8,2.9,0  c3.5-3.2,7.4-5.7,11.5-7.5c0.7-0.3,1.2-1.1,1.2-1.9v-3.9c0-1.3,0.8-2.4,2-2.8c9.9-3,20.5-2.9,30.3,0.4c1.2,0.4,2,1.5,2,2.8v4  c0,0.8,0.5,1.5,1.2,1.8C70.7,52.2,74.2,54.5,77.3,57.4z"/>
<g>
	<path class="st1" d="M7.6,49.1c22.3-22.3,58.5-22.3,80.9,0"/>
</g>
<g>
	<path class="st2" d="M7.6,49.1c22.3-22.3,58.5-22.3,80.9,0"/>
</g>
</svg>