<?xml version="1.0" encoding="windows-1252"?>
<!-- Generator: Adobe Illustrator 22.1.0, SVG Export Plug-In . SVG Version: 6.00 Build 0)  -->
<svg version="1.1" id="Layer_1" xmlns="http://www.w3.org/2000/svg" xmlns:xlink="http://www.w3.org/1999/xlink" x="0px" y="0px" width="64" height="64" viewBox="0 0 64 64" style="enable-background:new 0 0 64 64;" xml:space="preserve">
<g id="icon-m-device-portait_1_">
	<rect id="icon-m-device-portait" style="opacity:0;fill:#FFFFFF;" width="64" height="64"/>
	<path style="fill:#FFFFFF;" d="M51.963,49H12.037C9.26,49,7,46.74,7,43.963V20.037C7,17.26,9.26,15,12.037,15h39.926   C54.74,15,57,17.26,57,20.037v23.926C57,46.74,54.74,49,51.963,49z M12.037,17C10.362,17,9,18.362,9,20.037v23.926   C9,45.638,10.362,47,12.037,47h39.926C53.638,47,55,45.638,55,43.963V20.037C55,18.362,53.638,17,51.963,17H12.037z"/>
	<g style="opacity:0.6;">
		<path style="fill:#FFFFFF;" d="M47.066,44.999h-30c-1.654,0-3-1.346-3-3v-20c0-1.654,1.346-3,3-3h30c1.654,0,3,1.346,3,3v20    C50.066,43.653,48.721,44.999,47.066,44.999z M17.066,20.999c-0.551,0-1,0.449-1,1v20c0,0.552,0.449,1,1,1h30c0.552,0,1-0.448,1-1    v-20c0-0.551-0.448-1-1-1H17.066z"/>
	</g>
</g>
</svg>