<?xml version="1.0" encoding="iso-8859-1"?>
<!-- Generator: Adobe Illustrator 19.2.1, SVG Export Plug-In . SVG Version: 6.00 Build 0)  -->
<svg version="1.1" id="Layer_1" xmlns="http://www.w3.org/2000/svg" xmlns:xlink="http://www.w3.org/1999/xlink" x="0px" y="0px"	 width="64" height="64" viewBox="0 0 64 64" style="enable-background:new 0 0 64 64;" xml:space="preserve">
<g id="icon-m-light-contrast">
	<path style="fill:#FFFFFF;" d="M14.4,32.828H2.662c-0.463,0-0.839-0.375-0.839-0.839s0.375-0.839,0.839-0.839H14.4
		c0.463,0,0.839,0.375,0.839,0.839S14.863,32.828,14.4,32.828z"/>
	<path style="fill:#FFFFFF;" d="M61.013,32.799H50.071c-0.447,0-0.81-0.363-0.81-0.81s0.362-0.81,0.81-0.81h10.941
		c0.447,0,0.81,0.363,0.81,0.81S61.46,32.799,61.013,32.799z"/>
	<path style="fill:#FFFFFF;" d="M31.837,62.003c-0.463,0-0.839-0.376-0.839-0.839V49.427c0-0.463,0.375-0.839,0.839-0.839
		s0.839,0.376,0.839,0.839v11.737C32.676,61.627,32.301,62.003,31.837,62.003z"/>
	<path style="fill:#FFFFFF;" d="M31.837,14.785c-0.452,0-0.818-0.366-0.818-0.818V2.813c0-0.452,0.366-0.818,0.818-0.818
		s0.818,0.366,0.818,0.818v11.154C32.655,14.419,32.289,14.785,31.837,14.785z"/>
	<path style="opacity:0.6;fill:#FFFFFF;" d="M10.71,53.045c-0.236,0-0.473-0.09-0.653-0.271c-0.36-0.36-0.36-0.944,0-1.305
		l8.331-8.33c0.36-0.361,0.945-0.361,1.306,0c0.36,0.36,0.36,0.944,0,1.305l-8.331,8.33C11.183,52.955,10.946,53.045,10.71,53.045z"
		/>
	<path style="opacity:0.6;fill:#FFFFFF;" d="M44.826,19.805c-0.206,0-0.412-0.079-0.569-0.236c-0.314-0.314-0.314-0.824,0-1.139
		l7.642-7.641c0.314-0.314,0.824-0.314,1.139,0s0.314,0.824,0,1.139l-7.642,7.641C45.238,19.727,45.032,19.805,44.826,19.805z"/>
	<path style="opacity:0.6;fill:#FFFFFF;" d="M52.468,53.451c-0.213,0-0.426-0.081-0.588-0.244l-8.162-8.162
		c-0.325-0.324-0.325-0.852,0-1.176c0.324-0.326,0.852-0.326,1.176,0l8.162,8.162c0.325,0.324,0.325,0.852,0,1.176
		C52.894,53.37,52.681,53.451,52.468,53.451z"/>
	<path style="opacity:0.6;fill:#FFFFFF;" d="M19.041,20.468c-0.22,0-0.44-0.084-0.608-0.252l-8.041-8.041
		c-0.336-0.336-0.336-0.881,0-1.217c0.336-0.337,0.881-0.337,1.217,0l8.041,8.041c0.336,0.336,0.336,0.881,0,1.217
		C19.481,20.384,19.261,20.468,19.041,20.468z"/>
	<path style="fill:#FFFFFF;" d="M31.837,50.427c-10.167,0-18.438-8.271-18.438-18.438c0-10.167,8.271-18.438,18.438-18.438v2
		c-9.063,0-16.438,7.374-16.438,16.438s7.374,16.438,16.438,16.438V50.427z"/>
	<path style="fill:#FFFFFF;" d="M31.837,50.427v-2c9.064,0,16.438-7.374,16.438-16.438s-7.374-16.438-16.438-16.438v-2
		c10.167,0,18.438,8.271,18.438,18.438C50.275,42.155,42.004,50.427,31.837,50.427z"/>
	<path style="opacity:0.6;fill:#FFFFFF;" d="M31.837,49.427c-9.63,0-17.438-7.807-17.438-17.438s7.807-17.438,17.438-17.438"/>
	<rect id="icon-m-light-contrast_1_" style="opacity:0;fill:#FFFFFF;" width="64" height="64"/>
</g>
</svg>
