<?xml version="1.0" encoding="iso-8859-1"?>
<!-- Generator: Adobe Illustrator 24.0.2, SVG Export Plug-In . SVG Version: 6.00 Build 0)  -->
<svg version="1.1" id="Layer_1" xmlns="http://www.w3.org/2000/svg" xmlns:xlink="http://www.w3.org/1999/xlink" x="0px" y="0px"	 width="64" height="64" viewBox="0 0 64 64" style="enable-background:new 0 0 64 64;" xml:space="preserve">
<g id="icon-m-10s-forward_2_">
	<rect id="icon-m-10s-forward_3_" style="opacity:0;fill:#FFFFFF;" width="64" height="64"/>
	<g>
		<path style="fill:#FFFFFF;" d="M33.292,18.241c-0.201,0-0.4-0.061-0.57-0.178c-0.267-0.185-0.428-0.489-0.43-0.814L32.233,9.43
			c-0.346-0.155-0.589-0.501-0.592-0.906c-0.004-0.552,0.44-1.003,0.993-1.007c5.336-0.042,9.776,0.659,14.243,4.194
			c0.284,0.225,0.425,0.585,0.367,0.943s-0.304,0.656-0.644,0.78L33.636,18.18C33.524,18.221,33.408,18.241,33.292,18.241z
			 M34.233,9.532l0.048,6.282l9.851-3.606C41.041,10.243,37.852,9.632,34.233,9.532z"/>
		<path style="opacity:0.6;fill:#FFFFFF;" d="M32.396,56.482c-6.47,0-12.563-2.497-17.177-7.042
			c-4.659-4.59-7.251-10.719-7.299-17.258c-0.049-6.539,2.452-12.706,7.042-17.364c4.589-4.659,10.718-7.251,17.258-7.299
			c0.535-0.012,1.003,0.44,1.007,0.993s-0.44,1.003-0.993,1.007c-6.005,0.044-11.633,2.425-15.848,6.703
			c-4.215,4.278-6.511,9.94-6.466,15.946c0.044,6.005,2.425,11.633,6.703,15.848s9.976,6.491,15.946,6.466
			c12.396-0.093,22.407-10.253,22.314-22.649c-0.004-0.552,0.44-1.003,0.992-1.007c0.003,0,0.006,0,0.008,0
			c0.549,0,0.996,0.443,1,0.993c0.049,6.54-2.452,12.706-7.041,17.365c-4.59,4.658-10.719,7.25-17.258,7.299
			C32.521,56.481,32.458,56.482,32.396,56.482z"/>
	</g>
	<g>
		<path style="fill:#FFFFFF;" d="M31.928,41.018 M26.792,40.421V27.219h-2.789v-1.27c1.395-0.245,2.407-0.617,3.256-1.124h1.508
			v15.596"/>
		<path style="fill:#FFFFFF;" d="M31.467,32.422c0-5.133,1.85-7.885,4.906-7.885s4.906,2.761,4.906,7.885
			c0,5.132-1.85,7.999-4.906,7.999S31.467,37.554,31.467,32.422z M39.362,32.422c0-4.487-1.21-6.295-2.989-6.295
			s-2.99,1.808-2.99,6.295s1.211,6.408,2.99,6.408S39.362,36.909,39.362,32.422z"/>
	</g>
</g>
</svg>
