<?xml version="1.0" encoding="iso-8859-1"?>
<!-- Generator: Adobe Illustrator 19.1.0, SVG Export Plug-In . SVG Version: 6.00 Build 0)  -->
<svg version="1.1" id="Layer_1" xmlns="http://www.w3.org/2000/svg" xmlns:xlink="http://www.w3.org/1999/xlink" x="0px" y="0px"
	 viewBox="0 0 64 64" style="enable-background:new 0 0 64 64;" xml:space="preserve">
<g id="icon-m-service-onedrive">
	<rect id="icon-m-service-onedrive_1_" style="opacity:0;fill:#FFFFFF;" width="64" height="64"/>
	<rect style="fill:#FFFFFF;" width="64" height="64"/>
	<path style="fill:#0061AD;" d="M53.613,35.008c0.013-0.184,0.022-0.369,0.022-0.556c0-4.261-3.466-7.716-7.742-7.716
		c-1.566,0-3.022,0.465-4.24,1.261c-1.473-2.859-4.459-4.817-7.906-4.817c-4.906,0-8.883,3.964-8.883,8.853
		c0,0.182,0.007,0.363,0.018,0.542c-0.193-0.016-0.388-0.026-0.585-0.026c-3.92,0-7.097,3.167-7.097,7.073
		c0,3.891,3.153,7.048,7.052,7.072v0.001h0.045h26.061h4.604c0.156-0.063,0.309-0.133,0.459-0.208
		c1.996-1.006,3.365-3.068,3.365-5.449C58.785,37.991,56.543,35.465,53.613,35.008z"/>
	<path style="fill:#0061AD;" d="M23.34,31.037c0.505-5.279,4.98-9.422,10.407-9.422c3.399,0,6.52,1.618,8.469,4.309
		c1.155-0.496,2.403-0.753,3.677-0.753c0.082,0,0.162,0.004,0.243,0.006c-0.583-5.753-5.457-10.244-11.384-10.244
		c-4.486,0-8.368,2.575-10.243,6.321c-1.32-0.889-2.912-1.407-4.625-1.407c-4.571,0-8.276,3.692-8.276,8.247
		c0,0.612,0.069,1.208,0.196,1.783c-3.81,0.273-6.817,3.437-6.817,7.303c0,4.045,3.291,7.325,7.35,7.325h4.818
		c-0.962-1.391-1.527-3.074-1.527-4.882C15.629,35.182,19.009,31.513,23.34,31.037z"/>
</g>
</svg>
