<?xml version="1.0" encoding="windows-1252"?>
<!-- Generator: Adobe Illustrator 22.1.0, SVG Export Plug-In . SVG Version: 6.00 Build 0)  -->
<svg version="1.1" id="Layer_1" xmlns="http://www.w3.org/2000/svg" xmlns:xlink="http://www.w3.org/1999/xlink" x="0px" y="0px" width="64" height="64" viewBox="0 0 64 64" style="enable-background:new 0 0 64 64;" xml:space="preserve">
<g id="icon-m-sim-2">
	<g id="icon-m-sim-2_1_">
		<g>
			<path style="fill:#FFFFFF;" d="M45.907,56H18.092C15.836,56,14,54.164,14,51.907V23.375c0-1.744,0.452-3.956,1.315-4.807     c0.557-0.55,1.985-1.989,3.173-3.198l4.78-4.865C24.649,9.1,27.272,8,29.241,8h16.666C48.164,8,50,9.836,50,12.092v39.815     C50,54.164,48.164,56,45.907,56z M29.241,10c-1.424,0-3.548,0.891-4.546,1.906l-4.78,4.865c-1.197,1.218-2.635,2.667-3.195,3.22     C16.476,20.243,16,21.667,16,23.375v28.533C16,53.062,16.938,54,18.092,54h27.815C47.062,54,48,53.062,48,51.907V12.092     C48,10.938,47.062,10,45.907,10H29.241z"/>
		</g>
	</g>
	<g style="opacity:0.5;">
		<g>
			<path style="fill:#FFFFFF;" d="M41.038,48H22.962C21.88,48,21,47.12,21,46.038V27.962C21,26.88,21.88,26,22.962,26h18.076     C42.12,26,43,26.88,43,27.962v18.076C43,47.12,42.12,48,41.038,48z M41,27.962L22.962,28L23,46.038L41,46V27.962z"/>
		</g>
		<path style="fill:none;stroke:#FFFFFF;stroke-width:2;stroke-miterlimit:10;" d="M32,46.823"/>
		<path style="fill:none;stroke:#FFFFFF;stroke-width:2;stroke-miterlimit:10;" d="M32,26.823"/>
		<path style="fill:none;stroke:#FFFFFF;stroke-width:2;stroke-miterlimit:10;" d="M22.197,37"/>
		<path style="fill:none;stroke:#FFFFFF;stroke-width:2;stroke-miterlimit:10;" d="M42.197,37"/>
	</g>
	<path style="fill:#FFFFFF;" d="M29.491,44.5v-1.225l1.565-1.521c3.768-3.585,5.469-5.492,5.492-7.716   c0-1.497-0.726-2.881-2.927-2.881c-1.34,0-2.452,0.68-3.132,1.247l-0.636-1.406c1.022-0.863,2.474-1.499,4.176-1.499   c3.176,0,4.516,2.178,4.516,4.289c0,2.724-1.975,4.924-5.083,7.919l-1.181,1.09v0.044h6.626V44.5H29.491z"/>
	<rect id="icon-m-sim-2_2_" style="opacity:0;fill:#FFFFFF;" width="64" height="64"/>
</g>
</svg>