<?xml version="1.0" encoding="windows-1252"?>
<!-- Generator: Adobe Illustrator 19.2.1, SVG Export Plug-In . SVG Version: 6.00 Build 0)  -->
<svg version="1.1" id="Layer_1" xmlns="http://www.w3.org/2000/svg" xmlns:xlink="http://www.w3.org/1999/xlink" x="0px" y="0px" width="64" height="64" viewBox="0 0 64 64" style="enable-background:new 0 0 64 64;" xml:space="preserve">
<g id="icon-m-share-sign-1">
	<linearGradient id="SVGID_1_" gradientUnits="userSpaceOnUse" x1="64" y1="64" x2="2.155865e-009" y2="-2.153271e-009">
		<stop offset="0" style="stop-color:#7F34B8"/>
		<stop offset="0.2674" style="stop-color:#8935AE"/>
		<stop offset="0.723" style="stop-color:#A43995"/>
		<stop offset="1" style="stop-color:#B83B82"/>
	</linearGradient>
	<path style="fill:url(#SVGID_1_);" d="M64,64H0V0h64V64z"/>
	<g>
		<path style="fill:#EF9CCF;" d="M38.244,20.02l3.607-5.922c1.07-1.757,1.106-3.707,0.08-4.332C40.905,9.14,39.226,8.117,38.2,7.492    c-1.026-0.626-2.741,0.3-3.812,2.058l-3.512,5.765"/>
		<polyline style="opacity:0.9;fill:#FFFFFF;" points="11.524,49.186 10.368,57.379 17.118,52.594   "/>
		<path style="fill:#F9739C;" d="M35.095,10.76c-0.879-0.535-2.035-0.255-2.571,0.624l-19.981,32.8    c-0.535,0.879-1.023,2.438-1.084,3.465l-0.072,1.208c-0.061,1.027,0.608,2.305,1.487,2.841l1.392,0.848    c0.879,0.535,2.321,0.544,3.206,0.018l1.041-0.618c0.885-0.525,2.046-1.674,2.582-2.553l19.98-32.8    c0.535-0.879,0.254-2.036-0.624-2.571L35.095,10.76z"/>
		<path style="fill:#F7E7EC;" d="M23.292,26.514c-0.168,0-0.339-0.044-0.494-0.137c-0.455-0.273-0.603-0.864-0.33-1.319    l8.156-13.592c0.511-0.853,1.325-1.451,2.29-1.683c0.966-0.23,1.966-0.068,2.808,0.462l6.786,4.257    c0.45,0.282,0.586,0.875,0.303,1.325c-0.28,0.451-0.874,0.589-1.325,0.303l-6.786-4.257c-0.402-0.252-0.876-0.332-1.337-0.22    c-0.459,0.11-0.846,0.394-1.09,0.801l-8.156,13.593C23.937,26.348,23.619,26.514,23.292,26.514z"/>
		<path style="fill:#CE5BB0;" d="M54.936,58.551c-0.013,0-0.025,0-0.037-0.001c-0.13-0.005-13.007-0.742-13.867-3.179    c-0.201-0.568-0.166-0.87,2.527-3.721c-0.93,0.469-1.871,0.831-2.762,0.987c-1.186,0.206-2.288,0.06-3.123-0.394    c-3.498,2.75-6.375,4.179-8.523,4.914c-2.582,0.883-4.9,1.063-6.89,0.532c-0.46-0.122-0.734-0.595-0.611-1.055    c0.122-0.462,0.599-0.734,1.055-0.611c1.655,0.439,3.636,0.272,5.889-0.497c1.98-0.679,4.626-1.992,7.857-4.509    c-0.378-0.732-0.431-1.638-0.144-2.618c0.368-1.261,0.965-3.298,3.29-6.164c3.041-3.747,6.083-6.348,8.565-7.323    c0.596-0.232,1.712-0.554,2.511-0.083c0.389,0.229,0.638,0.607,0.701,1.068c0.178,1.299-1.175,3.252-3.414,5.984    c-3.191,3.894-6.114,6.846-8.73,9.084c0.378,0.061,0.812,0.054,1.271-0.028c2.574-0.45,5.94-3.15,7.559-4.448    c1.063-0.854,1.315-1.059,1.833-0.864c0.284,0.105,0.5,0.362,0.556,0.66c0.109,0.572,0.113,0.595-3.316,4.134    c-1.329,1.37-3.415,3.522-4.193,4.491c1.946,0.937,10.101,1.834,12.033,1.916c0.476,0.02,0.846,0.422,0.825,0.897    C55.777,58.189,55.395,58.551,54.936,58.551z M42.599,54.689L42.599,54.689z M49.653,36.314c-0.18,0.007-0.479,0.056-0.86,0.205    c-1.279,0.503-4.003,2.055-7.855,6.804c-2.107,2.597-2.643,4.426-2.962,5.519c-0.118,0.402-0.153,0.743-0.107,1.027    c2.596-2.193,5.527-5.135,8.759-9.079C48.889,38.03,49.55,36.828,49.653,36.314z"/>
	</g>
	<rect id="icon-m-share-sign-1_2_" style="opacity:0;fill:#FFFFFF;" width="64" height="64"/>
</g>
</svg>