<?xml version="1.0" encoding="iso-8859-1"?>
<!-- Generator: Adobe Illustrator 19.1.0, SVG Export Plug-In . SVG Version: 6.00 Build 0)  -->
<svg version="1.1" id="Layer_1" xmlns="http://www.w3.org/2000/svg" xmlns:xlink="http://www.w3.org/1999/xlink" x="0px" y="0px"
	 viewBox="0 0 64 64" style="enable-background:new 0 0 64 64;" xml:space="preserve">
<g id="icon-m-media-songs">
	<rect id="icon-m-media-songs_1_" style="opacity:0;fill:#FFFFFF;" width="64" height="64"/>
	
		<rect x="23.162" y="23.749" transform="matrix(0.9422 0.3349 -0.3349 0.9422 10.391 -10.7585)" style="opacity:0.6;fill:#FFFFFF;" width="26.454" height="2"/>
	<path style="fill:#FFFFFF;" d="M40.594,57c-1.89,0-3.592-0.658-4.796-1.855c-1.112-1.106-1.725-2.615-1.725-4.248
		c0-3.874,3.335-7.637,7.594-8.565c0.611-0.134,1.226-0.204,1.826-0.207c0.004,0,0.007,0,0.01,0c0.804,0,2.357,0.554,4.442,1.386
		l0.113,0.045V21.467c0-1.378-1.241-3.033-2.656-3.54l-19.688-6.774c-0.614-0.222-1.167-0.2-1.524,0.052
		c-0.111,0.079-0.198,0.174-0.264,0.279v28.672c0,3.875-3.335,7.638-7.593,8.565c-0.612,0.134-1.227,0.204-1.827,0.207
		c-0.015,0-0.03,0-0.044,0c-1.89,0-3.591-0.658-4.795-1.855c-1.112-1.106-1.725-2.615-1.725-4.248c0-3.874,3.335-7.637,7.593-8.565
		c0.612-0.134,1.227-0.204,1.828-0.207c0.003,0,0.006,0,0.01,0c0.807,0,2.366,0.557,4.458,1.392l0.096,0.039V13.27l-0.206-0.01
		v-0.951c0-1.167,0.468-2.14,1.319-2.738c0.897-0.631,2.114-0.742,3.338-0.304l19.687,6.774c2.245,0.804,3.994,3.186,3.994,5.427
		v26.76c0,3.875-3.335,7.638-7.593,8.565c-0.612,0.134-1.228,0.204-1.827,0.207C40.624,57,40.608,57,40.594,57z M43.505,44.124
		c-0.461,0.003-0.936,0.057-1.411,0.16c-3.376,0.737-6.021,3.642-6.021,6.612c0,1.112,0.393,2.091,1.135,2.83
		C38.035,54.549,39.236,55,40.594,55c0.012,0,0.022,0,0.033,0c0.461-0.003,0.937-0.057,1.413-0.16
		c3.375-0.736,6.019-3.641,6.019-6.612v-4.204l-0.571,1.456l-0.283-0.112C44.498,44.288,43.725,44.125,43.505,44.124z
		 M17.373,36.053c-0.46,0.003-0.936,0.057-1.412,0.16c-3.375,0.737-6.02,3.642-6.02,6.612c0,1.112,0.393,2.091,1.135,2.83
		c0.833,0.828,2.072,1.281,3.419,1.273c0.46-0.003,0.936-0.057,1.412-0.16c3.375-0.736,6.019-3.641,6.019-6.612v-4.201l-0.572,1.453
		l-0.267-0.106C18.372,36.218,17.594,36.054,17.373,36.053z"/>
</g>
</svg>
