<?xml version="1.0" encoding="iso-8859-1"?>
<!-- Generator: Adobe Illustrator 19.1.0, SVG Export Plug-In . SVG Version: 6.00 Build 0)  -->
<svg version="1.1" id="Layer_1" xmlns="http://www.w3.org/2000/svg" xmlns:xlink="http://www.w3.org/1999/xlink" x="0px" y="0px"
	 viewBox="0 0 64 64" style="enable-background:new 0 0 64 64;" xml:space="preserve">
<g id="icon-m-file-audio">
	<rect id="icon-m-file-audio_1_" style="opacity:0;fill:#FFFFFF;" width="64" height="64"/>
	
		<rect x="22.972" y="22.57" transform="matrix(0.9415 0.3371 -0.3371 0.9415 10.021 -10.5789)" style="opacity:0.6;fill:#FFFFFF;" width="25.01" height="2"/>
	<path style="fill:#FFFFFF;" d="M39.46,55.797c-1.582,0-3.007-0.521-4.06-1.494c-1.124-1.038-1.742-2.526-1.742-4.19
		c0-3.804,3.166-7.73,7.207-8.938c0.572-0.17,1.184-0.335,1.831-0.335c1.167,0,3.098,0.134,4.304,0.921V20.108
		c0-1.293-1.17-2.845-2.504-3.321l-18.66-6.54c-0.569-0.204-1.08-0.185-1.409,0.047C24.074,10.542,24,10.979,24,11.302l0.007,26.052
		c0,3.805-3.166,7.731-7.207,8.938c-0.595,0.177-1.184,0.288-1.754,0.332c-1.809,0.144-3.459-0.382-4.64-1.473
		c-1.123-1.038-1.741-2.526-1.741-4.189c0-3.804,3.166-7.73,7.207-8.938c0.571-0.17,1.181-0.335,1.832-0.335
		c0.504,0,2.831,0.052,4.302,0.967L22,11.303c0-1.109,0.465-2.073,1.275-2.644c0.868-0.613,2.044-0.721,3.229-0.297l18.661,6.539
		C47.317,15.67,49,17.957,49,20.108v26.396c0,3.805-3.166,7.731-7.207,8.938c-0.589,0.176-1.179,0.287-1.754,0.332
		C39.844,55.79,39.65,55.797,39.46,55.797z M42.696,42.839c-0.38,0-0.831,0.124-1.261,0.252c-3.238,0.968-5.777,4.053-5.777,7.021
		c0,1.115,0.38,2.057,1.1,2.722c0.767,0.709,1.876,1.05,3.126,0.946c0.435-0.033,0.884-0.119,1.337-0.254
		C44.407,52.574,47,49.424,47,46.504v-3.676l-0.936,0.739C45.786,43.214,44.511,42.839,42.696,42.839z M17.704,33.689
		c-0.383,0-0.833,0.124-1.26,0.252c-3.24,0.969-5.778,4.053-5.778,7.021c0,1.115,0.38,2.056,1.099,2.721
		c0.766,0.708,1.88,1.04,3.126,0.947c0.431-0.033,0.881-0.119,1.339-0.255c3.185-0.951,5.777-4.102,5.777-7.021l-0.001-3.708
		l-0.851,0.863C20.68,34.042,19.196,33.689,17.704,33.689z"/>
</g>
</svg>
