<?xml version="1.0" encoding="utf-8"?>
<!-- Generator: Adobe Illustrator 23.0.3, SVG Export Plug-In . SVG Version: 6.00 Build 0)  -->
<svg version="1.1" id="Layer_1" xmlns="http://www.w3.org/2000/svg" xmlns:xlink="http://www.w3.org/1999/xlink" x="0px" y="0px"
	 viewBox="0 0 64 64" style="enable-background:new 0 0 64 64;" xml:space="preserve">
<style type="text/css">
	.st0{fill:#FFFFFF;}
</style>
<g>
	<path class="st0" d="M46.9,29.3C46.9,29.3,46.9,29.3,46.9,29.3v2.8c0,6.5,0,10.5-1.4,11.9c-1.4,1.4-5.1,1.4-11.9,1.4h-1.1
		c-6.7,0-10.5,0-11.9-1.4c-1.4-1.4-1.4-5.3-1.4-11.9V31c0-6.5,0-10.5,1.4-11.9c1.4-1.4,5.1-1.4,11.9-1.4h2.8c0,0,0,0,0,0v-3.2
		c0,0,0,0,0,0h-2.8C16.8,14.6,16,15.3,16,31v1.1c0,15.7,0.8,16.5,16.5,16.5h1.1c15.7,0,16.5-0.8,16.5-16.5v-2.8c0,0,0,0,0,0H46.9z"
		/>
	<polygon class="st0" points="38.4,11.3 38.4,14.5 50,14.5 50,26 53.2,26 53.2,11.3 	"/>
</g>
</svg>
