<svg width="96" height="96" viewBox="0 0 96 96" fill="none" xmlns="http://www.w3.org/2000/svg">
<path opacity="0.1" d="M48.0001 95.6652C74.3248 95.6652 95.6652 74.3248 95.6652 48.0001C95.6652 21.6754 74.3248 0.334961 48.0001 0.334961C21.6754 0.334961 0.334961 21.6754 0.334961 48.0001C0.334961 74.3248 21.6754 95.6652 48.0001 95.6652Z" fill="white"/>
<path opacity="0.2" d="M48.0002 83.7212C67.7284 83.7212 83.7212 67.7284 83.7212 48.0002C83.7212 28.2721 67.7284 12.2793 48.0002 12.2793C28.2721 12.2793 12.2793 28.2721 12.2793 48.0002C12.2793 67.7284 28.2721 83.7212 48.0002 83.7212Z" fill="white"/>
<path d="M48.0001 70.326C46.7722 70.326 45.7676 69.3213 45.7676 68.0934V27.9074C45.7676 26.6795 46.7722 25.6748 48.0001 25.6748C49.228 25.6748 50.2327 26.6795 50.2327 27.9074V68.0934C50.2327 69.3213 49.228 70.326 48.0001 70.326Z" fill="white"/>
<path d="M39.07 55.8144C37.8421 55.8144 36.8374 54.8098 36.8374 53.5819V42.4191C36.8374 41.1912 37.8421 40.1865 39.07 40.1865C40.2979 40.1865 41.3025 41.1912 41.3025 42.4191V53.5819C41.3025 54.8098 40.2979 55.8144 39.07 55.8144Z" fill="white"/>
<path d="M30.1398 62.3996C28.9119 62.3996 27.9072 61.395 27.9072 60.1671V35.8322C27.9072 34.6043 28.9119 33.5996 30.1398 33.5996C31.3677 33.5996 32.3723 34.6043 32.3723 35.8322V60.0554C32.3723 61.395 31.3677 62.3996 30.1398 62.3996Z" fill="white"/>
<path d="M56.9303 62.5115C55.7024 62.5115 54.6978 61.5069 54.6978 60.279V35.7208C54.6978 34.4929 55.7024 33.4883 56.9303 33.4883C58.1582 33.4883 59.1629 34.4929 59.1629 35.7208V60.279C59.1629 61.5069 58.1582 62.5115 56.9303 62.5115Z" fill="white"/>
<path d="M65.8605 55.8144C64.521 55.8144 63.6279 54.8098 63.6279 53.5819V42.4191C63.6279 41.1912 64.6326 40.1865 65.8605 40.1865C67.0884 40.1865 68.093 41.1912 68.093 42.4191V53.5819C68.093 54.8098 67.0884 55.8144 65.8605 55.8144Z" fill="white"/>
<path d="M74.7907 52.4654C73.4511 52.4654 72.5581 51.4607 72.5581 50.2328V45.7677C72.5581 44.5398 73.5628 43.5352 74.7907 43.5352C76.0186 43.5352 77.0232 44.5398 77.0232 45.7677V50.2328C77.0232 51.4607 76.0186 52.4654 74.7907 52.4654Z" fill="white"/>
<path d="M21.2096 52.4654C19.8701 52.4654 18.9771 51.4607 18.9771 50.2328V45.7677C18.9771 44.5398 19.9817 43.5352 21.2096 43.5352C22.4375 43.5352 23.4422 44.5398 23.4422 45.7677V50.2328C23.4422 51.4607 22.4375 52.4654 21.2096 52.4654Z" fill="white"/>
</svg>
