<?xml version="1.0" encoding="iso-8859-1"?>
<!-- Generator: Adobe Illustrator 19.1.0, SVG Export Plug-In . SVG Version: 6.00 Build 0)  -->
<svg version="1.1" id="Layer_1" xmlns="http://www.w3.org/2000/svg" xmlns:xlink="http://www.w3.org/1999/xlink" x="0px" y="0px"
	 viewBox="0 0 64 64" style="enable-background:new 0 0 64 64;" xml:space="preserve">
<g id="icon-m-media-radio">
	<rect id="icon-m-media-radio_1_" x="0" y="0" style="opacity:0;fill:#FFFFFF;" width="64" height="64"/>
	<g>
		<path style="opacity:0.6;fill:#FFFFFF;" d="M14.679,51.342c-0.264,0-0.527-0.104-0.724-0.311C9.032,45.865,6.321,39.106,6.321,32
			c0-7.107,2.711-13.866,7.633-19.032c0.383-0.399,1.015-0.414,1.414-0.034c0.4,0.381,0.415,1.014,0.034,1.414
			C10.836,19.14,8.321,25.409,8.321,32c0,6.59,2.515,12.859,7.082,17.652c0.381,0.399,0.366,1.032-0.034,1.413
			C15.175,51.25,14.927,51.342,14.679,51.342z"/>
		<path style="opacity:0.6;fill:#FFFFFF;" d="M20.567,45.949c-0.267,0-0.534-0.106-0.731-0.317
			c-3.485-3.73-5.404-8.571-5.404-13.631c0-5.062,1.919-9.903,5.404-13.632c0.376-0.404,1.009-0.425,1.413-0.048
			s0.425,1.01,0.048,1.413c-3.137,3.358-4.865,7.714-4.865,12.267c0,4.551,1.728,8.908,4.866,12.266
			c0.377,0.403,0.355,1.036-0.048,1.413C21.057,45.86,20.812,45.949,20.567,45.949z"/>
		<path style="opacity:0.6;fill:#FFFFFF;" d="M49.321,51.342c-0.248,0-0.496-0.092-0.689-0.276c-0.4-0.381-0.415-1.014-0.034-1.413
			C53.164,44.859,55.679,38.59,55.679,32c0-6.591-2.515-12.859-7.081-17.651c-0.381-0.4-0.366-1.033,0.034-1.414
			c0.398-0.38,1.032-0.366,1.413,0.034c4.923,5.166,7.634,11.924,7.634,19.031s-2.711,13.866-7.634,19.032
			C49.849,51.238,49.585,51.342,49.321,51.342z"/>
		<path style="opacity:0.6;fill:#FFFFFF;" d="M43.433,45.949c-0.245,0-0.49-0.089-0.683-0.27c-0.403-0.377-0.425-1.01-0.048-1.413
			c3.138-3.358,4.865-7.715,4.865-12.267c0-4.552-1.728-8.908-4.865-12.266c-0.377-0.403-0.355-1.036,0.048-1.413
			c0.402-0.377,1.037-0.356,1.413,0.048c3.485,3.729,5.404,8.57,5.404,13.631c0,5.061-1.919,9.902-5.404,13.632
			C43.967,45.843,43.7,45.949,43.433,45.949z"/>
		<path style="fill:#FFFFFF;" d="M32,41c-4.962,0-9-4.037-9-9c0-4.962,4.038-9,9-9c4.963,0,9,4.038,9,9C41,36.963,36.963,41,32,41z
			 M32,25c-3.86,0-7,3.14-7,7c0,3.859,3.14,7,7,7c3.859,0,7-3.141,7-7C39,28.14,35.859,25,32,25z"/>
	</g>
</g>
</svg>
