<?xml version="1.0" encoding="windows-1252"?>
<!-- Generator: Adobe Illustrator 22.1.0, SVG Export Plug-In . SVG Version: 6.00 Build 0)  -->
<svg version="1.1" id="Layer_1" xmlns="http://www.w3.org/2000/svg" xmlns:xlink="http://www.w3.org/1999/xlink" x="0px" y="0px" width="64" height="64" viewBox="0 0 64 64" style="enable-background:new 0 0 64 64;" xml:space="preserve">
<g id="icon-m-global-proxy">
	<g>
		<path style="opacity:0.6;fill:#FFFFFF;" d="M46.544,23.881c-1.646,0-3.292-0.627-4.545-1.88c-2.506-2.506-2.507-6.584-0.001-9.09    c1.215-1.215,2.829-1.884,4.546-1.884c0.001,0,0.001,0,0.001,0c1.717,0,3.331,0.668,4.546,1.883    c2.506,2.506,2.505,6.584-0.002,9.091C49.836,23.254,48.189,23.881,46.544,23.881z M46.545,13.027    c-1.184,0-2.296,0.461-3.133,1.298c-1.726,1.727-1.726,4.536,0.001,6.262s4.535,1.727,6.262,0    c1.728-1.728,1.729-4.537,0.002-6.263C48.84,13.487,47.728,13.026,46.545,13.027z"/>
		<path style="opacity:0.6;fill:#FFFFFF;" d="M17.551,52.875c-1.621,0-3.242-0.617-4.477-1.852c-2.469-2.47-2.469-6.486,0-8.954    c1.196-1.196,2.786-1.855,4.478-1.856c1.691,0,3.281,0.659,4.478,1.855c1.196,1.195,1.854,2.785,1.854,4.477    c0,1.691-0.659,3.282-1.855,4.479l0,0C20.793,52.258,19.172,52.875,17.551,52.875z M17.551,42.213    c-1.157,0-2.245,0.451-3.063,1.271c-1.688,1.688-1.688,4.437,0,6.126c1.688,1.688,4.437,1.689,6.125,0    c0.818-0.819,1.27-1.907,1.27-3.064s-0.45-2.245-1.268-3.063C19.796,42.664,18.708,42.213,17.551,42.213z"/>
		
			<rect x="20.831" y="38.187" transform="matrix(0.7071 -0.7071 0.7071 0.7071 -20.4131 29.0914)" style="opacity:0.6;fill:#FFFFFF;" width="8.157" height="2"/>
		
			<rect x="35.129" y="23.877" transform="matrix(0.7071 -0.7071 0.7071 0.7071 -6.1038 35.0186)" style="opacity:0.6;fill:#FFFFFF;" width="8.18" height="2"/>
		<path style="opacity:0.6;fill:#FFFFFF;" d="M17.455,23.88c-1.646,0-3.292-0.626-4.544-1.879c-2.507-2.507-2.507-6.586,0-9.092    c2.505-2.506,6.584-2.506,9.091,0.001l0,0c2.506,2.506,2.506,6.584,0,9.09C20.748,23.253,19.102,23.88,17.455,23.88z     M17.455,13.028c-1.134,0-2.268,0.432-3.13,1.294c-1.727,1.727-1.727,4.537,0,6.264c1.726,1.725,4.535,1.726,6.263-0.001    c1.726-1.726,1.726-4.535,0-6.262l0,0C19.724,13.46,18.589,13.028,17.455,13.028z"/>
		<path style="opacity:0.6;fill:#FFFFFF;" d="M46.545,52.974c-1.717,0-3.331-0.669-4.544-1.883    c-2.507-2.507-2.508-6.586-0.001-9.092c2.506-2.506,6.583-2.507,9.091,0.001c2.506,2.506,2.506,6.584,0,9.09    C49.876,52.305,48.262,52.974,46.545,52.974z M46.545,42.119c-1.134,0-2.268,0.431-3.131,1.294    c-1.727,1.727-1.727,4.536,0.001,6.264c0.836,0.836,1.947,1.297,3.13,1.297s2.295-0.461,3.132-1.298    c1.727-1.727,1.727-4.535,0-6.262C48.813,42.551,47.679,42.119,46.545,42.119z"/>
		
			<rect x="38.271" y="35.18" transform="matrix(0.7072 -0.707 0.707 0.7072 -16.1977 39.2373)" style="opacity:0.6;fill:#FFFFFF;" width="2" height="7.986"/>
		
			<rect x="23.933" y="20.69" transform="matrix(0.7071 -0.7071 0.7071 0.7071 -10.2592 24.9064)" style="opacity:0.6;fill:#FFFFFF;" width="2" height="8.294"/>
	</g>
	<rect id="icon-m-global-proxy_1_" style="opacity:0;fill:#FFFFFF;" width="64" height="64"/>
	<path style="fill:#FFFFFF;" d="M32.097,39.71c-0.803,0-1.556-0.312-2.122-0.877l-4.712-4.712c-1.17-1.169-1.17-3.073,0-4.242   l4.712-4.712c1.17-1.17,3.072-1.17,4.242,0l4.712,4.712c0.565,0.565,0.877,1.318,0.877,2.121s-0.312,1.557-0.877,2.121   l-4.712,4.712C33.653,39.398,32.899,39.71,32.097,39.71z M32.097,26.288c-0.256,0-0.512,0.098-0.707,0.292l-4.712,4.712   c-0.39,0.39-0.39,1.024,0,1.414l4.712,4.712c0.375,0.375,1.04,0.375,1.414,0l4.712-4.712c0.188-0.188,0.291-0.438,0.291-0.707   s-0.104-0.52-0.291-0.707v0l-4.712-4.712C32.609,26.386,32.353,26.288,32.097,26.288z"/>
</g>
</svg>