<?xml version="1.0" encoding="iso-8859-1"?>
<!-- Generator: Adobe Illustrator 17.0.1, SVG Export Plug-In . SVG Version: 6.00 Build 0)  -->
<!DOCTYPE svg PUBLIC "-//W3C//DTD SVG 1.1//EN" "http://www.w3.org/Graphics/SVG/1.1/DTD/svg11.dtd">
<svg version="1.1" id="Layer_1" xmlns="http://www.w3.org/2000/svg" xmlns:xlink="http://www.w3.org/1999/xlink" x="0px" y="0px"
	 width="32px" height="32px" viewBox="0 0 32 32" style="enable-background:new 0 0 32 32;" xml:space="preserve">
<g id="icon-s-service-xmpp">
	<rect id="icon-s-service-xmpp_1_" style="opacity:0;fill-rule:evenodd;clip-rule:evenodd;fill:#FFFFFF;" width="32" height="32"/>
	<g>
		<rect style="fill-rule:evenodd;clip-rule:evenodd;fill:#FFFFFF;" width="32" height="32"/>
		<g>
			<g>
				<path style="fill-rule:evenodd;clip-rule:evenodd;fill:#E96D1F;" d="M15.866,24.046c-1.949,1.044-4.041,1.646-6.216,1.979
					c-0.141,0.022-0.369,0.136-0.419-0.11c-0.053-0.257,0.183-0.271,0.36-0.324c1.71-0.509,3.269-1.308,4.664-2.424
					c0.26,0.136,0.521,0.271,0.782,0.407c0.434,0.241,0.728-0.018,1.022-0.283c0.25-0.157,0.498-0.32,0.753-0.47
					c0.284-0.167,0.29-0.335,0.048-0.556c-0.259-0.237-0.541-0.455-0.731-0.76c2.741-2.912,4.536-6.307,5.219-10.264
					c0.133-0.769,0.192-1.547,0.167-2.329c-0.006-0.182-0.045-0.374,0.206-0.448c1.562-0.455,3.124-0.913,4.685-1.371
					c0.123,1.435-0.033,2.85-0.296,4.257c-0.375,1.458-0.913,2.853-1.626,4.18c-1.078,2.006-2.483,3.76-4.104,5.349
					c-0.901,0.709-1.803,1.417-2.704,2.126c-0.363,0.216-0.727,0.432-1.09,0.649C16.346,23.786,16.107,23.917,15.866,24.046z"/>
				<path style="fill-rule:evenodd;clip-rule:evenodd;fill:#A0CE67;" d="M16.128,21.506c0.19,0.305,0.472,0.523,0.731,0.76
					c0.242,0.221,0.236,0.389-0.048,0.556c-0.255,0.15-0.503,0.313-0.753,0.469c-0.205-0.126-0.418-0.24-0.613-0.38
					c-1.795-1.292-3.319-2.856-4.579-4.668c-2.217-3.188-3.711-6.632-3.639-10.609c1.102,0.318,2.201,0.648,3.309,0.947
					c0.359,0.097,0.312,0.329,0.319,0.594C10.975,13.985,12.894,18.027,16.128,21.506z"/>
				<g>
					<path style="fill-rule:evenodd;clip-rule:evenodd;fill:#439639;" d="M10.865,18.244c-2.217-3.188-3.711-6.632-3.639-10.609
						c-0.388-0.21-0.8-0.345-1.232-0.423C5.797,8.559,6.008,9.884,6.213,11.21c0.958,3.774,2.931,6.958,5.642,9.713
						c0.932,0.82,1.84,1.669,2.903,2.325c0.125,0.078,0.256,0.157,0.278,0.327c0.434,0.241,0.728-0.018,1.022-0.283
						c-0.205-0.126-0.418-0.24-0.613-0.38C13.649,21.62,12.125,20.055,10.865,18.244z"/>
				</g>
				<path style="fill-rule:evenodd;clip-rule:evenodd;fill:#43963B;" d="M15.866,24.046c0.24-0.13,0.479-0.26,0.719-0.391
					c1.756,1.095,3.684,1.716,5.712,2.054c0.198,0.04,0.395,0.093,0.594,0.114c0.159,0.017,0.313,0.014,0.281,0.234
					c-0.031,0.218-0.197,0.177-0.345,0.161c-1.145-0.125-2.265-0.367-3.369-0.696C18.21,25.152,17.06,24.55,15.866,24.046z"/>
				<path style="fill-rule:evenodd;clip-rule:evenodd;fill:#9ECC66;" d="M23.146,25.9c-3.041-0.531-4.805-1.15-6.562-2.245
					c0.363-0.216,0.727-0.432,1.09-0.648c0.06,0.036,0.119,0.072,0.179,0.108c1.186,1.02,2.538,1.758,3.984,2.335
					C22.001,25.515,23.063,25.692,23.146,25.9z"/>
				<linearGradient id="SVGID_1_" gradientUnits="userSpaceOnUse" x1="8.6967" y1="26.0299" x2="8.6967" y2="5.6775">
					<stop  offset="0" style="stop-color:#013263"/>
					<stop  offset="0.4653" style="stop-color:#12B4E9"/>
					<stop  offset="1" style="stop-color:#013263"/>
				</linearGradient>
				<path style="fill-rule:evenodd;clip-rule:evenodd;fill:url(#SVGID_1_);" d="M14.758,23.248
					c-1.063-0.656-1.971-1.505-2.903-2.325c-2.711-2.755-4.684-5.939-5.642-9.713C6.008,9.884,5.797,8.559,5.994,7.211
					c-1.196-0.462-2.394-0.919-3.586-1.39C2.107,5.704,1.99,5.771,2.027,6.097C2.06,6.392,2.072,6.69,2.112,6.984
					c0.21,1.551,0.574,3.058,1.308,4.455c0.103,0.238,0.195,0.48,0.309,0.713c1.806,3.68,4.477,6.625,7.721,9.082
					c0.856,0.758,1.844,1.326,2.804,1.934c0.26,0.136,0.843,0.438,1.105,0.574C15.473,23.688,14.883,23.326,14.758,23.248z"/>
				<linearGradient id="SVGID_2_" gradientUnits="userSpaceOnUse" x1="23.8272" y1="25.9053" x2="23.8272" y2="5.7317">
					<stop  offset="0" style="stop-color:#013263"/>
					<stop  offset="0.4577" style="stop-color:#12B4E9"/>
					<stop  offset="1" style="stop-color:#013263"/>
				</linearGradient>
				<path style="fill-rule:evenodd;clip-rule:evenodd;fill:url(#SVGID_2_);" d="M29.561,5.845c-1.05,0.421-2.104,0.833-3.155,1.249
					c0.123,1.435-0.033,2.85-0.296,4.257c-0.375,1.458-0.913,2.853-1.626,4.18c-1.078,2.006-2.483,3.76-4.104,5.349
					c-0.901,0.709-1.803,1.417-2.704,2.126c0.06,0.036,0.119,0.072,0.179,0.108c1-0.598,1.987-1.217,2.883-1.968
					c0.387-0.302,0.785-0.591,1.159-0.91c1.12-0.956,2.182-1.973,3.136-3.101c1.495-1.769,2.782-3.665,3.662-5.819
					c0.242-0.317,0.325-0.705,0.454-1.068c0.46-1.302,0.769-2.636,0.829-4.02C29.988,5.943,29.987,5.674,29.561,5.845z"/>
			</g>
			<path style="fill-rule:evenodd;clip-rule:evenodd;fill:#D9541E;" d="M17.123,23.463c0.152-0.075,0.375-0.249,0.501-0.327
				c1.063-0.657,1.971-1.505,2.903-2.325c2.712-2.755,4.685-5.939,5.642-9.713c0.205-1.326,0.415-2.651,0.219-4
				c-0.433,0.079-0.846,0.214-1.232,0.424c0.072,3.977-1.422,7.421-3.64,10.608c-1.26,1.812-2.896,3.376-4.69,4.668
				c-0.194,0.14-0.408,0.254-0.612,0.381l-0.528,0.363c-1.757,1.094-3.572,1.715-5.601,2.054C9.886,25.637,9.69,25.69,9.49,25.711
				c-0.159,0.017-0.313,0.014-0.281,0.235c0.032,0.218,0.197,0.177,0.345,0.161c1.145-0.125,2.265-0.367,3.369-0.696
				c1.249-0.371,2.176-0.973,3.369-1.476L17.123,23.463z"/>
		</g>
	</g>
</g>
</svg>
