<?xml version="1.0" encoding="iso-8859-1"?>
<!-- Generator: Adobe Illustrator 17.0.1, SVG Export Plug-In . SVG Version: 6.00 Build 0)  -->
<!DOCTYPE svg PUBLIC "-//W3C//DTD SVG 1.1//EN" "http://www.w3.org/Graphics/SVG/1.1/DTD/svg11.dtd">
<svg version="1.1" id="Layer_1" xmlns="http://www.w3.org/2000/svg" xmlns:xlink="http://www.w3.org/1999/xlink" x="0px" y="0px"
	 width="32px" height="32px" viewBox="0 0 32 32" style="enable-background:new 0 0 32 32;" xml:space="preserve">
<g id="icon-s-service-owncloud">
	<rect id="icon-s-service-owncloud_1_" style="opacity:0;fill:#FFFFFF;" width="32" height="32"/>
	<linearGradient id="SVGID_1_" gradientUnits="userSpaceOnUse" x1="5.0718" y1="34.9282" x2="26.9282" y2="-2.9282">
		<stop  offset="0" style="stop-color:#C9C9C9"/>
		<stop  offset="1" style="stop-color:#FFFFFF"/>
	</linearGradient>
	<rect style="fill:url(#SVGID_1_);" width="32" height="32"/>
	<g>
		<path style="fill:#567B8F;" d="M29.603,22.245h-0.507c-0.854,0-1.55-0.757-1.55-1.688c0-0.932,0.695-1.688,1.55-1.688h1.329
			v-2.742h0.236v2.86c0.001,0.05,0.015,1.6,0,2.133C30.644,21.744,30.067,22.245,29.603,22.245z M29.096,19.105
			c-0.724,0-1.313,0.651-1.313,1.452c0,0.8,0.59,1.451,1.313,1.451h0.507c0.358,0,0.809-0.413,0.822-0.895
			c0.012-0.45,0.004-1.631,0.001-2.009H29.096z"/>
		<path style="fill:#567B8F;" d="M25.233,22.245c-0.854,0-1.55-0.757-1.55-1.688v-1.586h0.236v1.586c0,0.8,0.59,1.451,1.313,1.451
			s1.313-0.651,1.313-1.451v-1.586h0.236v1.586C26.783,21.488,26.088,22.245,25.233,22.245z"/>
		<path style="fill:#567B8F;" d="M21.431,22.245c-0.855,0-1.551-0.757-1.551-1.688c0-0.932,0.695-1.688,1.551-1.688
			c0.854,0,1.55,0.757,1.55,1.688C22.98,21.488,22.285,22.245,21.431,22.245z M21.431,19.105c-0.725,0-1.314,0.651-1.314,1.452
			c0,0.8,0.59,1.451,1.314,1.451c0.724,0,1.313-0.651,1.313-1.451C22.744,19.757,22.154,19.105,21.431,19.105z"/>
		<path style="fill:#567B8F;" d="M17.403,22.229c-1.332,0-2.415-1.175-2.415-2.62s1.083-2.622,2.415-2.622v0.237
			c-1.201,0-2.178,1.07-2.178,2.385s0.977,2.384,2.178,2.384V22.229z"/>
		<path style="fill:#567B8F;" d="M19.402,22.245c-0.575,0-1.043-0.506-1.043-1.128v-4.99h0.236v4.99
			c0,0.491,0.362,0.892,0.807,0.892V22.245z"/>
		<path style="fill:#E76E34;" d="M14.211,22.111h-0.237v-1.585c0-0.801-0.589-1.452-1.313-1.452s-1.313,0.651-1.313,1.452v1.585
			H11.11v-1.585c0-0.932,0.696-1.688,1.551-1.688s1.55,0.757,1.55,1.688V22.111z"/>
		<path style="fill:#E76E34;" d="M9.23,22.245c-0.401,0-0.75-0.246-0.924-0.605c-0.174,0.359-0.523,0.605-0.925,0.605
			c-0.575,0-1.043-0.506-1.043-1.128v-2.146h0.237v2.146c0,0.491,0.361,0.892,0.806,0.892s0.806-0.4,0.806-0.892v-2.146h0.237v2.146
			c0,0.491,0.361,0.892,0.806,0.892c0.445,0,0.806-0.4,0.806-0.892v-2.146h0.237v2.146C10.274,21.739,9.806,22.245,9.23,22.245z"/>
		<path style="fill:#E76E34;" d="M3.981,22.245c-0.855,0-1.55-0.757-1.55-1.688c0-0.932,0.695-1.688,1.55-1.688
			s1.55,0.757,1.55,1.688C5.531,21.488,4.836,22.245,3.981,22.245z M3.981,19.105c-0.724,0-1.313,0.651-1.313,1.452
			c0,0.8,0.589,1.451,1.313,1.451s1.313-0.651,1.313-1.451C5.294,19.757,4.705,19.105,3.981,19.105z"/>
	</g>
	<linearGradient id="SVGID_2_" gradientUnits="userSpaceOnUse" x1="19.5275" y1="17.5793" x2="19.5275" y2="8.3673">
		<stop  offset="0" style="stop-color:#8BA7B5"/>
		<stop  offset="1" style="stop-color:#CCE5F2"/>
	</linearGradient>
	<path style="fill:url(#SVGID_2_);" d="M13.721,13.624c0-1.361,1.075-2.468,2.397-2.468c0.044,0,0.087,0.004,0.131,0.007
		c0.079,0.405,0.251,0.776,0.49,1.09c-0.42,0.586-0.671,1.306-0.671,2.086c0,0.147,0.012,0.291,0.029,0.433
		c-0.046-0.004-0.091-0.011-0.138-0.011c-0.567,0-1.062,0.322-1.324,0.796C14.079,15.105,13.721,14.408,13.721,13.624z
		 M16.118,10.828c0.03,0,0.059,0.004,0.089,0.005c-0.004-0.061-0.009-0.122-0.009-0.184c0-0.361,0.072-0.706,0.202-1.019
		c-0.172-0.109-0.372-0.175-0.588-0.175c-0.623,0-1.129,0.523-1.129,1.166c0,0.198,0.052,0.381,0.137,0.544
		C15.206,10.95,15.649,10.828,16.118,10.828z M21.212,11.25c0.557,0.319,1.018,0.791,1.331,1.36
		c0.306-0.155,0.644-0.256,1.002-0.284c-0.11-1.153-1.053-2.057-2.196-2.057c-0.032,0-0.063,0.003-0.095,0.005
		c0.017,0.123,0.029,0.247,0.029,0.374C21.283,10.856,21.257,11.057,21.212,11.25z M19.527,10.799c0.49,0,0.955,0.106,1.378,0.295
		c0.028-0.144,0.043-0.293,0.043-0.445c0-1.258-0.99-2.282-2.207-2.282c-1.217,0-2.207,1.024-2.207,2.282
		c0,0.498,0.157,0.958,0.42,1.333C17.587,11.258,18.505,10.799,19.527,10.799z M14.502,15.873c-0.675-0.51-1.115-1.326-1.115-2.249
		c0-0.229,0.03-0.451,0.081-0.664c-0.01,0-0.02-0.002-0.03-0.002c-1.217,0-2.208,1.023-2.208,2.282c0,1.258,0.99,2.282,2.208,2.282
		c0.451,0,0.871-0.141,1.221-0.383c-0.141-0.237-0.223-0.514-0.223-0.812C14.436,16.169,14.459,16.017,14.502,15.873z
		 M23.753,12.644c-0.383,0-0.744,0.095-1.065,0.26c0.191,0.439,0.3,0.924,0.3,1.435c0,0.956-0.374,1.823-0.978,2.461
		c0.437,0.478,1.056,0.779,1.743,0.779c1.322,0,2.397-1.107,2.397-2.468C26.149,13.751,25.074,12.644,23.753,12.644z M26.637,14.947
		c-0.055,0-0.108,0.009-0.161,0.017c0.002,0.049,0.007,0.098,0.007,0.148c0,0.731-0.278,1.396-0.728,1.894
		c0.218,0.253,0.53,0.416,0.882,0.416c0.655,0,1.188-0.555,1.188-1.238S27.292,14.947,26.637,14.947z M16.153,15.11
		c-0.064-0.011-0.128-0.021-0.195-0.021c-0.655,0-1.188,0.555-1.188,1.238s0.533,1.237,1.188,1.237c0.491,0,0.914-0.313,1.094-0.757
		C16.612,16.346,16.295,15.762,16.153,15.11z M22.653,14.339c0,1.771-1.402,3.211-3.125,3.211c-1.723,0-3.125-1.441-3.125-3.211
		c0-1.771,1.402-3.211,3.125-3.211C21.251,11.128,22.653,12.568,22.653,14.339z"/>
</g>
</svg>
