<?xml version="1.0" encoding="utf-8"?>
<!-- Generator: Adobe Illustrator 16.0.0, SVG Export Plug-In . SVG Version: 6.00 Build 0)  -->
<svg version="1.2" baseProfile="tiny" id="Layer_1" xmlns="http://www.w3.org/2000/svg" xmlns:xlink="http://www.w3.org/1999/xlink"
	 x="0px" y="0px" width="96px" height="96px" viewBox="0 0 96 96" xml:space="preserve">
<g>
	<rect id="icon-l-mobile-network_1_" fill="#FFFFFF" fill-opacity="0" width="96" height="96"/>
	<path fill="#FFFFFF" d="M48.05,60.939c-0.369-0.696-1.148-1.096-2.14-1.096H29.412V20.578c0-0.553-0.447-1-1-1s-1,0.447-1,1v39.266
		H10.918c-0.991,0-1.771,0.399-2.14,1.096c-0.368,0.696-0.261,1.565,0.296,2.386L26.28,88.645c0.531,0.781,1.309,1.229,2.132,1.229
		s1.601-0.448,2.132-1.229l17.209-25.319C48.31,62.505,48.418,61.636,48.05,60.939z M46.099,62.2L28.89,87.52
		c-0.301,0.443-0.654,0.443-0.955,0L10.729,62.201c-0.1-0.147-0.14-0.251-0.155-0.312c0.059-0.021,0.167-0.046,0.345-0.046h17.475
		c0.007,0,0.013,0.004,0.02,0.004s0.013-0.004,0.02-0.004H45.91c0.177,0,0.285,0.025,0.345,0.046
		C46.238,61.95,46.198,62.054,46.099,62.2z"/>
	<path fill="#FFFFFF" fill-opacity="0.5" d="M86.925,32.676L69.718,7.358c-0.53-0.782-1.308-1.23-2.131-1.23
		s-1.601,0.448-2.131,1.229l-17.21,25.319c-0.557,0.819-0.664,1.688-0.296,2.385c0.369,0.696,1.148,1.096,2.14,1.096h16.497v39.267
		c0,0.553,0.447,1,1,1s1-0.447,1-1V36.157h16.495c0.991,0,1.771-0.399,2.14-1.096C87.59,34.365,87.481,33.496,86.925,32.676z
		 M85.082,34.157H67.606c-0.007,0-0.013-0.004-0.02-0.004s-0.013,0.004-0.02,0.004H50.09c-0.178,0-0.286-0.025-0.345-0.046
		c0.016-0.061,0.056-0.164,0.155-0.311L67.11,8.481c0.301-0.441,0.652-0.442,0.953,0.001l17.207,25.318
		c0.1,0.146,0.14,0.25,0.156,0.311C85.367,34.132,85.259,34.157,85.082,34.157z"/>
</g>
</svg>
