<?xml version="1.0" encoding="iso-8859-1"?>
<!-- Generator: Adobe Illustrator 22.1.0, SVG Export Plug-In . SVG Version: 6.00 Build 0)  -->
<svg version="1.1" id="Layer_1" xmlns="http://www.w3.org/2000/svg" xmlns:xlink="http://www.w3.org/1999/xlink" x="0px" y="0px"	 width="64" height="64" viewBox="0 0 64 64" style="enable-background:new 0 0 64 64;" xml:space="preserve">
<g id="icon-m-silent">
	<rect id="icon-m-silent_1_" style="opacity:0;fill:#FFFFFF;" width="64" height="64"/>
	<path style="opacity:0.6;fill:#FFFFFF;" d="M23.292,55.415c-1.799,0-3.448-0.533-4.702-1.549c-1.445-1.172-2.241-2.882-2.241-4.816
		c0-4.203,3.837-8.434,8.553-9.432c2.562-0.543,5.012-0.056,6.726,1.332c1.445,1.172,2.241,2.882,2.241,4.816
		c0,4.203-3.837,8.434-8.553,9.432C24.63,55.344,23.951,55.415,23.292,55.415z M26.931,41.401c-0.521,0-1.063,0.057-1.615,0.174
		c-3.841,0.813-6.967,4.165-6.967,7.475c0,1.339,0.519,2.467,1.5,3.263c1.243,1.008,3.086,1.348,5.053,0.929
		c3.841-0.813,6.966-4.166,6.966-7.475c0-1.339-0.519-2.467-1.5-3.263C29.475,41.779,28.27,41.401,26.931,41.401z"/>
	<path style="opacity:0.6;fill:#FFFFFF;" d="M44.784,35.662c-0.001,0-0.002,0-0.003,0c-0.553-0.002-0.999-0.45-0.997-1.003l0,0
		c0,0,0-0.002,0-0.005l0.001-0.201c0.001-0.368,0.003-1.206,0.005-2.302c-0.325-0.71-1.583-3.312-3.306-5.035l-7.279-7.279
		c-0.391-0.391-0.391-1.023,0-1.414s1.023-0.391,1.414,0l7.279,7.279c0.717,0.717,1.354,1.548,1.894,2.354
		c-0.001-1.132-0.004-2.288-0.008-3.356c-0.015-3.691-1.627-5.98-4.224-8.479c-4.152-3.996-7.234-7.098-7.265-7.129
		c-0.389-0.392-0.387-1.025,0.005-1.415c0.392-0.389,1.026-0.388,1.415,0.005c0.03,0.031,3.097,3.118,7.231,7.097
		c2.891,2.781,4.819,5.532,4.837,9.913c0.01,2.367,0.009,5.161,0.006,7.189c0.001,0.022,0.002,0.044,0.002,0.066l-0.007,2.498
		c-0.001,0.144-0.001,0.221-0.001,0.221C45.782,35.217,45.335,35.662,44.784,35.662z"/>
	<g style="opacity:0.6;">
		<path style="fill:#FFFFFF;" d="M33.006,45.034c-0.552,0-1-0.447-1-1V8.387c0-0.552,0.448-1,1-1c0.553,0,1,0.448,1,1v35.647
			C34.006,44.587,33.559,45.034,33.006,45.034z"/>
	</g>
	<path style="fill:#FFFFFF;" d="M52.118,51.772c-0.256,0-0.512-0.098-0.707-0.293L13.308,13.377c-0.391-0.391-0.391-1.023,0-1.414
		s1.023-0.391,1.414,0l38.104,38.103c0.391,0.391,0.391,1.023,0,1.414C52.63,51.675,52.374,51.772,52.118,51.772z"/>
</g>
</svg>
