<?xml version="1.0" encoding="iso-8859-1"?>
<!-- Generator: Adobe Illustrator 19.1.0, SVG Export Plug-In . SVG Version: 6.00 Build 0)  -->
<svg version="1.1" id="Layer_1" xmlns="http://www.w3.org/2000/svg" xmlns:xlink="http://www.w3.org/1999/xlink" x="0px" y="0px"
	 viewBox="0 0 64 64" style="enable-background:new 0 0 64 64;" xml:space="preserve">
<g id="icon-m-file-video">
	<rect id="icon-m-file-video_1_" style="opacity:0;fill:#FFFFFF;" width="64" height="64"/>
	<path style="opacity:0.6;fill:#FFFFFF;" d="M32,56.5C18.491,56.5,7.5,45.51,7.5,32S18.491,7.5,32,7.5C45.51,7.5,56.5,18.49,56.5,32
		S45.51,56.5,32,56.5z M32,9.5C19.593,9.5,9.5,19.593,9.5,32c0,12.406,10.093,22.5,22.5,22.5c12.406,0,22.5-10.094,22.5-22.5
		C54.5,19.593,44.406,9.5,32,9.5z"/>
	<path style="fill:#FFFFFF;" d="M27.623,44.291c-0.49,0-0.871-0.135-1.125-0.265C25.938,43.74,25,42.967,25,40.999V23
		c0-1.968,0.938-2.742,1.497-3.027c0.559-0.286,1.734-0.594,3.331,0.559l11.516,8.317c1.113,0.804,1.752,1.953,1.751,3.152
		c0,1.199-0.639,2.349-1.753,3.152l-11.514,8.315C28.958,44.097,28.211,44.291,27.623,44.291z M27.614,21.711
		c-0.086,0-0.155,0.016-0.206,0.042C27.22,21.849,27,22.233,27,23v18c0,0.767,0.22,1.15,0.408,1.247
		c0.188,0.095,0.628,0.05,1.25-0.399l11.514-8.315c0.596-0.431,0.924-0.974,0.924-1.531c0-0.558-0.327-1.101-0.923-1.531
		l-11.515-8.317C28.204,21.825,27.847,21.711,27.614,21.711z"/>
</g>
</svg>
