<?xml version="1.0" encoding="iso-8859-1"?>
<!-- Generator: Adobe Illustrator 19.1.0, SVG Export Plug-In . SVG Version: 6.00 Build 0)  -->
<svg version="1.1" id="Layer_1" xmlns="http://www.w3.org/2000/svg" xmlns:xlink="http://www.w3.org/1999/xlink" x="0px" y="0px"
	 viewBox="0 0 32 32" style="enable-background:new 0 0 32 32;" xml:space="preserve">
<g id="icon-s-service-onedrive">
	<rect id="icon-s-service-onedrive_1_" style="opacity:0;fill:#FFFFFF;" width="32" height="32"/>
	<rect style="fill:#FFFFFF;" width="32" height="32"/>
	<path style="fill:#0061AD;" d="M12.148,23.099c-1.828-0.013-3.299-1.487-3.299-3.287c0-1.812,1.479-3.286,3.299-3.286
		c0.092,0,0.183,0.005,0.272,0.012l0.289,0.023l-0.02-0.289c-0.005-0.084-0.009-0.17-0.009-0.255c0-2.303,1.88-4.176,4.191-4.176
		c1.579,0,3.009,0.871,3.73,2.272l0.127,0.247l0.232-0.152c0.591-0.386,1.276-0.59,1.983-0.59c1.997,0,3.621,1.619,3.621,3.608
		c0,0.088-0.005,0.175-0.01,0.262l-0.015,0.228l0.226,0.035c1.375,0.215,2.374,1.379,2.374,2.769c0,1.063-0.592,2.021-1.545,2.501
		c-0.056,0.028-0.111,0.054-0.167,0.078H12.148z"/>
	<path style="fill:#0061AD;" d="M6.169,22.003c-1.889,0-3.425-1.531-3.425-3.413c0-1.78,1.396-3.274,3.176-3.402l0.289-0.021
		l-0.063-0.282c-0.061-0.275-0.092-0.558-0.092-0.838c0-2.136,1.744-3.873,3.888-3.873c0.779,0,1.531,0.229,2.173,0.66l0.236,0.159
		l0.127-0.254c0.933-1.864,2.81-3.022,4.897-3.022c2.727,0,5.004,1.968,5.409,4.622c-0.55,0.018-1.084,0.124-1.594,0.319
		c-1.029-1.319-2.629-2.101-4.318-2.101c-2.771,0-5.071,2.023-5.43,4.738c-2.225,0.342-3.879,2.248-3.879,4.516
		c0,0.771,0.194,1.521,0.564,2.191H6.169z"/>
</g>
</svg>
