<?xml version="1.0" encoding="iso-8859-1"?>
<!-- Generator: Adobe Illustrator 22.1.0, SVG Export Plug-In . SVG Version: 6.00 Build 0)  -->
<svg version="1.1" id="Layer_1" xmlns="http://www.w3.org/2000/svg" xmlns:xlink="http://www.w3.org/1999/xlink" x="0px" y="0px"	 width="64" height="64" viewBox="0 0 64 64" style="enable-background:new 0 0 64 64;" xml:space="preserve">
<g id="icon-m-time">
	<rect id="icon-m-time_1_" style="opacity:0;fill:#FFFFFF;" width="64" height="64"/>
	<path style="fill:#FFFFFF;" d="M32,55.291C19.158,55.291,8.71,44.843,8.71,32S19.158,8.709,32,8.709
		c12.842,0,23.29,10.448,23.29,23.291S44.842,55.291,32,55.291z M32,10.709c-11.739,0-21.29,9.551-21.29,21.291
		c0,11.74,9.551,21.291,21.29,21.291S53.29,43.74,53.29,32C53.29,20.26,43.739,10.709,32,10.709z"/>
	<path style="opacity:0.6;fill:#FFFFFF;" d="M31.188,34.859c-0.262,0-0.523-0.103-0.72-0.306l-9.246-9.579
		c-0.383-0.397-0.372-1.03,0.025-1.414c0.397-0.382,1.03-0.373,1.414,0.025l8.564,8.873l15.702-14.578
		c0.403-0.376,1.037-0.353,1.413,0.053c0.376,0.404,0.353,1.037-0.052,1.413L31.868,34.592
		C31.676,34.771,31.431,34.859,31.188,34.859z"/>
</g>
</svg>
