<?xml version="1.0" encoding="windows-1252"?>
<!-- Generator: Adobe Illustrator 22.1.0, SVG Export Plug-In . SVG Version: 6.00 Build 0)  -->
<svg version="1.1" id="Layer_1" xmlns="http://www.w3.org/2000/svg" xmlns:xlink="http://www.w3.org/1999/xlink" x="0px" y="0px" width="64" height="64" viewBox="0 0 64 64" style="enable-background:new 0 0 64 64;" xml:space="preserve">
<g id="icon-m-company_2_">
	<rect id="icon-m-company_4_" style="opacity:0;fill:#FFFFFF;enable-background:new    ;" width="64" height="64"/>
	<g>
		<path style="fill:#FFFFFF;" d="M28.247,12.633c-0.666,0-1.265,0.479-1.265,1.092v4.268c0,0.548-0.515,0.993-1.15,0.993    s-1.15-0.444-1.15-0.993v-4.268c0-1.77,1.701-3.077,3.566-3.077h7.362c2.051,0,3.566,1.468,3.566,3.077v4.268    c0,0.548-0.515,0.993-1.15,0.993c-0.635,0-1.15-0.444-1.15-0.993v-4.268c0-0.575-0.556-1.092-1.265-1.092H28.247z"/>
		<path style="fill:#FFFFFF;" d="M8,22.261C8,19.331,10.701,17,14.097,17h35.777c0.926,0,1.805,0.116,2.7,0.502    c3.11,1.342,4.236,4.515,2.825,7.071l-0.01,0.017c-3.75,6.471-11.244,10.745-19.582,11.266c-0.634,0.04-1.185-0.372-1.231-0.918    c-0.046-0.547,0.431-1.022,1.064-1.062c7.534-0.471,14.301-4.333,17.685-10.165c0.883-1.611,0.167-3.594-1.781-4.434    c-0.485-0.209-0.986-0.292-1.671-0.292H14.097c-2.126,0-3.796,1.442-3.796,3.276c0,0.591,0.096,1.023,0.339,1.442    c3.383,5.837,10.153,9.702,17.69,10.174c0.634,0.04,1.11,0.515,1.064,1.062c-0.046,0.547-0.597,0.958-1.231,0.918    c-8.338-0.521-15.832-4.795-19.582-11.266C8.134,23.819,8,23.06,8,22.261z"/>
		<path style="opacity:0.6;fill:#FFFFFF;enable-background:new    ;" d="M11.149,24.454l-0.058,19.808    c-0.006,2.197,2.056,3.98,4.602,3.98h32.772c2.541,0,4.602-1.778,4.602-3.97V24.606h2.301v19.666c0,3.289-3.09,5.955-6.902,5.955    H15.693c-3.819,0-6.912-2.676-6.902-5.97l0.058-19.808L11.149,24.454z"/>
		<path style="fill:#FFFFFF;" d="M35.258,38.61h-6.516c-0.552,0-1-0.447-1-1v-5.622c0-0.552,0.448-1,1-1h6.516c0.553,0,1,0.448,1,1    v5.622C36.258,38.163,35.811,38.61,35.258,38.61z M29.742,36.61h4.516v-3.622h-4.516V36.61z"/>
	</g>
</g>
</svg>