<?xml version="1.0" encoding="iso-8859-1"?>
<!-- Generator: Adobe Illustrator 22.1.0, SVG Export Plug-In . SVG Version: 6.00 Build 0)  -->
<svg version="1.1" id="Layer_1" xmlns="http://www.w3.org/2000/svg" xmlns:xlink="http://www.w3.org/1999/xlink" x="0px" y="0px"	 width="42" height="42" viewBox="0 0 42 42" style="enable-background:new 0 0 42 42;" xml:space="preserve">
<g id="icon-m-missed-call_9_">
	<rect id="icon-m-missed-call_10_" style="opacity:0;fill:#FFFFFF;" width="42" height="42"/>
	<path style="fill:#FFFFFF;" d="M11.701,19.14l-2.896,2.896c-0.412,0.412-0.922,0.198-1.03-0.375L6.06,12.843
		c-0.109-0.573,0.249-0.972,0.82-0.863l8.849,1.748c0.572,0.108,0.778,0.606,0.366,1.018l-2.896,2.896L11.701,19.14z"/>
	<path style="fill:#FFFFFF;" d="M22.808,28.198c-0.717,0-1.435-0.257-1.989-0.774L8.152,15.614
		c-0.384-0.358-0.405-0.959-0.047-1.344c0.358-0.384,0.961-0.405,1.344-0.047l12.666,11.81c0.392,0.363,1.04,0.352,1.416-0.025
		l10.519-10.519c0.371-0.371,0.973-0.371,1.344,0c0.372,0.372,0.372,0.973,0,1.345L24.874,27.353
		C24.312,27.915,23.56,28.198,22.808,28.198z"/>
</g>
</svg>
