<?xml version="1.0" encoding="iso-8859-1"?>
<!-- Generator: Adobe Illustrator 24.0.2, SVG Export Plug-In . SVG Version: 6.00 Build 0)  -->
<svg version="1.1" id="Layer_1" xmlns="http://www.w3.org/2000/svg" xmlns:xlink="http://www.w3.org/1999/xlink" x="0px" y="0px"	 width="64" height="64" viewBox="0 0 64 64" style="enable-background:new 0 0 64 64;" xml:space="preserve">
<g id="icon-m-users">
	<rect id="icon-m-users_1_" style="opacity:0;fill:#FFFFFF;" width="64" height="64"/>
	<g>
		<path style="fill:#FFFFFF;" d="M16.509,41.5h20c4.971,0,9,4.029,9,9c0,0.338-0.019,0.672-0.055,1h2.01
			c0.03-0.329,0.045-0.663,0.045-1c0-6.075-4.925-11-11-11h-20c-6.075,0-11,4.925-11,11c0,0.337,0.015,0.671,0.045,1h2.01
			c-0.036-0.328-0.055-0.662-0.055-1C7.509,45.529,11.538,41.5,16.509,41.5z"/>
		<path style="fill:#FFFFFF;" d="M26.509,35.5c-6.617,0-12-5.383-12-12s5.383-12,12-12c6.617,0,12,5.383,12,12
			S33.126,35.5,26.509,35.5z M26.509,13.5c-5.514,0-10,4.486-10,10s4.486,10,10,10s10-4.486,10-10S32.023,13.5,26.509,13.5z"/>
		<path style="opacity:0.6;fill:#FFFFFF;" d="M45.401,41.5h1.791c4.861,0,9.071,3.726,9.29,8.582
			c0.022,0.481,0.006,0.955-0.045,1.418h2.01c0.049-0.542,0.058-1.095,0.026-1.657C58.129,43.968,53.014,39.5,47.129,39.5h-1.728
			c-0.552,0-1,0.448-1,1l0,0C44.401,41.052,44.849,41.5,45.401,41.5z"/>
		<path style="opacity:0.6;fill:#FFFFFF;" d="M37.491,35.5c-0.553,0-1-0.447-1-1s0.447-1,1-1c5.514,0,10-4.486,10-10
			s-4.486-10-10-10c-0.553,0-1-0.448-1-1s0.447-1,1-1c6.617,0,12,5.383,12,12S44.108,35.5,37.491,35.5z"/>
	</g>
</g>
</svg>
