<?xml version="1.0" encoding="iso-8859-1"?>
<!-- Generator: Adobe Illustrator 17.0.1, SVG Export Plug-In . SVG Version: 6.00 Build 0)  -->
<!DOCTYPE svg PUBLIC "-//W3C//DTD SVG 1.1//EN" "http://www.w3.org/Graphics/SVG/1.1/DTD/svg11.dtd">
<svg version="1.1" id="Layer_1" xmlns="http://www.w3.org/2000/svg" xmlns:xlink="http://www.w3.org/1999/xlink" x="0px" y="0px"
	 width="32px" height="32px" viewBox="0 0 32 32" style="enable-background:new 0 0 32 32;" xml:space="preserve">
<g id="icon-s-service-exchange">
	<g id="icon-s-service-exchange_1_" style="opacity:0;">
		<rect style="fill:#FFFFFF;" width="32" height="32"/>
	</g>
	<g>
		<rect style="fill:#FFA015;" width="32" height="32"/>
		<path style="fill-rule:evenodd;clip-rule:evenodd;fill:#FCFCFC;" d="M14.225,17.51c-0.762,0.917-1.46,0.29-2.065-0.007
			c-2.567-1.259-4.71-3.101-6.752-5.071c-0.402-0.389-0.539-0.848-0.532-1.4c0.02-1.558,0.05-3.117-0.008-4.674
			C4.827,5.227,5.303,4.803,6.403,4.833c1.614,0.044,3.232-0.007,4.847,0.019c0.785,0.013,3.185,2.055,3.281,2.771
			c0.066,0.492-0.244,0.884-0.515,1.24c-0.358,0.473-0.75,0.139-1.031-0.116c-1.283-1.171-2.843-0.638-4.298-0.738
			C8.401,7.989,8.014,8.039,8.034,8.39c0.081,1.448-0.544,2.974,0.593,4.31C10.239,14.594,11.979,16.326,14.225,17.51z"/>
		<path style="fill-rule:evenodd;clip-rule:evenodd;fill:#FCFCFC;" d="M14.46,14.321c-0.56-0.963-0.167-1.63,0.153-2.262
			c1.263-2.496,3.033-4.624,4.931-6.654c0.335-0.359,0.717-0.548,1.214-0.546c1.674,0.006,3.35,0.006,5.024-0.015
			c0.972-0.013,1.32,0.472,1.303,1.397c-0.029,1.674,0.008,3.35-0.014,5.024c-0.011,0.809-1.996,3.192-2.731,3.311
			c-0.501,0.081-0.892-0.231-1.247-0.503c-0.465-0.356-0.134-0.757,0.119-1.039c1.155-1.286,0.667-2.842,0.752-4.303
			c0.021-0.36-0.049-0.751-0.508-0.737c-1.562,0.052-3.17-0.445-4.548,0.943C17.298,10.561,15.721,12.192,14.46,14.321z"/>
		<path style="fill-rule:evenodd;clip-rule:evenodd;fill:#FCFCFC;" d="M17.6,18.307c-0.402,2.365-2.057,4.035-3.202,5.996
			c-2.078,3.56-5.4,2.823-8.557,2.762C5.03,27.05,5.026,26.368,5.02,25.79c-0.018-1.617-0.026-3.236,0-4.854
			c0.013-0.817,1.882-3.063,2.609-3.213c0.453-0.094,0.79,0.188,1.101,0.411c0.412,0.297,0.063,0.623-0.117,0.883
			c-0.43,0.625-0.751,1.497-0.773,2.314c-0.028,1.088-0.312,2.734,0.568,2.817c1.519,0.143,3.276,0.647,4.693-0.816
			C14.663,21.722,16.289,20.183,17.6,18.307z"/>
		<path style="fill-rule:evenodd;clip-rule:evenodd;fill:#FCFCFC;" d="M18.169,14.72c0.921-0.275,1.564-0.068,2.164,0.323
			c0.82,0.533,1.65,1.05,2.444,1.62c4.177,2.997,4.705,4.207,4.198,9.221c-0.086,0.848-0.397,1.245-1.273,1.23
			c-1.669-0.029-3.343,0.054-5.009-0.024c-1.607-0.076-2.155-1.54-2.988-2.576c-0.262-0.326,0.105-0.77,0.348-1.081
			c0.307-0.392,0.644-0.121,0.877,0.094c1.272,1.169,2.828,0.681,4.283,0.767c0.407,0.024,0.915,0.011,0.914-0.533
			c-0.003-1.513,0.548-3.128-0.684-4.45c-0.784-0.842-1.564-1.689-2.384-2.494C20.245,16.016,19.367,15.286,18.169,14.72z"/>
	</g>
</g>
</svg>
