<?xml version="1.0" encoding="windows-1252"?>
<!-- Generator: Adobe Illustrator 22.1.0, SVG Export Plug-In . SVG Version: 6.00 Build 0)  -->
<svg version="1.1" id="Layer_1" xmlns="http://www.w3.org/2000/svg" xmlns:xlink="http://www.w3.org/1999/xlink" x="0px" y="0px" width="64" height="64" viewBox="0 0 64 64" style="enable-background:new 0 0 64 64;" xml:space="preserve">
<g id="icon-m-send_1_">
	<g id="icon-m-send">
		<path style="opacity:0.4;fill:#FFFFFF;" d="M51.009,33H19.513c-0.552,0-1-0.448-1-1s0.448-1,1-1h31.496c0.553,0,1,0.448,1,1    S51.562,33,51.009,33z"/>
		<path style="fill:#FFFFFF;" d="M12.767,49.023c-0.521,0-0.846-0.23-1.019-0.409c-0.259-0.269-0.622-0.879-0.14-1.951l6.015-13.378    c0.303-0.673,0.303-1.897,0-2.57l-6.015-13.377c-0.483-1.073-0.12-1.683,0.14-1.951c0.26-0.268,0.858-0.651,1.945-0.205    l37.291,15.305c1.123,0.461,1.244,1.212,1.244,1.513s-0.121,1.053-1.244,1.513L13.694,48.818    C13.333,48.967,13.026,49.023,12.767,49.023z M12.422,47.029h0.01H12.422z M13.412,16.996l5.839,12.987    c0.518,1.15,0.518,2.885,0,4.035l-5.839,12.987L49.97,32L13.412,16.996z M50.527,32.259L50.527,32.259L50.527,32.259z     M50.527,31.741L50.527,31.741L50.527,31.741z"/>
	</g>
	<rect id="icon-m-send_2_" style="opacity:0;fill:#FFFFFF;" width="64" height="64"/>
</g>
</svg>