<?xml version="1.0" encoding="windows-1252"?>
<!-- Generator: Adobe Illustrator 22.1.0, SVG Export Plug-In . SVG Version: 6.00 Build 0)  -->
<svg version="1.1" id="Layer_1" xmlns="http://www.w3.org/2000/svg" xmlns:xlink="http://www.w3.org/1999/xlink" x="0px" y="0px" width="32" height="32" viewBox="0 0 32 32" style="enable-background:new 0 0 32 32;" xml:space="preserve">
<g id="icon-s-warning">
	<g id="icon-s-warning_1_">
		<rect id="icon-lock-warning" x="3.036" y="2.871" style="opacity:0;fill:#FFFFFF;" width="25.424" height="25.424"/>
		<g>
			<g style="opacity:0.8;">
				<path style="opacity:0.6;fill:#FFFFFF;" d="M27.063,27.429H4.433c-0.885,0-1.597-0.355-1.954-0.974s-0.308-1.412,0.135-2.178      L13.928,4.679c0.442-0.766,1.105-1.206,1.819-1.206s1.377,0.439,1.82,1.206l11.315,19.598c0.441,0.766,0.491,1.56,0.134,2.178      C28.66,27.073,27.947,27.429,27.063,27.429z M15.748,5.063c-0.103,0-0.279,0.127-0.443,0.411L3.989,25.072      c-0.164,0.283-0.186,0.5-0.135,0.589c0.051,0.089,0.25,0.178,0.578,0.178h22.63c0.328,0,0.527-0.089,0.578-0.178      s0.029-0.306-0.135-0.589L16.191,5.474C16.027,5.189,15.85,5.063,15.748,5.063z"/>
			</g>
			<path style="fill:#FFFFFF;" d="M17.445,22.669c0,0.489-0.162,0.895-0.485,1.219c-0.326,0.323-0.729,0.487-1.212,0.487     c-0.483,0-0.887-0.164-1.211-0.487c-0.325-0.324-0.486-0.73-0.486-1.219c0-0.478,0.161-0.878,0.486-1.202     c0.324-0.326,0.728-0.487,1.211-0.487c0.484,0,0.887,0.161,1.212,0.487C17.283,21.791,17.445,22.191,17.445,22.669z"/>
			<path style="fill:#FFFFFF;" d="M14.394,13.981c-0.038-0.555-0.086-1.464-0.107-2.02l-0.027-0.72     c-0.021-0.556,0.417-1.011,0.974-1.011h1.028c0.557,0,0.995,0.455,0.974,1.011l-0.027,0.72c-0.021,0.556-0.069,1.465-0.107,2.02     l-0.295,4.293c-0.038,0.555-0.514,1.009-1.059,1.009c-0.544,0-1.021-0.454-1.059-1.009L14.394,13.981z"/>
		</g>
	</g>
	<rect id="icon-s-warning_2_" style="opacity:0;fill:#FFFFFF;" width="31.495" height="31.167"/>
</g>
</svg>