<?xml version="1.0" encoding="iso-8859-1"?>
<!-- Generator: Adobe Illustrator 19.0.0, SVG Export Plug-In . SVG Version: 6.00 Build 0)  -->
<svg version="1.1" id="Layer_1" xmlns="http://www.w3.org/2000/svg" xmlns:xlink="http://www.w3.org/1999/xlink" x="0px" y="0px"
	 viewBox="0 0 64 64" style="enable-background:new 0 0 64 64;" xml:space="preserve">
<g id="icon-m-storage">
	<rect id="icon-m-storage_1_" style="opacity:0;fill:#FFFFFF;" width="63.996" height="63.868"/>
	<path style="fill:#FFFFFF;" d="M30.661,53.2c-11.551,0-20.949-9.379-20.949-20.908c0-11.53,9.398-20.91,20.949-20.91v2
		c-10.449,0-18.949,8.483-18.949,18.91c0,10.425,8.5,18.908,18.949,18.908c5.016,0,9.743-1.936,13.311-5.45l1.404,1.424
		C41.431,51.061,36.205,53.2,30.661,53.2z"/>
	<path style="fill:#FFFFFF;" d="M30.746,33.293c-0.061,0-0.123-0.006-0.185-0.017c-0.473-0.089-0.816-0.502-0.816-0.984
		l0.014-22.167c-0.011-0.44,0.188-0.907,0.56-1.289c0.45-0.461,1.109-0.76,1.68-0.76c2.271,0,4.729,0.522,7.512,1.596
		c0.247,0.096,0.447,0.286,0.555,0.529c0.106,0.243,0.113,0.518,0.018,0.766l-8.404,21.688
		C31.526,33.045,31.152,33.293,30.746,33.293z M31.758,10.224l-0.01,16.713l6.101-15.743c-2.161-0.75-4.083-1.117-5.852-1.117
		C31.947,10.086,31.824,10.161,31.758,10.224z"/>
	<path style="opacity:0.7;fill:#FFFFFF;" d="M30.745,33.293c-0.252,0-0.5-0.095-0.69-0.276c-0.292-0.278-0.388-0.705-0.244-1.082
		l8.284-21.578c0.024-0.108,0.065-0.212,0.125-0.308c0.271-0.441,0.848-0.626,1.311-0.398c0.048,0.024,0.094,0.051,0.137,0.081
		c5.975,2.363,10.698,6.884,13.319,12.753c0.108,0.243,0.115,0.519,0.02,0.768c-0.095,0.248-0.286,0.448-0.529,0.555l-21.329,9.4
		C31.019,33.266,30.881,33.293,30.745,33.293z M39.649,11.889l-7.11,18.52l18.192-8.017C48.372,17.676,44.489,13.996,39.649,11.889z
		"/>
	<path style="opacity:0.4;fill:#FFFFFF;" d="M47.282,49.458c-0.008,0-0.016,0-0.024-0.001c-0.739-0.005-1.406-0.251-1.829-0.675
		L30.03,33.012l1.431-1.397l15.392,15.764c0.14,0.104,0.688,0.111,0.846-0.006c1.603-1.604,2.942-3.812,4.086-6.741
		c2.192-5.621,2.061-11.761-0.37-17.289l1.83-0.806c2.646,6.018,2.79,12.702,0.403,18.821c-1.246,3.192-2.732,5.626-4.545,7.438
		C48.681,49.218,48.019,49.458,47.282,49.458z"/>
</g>
</svg>
