<svg width="64" height="64" viewBox="0 0 64 64" fill="none" xmlns="http://www.w3.org/2000/svg">
<path opacity="0.2" d="M32 56C45.2548 56 56 45.2548 56 32C56 18.7452 45.2548 8 32 8C18.7452 8 8 18.7452 8 32C8 45.2548 18.7452 56 32 56Z" fill="white"/>
<path d="M20 24.1122C20 21.9122 21.449 21.1812 23.219 22.4862L32.898 29.6262C34.668 30.9322 34.668 33.0692 32.898 34.3752L23.219 41.5152C21.449 42.8212 20 42.0892 20 39.8892V24.1122Z" fill="white"/>
<path d="M32 24.1122C32 21.9122 33.449 21.1812 35.219 22.4862L44.898 29.6262C46.668 30.9322 46.668 33.0692 44.898 34.3752L35.219 41.5152C33.449 42.8212 32 42.0892 32 39.8892V24.1122Z" fill="white"/>
</svg>
