<?xml version="1.0" encoding="iso-8859-1"?>
<!-- Generator: Adobe Illustrator 17.0.1, SVG Export Plug-In . SVG Version: 6.00 Build 0)  -->
<!DOCTYPE svg PUBLIC "-//W3C//DTD SVG 1.1//EN" "http://www.w3.org/Graphics/SVG/1.1/DTD/svg11.dtd">
<svg version="1.1" id="Layer_1" xmlns="http://www.w3.org/2000/svg" xmlns:xlink="http://www.w3.org/1999/xlink" x="0px" y="0px"
	 width="64px" height="64px" viewBox="0 0 64 64" style="enable-background:new 0 0 64 64;" xml:space="preserve">
<g id="icon-m-service-xmpp">
	<rect id="icon-m-service-xmpp_1_" style="opacity:0;fill-rule:evenodd;clip-rule:evenodd;fill:#FFFFFF;" width="64" height="64"/>
	<g>
		<rect style="fill-rule:evenodd;clip-rule:evenodd;fill:#FFFFFF;" width="64" height="64"/>
		<g>
			<g>
				<path style="fill-rule:evenodd;clip-rule:evenodd;fill:#E96D1F;" d="M31.733,48.093c-3.899,2.088-8.083,3.293-12.433,3.959
					c-0.281,0.044-0.738,0.272-0.839-0.22c-0.106-0.514,0.366-0.542,0.72-0.647c3.419-1.019,6.538-2.615,9.327-4.849
					c0.521,0.271,1.043,0.542,1.564,0.814c0.867,0.482,1.456-0.036,2.043-0.565c0.501-0.314,0.997-0.64,1.506-0.939
					c0.569-0.335,0.58-0.67,0.096-1.112c-0.518-0.474-1.082-0.91-1.46-1.521c5.481-5.824,9.071-12.613,10.438-20.528
					c0.266-1.539,0.385-3.094,0.333-4.658c-0.013-0.363-0.091-0.748,0.413-0.896c3.125-0.909,6.247-1.827,9.37-2.742
					c0.247,2.869-0.066,5.699-0.592,8.515c-0.75,2.916-1.826,5.706-3.252,8.36c-2.156,4.013-4.967,7.52-8.208,10.698
					c-1.803,1.418-3.605,2.835-5.409,4.252c-0.726,0.433-1.453,0.864-2.179,1.297C32.691,47.572,32.212,47.833,31.733,48.093z"/>
				<path style="fill-rule:evenodd;clip-rule:evenodd;fill:#A0CE67;" d="M32.256,43.013c0.379,0.61,0.942,1.047,1.46,1.521
					c0.484,0.442,0.473,0.777-0.096,1.112c-0.51,0.3-1.005,0.625-1.506,0.938c-0.411-0.252-0.837-0.48-1.226-0.761
					c-3.59-2.584-6.638-5.713-9.158-9.336c-4.434-6.376-7.422-13.264-7.278-21.218c2.204,0.636,4.402,1.296,6.618,1.894
					c0.719,0.194,0.624,0.657,0.638,1.189C21.949,27.971,25.79,36.055,32.256,43.013z"/>
				<g>
					<path style="fill-rule:evenodd;clip-rule:evenodd;fill:#439639;" d="M21.731,36.487c-4.434-6.376-7.422-13.264-7.278-21.218
						c-0.775-0.421-1.6-0.69-2.465-0.847c-0.393,2.694,0.028,5.346,0.438,7.997c1.915,7.548,5.861,13.916,11.284,19.427
						c1.863,1.64,3.68,3.337,5.805,4.649c0.251,0.156,0.513,0.314,0.556,0.654c0.867,0.482,1.456-0.036,2.043-0.566
						c-0.411-0.252-0.837-0.48-1.226-0.761C27.299,43.239,24.25,40.11,21.731,36.487z"/>
				</g>
				<path style="fill-rule:evenodd;clip-rule:evenodd;fill:#43963B;" d="M31.733,48.093c0.479-0.26,0.958-0.521,1.437-0.782
					c3.512,2.189,7.367,3.432,11.424,4.107c0.396,0.079,0.789,0.186,1.188,0.229c0.318,0.033,0.627,0.028,0.562,0.469
					c-0.063,0.437-0.394,0.354-0.69,0.322c-2.29-0.249-4.529-0.734-6.738-1.392C36.419,50.305,34.119,49.1,31.733,48.093z"/>
				<path style="fill-rule:evenodd;clip-rule:evenodd;fill:#9ECC66;" d="M46.292,51.8c-6.082-1.063-9.61-2.3-13.122-4.489
					c0.726-0.433,1.452-0.864,2.179-1.296c0.12,0.071,0.239,0.143,0.359,0.215c2.373,2.04,5.076,3.516,7.968,4.671
					C44.002,51.03,46.125,51.385,46.292,51.8z"/>
				<linearGradient id="SVGID_1_" gradientUnits="userSpaceOnUse" x1="17.3931" y1="52.0599" x2="17.3931" y2="11.3549">
					<stop  offset="0" style="stop-color:#013263"/>
					<stop  offset="0.4653" style="stop-color:#12B4E9"/>
					<stop  offset="1" style="stop-color:#013263"/>
				</linearGradient>
				<path style="fill-rule:evenodd;clip-rule:evenodd;fill:url(#SVGID_1_);" d="M29.515,46.496c-2.125-1.313-3.942-3.01-5.805-4.65
					c-5.423-5.51-9.369-11.878-11.284-19.426c-0.41-2.651-0.831-5.303-0.438-7.997c-2.392-0.925-4.787-1.839-7.171-2.779
					c-0.602-0.236-0.836-0.103-0.763,0.55c0.066,0.591,0.09,1.188,0.17,1.775c0.419,3.101,1.148,6.115,2.615,8.91
					c0.206,0.476,0.389,0.961,0.618,1.426c3.612,7.36,8.954,13.25,15.443,18.163c1.713,1.517,3.688,2.651,5.608,3.868
					c0.521,0.271,1.687,0.876,2.209,1.147C30.945,47.377,29.767,46.652,29.515,46.496z"/>
				<linearGradient id="SVGID_2_" gradientUnits="userSpaceOnUse" x1="47.6544" y1="51.8106" x2="47.6544" y2="11.4634">
					<stop  offset="0" style="stop-color:#013263"/>
					<stop  offset="0.4577" style="stop-color:#12B4E9"/>
					<stop  offset="1" style="stop-color:#013263"/>
				</linearGradient>
				<path style="fill-rule:evenodd;clip-rule:evenodd;fill:url(#SVGID_2_);" d="M59.121,11.69c-2.1,0.843-4.207,1.666-6.311,2.498
					c0.247,2.869-0.066,5.699-0.592,8.515c-0.75,2.916-1.826,5.706-3.252,8.36c-2.156,4.013-4.967,7.52-8.208,10.698
					c-1.803,1.418-3.605,2.835-5.409,4.253c0.12,0.071,0.239,0.143,0.359,0.215c2.001-1.195,3.973-2.435,5.766-3.937
					c0.774-0.604,1.571-1.182,2.318-1.819c2.241-1.913,4.364-3.945,6.272-6.201c2.99-3.537,5.564-7.33,7.324-11.638
					c0.485-0.635,0.65-1.409,0.907-2.137c0.92-2.604,1.539-5.272,1.658-8.041C59.977,11.886,59.974,11.348,59.121,11.69z"/>
			</g>
			<path style="fill-rule:evenodd;clip-rule:evenodd;fill:#D9541E;" d="M34.245,46.927c0.304-0.15,0.75-0.497,1.002-0.653
				c2.125-1.313,3.942-3.011,5.806-4.65c5.423-5.51,9.37-11.878,11.284-19.426c0.41-2.652,0.831-5.303,0.438-7.999
				c-0.864,0.158-1.69,0.428-2.465,0.849c0.144,7.953-2.844,14.842-7.278,21.217c-2.52,3.623-5.791,6.752-9.381,9.336
				c-0.389,0.28-0.815,0.508-1.225,0.762l-1.055,0.727c-3.514,2.189-7.145,3.43-11.202,4.107c-0.396,0.079-0.789,0.185-1.188,0.228
				c-0.318,0.033-0.627,0.028-0.562,0.47c0.064,0.435,0.394,0.354,0.69,0.322c2.29-0.25,4.529-0.734,6.738-1.392
				c2.498-0.741,4.352-1.946,6.737-2.952L34.245,46.927z"/>
		</g>
	</g>
</g>
</svg>
