<?xml version="1.0" encoding="windows-1252"?>
<!-- Generator: Adobe Illustrator 22.1.0, SVG Export Plug-In . SVG Version: 6.00 Build 0)  -->
<svg version="1.1" id="Layer_1" xmlns="http://www.w3.org/2000/svg" xmlns:xlink="http://www.w3.org/1999/xlink" x="0px" y="0px" width="32" height="32" viewBox="0 0 32 32" style="enable-background:new 0 0 32 32;" xml:space="preserve">
<g id="icon-s-service-google">
	<g>
		<rect x="0.115" y="0.115" style="fill-rule:evenodd;clip-rule:evenodd;fill:#FFFFFF;" width="31.771" height="31.771"/>
	</g>
	<g>
		<path style="fill:#4285F4;" d="M25.589,16.225c0-0.665-0.054-1.334-0.169-1.988h-9.227v3.767h5.284    c-0.219,1.215-0.924,2.29-1.955,2.973v2.444h3.152C24.525,21.717,25.589,19.201,25.589,16.225z"/>
		<path style="fill:#34A853;" d="M16.193,25.783c2.638,0,4.863-0.866,6.485-2.362l-3.152-2.444    c-0.877,0.597-2.009,0.935-3.329,0.935c-2.552,0-4.716-1.722-5.492-4.037H7.451v2.52C9.112,23.698,12.494,25.783,16.193,25.783z"/>
		<path style="fill:#FBBC04;" d="M10.701,17.875c-0.41-1.215-0.41-2.531,0-3.746v-2.52H7.451c-1.387,2.764-1.387,6.021,0,8.785    L10.701,17.875z"/>
		<path style="fill:#EA4335;" d="M16.193,10.089c1.395-0.022,2.743,0.503,3.753,1.467l0,0l2.793-2.793    c-1.769-1.661-4.116-2.574-6.546-2.545c-3.699,0-7.081,2.085-8.742,5.392l3.249,2.52C11.474,11.811,13.641,10.089,16.193,10.089z"/>
	</g>
	<g id="icon-s-service-google_1_" style="opacity:0;">
		<rect style="fill-rule:evenodd;clip-rule:evenodd;fill:#FFFFFF;" width="32" height="32"/>
	</g>
</g>
</svg>