<?xml version="1.0" encoding="iso-8859-1"?>
<!-- Generator: Adobe Illustrator 17.0.1, SVG Export Plug-In . SVG Version: 6.00 Build 0)  -->
<!DOCTYPE svg PUBLIC "-//W3C//DTD SVG 1.1//EN" "http://www.w3.org/Graphics/SVG/1.1/DTD/svg11.dtd">
<svg version="1.1" id="Layer_1" xmlns="http://www.w3.org/2000/svg" xmlns:xlink="http://www.w3.org/1999/xlink" x="0px" y="0px"
	 width="32px" height="32px" viewBox="0 0 32 32" style="enable-background:new 0 0 32 32;" xml:space="preserve">
<g id="icon-s-service-youtube">
	
		<rect id="icon-s-service-youtube_1_" style="opacity:0;fill-rule:evenodd;clip-rule:evenodd;fill:#FFFFFF;" width="32" height="32"/>
	<g>
		<linearGradient id="SVGID_1_" gradientUnits="userSpaceOnUse" x1="16" y1="32" x2="16" y2="-7.175913e-010">
			<stop  offset="0" style="stop-color:#DADADA"/>
			<stop  offset="0.1077" style="stop-color:#E4E4E4"/>
			<stop  offset="0.3377" style="stop-color:#F3F3F3"/>
			<stop  offset="0.6058" style="stop-color:#FCFCFC"/>
			<stop  offset="1" style="stop-color:#FFFFFF"/>
		</linearGradient>
		<rect style="opacity:0.9;fill-rule:evenodd;clip-rule:evenodd;fill:url(#SVGID_1_);" width="32" height="32"/>
		<g>
			<path style="opacity:0.3;fill-rule:evenodd;clip-rule:evenodd;fill:#020000;" d="M14.261,5.967h-1.136l-0.767,2.947l-0.798-2.947
				h-1.182c0.237,0.696,0.483,1.395,0.72,2.091c0.36,1.047,0.585,1.836,0.687,2.374v3.04h1.123v-3.04L14.261,5.967z M17.264,11.661
				V9.702c0-0.597-0.102-1.034-0.315-1.317c-0.28-0.382-0.675-0.573-1.183-0.573c-0.505,0-0.898,0.191-1.179,0.573
				c-0.215,0.283-0.317,0.72-0.317,1.317v1.958c0,0.595,0.102,1.035,0.317,1.316c0.28,0.381,0.674,0.572,1.179,0.572
				c0.508,0,0.903-0.191,1.183-0.572C17.162,12.696,17.264,12.256,17.264,11.661z M16.25,11.852c0,0.517-0.157,0.776-0.484,0.776
				c-0.326,0-0.483-0.259-0.483-0.776V9.5c0-0.518,0.157-0.776,0.483-0.776c0.327,0,0.484,0.258,0.484,0.776V11.852z M21.011,13.472
				V7.879h-1.014v4.274c-0.224,0.318-0.437,0.475-0.639,0.475c-0.136,0-0.216-0.08-0.238-0.237
				c-0.012-0.033-0.012-0.157-0.012-0.394V7.879h-1.011v4.423c0,0.394,0.034,0.662,0.09,0.831c0.101,0.283,0.327,0.415,0.652,0.415
				c0.37,0,0.754-0.224,1.157-0.687v0.61H21.011z"/>
			<linearGradient id="SVGID_2_" gradientUnits="userSpaceOnUse" x1="15.6978" y1="13.4268" x2="15.6978" y2="5.8452">
				<stop  offset="0" style="stop-color:#3D3C3C"/>
				<stop  offset="0.0323" style="stop-color:#3B3939"/>
				<stop  offset="0.276" style="stop-color:#2D2A2B"/>
				<stop  offset="0.5631" style="stop-color:#252223"/>
				<stop  offset="1" style="stop-color:#231F20"/>
			</linearGradient>
			<path style="fill-rule:evenodd;clip-rule:evenodd;fill:url(#SVGID_2_);" d="M14.264,5.845h-1.136l-0.766,2.947l-0.798-2.947
				h-1.183c0.237,0.696,0.483,1.395,0.721,2.091c0.36,1.046,0.585,1.835,0.687,2.374v3.039h1.124v-3.039L14.264,5.845z
				 M17.267,11.539V9.58c0-0.597-0.102-1.034-0.314-1.317c-0.281-0.382-0.674-0.573-1.182-0.573c-0.505,0-0.899,0.191-1.18,0.573
				c-0.216,0.283-0.317,0.72-0.317,1.317v1.959c0,0.594,0.101,1.035,0.317,1.315c0.28,0.381,0.675,0.572,1.18,0.572
				c0.508,0,0.901-0.191,1.182-0.572C17.165,12.574,17.267,12.133,17.267,11.539z M16.253,11.73c0,0.517-0.156,0.776-0.483,0.776
				c-0.327,0-0.484-0.259-0.484-0.776V9.377c0-0.517,0.157-0.775,0.484-0.775c0.327,0,0.483,0.258,0.483,0.775V11.73z M21.015,13.35
				V7.757h-1.014v4.274c-0.225,0.318-0.438,0.475-0.64,0.475c-0.136,0-0.216-0.08-0.238-0.237c-0.012-0.033-0.012-0.156-0.012-0.394
				V7.757h-1.01v4.422c0,0.394,0.034,0.663,0.089,0.832c0.102,0.284,0.327,0.416,0.653,0.416c0.369,0,0.754-0.225,1.157-0.688v0.61
				H21.015z"/>
		</g>
		
			<linearGradient id="SVGID_3_" gradientUnits="userSpaceOnUse" x1="-22.2456" y1="-35.4055" x2="-22.2456" y2="-46.9702" gradientTransform="matrix(-1 0 0 1 -6.2441 61.3242)">
			<stop  offset="0" style="stop-color:#6D0D13"/>
			<stop  offset="0.6179" style="stop-color:#AB2624"/>
			<stop  offset="1" style="stop-color:#CD332D"/>
		</linearGradient>
		<path style="fill-rule:evenodd;clip-rule:evenodd;fill:url(#SVGID_3_);" d="M24.298,20.137c0,1.294-0.002,2.665-0.292,3.922
			c-0.202,0.882-0.924,1.533-1.793,1.63c-2.058,0.23-4.14,0.231-6.213,0.23c-2.073,0.001-4.156,0-6.213-0.23
			c-0.869-0.097-1.59-0.748-1.793-1.63c-0.289-1.257-0.289-2.628-0.289-3.922l0,0c0-1.294,0.003-2.665,0.293-3.923
			c0.202-0.882,0.924-1.532,1.793-1.629c2.058-0.231,4.14-0.231,6.213-0.231c2.073,0,4.156,0,6.213,0.231
			c0.869,0.097,1.59,0.747,1.793,1.629C24.299,17.471,24.298,18.842,24.298,20.137L24.298,20.137z"/>
		<linearGradient id="SVGID_4_" gradientUnits="userSpaceOnUse" x1="16.001" y1="23.8027" x2="16.001" y2="16.2988">
			<stop  offset="0" style="stop-color:#D5D5D2"/>
			<stop  offset="0.1554" style="stop-color:#E3E3E1"/>
			<stop  offset="0.3993" style="stop-color:#F3F3F2"/>
			<stop  offset="0.6668" style="stop-color:#FCFCFC"/>
			<stop  offset="1" style="stop-color:#FFFFFF"/>
		</linearGradient>
		<path style="fill-rule:evenodd;clip-rule:evenodd;fill:url(#SVGID_4_);" d="M12.438,17.345v-1.046H8.941v1.046h1.18v6.382h1.115
			v-6.382H12.438z M14.464,23.727v-0.604c-0.398,0.457-0.777,0.68-1.145,0.68c-0.323,0-0.546-0.132-0.646-0.412
			c-0.055-0.167-0.089-0.432-0.089-0.822v-4.376h1.003v4.074c0,0.234,0,0.357,0.01,0.39c0.023,0.156,0.1,0.234,0.234,0.234
			c0.201,0,0.411-0.155,0.634-0.469v-4.229h1.003v5.534H14.464z M18.274,22.145c0,0.5-0.147,0.746-0.436,0.746
			c-0.165,0-0.332-0.079-0.5-0.246v-3.374c0.168-0.164,0.335-0.244,0.5-0.244c0.29,0,0.436,0.256,0.436,0.755V22.145z
			 M19.276,22.065v-2.204c0-0.523-0.034-0.889-0.101-1.112c-0.135-0.415-0.402-0.625-0.802-0.625c-0.369,0-0.712,0.202-1.036,0.601
			v-2.426h-1.003v7.428h1.003V23.19c0.335,0.415,0.68,0.613,1.036,0.613c0.4,0,0.667-0.21,0.802-0.622
			C19.242,22.946,19.276,22.577,19.276,22.065z M22.059,20.307h-1.002v-0.511c0-0.512,0.167-0.768,0.502-0.768
			c0.332,0,0.5,0.256,0.5,0.768V20.307z M23.061,21.956V21.81h-1.023c0,0.402-0.013,0.624-0.022,0.679
			c-0.057,0.268-0.201,0.402-0.448,0.402c-0.344,0-0.511-0.255-0.511-0.768v-0.981h2.004v-1.146c0-0.591-0.101-1.023-0.31-1.303
			c-0.281-0.379-0.68-0.568-1.183-0.568c-0.511,0-0.911,0.188-1.2,0.568c-0.214,0.28-0.311,0.712-0.311,1.303v1.939
			c0,0.587,0.109,1.024,0.322,1.301c0.29,0.378,0.688,0.567,1.214,0.567c0.523,0,0.935-0.198,1.212-0.6
			c0.122-0.178,0.201-0.379,0.234-0.601C23.049,22.501,23.061,22.278,23.061,21.956z"/>
	</g>
</g>
</svg>
