<?xml version="1.0" encoding="iso-8859-1"?>
<!-- Generator: Adobe Illustrator 17.0.1, SVG Export Plug-In . SVG Version: 6.00 Build 0)  -->
<!DOCTYPE svg PUBLIC "-//W3C//DTD SVG 1.1//EN" "http://www.w3.org/Graphics/SVG/1.1/DTD/svg11.dtd">
<svg version="1.1" id="Layer_1" xmlns="http://www.w3.org/2000/svg" xmlns:xlink="http://www.w3.org/1999/xlink" x="0px" y="0px"
	 width="64px" height="64px" viewBox="0 0 64 64" style="enable-background:new 0 0 64 64;" xml:space="preserve">
<g id="icon-m-service-memotoo">
	<g id="icon-m-service-memotoo_1_" style="opacity:0;">
		<rect style="fill:#FFFFFF;" width="64" height="64"/>
	</g>
	<rect style="fill:#37609E;" width="64" height="64"/>
	<g style="opacity:0.1;">
		<radialGradient id="SVGID_1_" cx="19.8086" cy="48" r="14.2239" gradientUnits="userSpaceOnUse">
			<stop  offset="0" style="stop-color:#FFFFFF;stop-opacity:0"/>
			<stop  offset="1" style="stop-color:#FFFFFF"/>
		</radialGradient>
		<polygon style="fill:url(#SVGID_1_);" points="7.617,64 18.618,64 32,32 32,32 		"/>
		<radialGradient id="SVGID_2_" cx="19.8087" cy="16" r="14.2238" gradientUnits="userSpaceOnUse">
			<stop  offset="0" style="stop-color:#FFFFFF;stop-opacity:0"/>
			<stop  offset="1" style="stop-color:#FFFFFF"/>
		</radialGradient>
		<polygon style="fill:url(#SVGID_2_);" points="7.617,0 32,32 18.618,0 		"/>
		<radialGradient id="SVGID_3_" cx="32.0001" cy="16" r="11.6798" gradientUnits="userSpaceOnUse">
			<stop  offset="0" style="stop-color:#FFFFFF;stop-opacity:0"/>
			<stop  offset="1" style="stop-color:#FFFFFF"/>
		</radialGradient>
		<polygon style="fill:url(#SVGID_3_);" points="27.897,0 32,32 36.103,0 		"/>
		<radialGradient id="SVGID_4_" cx="32.0001" cy="48" r="11.6798" gradientUnits="userSpaceOnUse">
			<stop  offset="0" style="stop-color:#FFFFFF;stop-opacity:0"/>
			<stop  offset="1" style="stop-color:#FFFFFF"/>
		</radialGradient>
		<polygon style="fill:url(#SVGID_4_);" points="36.103,64 32,32 27.897,64 		"/>
		<radialGradient id="SVGID_5_" cx="44.1917" cy="48" r="14.2238" gradientUnits="userSpaceOnUse">
			<stop  offset="0" style="stop-color:#FFFFFF;stop-opacity:0"/>
			<stop  offset="1" style="stop-color:#FFFFFF"/>
		</radialGradient>
		<polygon style="fill:url(#SVGID_5_);" points="56.383,64 32,32 45.382,64 		"/>
		<radialGradient id="SVGID_6_" cx="48.0001" cy="19.8085" r="14.2237" gradientUnits="userSpaceOnUse">
			<stop  offset="0" style="stop-color:#FFFFFF;stop-opacity:0"/>
			<stop  offset="1" style="stop-color:#FFFFFF"/>
		</radialGradient>
		<polygon style="fill:url(#SVGID_6_);" points="64,7.617 32,32 64,18.618 		"/>
		<radialGradient id="SVGID_7_" cx="15.9999" cy="19.8083" r="14.2237" gradientUnits="userSpaceOnUse">
			<stop  offset="0" style="stop-color:#FFFFFF;stop-opacity:0"/>
			<stop  offset="1" style="stop-color:#FFFFFF"/>
		</radialGradient>
		<polygon style="fill:url(#SVGID_7_);" points="0,7.617 0,18.618 32,32 		"/>
		<radialGradient id="SVGID_8_" cx="15.9999" cy="44.1914" r="14.2237" gradientUnits="userSpaceOnUse">
			<stop  offset="0" style="stop-color:#FFFFFF;stop-opacity:0"/>
			<stop  offset="1" style="stop-color:#FFFFFF"/>
		</radialGradient>
		<polygon style="fill:url(#SVGID_8_);" points="0,56.383 32,32 0,45.382 		"/>
		<radialGradient id="SVGID_9_" cx="15.9999" cy="32" r="11.6797" gradientUnits="userSpaceOnUse">
			<stop  offset="0" style="stop-color:#FFFFFF;stop-opacity:0"/>
			<stop  offset="1" style="stop-color:#FFFFFF"/>
		</radialGradient>
		<polygon style="fill:url(#SVGID_9_);" points="0,36.103 32,32 0,27.897 		"/>
		<radialGradient id="SVGID_10_" cx="44.1917" cy="16" r="14.2237" gradientUnits="userSpaceOnUse">
			<stop  offset="0" style="stop-color:#FFFFFF;stop-opacity:0"/>
			<stop  offset="1" style="stop-color:#FFFFFF"/>
		</radialGradient>
		<polygon style="fill:url(#SVGID_10_);" points="45.382,0 32,32 56.383,0 		"/>
		<radialGradient id="SVGID_11_" cx="48.0001" cy="42.14" r="15.1469" gradientUnits="userSpaceOnUse">
			<stop  offset="0" style="stop-color:#FFFFFF;stop-opacity:0"/>
			<stop  offset="1" style="stop-color:#FFFFFF"/>
		</radialGradient>
		<polygon style="fill:url(#SVGID_11_);" points="64,27.897 32,32 64,56.383 64,45.382 32.001,32 64,36.103 		"/>
	</g>
	<rect style="fill:none;" width="64" height="64"/>
	<g>
		<g>
			<linearGradient id="SVGID_12_" gradientUnits="userSpaceOnUse" x1="32.079" y1="17.4796" x2="32.079" y2="48.4702">
				<stop  offset="0" style="stop-color:#E0EDF6"/>
				<stop  offset="0.2928" style="stop-color:#DEECF6"/>
				<stop  offset="0.4447" style="stop-color:#D6E9F5"/>
				<stop  offset="0.5643" style="stop-color:#C9E4F3"/>
				<stop  offset="0.667" style="stop-color:#B5DDF0"/>
				<stop  offset="0.759" style="stop-color:#9DD3EC"/>
				<stop  offset="0.8431" style="stop-color:#7EC8E8"/>
				<stop  offset="0.9215" style="stop-color:#5ABAE3"/>
				<stop  offset="0.9932" style="stop-color:#31ABDD"/>
				<stop  offset="1" style="stop-color:#2DA9DC"/>
			</linearGradient>
			<path style="fill:url(#SVGID_12_);" d="M52.149,33.196c0.003-0.074,0.011-0.147,0.011-0.222c0-2.501-2.027-4.528-4.528-4.528
				c-0.218,0-0.431,0.021-0.64,0.051C45.562,22.19,39.927,17.48,33.187,17.48c-5.173,0-9.696,2.776-12.166,6.918
				c-4.826,0.029-8.732,3.938-8.754,8.766c-3.807,0.45-6.785,3.706-6.785,7.626c0,4.224,3.459,7.681,7.686,7.681h37.823
				c4.227,0,7.686-3.456,7.686-7.681C58.677,36.958,55.832,33.759,52.149,33.196z"/>
			<path style="fill:#2DA9DC;" d="M50.99,48.707H13.167c-4.369,0-7.923-3.552-7.923-7.918c0-3.94,2.904-7.272,6.788-7.834
				c0.131-4.795,4.048-8.693,8.853-8.792c2.602-4.271,7.304-6.919,12.302-6.919c6.697,0,12.418,4.509,13.986,10.993
				c0.163-0.017,0.313-0.025,0.458-0.025c2.628,0,4.766,2.138,4.766,4.765c0,0.007,0,0.015,0,0.022
				c3.729,0.675,6.517,3.987,6.517,7.792C58.914,45.155,55.359,48.707,50.99,48.707z M33.188,17.716
				c-4.876,0-9.46,2.607-11.963,6.803l-0.068,0.115l-0.134,0c-4.676,0.028-8.497,3.854-8.519,8.53l-0.001,0.21l-0.208,0.024
				c-3.749,0.443-6.576,3.621-6.576,7.391c0,4.104,3.342,7.443,7.449,7.443H50.99c4.107,0,7.449-3.339,7.449-7.443
				c0-3.645-2.72-6.808-6.327-7.358L51.9,33.398l0.017-0.293c0.003-0.044,0.006-0.087,0.006-0.13c0-2.366-1.925-4.292-4.291-4.292
				c-0.184,0-0.377,0.016-0.607,0.048l-0.216,0.03l-0.049-0.213C45.315,22.171,39.734,17.716,33.188,17.716z"/>
		</g>
		<radialGradient id="SVGID_13_" cx="23.8255" cy="-7.261" r="52.6033" gradientUnits="userSpaceOnUse">
			<stop  offset="0.5591" style="stop-color:#FFFFFF"/>
			<stop  offset="0.8652" style="stop-color:#FFFFFF;stop-opacity:0.1243"/>
			<stop  offset="0.9086" style="stop-color:#FFFFFF;stop-opacity:0"/>
		</radialGradient>
		<path style="fill:url(#SVGID_13_);" d="M13.167,46.407c-3.1,0-5.623-2.52-5.623-5.617c0-2.845,2.134-5.242,4.964-5.577
			l1.813-0.214l0.008-1.826c0.017-3.679,3.024-6.69,6.703-6.712l1.164-0.007l0.596-1c2.175-3.646,6.157-5.911,10.394-5.911
			c5.687,0,10.631,5.346,11.792,9.41c0.303,1.06,0.475,1.939,0.475,1.939s1.089-0.382,2.178-0.382c1.352,0,2.465,1.181,2.465,2.444
			s-0.42,2.294-0.42,2.294l2.161-0.012c2.723,0.416,4.776,2.803,4.776,5.553c0,3.097-2.522,5.617-5.623,5.617H13.167z"/>
		<polygon style="fill:#1D456D;" points="10.911,43.961 11.482,39.356 12.985,43.961 13.527,43.961 15.151,39.471 15.703,43.952 
			17.059,43.961 16.142,37.312 14.58,37.312 13.316,41.382 12.017,37.312 10.422,37.312 9.519,43.961 		"/>
		<path style="fill:#1D456D;" d="M20.778,42.581c-0.217,0.266-0.496,0.439-0.85,0.439c-0.535,0-0.906-0.333-1.052-0.859h2.134
			c-0.002,0.006,0.129-0.012,0.128-0.006h0.962c0.023-0.133,0.037-0.27,0.037-0.41c0-1.272-0.991-2.306-2.209-2.306
			c-1.218,0-2.209,1.035-2.209,2.306c0,1.272,0.991,2.306,2.209,2.306c0.758,0,1.557-0.504,1.955-1.114L20.778,42.581z
			 M19.927,40.47c0.51,0,0.859,0.35,1.025,0.838h-2.066C19.052,40.819,19.417,40.47,19.927,40.47z"/>
		<path style="fill:#1D456D;" d="M24.417,43.942v-2.503c0-0.441,0.361-0.802,0.803-0.802c0.441,0,0.802,0.361,0.802,0.802v2.503
			h1.208v-2.688c0.084-0.353,0.401-0.618,0.779-0.618c0.441,0,0.802,0.361,0.802,0.802v2.503h1.208v-2.931
			c0-0.774-0.633-1.407-1.407-1.407c-0.715,0-1.311,0.516-1.395,1.004c-0.069-0.507-0.68-1.004-1.395-1.004
			c-0.774,0-1.407,0.611-1.407,1.177v-1.139h-1.261v4.299H24.417z"/>
		<polygon style="fill:#1D456D;" points="44.899,39.643 44.25,39.643 44.25,38 42.97,38 42.97,39.643 42.339,39.643 42.339,40.713 
			42.97,40.713 42.97,43.961 44.25,43.961 44.25,40.713 44.899,40.713 		"/>
		<path style="fill:#1D456D;" d="M47.708,39.452c-1.266,0-2.293,1.027-2.293,2.293s1.027,2.293,2.293,2.293
			c1.266,0,2.293-1.026,2.293-2.293S48.974,39.452,47.708,39.452z M47.689,42.853c-0.612,0-1.108-0.496-1.108-1.108
			s0.496-1.108,1.108-1.108c0.612,0,1.108,0.496,1.108,1.108S48.301,42.853,47.689,42.853z"/>
		<path style="fill:#1D456D;" d="M53.345,39.452c-1.266,0-2.293,1.027-2.293,2.293s1.027,2.293,2.293,2.293
			c1.266,0,2.293-1.026,2.293-2.293S54.611,39.452,53.345,39.452z M53.325,42.853c-0.612,0-1.108-0.496-1.108-1.108
			s0.496-1.108,1.108-1.108c0.612,0,1.108,0.496,1.108,1.108S53.937,42.853,53.325,42.853z"/>
		<path style="fill:#FFFFFF;" d="M39.191,38.057l-2.297-2.297v1.184c-1.417-0.282-2.944,0.123-4.04,1.219
			c-1.743,1.743-1.743,4.58,0,6.323l1.459-1.459c-0.939-0.939-0.939-2.466,0-3.404c0.697-0.697,1.717-0.875,2.581-0.537v1.269
			L39.191,38.057z"/>
		<path style="fill:#FFFFFF;" d="M33.737,45.318l2.297,2.297v-1.184c1.417,0.282,2.944-0.123,4.04-1.219
			c1.743-1.743,1.743-4.58,0-6.323l-1.459,1.459c0.939,0.939,0.939,2.466,0,3.404c-0.697,0.697-1.717,0.875-2.581,0.537v-1.269
			L33.737,45.318z"/>
	</g>
</g>
</svg>
