<?xml version="1.0" encoding="iso-8859-1"?>
<!-- Generator: Adobe Illustrator 24.0.2, SVG Export Plug-In . SVG Version: 6.00 Build 0)  -->
<svg version="1.1" id="Layer_1" xmlns="http://www.w3.org/2000/svg" xmlns:xlink="http://www.w3.org/1999/xlink" x="0px" y="0px"	 width="64" height="64" viewBox="0 0 64 64" style="enable-background:new 0 0 64 64;" xml:space="preserve">
<g id="icon-m-wlan-light_4_">
	<rect id="icon-m-wlan-light_5_" style="opacity:0;fill:#FFFFFF;" width="64" height="64"/>
	<path style="fill:#FFFFFF;" d="M32.134,52.194c-1.341,0-2.681-0.51-3.701-1.53L7.654,29.886c-1.945-1.946-2.035-5.092-0.204-7.162
		l0.087-0.087c6.813-6.018,15.547-9.333,24.597-9.333c9.046,0,17.778,3.311,24.59,9.321l0.085,0.085
		c1.837,2.064,1.756,5.21-0.185,7.162L35.836,50.665C34.815,51.685,33.475,52.194,32.134,52.194z M8.91,24.093
		c-1.093,1.28-1.028,3.192,0.158,4.379L29.847,49.25c1.261,1.262,3.313,1.262,4.575,0l20.786-20.789
		c1.181-1.188,1.241-3.101,0.144-4.378c-6.438-5.662-14.682-8.779-23.218-8.779C23.594,15.305,15.35,18.425,8.91,24.093z"/>
	<path style="opacity:0.6;fill:#FFFFFF;" d="M51.221,33.58c-4.959-5.439-11.998-8.559-19.311-8.559
		c-7.312,0-14.348,3.119-19.304,8.559l-1.479-1.347c5.334-5.854,12.909-9.211,20.782-9.211c7.875,0,15.452,3.357,20.79,9.211
		L51.221,33.58z"/>
	<path style="opacity:0.6;fill:#FFFFFF;" d="M45.3,39.565c-3.574-3.577-8.329-5.547-13.388-5.547c-5.058,0-9.813,1.97-13.388,5.545
		l-1.414-1.414c3.954-3.953,9.21-6.131,14.802-6.131c5.594,0,10.851,2.178,14.802,6.133L45.3,39.565z"/>
	<path style="opacity:0.6;fill:#FFFFFF;" d="M24.776,45.816l-1.414-1.414c2.286-2.285,5.322-3.543,8.549-3.543
		c3.23,0,6.267,1.258,8.55,3.543l-1.414,1.414c-1.906-1.907-4.44-2.957-7.136-2.957C29.219,42.859,26.685,43.909,24.776,45.816z"/>
</g>
</svg>
