<?xml version="1.0" encoding="iso-8859-1"?>
<!-- Generator: Adobe Illustrator 17.0.1, SVG Export Plug-In . SVG Version: 6.00 Build 0)  -->
<!DOCTYPE svg PUBLIC "-//W3C//DTD SVG 1.1//EN" "http://www.w3.org/Graphics/SVG/1.1/DTD/svg11.dtd">
<svg version="1.1" id="Layer_1" xmlns="http://www.w3.org/2000/svg" xmlns:xlink="http://www.w3.org/1999/xlink" x="0px" y="0px"
	 width="32px" height="32px" viewBox="0 0 32 32" style="enable-background:new 0 0 32 32;" xml:space="preserve">
<g id="icon-s-android">
	<rect id="icon-s-android_1_" style="opacity:0;fill:#FFFFFF;" width="32" height="32"/>
	<g>
		<g>
			<path style="fill:#A4C439;" d="M20.5,10.5h-9c-1.65,0-3,0-3,0v10.769c0,2.689,0.761,3.189,2.967,3.192V28.6
				c0,1.104,0.559,2,1.533,2c0.975,0,1.533-0.896,1.533-2v-4.1H17.5v4.1c0,1.104,0.525,2,1.5,2c0.975,0,1.521-0.896,1.521-2v-4.148
				c2.044-0.035,2.979-0.41,2.979-3.182V10.5C23.5,10.5,22.15,10.5,20.5,10.5z"/>
			<path style="fill:#FFFFFF;" d="M19,31.101c-1.196,0-2-1.005-2-2.5V25h-1.967v3.601c0,1.472-0.836,2.499-2.033,2.499
				s-2.033-1.027-2.033-2.499v-3.652C8.734,24.83,8,23.875,8,21.27V10h16v11.27c0,2.836-1.003,3.544-2.979,3.664v3.667
				C21.021,30.072,20.189,31.101,19,31.101z M14.033,24H18v4.601c0,0.692,0.262,1.5,1,1.5c0.753,0,1.021-0.808,1.021-1.5v-4.64
				l0.491-0.009C22.355,23.921,23,23.693,23,21.27V11H9v10.27c0,2.372,0.496,2.688,2.467,2.691l0.5,0.001v4.639
				c0,0.746,0.319,1.499,1.033,1.499s1.033-0.753,1.033-1.499V24z"/>
		</g>
		<g>
			<path style="fill:#A4C439;" d="M8.5,19.5c0,1.104-0.896,2-2,2l0,0c-1.105,0-2-0.896-2-2v-7c0-1.105,0.895-2,2-2l0,0
				c1.104,0,2,0.895,2,2V19.5z"/>
			<path style="fill:#FFFFFF;" d="M6.5,22C5.122,22,4,20.879,4,19.5v-7C4,11.122,5.122,10,6.5,10S9,11.122,9,12.5v7
				C9,20.879,7.878,22,6.5,22z M6.5,11C5.673,11,5,11.673,5,12.5v7C5,20.327,5.673,21,6.5,21S8,20.327,8,19.5v-7
				C8,11.673,7.327,11,6.5,11z"/>
		</g>
		<g>
			<path style="fill:#A4C439;" d="M20.118,4.929l0.903-2.047c0.218-0.494,0.041-1.095-0.394-1.342
				c-0.436-0.247-0.966-0.047-1.184,0.447l-0.96,2.12C17.893,3.696,16.869,3.5,16,3.5c-0.869,0-1.732,0.286-2.477,0.675
				l-0.965-2.188c-0.218-0.494-0.748-0.694-1.184-0.447c-0.436,0.247-0.612,0.848-0.394,1.342l0.903,2.047
				C9.846,6.18,8.5,8.054,8.5,10.5h15C23.5,8.054,22.154,6.18,20.118,4.929z"/>
			<path style="fill:#FFFFFF;" d="M24,11H8v-0.5c0-2.336,1.123-4.32,3.252-5.76l-0.731-1.656c-0.323-0.734-0.058-1.603,0.605-1.979
				c0.668-0.377,1.564-0.054,1.888,0.68l0.757,1.717C14.532,3.172,15.294,3,16,3c0.673,0,1.547,0.114,2.248,0.414l0.739-1.632
				c0.321-0.728,1.219-1.054,1.886-0.676c0.664,0.376,0.93,1.246,0.604,1.979l-0.73,1.655C22.878,6.18,24,8.164,24,10.5V11z
				 M9.021,10h13.959c-0.198-2.359-1.782-3.82-3.124-4.646l-0.372-0.229l1.08-2.446c0.113-0.256,0.027-0.586-0.184-0.705
				c-0.171-0.1-0.384-0.002-0.48,0.215L18.69,4.861l-0.494-0.344C17.752,4.208,16.87,4,16,4c-0.695,0-1.472,0.214-2.246,0.618
				l-0.473,0.247L12.1,2.189c-0.094-0.215-0.303-0.315-0.48-0.214c-0.211,0.119-0.296,0.449-0.184,0.705l1.08,2.446l-0.372,0.229
				C10.802,6.18,9.219,7.641,9.021,10z"/>
		</g>
		<g>
			<path style="fill:#A4C439;" d="M27.5,19.5c0,1.104-0.896,2-2,2l0,0c-1.105,0-2-0.896-2-2v-7c0-1.105,0.895-2,2-2l0,0
				c1.104,0,2,0.895,2,2V19.5z"/>
			<path style="fill:#FFFFFF;" d="M25.5,22c-1.379,0-2.5-1.121-2.5-2.5v-7c0-1.378,1.121-2.5,2.5-2.5s2.5,1.122,2.5,2.5v7
				C28,20.879,26.879,22,25.5,22z M25.5,11c-0.827,0-1.5,0.673-1.5,1.5v7c0,0.827,0.673,1.5,1.5,1.5s1.5-0.673,1.5-1.5v-7
				C27,11.673,26.327,11,25.5,11z"/>
		</g>
		<circle style="fill:#FFFFFF;" cx="12.5" cy="7.5" r="0.625"/>
		<circle style="fill:#FFFFFF;" cx="19.5" cy="7.5" r="0.625"/>
	</g>
</g>
</svg>
