<?xml version="1.0" encoding="windows-1252"?>
<!-- Generator: Adobe Illustrator 22.1.0, SVG Export Plug-In . SVG Version: 6.00 Build 0)  -->
<svg version="1.1" id="Layer_1" xmlns="http://www.w3.org/2000/svg" xmlns:xlink="http://www.w3.org/1999/xlink" x="0px" y="0px" width="32" height="32" viewBox="0 0 32 32" style="enable-background:new 0 0 32 32;" xml:space="preserve">
<g id="icon-s-activity-outging-call">
	<g>
		<path style="fill:#FFFFFF;" d="M14.025,19.016c-0.256,0-0.512-0.098-0.707-0.293c-0.391-0.391-0.391-1.023,0-1.414l6.416-6.416    c0.391-0.391,1.023-0.391,1.414,0s0.391,1.023,0,1.414l-6.416,6.416C14.537,18.918,14.281,19.016,14.025,19.016z"/>
		<g>
			<path style="fill:#FFFFFF;" d="M25.029,15.963c-0.417,0-0.831-0.177-1.164-0.51l-7.289-7.289c-0.447-0.447-0.611-1.045-0.44-1.6     c0.178-0.576,0.677-0.995,1.336-1.12l8.813-1.714c0.619-0.118,1.2,0.043,1.599,0.442c0.391,0.39,0.55,0.954,0.438,1.545     l-1.749,8.856c-0.123,0.65-0.539,1.148-1.11,1.324C25.319,15.942,25.174,15.963,25.029,15.963z M18.519,7.279l6.226,6.225     l1.528-7.733L18.519,7.279z"/>
		</g>
	</g>
	<path style="opacity:0.6;fill:#FFFFFF;" d="M16.643,28.308c-7.168,0-13-5.832-13-13c0-0.552,0.448-1,1-1s1,0.448,1,1   c0,6.066,4.935,11,11,11c0.552,0,1,0.447,1,1S17.195,28.308,16.643,28.308z"/>
	<rect id="icon-s-activity-outging-call_1_" style="opacity:0;fill:#FFFFFF;" width="32" height="32"/>
</g>
</svg>