<?xml version="1.0" encoding="iso-8859-1"?>
<!-- Generator: Adobe Illustrator 19.1.0, SVG Export Plug-In . SVG Version: 6.00 Build 0)  -->
<svg version="1.1" id="Layer_1" xmlns="http://www.w3.org/2000/svg" xmlns:xlink="http://www.w3.org/1999/xlink" x="0px" y="0px"
	 viewBox="0 0 32 32" style="enable-background:new 0 0 32 32;" xml:space="preserve">
<g id="icon-s-setting">
	<rect id="icon-s-setting_1_" style="opacity:0;fill:#FFFFFF;" width="32" height="32"/>
	<path style="fill:#FFFFFF;" d="M11.889,31c-0.331,0-0.667-0.063-0.992-0.198l-1.754-0.727c-1.326-0.548-1.958-2.074-1.41-3.401
		l0.409-0.986c-0.668-0.552-1.28-1.163-1.818-1.827l-0.997,0.405c-1.306,0.541-2.862-0.105-3.402-1.407l-0.727-1.757
		c-0.265-0.64-0.265-1.347,0.001-1.99c0.266-0.643,0.766-1.144,1.407-1.409l0.987-0.409c-0.083-0.858-0.083-1.722,0.005-2.577
		l-0.991-0.418c-1.326-0.549-1.958-2.075-1.41-3.401l0.727-1.754C2.191,8.5,2.691,8,3.334,7.734
		c0.644-0.266,1.352-0.266,1.992-0.001l0.986,0.408c0.549-0.666,1.16-1.276,1.827-1.818L7.734,5.328
		C7.186,4.001,7.817,2.475,9.141,1.925l1.754-0.727c1.305-0.541,2.864,0.106,3.403,1.408l0.408,0.987
		c0.859-0.083,1.722-0.084,2.577,0.004l0.418-0.99c0.268-0.644,0.769-1.144,1.411-1.41c0.644-0.267,1.352-0.267,1.993,0l1.752,0.726
		c1.327,0.55,1.959,2.076,1.409,3.402l-0.408,0.985c0.67,0.553,1.28,1.164,1.817,1.827l0.996-0.405
		c1.305-0.541,2.863,0.106,3.403,1.408l0.727,1.754c0.267,0.642,0.267,1.349,0,1.993s-0.768,1.144-1.409,1.409l-0.987,0.408
		c0.084,0.865,0.084,1.729-0.005,2.578l0.992,0.419c0.642,0.265,1.143,0.765,1.409,1.408s0.267,1.351,0,1.992l-0.727,1.754
		c-0.266,0.642-0.766,1.142-1.408,1.408c-0.644,0.265-1.35,0.266-1.993,0l-0.985-0.408c-0.553,0.668-1.163,1.279-1.827,1.817
		l0.405,0.999c0.266,0.64,0.266,1.348-0.001,1.992C24,29.309,23.5,29.81,22.858,30.075l-1.754,0.727
		c-1.304,0.536-2.861-0.106-3.402-1.407l-0.408-0.99c-0.858,0.084-1.721,0.085-2.577-0.003l-0.419,0.991
		C13.883,30.394,12.911,31,11.889,31z M6.318,21.856c0.26,0,0.52,0.051,0.767,0.152c0.314,0.132,0.587,0.336,0.795,0.594
		c0.45,0.556,0.962,1.067,1.521,1.521c0.685,0.555,0.928,1.513,0.589,2.329l-0.409,0.985c-0.127,0.308,0.019,0.662,0.326,0.789
		l1.754,0.727c0.307,0.127,0.661-0.02,0.789-0.327l0.408-0.986c0.337-0.815,1.186-1.326,2.066-1.229
		c0.715,0.072,1.439,0.072,2.15-0.001c0.888-0.099,1.722,0.4,2.065,1.227l0.409,0.991c0.117,0.279,0.509,0.444,0.79,0.324
		l1.753-0.726c0.147-0.062,0.264-0.178,0.325-0.327c0.063-0.149,0.063-0.313,0.001-0.461l-0.408-0.989
		c-0.338-0.813-0.095-1.771,0.591-2.328c0.557-0.452,1.069-0.964,1.522-1.522c0.557-0.684,1.51-0.925,2.328-0.591l0.987,0.409
		c0.148,0.061,0.312,0.061,0.462,0c0.148-0.063,0.265-0.178,0.326-0.326l0.727-1.755c0.062-0.148,0.062-0.312,0-0.46
		c-0.063-0.149-0.178-0.265-0.325-0.325l-0.001-0.001l-0.986-0.408c-0.83-0.348-1.323-1.178-1.229-2.067
		c0.074-0.71,0.073-1.434-0.001-2.152c-0.093-0.875,0.412-1.725,1.229-2.065l0.989-0.409c0.147-0.061,0.263-0.177,0.324-0.326
		c0.063-0.149,0.063-0.313,0.001-0.461l-0.727-1.754c-0.117-0.281-0.508-0.443-0.79-0.327l-0.985,0.408
		c-0.82,0.34-1.778,0.095-2.332-0.594c-0.448-0.553-0.961-1.065-1.52-1.52c-0.695-0.563-0.933-1.5-0.59-2.329l0.408-0.986
		c0.062-0.148,0.062-0.313,0-0.461c-0.063-0.15-0.179-0.266-0.327-0.328l-1.753-0.726c-0.148-0.062-0.312-0.062-0.462,0
		c-0.149,0.062-0.266,0.178-0.327,0.327l-0.406,0.985c-0.342,0.818-1.188,1.324-2.068,1.229c-0.711-0.072-1.438-0.071-2.152,0.001
		c-0.876,0.097-1.725-0.412-2.064-1.229l-0.408-0.987c-0.116-0.281-0.506-0.443-0.791-0.325L9.908,3.772
		C9.601,3.899,9.455,4.254,9.582,4.563L9.99,5.547c0.342,0.83,0.105,1.766-0.59,2.33C8.84,8.331,8.328,8.843,7.877,9.399
		c-0.57,0.697-1.507,0.933-2.331,0.59L4.562,9.581C4.413,9.52,4.248,9.52,4.1,9.582C3.95,9.644,3.834,9.759,3.773,9.907
		l-0.727,1.754c-0.127,0.307,0.02,0.661,0.327,0.788l0.985,0.408c0.83,0.345,1.323,1.175,1.23,2.064
		c-0.074,0.716-0.074,1.441,0.001,2.153c0.094,0.89-0.4,1.72-1.229,2.064l-0.989,0.41c-0.147,0.062-0.263,0.177-0.324,0.326
		c-0.062,0.149-0.063,0.313-0.001,0.461l0.727,1.757c0.116,0.279,0.51,0.442,0.789,0.324l0.986-0.408
		C5.797,21.907,6.057,21.856,6.318,21.856z"/>
	<path style="opacity:0.6;fill:#FFFFFF;" d="M16,23.458c-0.966,0-1.933-0.19-2.852-0.571l0,0c-3.797-1.573-5.607-5.942-4.035-9.739
		c0.762-1.84,2.195-3.273,4.035-4.035c1.84-0.762,3.867-0.762,5.706,0c1.839,0.762,3.271,2.194,4.033,4.034
		c0.763,1.84,0.762,3.866,0,5.706c-0.762,1.839-2.194,3.271-4.034,4.034C17.934,23.268,16.967,23.458,16,23.458z M16,10.542
		c-0.707,0-1.414,0.139-2.087,0.418c-1.346,0.558-2.395,1.606-2.953,2.952c-1.15,2.778,0.174,5.975,2.953,7.126l0,0
		c1.347,0.558,2.828,0.557,4.174,0c1.346-0.558,2.394-1.606,2.951-2.952c0.558-1.346,0.558-2.829,0-4.174
		c-0.557-1.346-1.605-2.394-2.951-2.952C17.415,10.682,16.708,10.542,16,10.542z"/>
</g>
</svg>
