<?xml version="1.0" encoding="iso-8859-1"?>
<!-- Generator: Adobe Illustrator 24.0.2, SVG Export Plug-In . SVG Version: 6.00 Build 0)  -->
<svg version="1.1" id="Layer_1" xmlns="http://www.w3.org/2000/svg" xmlns:xlink="http://www.w3.org/1999/xlink" x="0px" y="0px"	 width="64" height="64" viewBox="0 0 64 64" style="enable-background:new 0 0 64 64;" xml:space="preserve">
<g id="icon-m-10s-back_2_">
	<rect id="icon-m-10s-back_3_" style="opacity:0;fill:#FFFFFF;" width="64" height="64"/>
	<g>
		<path style="fill:#FFFFFF;" d="M31.511,18.241c-0.116,0-0.232-0.02-0.344-0.061l-12.965-4.746c-0.34-0.125-0.586-0.423-0.644-0.78
			s0.083-0.718,0.367-0.943c4.467-3.536,8.938-4.235,14.244-4.194c0.552,0.004,0.997,0.455,0.992,1.007
			c-0.003,0.404-0.245,0.751-0.592,0.906l-0.058,7.818c-0.002,0.325-0.163,0.629-0.43,0.814
			C31.911,18.181,31.712,18.241,31.511,18.241z M20.67,12.208l9.852,3.606l0.046-6.282C26.95,9.632,23.762,10.243,20.67,12.208z"/>
		<path style="opacity:0.6;fill:#FFFFFF;" d="M32.407,56.482c-0.063,0-0.125-0.001-0.188-0.001
			c-6.54-0.049-12.668-2.641-17.258-7.299c-4.589-4.659-7.09-10.825-7.042-17.365c0.004-0.552,0.49-1.026,1.007-0.993
			c0.552,0.004,0.997,0.455,0.993,1.007c-0.092,12.396,9.917,22.556,22.314,22.649c5.995,0,11.668-2.252,15.946-6.466
			c4.278-4.215,6.658-9.843,6.703-15.848S52.631,20.5,48.417,16.222c-4.215-4.278-9.843-6.659-15.848-6.703
			c-0.552-0.004-0.997-0.455-0.993-1.007s0.428-0.983,1.007-0.993c6.54,0.048,12.668,2.641,17.258,7.299
			c4.589,4.658,7.09,10.825,7.041,17.364c-0.049,6.54-2.641,12.668-7.299,17.258C44.97,53.985,38.876,56.482,32.407,56.482z"/>
	</g>
	<g>
		<path style="fill:#FFFFFF;" d="M31.448,41.018 M26.313,40.421V27.219h-2.789v-1.27c1.395-0.245,2.407-0.617,3.256-1.124h1.508
			v15.596"/>
		<path style="fill:#FFFFFF;" d="M30.987,32.422c0-5.133,1.85-7.885,4.906-7.885s4.906,2.761,4.906,7.885
			c0,5.132-1.85,7.999-4.906,7.999S30.987,37.554,30.987,32.422z M38.883,32.422c0-4.487-1.21-6.295-2.989-6.295
			s-2.99,1.808-2.99,6.295s1.211,6.408,2.99,6.408S38.883,36.909,38.883,32.422z"/>
	</g>
</g>
</svg>
