<?xml version="1.0" encoding="windows-1252"?>
<!-- Generator: Adobe Illustrator 22.1.0, SVG Export Plug-In . SVG Version: 6.00 Build 0)  -->
<svg version="1.1" id="Layer_1" xmlns="http://www.w3.org/2000/svg" xmlns:xlink="http://www.w3.org/1999/xlink" x="0px" y="0px" width="64" height="64" viewBox="0 0 64 64" style="enable-background:new 0 0 64 64;" xml:space="preserve">
<g id="icon-m-service-google">
	<g id="icon-m-service-google_1_" style="opacity:0;">
		<rect style="fill-rule:evenodd;clip-rule:evenodd;fill:#FFFFFF;" width="64" height="64"/>
	</g>
	<g id="graphic-service-google_4_" style="opacity:0;">
		<rect x="0.229" y="0.229" style="fill-rule:evenodd;clip-rule:evenodd;fill:#FFFFFF;" width="63.541" height="63.541"/>
	</g>
	<g>
		<rect x="0.229" y="0.229" style="fill-rule:evenodd;clip-rule:evenodd;fill:#FFFFFF;" width="63.541" height="63.541"/>
	</g>
	<g>
		<path style="fill:#4285F4;" d="M51.179,32.45c0-1.33-0.108-2.667-0.338-3.976H32.386v7.534h10.568    c-0.439,2.43-1.848,4.579-3.911,5.945v4.889h6.305C49.051,43.435,51.179,38.403,51.179,32.45z"/>
		<path style="fill:#34A853;" d="M32.386,51.566c5.277,0,9.727-1.733,12.969-4.723l-6.305-4.889    c-1.754,1.193-4.019,1.869-6.657,1.869c-5.104,0-9.432-3.444-10.985-8.073h-6.506v5.04C18.224,47.396,24.989,51.566,32.386,51.566    z"/>
		<path style="fill:#FBBC04;" d="M21.401,35.75c-0.82-2.43-0.82-5.061,0-7.491v-5.04h-6.499c-2.775,5.528-2.775,12.042,0,17.57    L21.401,35.75z"/>
		<path style="fill:#EA4335;" d="M32.386,20.178c2.789-0.043,5.485,1.006,7.505,2.933l0,0l5.586-5.586    c-3.537-3.321-8.232-5.147-13.091-5.09c-7.398,0-14.163,4.17-17.484,10.784l6.499,5.04C22.947,23.622,27.282,20.178,32.386,20.178    z"/>
	</g>
</g>
</svg>