<?xml version="1.0" encoding="iso-8859-1"?>
<!-- Generator: Adobe Illustrator 22.1.0, SVG Export Plug-In . SVG Version: 6.00 Build 0)  -->
<svg version="1.1" id="Layer_1" xmlns="http://www.w3.org/2000/svg" xmlns:xlink="http://www.w3.org/1999/xlink" x="0px" y="0px"	 width="42" height="42" viewBox="0 0 42 42" style="enable-background:new 0 0 42 42;" xml:space="preserve">
<g id="icon-m-outging-call_x2B_1">
	<rect id="icon-m-outging-call_x2B_1_1_" style="opacity:0;fill:#FFFFFF;" width="42" height="42"/>
	<g>
		<path style="fill:#FFFFFF;" d="M22.93,17.648l-10.345,9.646c-0.404,0.377-0.427,1.01-0.05,1.413
			c0.197,0.212,0.464,0.318,0.731,0.318c0.244,0,0.489-0.089,0.682-0.269l10.371-9.67c0.009-0.009,0.012-0.021,0.021-0.029
			L22.93,17.648z"/>
		<path style="fill:#FFFFFF;" d="M22.927,17.628l-2.747-2.747c-0.39-0.39-0.187-0.874,0.356-0.977l8.363-1.627
			c0.544-0.103,0.922,0.236,0.818,0.777l-1.658,8.393c-0.103,0.543-0.575,0.738-0.965,0.348l-2.747-2.747L22.927,17.628z"/>
	</g>
</g>
</svg>
