<?xml version="1.0" encoding="iso-8859-1"?>
<!-- Generator: Adobe Illustrator 17.0.1, SVG Export Plug-In . SVG Version: 6.00 Build 0)  -->
<!DOCTYPE svg PUBLIC "-//W3C//DTD SVG 1.1//EN" "http://www.w3.org/Graphics/SVG/1.1/DTD/svg11.dtd">
<svg version="1.1" id="Layer_1" xmlns="http://www.w3.org/2000/svg" xmlns:xlink="http://www.w3.org/1999/xlink" x="0px" y="0px"
	 width="64px" height="64px" viewBox="0 0 64 64" style="enable-background:new 0 0 64 64;" xml:space="preserve">
<g id="icon-m-service-facebook">
	
		<rect id="icon-m-service-facebook_1_" style="opacity:0;fill-rule:evenodd;clip-rule:evenodd;fill:#FFFFFF;" width="64" height="64"/>
	<g>
		<rect style="fill-rule:evenodd;clip-rule:evenodd;fill:#3B579C;" width="64" height="64"/>
		<path style="fill-rule:evenodd;clip-rule:evenodd;fill:#FEFEFE;" d="M44.228,64c-3.301,0-6.603,0-9.904,0
			c-0.007-0.222-0.021-0.443-0.021-0.665c-0.001-7.813-0.006-15.626,0.012-23.439c0.001-0.52-0.143-0.639-0.644-0.633
			c-2.389,0.026-4.777,0.003-7.165,0.021c-0.424,0.003-0.568-0.095-0.565-0.547c0.021-2.833,0.019-5.666,0.001-8.498
			c-0.002-0.424,0.096-0.567,0.547-0.563c2.426,0.023,4.851-0.002,7.276,0.022c0.45,0.004,0.549-0.13,0.546-0.558
			c-0.019-2.333-0.02-4.666-0.001-6.999c0.019-2.329,0.469-4.567,1.622-6.615c1.906-3.387,4.938-5.076,8.697-5.502
			c3.029-0.343,6.064-0.068,9.091,0.176c0.324,0.026,0.388,0.154,0.387,0.447c-0.01,2.592-0.015,5.184,0.004,7.776
			c0.003,0.399-0.154,0.447-0.486,0.444c-1.518-0.013-3.036-0.008-4.554-0.004c-0.574,0.002-1.145,0.021-1.714,0.126
			c-1.863,0.347-2.836,1.41-3.036,3.302c-0.093,0.887-0.072,1.775-0.075,2.663c-0.004,1.407,0.016,2.814-0.012,4.221
			c-0.008,0.424,0.116,0.521,0.528,0.519c2.796-0.019,5.591,0,8.387-0.02c0.463-0.003,0.626,0.043,0.549,0.59
			c-0.401,2.82-0.76,5.648-1.104,8.476c-0.052,0.424-0.179,0.545-0.602,0.542c-2.37-0.02-4.74,0.003-7.109-0.02
			c-0.49-0.005-0.653,0.099-0.652,0.63c0.02,7.813,0.014,15.626,0.013,23.439C44.243,63.555,44.233,63.778,44.228,64z"/>
	</g>
</g>
</svg>
