<?xml version="1.0" encoding="iso-8859-1"?>
<!-- Generator: Adobe Illustrator 17.0.1, SVG Export Plug-In . SVG Version: 6.00 Build 0)  -->
<!DOCTYPE svg PUBLIC "-//W3C//DTD SVG 1.1//EN" "http://www.w3.org/Graphics/SVG/1.1/DTD/svg11.dtd">
<svg version="1.1" id="Layer_1" xmlns="http://www.w3.org/2000/svg" xmlns:xlink="http://www.w3.org/1999/xlink" x="0px" y="0px"
	 width="64px" height="64px" viewBox="0 0 64 64" style="enable-background:new 0 0 64 64;" xml:space="preserve">
<g id="icon-m-service-youtube">
	
		<rect id="icon-m-service-youtube_1_" style="opacity:0;fill-rule:evenodd;clip-rule:evenodd;fill:#FFFFFF;" width="64" height="64"/>
	<g>
		<linearGradient id="SVGID_1_" gradientUnits="userSpaceOnUse" x1="32" y1="64" x2="32" y2="-1.436092e-009">
			<stop  offset="0" style="stop-color:#DADADA"/>
			<stop  offset="0.1077" style="stop-color:#E4E4E4"/>
			<stop  offset="0.3377" style="stop-color:#F3F3F3"/>
			<stop  offset="0.6058" style="stop-color:#FCFCFC"/>
			<stop  offset="1" style="stop-color:#FFFFFF"/>
		</linearGradient>
		<rect style="opacity:0.9;fill-rule:evenodd;clip-rule:evenodd;fill:url(#SVGID_1_);" width="64" height="64"/>
		<g>
			<path style="opacity:0.3;fill-rule:evenodd;clip-rule:evenodd;fill:#020000;" d="M28.522,11.934H26.25l-1.533,5.894l-1.596-5.894
				h-2.364c0.473,1.392,0.966,2.79,1.44,4.182c0.721,2.095,1.17,3.672,1.375,4.749v6.08h2.248v-6.08L28.522,11.934z M34.528,23.321
				v-3.917c0-1.195-0.204-2.069-0.629-2.635c-0.56-0.765-1.35-1.146-2.365-1.146c-1.01,0-1.797,0.381-2.358,1.146
				c-0.43,0.566-0.634,1.44-0.634,2.635v3.917c0,1.19,0.204,2.07,0.634,2.631c0.561,0.762,1.349,1.145,2.358,1.145
				c1.015,0,1.805-0.383,2.365-1.145C34.324,25.392,34.528,24.511,34.528,23.321z M32.501,23.704c0,1.035-0.314,1.552-0.967,1.552
				c-0.653,0-0.966-0.518-0.966-1.552v-4.705c0-1.035,0.313-1.552,0.966-1.552c0.653,0,0.967,0.517,0.967,1.552V23.704z
				 M42.022,26.943V15.758h-2.027v8.549c-0.448,0.635-0.874,0.949-1.279,0.949c-0.272,0-0.431-0.162-0.476-0.475
				c-0.024-0.067-0.024-0.314-0.024-0.788v-8.235h-2.021v8.845c0,0.789,0.068,1.324,0.18,1.663c0.201,0.565,0.653,0.831,1.305,0.831
				c0.739,0,1.508-0.448,2.314-1.374v1.221H42.022z"/>
			<linearGradient id="SVGID_2_" gradientUnits="userSpaceOnUse" x1="31.3958" y1="26.854" x2="31.3958" y2="11.6904">
				<stop  offset="0" style="stop-color:#3D3C3C"/>
				<stop  offset="0.0323" style="stop-color:#3B3939"/>
				<stop  offset="0.276" style="stop-color:#2D2A2B"/>
				<stop  offset="0.5631" style="stop-color:#252223"/>
				<stop  offset="1" style="stop-color:#231F20"/>
			</linearGradient>
			<path style="fill-rule:evenodd;clip-rule:evenodd;fill:url(#SVGID_2_);" d="M28.528,11.69h-2.273l-1.532,5.894l-1.596-5.894
				h-2.365c0.473,1.391,0.967,2.79,1.441,4.182c0.721,2.093,1.17,3.67,1.373,4.748v6.078h2.248v-6.078L28.528,11.69z M34.534,23.078
				v-3.917c0-1.195-0.205-2.069-0.629-2.635c-0.562-0.763-1.349-1.146-2.364-1.146c-1.01,0-1.799,0.382-2.36,1.146
				c-0.431,0.566-0.635,1.44-0.635,2.635v3.917c0,1.188,0.204,2.069,0.635,2.631c0.56,0.762,1.35,1.145,2.36,1.145
				c1.016,0,1.803-0.383,2.364-1.145C34.33,25.147,34.534,24.267,34.534,23.078z M32.507,23.46c0,1.034-0.313,1.552-0.966,1.552
				c-0.655,0-0.968-0.518-0.968-1.552v-4.706c0-1.035,0.313-1.55,0.968-1.55c0.653,0,0.966,0.516,0.966,1.55V23.46z M42.029,26.699
				V15.515h-2.027v8.548c-0.449,0.635-0.875,0.949-1.28,0.949c-0.272,0-0.431-0.161-0.476-0.475
				c-0.023-0.066-0.023-0.313-0.023-0.789v-8.234h-2.02v8.844c0,0.789,0.068,1.325,0.179,1.664c0.203,0.567,0.653,0.832,1.306,0.832
				c0.738,0,1.508-0.45,2.315-1.375v1.221H42.029z"/>
		</g>
		
			<linearGradient id="SVGID_3_" gradientUnits="userSpaceOnUse" x1="-6.2468" y1="-9.4869" x2="-6.2468" y2="-32.6163" gradientTransform="matrix(-1 0 0 1 25.7559 61.3242)">
			<stop  offset="0" style="stop-color:#6D0D13"/>
			<stop  offset="0.6179" style="stop-color:#AB2624"/>
			<stop  offset="1" style="stop-color:#CD332D"/>
		</linearGradient>
		<path style="fill-rule:evenodd;clip-rule:evenodd;fill:url(#SVGID_3_);" d="M48.595,40.273c0,2.587-0.003,5.331-0.583,7.844
			c-0.404,1.764-1.849,3.066-3.586,3.26c-4.115,0.459-8.28,0.462-12.426,0.459c-4.147,0.003-8.312,0-12.426-0.459
			c-1.738-0.194-3.18-1.496-3.586-3.26c-0.578-2.514-0.578-5.257-0.578-7.844l0,0c0-2.589,0.006-5.331,0.585-7.846
			c0.404-1.764,1.848-3.065,3.586-3.259c4.115-0.461,8.28-0.463,12.426-0.461c4.146-0.002,8.312,0,12.427,0.461
			c1.737,0.194,3.181,1.495,3.586,3.259C48.598,34.942,48.595,37.685,48.595,40.273L48.595,40.273z"/>
		<linearGradient id="SVGID_4_" gradientUnits="userSpaceOnUse" x1="32.0022" y1="47.605" x2="32.0022" y2="32.5977">
			<stop  offset="0" style="stop-color:#D5D5D2"/>
			<stop  offset="0.1554" style="stop-color:#E3E3E1"/>
			<stop  offset="0.3993" style="stop-color:#F3F3F2"/>
			<stop  offset="0.6668" style="stop-color:#FCFCFC"/>
			<stop  offset="1" style="stop-color:#FFFFFF"/>
		</linearGradient>
		<path style="fill-rule:evenodd;clip-rule:evenodd;fill:url(#SVGID_4_);" d="M24.875,34.689v-2.092h-6.992v2.092h2.359v12.764h2.23
			V34.689H24.875z M28.928,47.453v-1.208c-0.797,0.915-1.554,1.36-2.292,1.36c-0.646,0-1.091-0.263-1.292-0.824
			c-0.111-0.335-0.178-0.863-0.178-1.645v-8.751h2.005v8.148c0,0.469,0,0.715,0.019,0.779c0.048,0.312,0.201,0.469,0.469,0.469
			c0.402,0,0.823-0.31,1.268-0.938v-8.458h2.007v11.068H28.928z M36.548,44.289c0,1-0.294,1.493-0.873,1.493
			c-0.329,0-0.663-0.157-1-0.493v-6.747c0.336-0.33,0.67-0.487,1-0.487c0.579,0,0.873,0.512,0.873,1.511V44.289z M38.553,44.131
			v-4.408c0-1.047-0.069-1.778-0.202-2.224c-0.269-0.829-0.805-1.25-1.604-1.25c-0.737,0-1.424,0.403-2.072,1.201v-4.853H32.67
			v14.855h2.005v-1.074c0.67,0.83,1.359,1.226,2.072,1.226c0.799,0,1.335-0.42,1.604-1.245
			C38.484,45.892,38.553,45.154,38.553,44.131z M44.117,40.614h-2.004v-1.023c0-1.024,0.334-1.536,1.005-1.536
			c0.663,0,1,0.512,1,1.536V40.614z M46.122,43.912v-0.293h-2.046c0,0.804-0.025,1.25-0.044,1.359
			c-0.114,0.536-0.402,0.804-0.896,0.804c-0.688,0-1.023-0.511-1.023-1.536v-1.961h4.009v-2.293c0-1.183-0.201-2.047-0.621-2.606
			c-0.561-0.759-1.36-1.136-2.366-1.136c-1.023,0-1.823,0.377-2.401,1.136c-0.427,0.56-0.621,1.424-0.621,2.606v3.877
			c0,1.175,0.219,2.049,0.645,2.602c0.58,0.756,1.377,1.134,2.427,1.134c1.047,0,1.87-0.396,2.425-1.2
			c0.243-0.355,0.401-0.758,0.469-1.202C46.097,45.002,46.122,44.557,46.122,43.912z"/>
	</g>
</g>
</svg>
