<?xml version="1.0" encoding="windows-1252"?>
<!-- Generator: Adobe Illustrator 22.1.0, SVG Export Plug-In . SVG Version: 6.00 Build 0)  -->
<svg version="1.1" id="Layer_1" xmlns="http://www.w3.org/2000/svg" xmlns:xlink="http://www.w3.org/1999/xlink" x="0px" y="0px" width="64" height="64" viewBox="0 0 64 64" style="enable-background:new 0 0 64 64;" xml:space="preserve">
<g id="icon-m-battery-saver">
	<g>
		<path style="opacity:0.6;fill:#FFFFFF;" d="M31.897,52.814c-4.329,0-8.948-2.052-13.405-6.124l1.349-1.477    c3.535,3.23,12.634,9.863,20.777,1.719c13.219-13.233,9.267-33.407,9.226-33.609l1.959-0.401    c0.179,0.869,4.201,21.437-9.771,35.424C39.049,51.332,35.577,52.814,31.897,52.814z"/>
		<path style="opacity:0.6;fill:#FFFFFF;" d="M18.492,46.69c-4.947-4.521-7.397-8.674-7.49-12.699    c-0.078-3.385,1.455-6.603,4.684-9.838c13.955-13.961,34.423-11.004,35.29-10.869l-0.304,1.977    c-0.2-0.03-20.346-2.925-33.57,10.306c-2.823,2.828-4.164,5.569-4.1,8.379c0.08,3.45,2.316,7.136,6.839,11.269L18.492,46.69z"/>
		<path style="fill:#FFFFFF;" d="M51.612,12.656c0.549-0.593,0.51-0.627-0.083-0.075L13.229,48.096    c-0.595,0.552-0.589,1.449,0.007,1.996l0.923,0.842c0.599,0.55,1.537,0.511,2.086-0.082L51.612,12.656z"/>
	</g>
	<rect id="icon-m-battery-saver_1_" style="opacity:0;fill:#FFFFFF;" width="64" height="64"/>
</g>
</svg>