<?xml version="1.0" encoding="iso-8859-1"?>
<!-- Generator: Adobe Illustrator 19.0.0, SVG Export Plug-In . SVG Version: 6.00 Build 0)  -->
<svg version="1.1" id="Layer_1" xmlns="http://www.w3.org/2000/svg" xmlns:xlink="http://www.w3.org/1999/xlink" x="0px" y="0px"
	 viewBox="0 0 64 64" style="enable-background:new 0 0 64 64;" xml:space="preserve">
<g id="icon-m-new">
	<rect id="icon-m-new_1_" style="opacity:0;fill:#FFFFFF;" width="64" height="64"/>
	<g>
		<path style="fill:#FFFFFF;" d="M2.667,32.994c-0.552,0-1-0.448-1-1s0.448-1,1-1l22.667-0.001c3.125,0,5.667-2.542,5.667-5.667
			l0.003-22.664c0-0.552,0.448-1,1-1l0,0c0.552,0,1,0.448,1,1l-0.003,22.664c-0.001,4.228-3.44,7.667-7.667,7.667L2.667,32.994z"/>
		<g style="opacity:0.6;">
			<path style="fill:#FFFFFF;" d="M32,62.329L32,62.329c-0.552,0-1-0.447-1-1l0-22.67c0-4.227,3.439-7.667,7.666-7.67l22.666-0.012
				c0.001,0,0.001,0,0.001,0c0.552,0,1,0.447,1,1s-0.447,1-0.999,1l-22.666,0.012C35.542,32.991,33,35.534,33,38.659l0,22.67
				C33,61.882,32.552,62.329,32,62.329z"/>
		</g>
	</g>
</g>
</svg>
