<?xml version="1.0" encoding="iso-8859-1"?>
<!-- Generator: Adobe Illustrator 24.0.2, SVG Export Plug-In . SVG Version: 6.00 Build 0)  -->
<svg version="1.1" id="Layer_1" xmlns="http://www.w3.org/2000/svg" xmlns:xlink="http://www.w3.org/1999/xlink" x="0px" y="0px"	 width="64" height="64" viewBox="0 0 64 64" style="enable-background:new 0 0 64 64;" xml:space="preserve">
<g id="icon-m-wlan-no-signal-light_4_">
	<g style="opacity:0.6;">
		<path style="fill:#FFFFFF;" d="M32.134,52.194c-1.341,0-2.681-0.51-3.701-1.53L7.654,29.886c-1.945-1.945-2.035-5.091-0.204-7.162
			l0.087-0.087c6.813-6.018,15.549-9.333,24.597-9.333c9.046,0,17.778,3.311,24.59,9.323l0.085,0.084
			c1.837,2.064,1.756,5.209-0.185,7.162L35.836,50.665C34.815,51.685,33.475,52.194,32.134,52.194z M8.91,24.093
			c-1.093,1.281-1.028,3.193,0.158,4.379L29.847,49.25c1.261,1.262,3.313,1.262,4.575,0l20.786-20.789
			c1.181-1.188,1.24-3.101,0.144-4.377c-6.438-5.662-14.682-8.78-23.218-8.78C23.595,15.305,15.351,18.425,8.91,24.093z"/>
	</g>
	<rect id="icon-m-wlan-no-signal-light_5_" style="opacity:0;fill:#FFFFFF;" width="64" height="64"/>
</g>
</svg>
