<?xml version="1.0" encoding="utf-8"?>
<!-- Generator: Adobe Illustrator 23.0.6, SVG Export Plug-In . SVG Version: 6.00 Build 0)  -->
<svg version="1.1" id="Layer_1" xmlns="http://www.w3.org/2000/svg" xmlns:xlink="http://www.w3.org/1999/xlink" x="0px" y="0px"
	 viewBox="0 0 64 64" style="enable-background:new 0 0 64 64;" xml:space="preserve">
<style type="text/css">
	.st0{fill:#FFFFFF;fill-opacity:0;}
	.st1{fill:#FFFFFF;}
	.st2{opacity:0.2;fill:#FFFFFF;enable-background:new    ;}
</style>
<g>
	<g id="icon-m-file-rpm">
		<rect id="icon-m-file-rpm_1_" y="0" class="st0" width="64" height="64"/>
		<path class="st1" d="M32,56.6c-0.9,0-1.8-0.2-2.6-0.7l-16.9-9.8C11,45.3,10,43.6,10,41.7V22.2c0-1.8,1-3.5,2.6-4.4l16.9-9.7
			c1.6-0.9,3.5-0.9,5.1,0l16.9,9.7c1.6,0.9,2.6,2.6,2.6,4.4v19.5c0,1.8-1,3.5-2.6,4.4l-16.9,9.8C33.8,56.4,32.9,56.6,32,56.6z
			 M32,9.4c-0.5,0-1.1,0.1-1.6,0.4l-16.9,9.7c-1,0.6-1.6,1.6-1.6,2.7v19.5c0,1.1,0.6,2.1,1.6,2.7l16.9,9.8c1,0.6,2.2,0.6,3.1,0
			l16.9-9.8c1-0.6,1.6-1.6,1.6-2.7V22.2c0-1.1-0.6-2.1-1.6-2.7L33.6,9.8C33.1,9.5,32.5,9.4,32,9.4z"/>
		<path class="st2" d="M32,33.7L11.7,22.1c-0.5-0.3-0.6-0.9-0.4-1.4c0.3-0.5,0.9-0.6,1.4-0.4l19.3,11L50.7,20
			c0.5-0.3,1.1-0.1,1.4,0.3s0.1,1.1-0.3,1.4L32,33.7z"/>
	</g>
	<path class="st1" d="M46.3,39.5l-0.7-1.2c-0.1-0.1-0.1-0.1-0.2-0.1l0,0h-2.3l0,0l0,0l1.2-2.1c0-0.1,0-0.2,0-0.3l-0.7-1.3
		c-0.1-0.2-0.4-0.2-0.5,0L41,38.1l0,0h-2.3l0,0l0,0l3.4-6c0-0.1,0-0.2,0-0.3l-0.7-1.3c-0.1-0.2-0.4-0.2-0.5,0L32,45.8c0,0,0,0-0.1,0
		l-1.2-2l0,0l8.9-15.5c0.1-0.1,0.1-0.2,0-0.3L39,26.7c-0.1-0.2-0.4-0.2-0.5,0l-8.7,15.2c0,0,0,0-0.1,0l-1.2-2.1l0,0l8.9-15.5
		c0-0.1,0-0.2,0-0.3l-0.6-1.1c-0.1-0.2-0.4-0.2-0.5,0l-8.8,15.3l0,0h-2.3l0,0l0,0l10.1-17.7c0.1-0.1,0.1-0.2,0-0.3l-0.7-1.3
		c-0.1-0.2-0.4-0.2-0.5,0L23,38.2l0,0h-2.3l0,0l0,0L33,16.5c0.1-0.1,0.1-0.2,0-0.3L32.2,15c-0.1-0.1-0.1-0.1-0.2-0.1l0,0
		c-0.1,0-0.2,0.1-0.2,0.1L17.7,39.5c-0.1,0.1-0.1,0.2,0,0.3s0.1,0.1,0.2,0.1h8.6l0,0l5.2,9.1c0.1,0.1,0.1,0.1,0.2,0.1l0,0
		c0.1,0,0.2-0.1,0.2-0.1l5.2-9.1l0,0h8.6c0.1,0,0.2-0.1,0.2-0.1C46.4,39.7,46.4,39.6,46.3,39.5z"/>
</g>
</svg>
