<?xml version="1.0" encoding="iso-8859-1"?>
<!-- Generator: Adobe Illustrator 17.0.1, SVG Export Plug-In . SVG Version: 6.00 Build 0)  -->
<!DOCTYPE svg PUBLIC "-//W3C//DTD SVG 1.1//EN" "http://www.w3.org/Graphics/SVG/1.1/DTD/svg11.dtd">
<svg version="1.1" id="Layer_1" xmlns="http://www.w3.org/2000/svg" xmlns:xlink="http://www.w3.org/1999/xlink" x="0px" y="0px"
	 width="64px" height="64px" viewBox="0 0 64 64" style="enable-background:new 0 0 64 64;" xml:space="preserve">
<g id="icon-m-android">
	<rect id="icon-m-android_1_" style="opacity:0;fill:#FFFFFF;" width="64" height="64"/>
	<g>
		<path style="opacity:0.6;fill:#FFFFFF;" d="M16.066,25.003l0-1c-0.002-4.646,2.747-8.936,7.407-11.644l-1.779-3.212
			c-0.185-0.324-0.233-0.729-0.125-1.101c0.108-0.373,0.368-0.69,0.711-0.872c0.195-0.109,0.438-0.172,0.683-0.172
			c0.532,0,1.02,0.29,1.273,0.756l1.856,3.345c3.76-1.413,8.089-1.394,11.813,0.004l1.859-3.361c0.359-0.664,1.273-0.94,1.957-0.576
			c0.35,0.191,0.598,0.5,0.706,0.875c0.107,0.374,0.062,0.766-0.128,1.104l-1.777,3.213c4.521,2.65,7.089,6.841,7.088,11.636v1
			L16.066,25.003z M25.732,13.42l-0.442,0.226c-4.162,2.126-6.78,5.571-7.173,9.356L45.564,23c-0.357-3.907-2.813-7.277-6.859-9.353
			l-0.758-0.362c-1.865-0.82-3.864-1.236-5.942-1.236c-2.103,0-4.097,0.414-5.956,1.231L25.732,13.42z"/>
		<path style="fill:#FFFFFF;" d="M25.343,20.055H25.34c-1.223-0.002-2.219-0.995-2.22-2.212c0.001-1.222,0.998-2.216,2.223-2.216
			c1.227,0,2.226,0.993,2.227,2.214c0,0.594-0.232,1.151-0.656,1.57C26.494,19.826,25.936,20.055,25.343,20.055z M25.345,17.627
			c-0.122,0-0.224,0.099-0.224,0.216c0.001,0.192,0.31,0.223,0.388,0.146c0.028-0.028,0.062-0.076,0.062-0.146
			C25.57,17.726,25.467,17.627,25.345,17.627z"/>
		<path style="fill:#FFFFFF;" d="M38.653,20.053h-0.002c-0.598,0-1.159-0.232-1.58-0.655c-0.417-0.418-0.646-0.973-0.644-1.562
			c0-1.216,0.997-2.21,2.224-2.213c1.229,0.003,2.226,0.998,2.226,2.217C40.877,19.06,39.88,20.053,38.653,20.053z M38.651,17.623
			c-0.118,0-0.224,0.1-0.224,0.216c0,0.072,0.032,0.119,0.061,0.146c0.061,0.063,0.39,0.051,0.389-0.146
			C38.877,17.725,38.771,17.624,38.651,17.623z"/>
		<path style="opacity:0.6;fill:#FFFFFF;" d="M26.567,57c-1.131,0-2.195-0.438-2.997-1.232c-0.804-0.797-1.247-1.856-1.246-2.982
			l-0.002-4.736h-1.358c-1.315,0-2.671-0.571-3.627-1.528c-0.82-0.821-1.271-1.854-1.271-2.905c0-0.552,0.448-0.999,1-0.999
			c0,0,0,0,0.001,0c0.552,0.001,1,0.449,0.999,1.001c0,0.518,0.243,1.047,0.685,1.489c0.581,0.581,1.428,0.942,2.212,0.942h3.357
			l0.003,6.735c0,0.59,0.232,1.145,0.654,1.563c0.854,0.847,2.341,0.841,3.187-0.008c0.417-0.418,0.646-0.97,0.646-1.556l0-6.736
			l6.381-0.001v6.736c0.001,0.588,0.234,1.144,0.657,1.562c0.424,0.42,0.986,0.651,1.583,0.651c0.004,0,0.004,0,0.006,0
			c0.606,0,1.174-0.234,1.599-0.659c0.418-0.418,0.647-0.971,0.647-1.556l-0.002-6.735l3.367-0.001c0,0,0,0,0.001,0
			c0.7,0,1.468-0.289,2.053-0.774c0.336-0.278,0.898-0.863,0.898-1.656c0-0.553,0.447-1,1-1s1,0.447,1,1
			c0,1.177-0.591,2.342-1.622,3.196c-0.947,0.784-2.16,1.234-3.328,1.234c-0.001,0-0.002,0-0.003,0l-1.366,0.001l0.002,4.734
			c0.001,1.12-0.438,2.175-1.232,2.971c-0.804,0.803-1.873,1.245-3.012,1.245c-0.004-0.001-0.006-0.001-0.01,0
			c-1.126,0-2.188-0.437-2.988-1.229c-0.805-0.797-1.249-1.855-1.25-2.982v-4.737l-2.381,0.001l0,4.735
			c0.001,1.119-0.436,2.174-1.231,2.97C28.777,56.558,27.707,57,26.567,57z"/>
		<path style="opacity:0.6;fill:#FFFFFF;" d="M50.504,44.67H50.5c-2.479,0-4.496-1.898-4.497-4.23l-0.001-13.536
			c0-2.334,2.017-4.233,4.495-4.233c1.19,0,2.31,0.431,3.155,1.212c0.868,0.802,1.346,1.874,1.346,3.02l0.004,13.535
			C55.001,42.771,52.982,44.67,50.504,44.67z M50.501,24.67c-1.38,0-2.499,1.001-2.499,2.233l0.001,13.535
			c0.001,1.23,1.121,2.231,2.497,2.231v1l0.003-1c1.378,0,2.498-1.002,2.499-2.233l-0.004-13.534
			C52.998,25.672,51.878,24.67,50.501,24.67z"/>
		<path style="opacity:0.6;fill:#FFFFFF;" d="M13.57,44.67L13.57,44.67v-1l-0.003,1c-2.48,0-4.498-1.898-4.498-4.232L9.066,26.902
			c0-2.333,2.017-4.232,4.497-4.232c2.484,0,4.502,1.897,4.503,4.229l0,13.538c0.001,1.082-0.431,2.112-1.217,2.899
			C16.002,44.185,14.807,44.67,13.57,44.67z M13.567,24.67c-0.685,0-1.323,0.242-1.798,0.682c-0.454,0.419-0.703,0.97-0.703,1.55
			l0.002,13.535c0,1.23,1.121,2.232,2.498,2.232h0.004l0,0c0.71,0,1.39-0.271,1.863-0.746c0.409-0.409,0.633-0.937,0.632-1.485
			l0-13.538C16.065,25.671,14.944,24.67,13.567,24.67z"/>
	</g>
</g>
</svg>
