<?xml version="1.0" encoding="iso-8859-1"?>
<!-- Generator: Adobe Illustrator 22.1.0, SVG Export Plug-In . SVG Version: 6.00 Build 0)  -->
<svg version="1.1" id="Layer_1" xmlns="http://www.w3.org/2000/svg" xmlns:xlink="http://www.w3.org/1999/xlink" x="0px" y="0px"	 width="32" height="32" viewBox="0 0 32 32" style="enable-background:new 0 0 32 32;" xml:space="preserve">
<g id="icon-s-asterix">
	<rect id="icon-s-asterix_1_" style="opacity:0;fill:#FFFFFF;" width="32" height="32"/>
	<g id="icon-m-asterix_5_">
		<path style="fill:#FFFFFF;" d="M7.132,28.306c-0.394-0.277-0.495-0.83-0.225-1.229l6.301-9.315c0.27-0.399,0.128-0.88-0.314-1.069
			l-8.92-3.815c-0.443-0.189-0.67-0.714-0.506-1.167l0.089-0.244c0.164-0.452,0.669-0.689,1.122-0.526l9.107,3.284
			c0.453,0.163,0.835-0.097,0.849-0.578l0.314-10.573c0.014-0.481,0.42-0.875,0.901-0.875h0.299c0.481,0,0.887,0.394,0.901,0.875
			l0.315,10.573c0.014,0.481,0.396,0.741,0.849,0.578l9.106-3.284c0.453-0.163,0.958,0.073,1.122,0.525l0.089,0.244
			c0.165,0.452-0.063,0.977-0.505,1.166l-8.92,3.815c-0.443,0.189-0.584,0.67-0.314,1.069l6.302,9.315
			c0.27,0.399,0.168,0.952-0.225,1.229l-0.407,0.286c-0.394,0.277-0.948,0.186-1.231-0.203l-6.714-9.202
			c-0.284-0.389-0.748-0.389-1.032,0L8.77,28.389c-0.284,0.389-0.838,0.48-1.231,0.203L7.132,28.306z"/>
	</g>
</g>
</svg>
