<?xml version="1.0" encoding="iso-8859-1"?>
<!-- Generator: Adobe Illustrator 19.2.1, SVG Export Plug-In . SVG Version: 6.00 Build 0)  -->
<svg version="1.1" id="Layer_1" xmlns="http://www.w3.org/2000/svg" xmlns:xlink="http://www.w3.org/1999/xlink" x="0px" y="0px"	 width="64" height="64" viewBox="0 0 64 64" style="enable-background:new 0 0 64 64;" xml:space="preserve">
<g id="icon-m-note-selected_2_">
	<rect id="icon-m-note-selected_3_" style="opacity:0;fill:#FFFFFF;" width="64" height="64"/>
	<path style="fill:#FFFFFF;" d="M36.648,11.005C36.494,11.002,27.967,11,27.813,11C16.318,11,7,19.673,7,30.371
		c0,10.699,9.318,19.473,20.813,19.473h22.249c0,3.566,3.106,6.031,6.938,6.031v-6.132V30.371C57,19.816,47.93,11.233,36.648,11.005
		z M43,41H21v-2h22V41z M43,32H21v-2h22V32z M43,23H21v-2h22V23z"/>
	<g style="opacity:0.6;">
		<rect x="20.738" y="19.237" style="fill:#FFFFFF;" width="22.964" height="23.395"/>
		<path style="fill:#FFFFFF;" d="M44.702,43.631H19.738V18.237h24.964V43.631z M21.738,41.631h20.964V20.237H21.738V41.631z"/>
	</g>
</g>
</svg>
