<?xml version="1.0" encoding="windows-1252"?>
<!-- Generator: Adobe Illustrator 24.0.2, SVG Export Plug-In . SVG Version: 6.00 Build 0)  -->
<svg version="1.1" id="Layer_1" xmlns="http://www.w3.org/2000/svg" xmlns:xlink="http://www.w3.org/1999/xlink" x="0px" y="0px" width="24" height="24" viewBox="0 0 24 24" style="enable-background:new 0 0 24 24;" xml:space="preserve">
<g id="icon-s-disabled-phone">
	<g style="opacity:0.6;">
		<path style="fill:#FFFFFF;" d="M13.367,18.392c0.252-0.346,2.671-3.662,2.923-4.009c0.156-0.214,0.423-0.297,0.596-0.191    c1.207,0.751,2.51,1.384,3.899,1.887c0.199,0.071,0.274,0.321,0.164,0.558c-0.677,1.454-1.355,2.909-2.032,4.364"/>
		<path style="fill:#FFFFFF;" d="M19.372,21.212l-0.906-0.422l2-4.296c-1.322-0.489-2.583-1.102-3.753-1.821l-2.941,4.014    l-0.809-0.59l2.924-4.009c0.31-0.424,0.864-0.565,1.262-0.321c1.184,0.736,2.464,1.355,3.808,1.843    c0.215,0.076,0.384,0.238,0.475,0.454c0.102,0.241,0.092,0.526-0.026,0.783L19.372,21.212z M20.616,16.55    C20.617,16.55,20.617,16.55,20.616,16.55C20.617,16.55,20.617,16.55,20.616,16.55z"/>
	</g>
	<path style="fill:#FFFFFF;" d="M7.366,13.408c-0.295,0-0.588-0.131-0.785-0.381C4.833,10.814,3.464,8.359,2.512,5.73   c-0.188-0.52,0.081-1.093,0.6-1.281c0.521-0.187,1.093,0.081,1.281,0.6c0.879,2.427,2.144,4.695,3.757,6.739   c0.342,0.434,0.269,1.063-0.165,1.404C7.801,13.338,7.583,13.408,7.366,13.408z"/>
	<path style="fill:#FFFFFF;" d="M18.603,21.54c-0.113,0-0.229-0.02-0.341-0.06c-2.454-0.89-4.764-2.146-6.865-3.735   c-0.441-0.334-0.528-0.961-0.194-1.401c0.332-0.44,0.959-0.529,1.401-0.194c1.941,1.469,4.075,2.63,6.34,3.45   c0.519,0.188,0.787,0.762,0.6,1.281C19.396,21.287,19.012,21.54,18.603,21.54z"/>
	<path style="fill:#FFFFFF;" d="M3.602,21.54c-0.256,0-0.512-0.098-0.707-0.293c-0.391-0.391-0.391-1.023,0-1.414l14.85-14.85   c0.391-0.391,1.023-0.391,1.414,0s0.391,1.023,0,1.414l-14.85,14.85C4.114,21.442,3.858,21.54,3.602,21.54z"/>
	<path style="fill:none;stroke:#FFFFFF;stroke-width:2;stroke-linecap:round;stroke-miterlimit:10;" d="M11.865,16.844"/>
	<path style="fill:none;stroke:#FFFFFF;stroke-width:2;stroke-linecap:round;stroke-miterlimit:10;" d="M7.366,12.407"/>
	<g style="opacity:0.6;">
		<path style="fill:#FFFFFF;" d="M5.608,10.633c0.346-0.252,3.662-2.671,4.009-2.923c0.214-0.156,0.297-0.423,0.191-0.596    c-0.751-1.207-1.384-2.51-1.887-3.899C7.849,3.014,7.6,2.94,7.362,3.049C5.908,3.726,4.454,4.404,2.999,5.081"/>
		<path style="fill:#FFFFFF;" d="M5.902,11.037l-0.589-0.809l4.009-2.923c0.004-0.004,0.009-0.007,0.012-0.007    C8.612,6.125,7.997,4.86,7.506,3.536L3.21,5.534L2.788,4.628l4.363-2.032C7.41,2.476,7.694,2.467,7.936,2.568    c0.216,0.09,0.378,0.259,0.456,0.476c0.486,1.342,1.105,2.622,1.841,3.805c0.245,0.401,0.103,0.955-0.321,1.265L5.902,11.037z"/>
	</g>
	<rect id="icon-s-disabled-phone_1_" style="opacity:0;fill:#FFFFFF;" width="24" height="24"/>
</g>
</svg>