<?xml version="1.0" encoding="windows-1252"?>
<!-- Generator: Adobe Illustrator 19.2.1, SVG Export Plug-In . SVG Version: 6.00 Build 0)  -->
<svg version="1.1" id="Layer_1" xmlns="http://www.w3.org/2000/svg" xmlns:xlink="http://www.w3.org/1999/xlink" x="0px" y="0px" width="64" height="64" viewBox="0 0 64 64" style="enable-background:new 0 0 64 64;" xml:space="preserve">
<g id="icon-m-outline-like">
	<rect id="icon-m-outline-like_1_" style="opacity:0;fill:#FFFFFF;" width="64" height="64"/>
	<path style="opacity:0.6;fill:#FFFFFF;" d="M22.298,57.699H7.212c-1.654,0-3-1.346-3-3V29.256c0-1.654,1.346-3,3-3h15.086   c1.654,0,3,1.346,3,3v25.443C25.298,56.354,23.952,57.699,22.298,57.699z M7.212,28.256c-0.551,0-1,0.449-1,1v25.443   c0,0.552,0.449,1,1,1h15.086c0.551,0,1-0.448,1-1V29.256c0-0.551-0.449-1-1-1H7.212z"/>
	<path style="fill:#FFFFFF;" d="M59.916,28.57c-0.343-0.727-0.946-1.275-1.698-1.545l-11.453-4.107   c-0.52-0.186-0.808-0.783-0.63-1.305l2.914-8.557c0.458-1.344,0.214-3.251-0.568-4.436l-1.123-1.699   c-0.475-0.72-1.181-1.137-1.936-1.145c-0.725,0.009-1.471,0.395-1.96,1.104L28.802,28.139c-0.444,0.642-1.559,1.244-2.34,1.264   l-1.127,0.029v2.001l1.177-0.03c1.431-0.036,3.122-0.95,3.936-2.128L45.107,8.018c0.115-0.166,0.229-0.24,0.293-0.24   c0.042,0.019,0.175,0.074,0.288,0.246l1.123,1.699c0.436,0.659,0.6,1.941,0.345,2.689l-2.914,8.557   c-0.531,1.558,0.298,3.276,1.847,3.832l11.454,4.107c0.249,0.09,0.45,0.272,0.564,0.516c0.115,0.243,0.129,0.515,0.039,0.766   l-0.361,1.01c-0.326,0.909-1.021,1.756-1.34,1.917c-0.535,0.271-0.94,0.729-1.141,1.288c-0.208,0.579-0.172,1.194,0.102,1.732   c0.145,0.284,0.167,1.241-0.098,1.981c-0.281,0.786-0.954,1.554-1.275,1.718c-1.131,0.576-1.599,1.937-1.042,3.031   c0.146,0.286,0.171,1.242-0.091,1.978c-0.282,0.79-0.947,1.542-1.277,1.711c-0.54,0.273-0.948,0.734-1.15,1.298   c-0.209,0.583-0.173,1.202,0.103,1.744c0.13,0.254,0.183,1.233-0.119,2.073c-0.178,0.5-0.851,0.822-1.438,0.704l-17.654-3.723   c-0.558-0.117-1.256-0.175-1.966-0.175c-0.851,0-1.718,0.083-2.378,0.244l-1.684,0.412v2.059l2.16-0.527   c0.914-0.225,2.53-0.25,3.456-0.056l17.654,3.723c0.226,0.048,0.453,0.07,0.678,0.07c1.347,0,2.614-0.819,3.056-2.058   c0.386-1.074,0.517-2.674,0.019-3.653c-0.03-0.059-0.019-0.121-0.003-0.164c0.017-0.046,0.061-0.132,0.175-0.189   c0.868-0.443,1.837-1.656,2.254-2.82c0.368-1.033,0.482-2.587-0.01-3.557c-0.05-0.097,0.007-0.262,0.166-0.343   c0.983-0.5,1.894-1.829,2.251-2.826c0.362-1.011,0.485-2.604-0.002-3.562c-0.027-0.054-0.017-0.112-0.002-0.151   c0.016-0.044,0.058-0.126,0.164-0.18c0.979-0.497,1.924-1.93,2.316-3.026l0.361-1.01C60.298,30.11,60.258,29.297,59.916,28.57z"/>
</g>
</svg>