<?xml version="1.0" encoding="windows-1252"?>
<!-- Generator: Adobe Illustrator 19.2.1, SVG Export Plug-In . SVG Version: 6.00 Build 0)  -->
<svg version="1.1" id="Layer_1" xmlns="http://www.w3.org/2000/svg" xmlns:xlink="http://www.w3.org/1999/xlink" x="0px" y="0px" width="64" height="64" viewBox="0 0 64 64" style="enable-background:new 0 0 64 64;" xml:space="preserve">
<g id="icon-m-outline-chat">
	<rect id="icon-m-outline-chat_1_" style="opacity:0;fill:#FFFFFF;" width="64" height="64"/>
	<path style="fill:#FFFFFF;" d="M57.859,56.885h-1c-4.024,0-7.305-2.692-7.881-6.29l-14.223,0.043   c-7.55,0-13.946-5.56-14.565-12.657l-0.016-0.196c-0.022-0.316-0.034-0.628-0.034-0.941c0-0.135,0.002-0.269,0.006-0.401   c0.228-7.472,6.644-13.327,14.606-13.327l6.202,0.001c1.441,0,2.571,0.001,2.607,0.001h0.007c7.88,0.16,14.29,6.317,14.29,13.725   V56.885z M50.87,48.589l0.021,0.982c0.056,2.67,2.167,4.821,4.969,5.24V36.843c0-6.325-5.528-11.584-12.324-11.725   c-0.1,0-1.195-0.001-2.58-0.001l-6.202-0.001c-6.875,0-12.412,5.003-12.607,11.389c-0.003,0.113-0.005,0.226-0.005,0.339   c0,0.267,0.01,0.531,0.028,0.793l0.014,0.172c0.53,6.072,6.051,10.83,12.57,10.83L50.87,48.589z"/>
	<path style="opacity:0.5;fill:#FFFFFF;" d="M43.906,23.164c-0.888-6.823-7.06-12.048-14.471-12.048c-2.617,0-8.716,0-8.816,0.002   c-7.88,0.161-14.29,6.318-14.29,13.726v20.042h1c4.024,0,7.305-2.692,7.881-6.29l5.15,0.015l-0.029-2l-7.013-0.021l-0.021,0.982   c-0.056,2.67-2.167,4.821-4.969,5.24V24.843c0-6.327,5.531-11.587,12.322-11.726c0.215-0.002,8.177-0.002,8.752-0.002   c0.019,0,0.029,0,0.032,0c6.291,0,11.559,4.314,12.459,10.002"/>
</g>
</svg>