<?xml version="1.0" encoding="iso-8859-1"?>
<!-- Generator: Adobe Illustrator 19.1.0, SVG Export Plug-In . SVG Version: 6.00 Build 0)  -->
<svg version="1.1" id="Layer_1" xmlns="http://www.w3.org/2000/svg" xmlns:xlink="http://www.w3.org/1999/xlink" x="0px" y="0px"
	 viewBox="0 0 64 64" style="enable-background:new 0 0 64 64;" xml:space="preserve">
<g id="icon-m-media-artists">
	<rect id="icon-m-media-artists_1_" style="opacity:0;fill:#FFFFFF;" width="64" height="64"/>
	<path style="fill:#FFFFFF;" d="M48.557,54H15.444c-1.159,0-2.256-0.513-3.01-1.406c-0.753-0.893-1.073-2.063-0.877-3.21
		c1.178-6.895,5.671-12.712,11.903-15.565c-3.011-2.548-4.763-6.292-4.763-10.33c0-3.871,1.644-7.56,4.51-10.121
		c2.847-2.543,6.511-3.71,10.31-3.282c6.12,0.688,11.043,5.695,11.706,11.903c0.489,4.572-1.281,8.953-4.683,11.83
		c6.232,2.854,10.725,8.671,11.902,15.566c0.196,1.146-0.123,2.315-0.876,3.209C50.813,53.487,49.716,54,48.557,54z M31.989,11.999
		c-2.755,0-5.361,0.992-7.45,2.859c-2.442,2.183-3.842,5.328-3.842,8.63c0,3.979,1.993,7.621,5.331,9.741l1.733,1.101l-1.935,0.686
		c-6.425,2.277-11.137,7.912-12.297,14.705c-0.097,0.565,0.062,1.142,0.435,1.584C14.336,51.746,14.875,52,15.444,52h33.113
		c0.568,0,1.107-0.254,1.48-0.695s0.531-1.019,0.435-1.583c-1.16-6.794-5.872-12.429-12.297-14.706L36.24,34.33l1.732-1.101
		c3.72-2.364,5.736-6.589,5.262-11.028c-0.564-5.284-4.745-9.543-9.941-10.128C32.856,12.023,32.42,11.999,31.989,11.999z"/>
</g>
</svg>
