<?xml version="1.0" encoding="iso-8859-1"?>
<!-- Generator: Adobe Illustrator 17.0.1, SVG Export Plug-In . SVG Version: 6.00 Build 0)  -->
<!DOCTYPE svg PUBLIC "-//W3C//DTD SVG 1.1//EN" "http://www.w3.org/Graphics/SVG/1.1/DTD/svg11.dtd">
<svg version="1.1" id="Layer_1" xmlns="http://www.w3.org/2000/svg" xmlns:xlink="http://www.w3.org/1999/xlink" x="0px" y="0px"
	 width="64px" height="64px" viewBox="0 0 64 64" style="enable-background:new 0 0 64 64;" xml:space="preserve">
<g id="icon-m-service-generic-calendar">
	<rect id="icon-m-service-generic-calendar_1_" style="opacity:0;fill:#FFFFFF;" width="64" height="64"/>
	<g>
		<rect x="0.3" y="0.3" style="fill:#F9F8D9;" width="63.4" height="63.4"/>
		<path style="opacity:0.8;fill:#661D87;" d="M21.841,41.75c0,0.403,0.327,0.73,0.73,0.73h6.754c0.404,0,0.731-0.327,0.731-0.73
			v-6.755c0-0.403-0.327-0.73-0.731-0.73h-6.754c-0.403,0-0.73,0.327-0.73,0.73V41.75z"/>
		<g>
			<path style="fill:#FFA6A3;" d="M46.12,22.49h6.754c0.404,0,0.731,0.327,0.731,0.73v6.755c0,0.403-0.327,0.73-0.731,0.73H46.12
				c-0.403,0-0.73-0.327-0.73-0.73V23.22C45.39,22.817,45.717,22.49,46.12,22.49z"/>
			<path style="fill:#FFA6A3;" d="M34.345,22.49h6.754c0.404,0,0.731,0.327,0.731,0.73v6.755c0,0.403-0.327,0.73-0.731,0.73h-6.754
				c-0.403,0-0.73-0.327-0.73-0.73V23.22C33.615,22.817,33.942,22.49,34.345,22.49z"/>
			<path style="fill:#FFA6A3;" d="M46.12,34.264h6.754c0.404,0,0.731,0.327,0.731,0.73v6.755c0,0.403-0.327,0.73-0.731,0.73H46.12
				c-0.403,0-0.73-0.327-0.73-0.73v-6.755C45.39,34.592,45.717,34.264,46.12,34.264z"/>
			<path style="fill:#FFA6A3;" d="M34.345,34.264h6.754c0.404,0,0.731,0.327,0.731,0.73v6.755c0,0.403-0.327,0.73-0.731,0.73h-6.754
				c-0.403,0-0.73-0.327-0.73-0.73v-6.755C33.615,34.592,33.942,34.264,34.345,34.264z"/>
			<path style="fill:#FFA6A3;" d="M34.345,46.039h6.754c0.404,0,0.731,0.327,0.731,0.73v6.755c0,0.403-0.327,0.73-0.731,0.73h-6.754
				c-0.403,0-0.73-0.327-0.73-0.73v-6.755C33.615,46.366,33.942,46.039,34.345,46.039z"/>
			<path style="fill:#FFA6A3;" d="M22.571,22.49h6.754c0.404,0,0.731,0.327,0.731,0.73v6.755c0,0.403-0.327,0.73-0.731,0.73h-6.754
				c-0.403,0-0.73-0.327-0.73-0.73V23.22C21.841,22.817,22.168,22.49,22.571,22.49z"/>
			<path style="fill:#FFA6A3;" d="M10.796,22.509h6.754c0.404,0,0.731,0.327,0.731,0.73v6.755c0,0.403-0.327,0.73-0.731,0.73h-6.754
				c-0.403,0-0.73-0.327-0.73-0.73v-6.755C10.066,22.836,10.393,22.509,10.796,22.509z"/>
			<path style="fill:#FFA6A3;" d="M10.796,34.264h6.754c0.404,0,0.731,0.327,0.731,0.73v6.755c0,0.403-0.327,0.73-0.731,0.73h-6.754
				c-0.403,0-0.73-0.327-0.73-0.73v-6.755C10.066,34.592,10.393,34.264,10.796,34.264z"/>
			<path style="fill:#FFA6A3;" d="M22.571,46.039h6.754c0.404,0,0.731,0.327,0.731,0.73v6.755c0,0.403-0.327,0.73-0.731,0.73h-6.754
				c-0.403,0-0.73-0.327-0.73-0.73v-6.755C21.841,46.366,22.168,46.039,22.571,46.039z"/>
			<path style="fill:#FFA6A3;" d="M10.796,46.039h6.754c0.404,0,0.731,0.327,0.731,0.73v6.755c0,0.403-0.327,0.73-0.731,0.73h-6.754
				c-0.403,0-0.73-0.327-0.73-0.73v-6.755C10.066,46.366,10.393,46.039,10.796,46.039z"/>
		</g>
		<linearGradient id="SVGID_1_" gradientUnits="userSpaceOnUse" x1="0.3" y1="6.8748" x2="63.7" y2="6.8748">
			<stop  offset="0" style="stop-color:#FF4747"/>
			<stop  offset="1" style="stop-color:#FF9666"/>
		</linearGradient>
		<rect x="0.3" y="0.3" style="fill:url(#SVGID_1_);" width="63.4" height="13.15"/>
	</g>
</g>
</svg>
