<?xml version="1.0" encoding="iso-8859-1"?>
<!-- Generator: Adobe Illustrator 19.2.1, SVG Export Plug-In . SVG Version: 6.00 Build 0)  -->
<svg version="1.1" id="Layer_1" xmlns="http://www.w3.org/2000/svg" xmlns:xlink="http://www.w3.org/1999/xlink" x="0px" y="0px"	 width="64" height="64" viewBox="0 0 64 64" style="enable-background:new 0 0 64 64;" xml:space="preserve">
<g id="icon-m-keys_x2B_1_2_">
	<rect id="icon-m-keys_x2B_1_3_" style="opacity:0;fill:#FFFFFF;" width="64" height="64"/>
	<g>
		<path style="opacity:0.9;fill:#FFFFFF;" d="M55.658,53.552h-8.95l-2.59-2.59v-3.167h-3.859l-3.297-3.297v-2.194l-5.469-5.47
			h-3.104l-2.984-2.982l1.555-0.503c4.169-1.35,7.332-4.689,8.459-8.932l0.446-1.678l3.605,3.605l-0.07,1.664l16.259,16.259V53.552z
			 M47.536,51.552h6.122v-6.457L37.364,28.8l0.07-1.664l-0.606-0.605c-1.419,3.642-4.197,6.56-7.765,8.149l0.153,0.153h3.104
			l6.641,6.642v2.194l2.125,2.125h5.031v4.339L47.536,51.552z"/>
		<polygon style="opacity:0.6;fill:#FFFFFF;" points="53.738,51.687 37.741,35.691 39.027,34.337 53.781,49.159 		"/>
		<path style="fill:#FFFFFF;" d="M22.994,35.978c-8.2,0-14.871-6.671-14.871-14.871S14.794,6.235,22.994,6.235
			s14.871,6.671,14.871,14.871S31.194,35.978,22.994,35.978z M22.994,8.235c-7.097,0-12.871,5.774-12.871,12.871
			s5.774,12.871,12.871,12.871s12.871-5.774,12.871-12.871S30.091,8.235,22.994,8.235z"/>
		<path style="opacity:0.6;fill:#FFFFFF;" d="M19.817,23.636c-3.146,0-5.707-2.56-5.707-5.707s2.56-5.707,5.707-5.707
			s5.706,2.56,5.706,5.707S22.964,23.636,19.817,23.636z M19.817,14.223c-2.044,0-3.707,1.663-3.707,3.707s1.663,3.707,3.707,3.707
			c2.043,0,3.706-1.663,3.706-3.707S21.861,14.223,19.817,14.223z"/>
	</g>
</g>
</svg>
