<?xml version="1.0" encoding="iso-8859-1"?>
<!-- Generator: Adobe Illustrator 17.0.1, SVG Export Plug-In . SVG Version: 6.00 Build 0)  -->
<!DOCTYPE svg PUBLIC "-//W3C//DTD SVG 1.1//EN" "http://www.w3.org/Graphics/SVG/1.1/DTD/svg11.dtd">
<svg version="1.1" id="Layer_1" xmlns="http://www.w3.org/2000/svg" xmlns:xlink="http://www.w3.org/1999/xlink" x="0px" y="0px"
	 width="32px" height="32px" viewBox="0 0 32 32" style="enable-background:new 0 0 32 32;" xml:space="preserve">
<g id="icon-s-service-sip">
	<rect id="icon-s-service-sip_1_" style="opacity:0;fill:#FFFFFF;" width="32" height="32"/>
	<linearGradient id="SVGID_1_" gradientUnits="userSpaceOnUse" x1="16" y1="32" x2="16" y2="-7.175913e-010">
		<stop  offset="0" style="stop-color:#004B7A"/>
		<stop  offset="1" style="stop-color:#007E94"/>
	</linearGradient>
	<rect style="fill:url(#SVGID_1_);" width="32" height="32"/>
	
		<linearGradient id="SVGID_2_" gradientUnits="userSpaceOnUse" x1="165.2876" y1="7.5" x2="165.2876" y2="26.5" gradientTransform="matrix(-1 0 0 1 181.1376 0)">
		<stop  offset="0" style="stop-color:#007E94"/>
		<stop  offset="1" style="stop-color:#1DAD82"/>
	</linearGradient>
	<path style="fill:url(#SVGID_2_);" d="M6.667,7.5h9.183c5.247,0,9.5,4.252,9.5,9.499v9.184c0,0.175-0.142,0.317-0.317,0.317H15.85
		c-5.247,0-9.5-4.254-9.5-9.501V7.817C6.35,7.642,6.492,7.5,6.667,7.5z"/>
	<g>
		<g>
			<path style="fill:#8AFFC6;" d="M10.635,16.854l1.982-1.086c-0.002-0.003-0.003-0.005-0.005-0.008
				c1.073-0.578,1.504-1.923,1.224-3.03c-0.203-0.802-0.507-2.23-0.507-2.23s-1.228,0-2.091,0c-1.157,0-2.292,1.661-1.748,3.59
				C9.764,15.061,10.155,15.984,10.635,16.854z"/>
			<path style="fill:#8AFFC6;" d="M20.154,19.06c-1.051-0.265-2.356,0.161-2.962,1.07l-1.14,2.102
				c0.832,0.457,1.712,0.835,2.631,1.112c1.922,0.58,3.667-0.568,3.667-1.726c0-0.856-0.004-2.005-0.004-2.005
				S20.955,19.262,20.154,19.06z"/>
		</g>
		<path style="fill:#65FC8D;" d="M17.116,20.252c-0.004,0.008-0.01,0.015-0.014,0.022c-1.671-0.909-2.845-2.001-3.876-3.53
			c-0.154-0.223-0.3-0.453-0.438-0.688c-0.059-0.098-0.118-0.196-0.176-0.297c0.001-0.001,0.002-0.002,0.004-0.002
			c-0.856-1.564-1.35-3.354-1.373-5.257l-0.004,0c-1.156,0.014-2.292,1.661-1.748,3.59c1.247,4.422,4.797,7.927,9.192,9.254
			c1.922,0.58,3.652-0.568,3.667-1.726c0-0.001,0-0.002,0-0.003C20.456,21.592,18.674,21.102,17.116,20.252z"/>
	</g>
	
		<radialGradient id="SVGID_3_" cx="174.6181" cy="162.9974" r="27.2851" gradientTransform="matrix(1.0388 0 0 1.1239 -165.9126 -148.8167)" gradientUnits="userSpaceOnUse">
		<stop  offset="0.4909" style="stop-color:#F9F8D9;stop-opacity:0"/>
		<stop  offset="1" style="stop-color:#FFFFFF"/>
	</radialGradient>
	<path style="fill:url(#SVGID_3_);" d="M18.993,19.5h6.109c2.07,0,3.749-1.948,3.749-4.188c0-2.241-1.678-4.123-3.749-4.123
		c-0.108,0-0.208-0.009-0.311,0c0.198-0.494,0.311-1.055,0.311-1.628c0-2.241-1.679-4.064-3.749-4.064
		c-1.479,0-2.746,0.931-3.355,2.277C16.933,5.818,14.972,4.5,12.722,4.5c-3.383,0-6.123,2.964-6.123,6.623
		c-2.07,0-3.748,1.948-3.748,4.189c0,2.24,1.678,4.188,3.748,4.188h6.075H18.993z"/>
</g>
</svg>
