<?xml version="1.0" encoding="windows-1252"?>
<!-- Generator: Adobe Illustrator 22.1.0, SVG Export Plug-In . SVG Version: 6.00 Build 0)  -->
<svg version="1.1" id="Layer_1" xmlns="http://www.w3.org/2000/svg" xmlns:xlink="http://www.w3.org/1999/xlink" x="0px" y="0px" width="32" height="32" viewBox="0 0 32 32" style="enable-background:new 0 0 32 32;" xml:space="preserve">
<g id="icon-s-accept_2_">
	<g style="opacity:0.6;">
		<path style="fill:#FFFFFF;" d="M25.402,27.432H6.597c-1.128,0-2.046-0.918-2.046-2.047V6.58c0-1.128,0.918-2.046,2.046-2.046    h18.806c1.129,0,2.047,0.918,2.047,2.046v18.805C27.449,26.514,26.531,27.432,25.402,27.432z M6.597,6.533L6.55,25.385    l18.852,0.047L25.449,6.58L6.597,6.533z"/>
	</g>
	<path style="fill:#FFFFFF;" d="M14.847,22.146c0,0-0.001,0-0.002,0c-0.578-0.001-1.117-0.299-1.479-0.818l-4.162-5.975   C8.888,14.899,9,14.275,9.453,13.96c0.454-0.316,1.077-0.205,1.392,0.249l4.002,5.746l7.495-10.705   c0.316-0.453,0.939-0.563,1.393-0.246c0.453,0.317,0.563,0.94,0.246,1.393l-7.653,10.934   C15.964,21.848,15.424,22.146,14.847,22.146z"/>
	<rect id="icon-s-accept_3_" style="opacity:0;fill:#FFFFFF;" width="32" height="32"/>
</g>
</svg>