<?xml version="1.0" encoding="iso-8859-1"?>
<!-- Generator: Adobe Illustrator 22.1.0, SVG Export Plug-In . SVG Version: 6.00 Build 0)  -->
<svg version="1.1" id="Layer_1" xmlns="http://www.w3.org/2000/svg" xmlns:xlink="http://www.w3.org/1999/xlink" x="0px" y="0px"	 width="32" height="32" viewBox="0 0 32 32" style="enable-background:new 0 0 32 32;" xml:space="preserve">
<g id="icon-s-sim1">
	<g id="icon-s-sim1_2_">
		<g>
			<g style="opacity:0.4;">
				<path style="fill:#FFFFFF;" d="M23,29H9c-1.654,0-3-1.346-3-3V12.641c0-0.25,0.024-2.458,0.857-3.233
					c0.294-0.274,1.18-1.119,1.969-1.877l1.941-1.866C11.739,4.731,13.555,4,14.902,4H23c1.654,0,3,1.346,3,3v19
					C26,27.654,24.654,29,23,29z M8.275,10.82C8.169,11.041,8,11.778,8,12.641V26c0,0.552,0.449,1,1,1h14c0.552,0,1-0.448,1-1V7
					c0-0.551-0.448-1-1-1h-8.098c-0.836,0-2.146,0.527-2.749,1.107l-1.941,1.866C9.459,9.697,8.618,10.499,8.275,10.82z
					 M8.292,10.789C8.292,10.789,8.292,10.789,8.292,10.789z"/>
			</g>
		</g>
		<g style="opacity:0.5;">
			<path style="fill:none;stroke:#FFFFFF;stroke-width:2;stroke-miterlimit:10;" d="M16,23.912"/>
			<path style="fill:none;stroke:#FFFFFF;stroke-width:2;stroke-miterlimit:10;" d="M16,14"/>
			<path style="fill:none;stroke:#FFFFFF;stroke-width:2;stroke-miterlimit:10;" d="M11.147,19.044"/>
			<path style="fill:none;stroke:#FFFFFF;stroke-width:2;stroke-miterlimit:10;" d="M21.049,19.044"/>
		</g>
		<path style="fill:#FFFFFF;" d="M15.599,11.851h-0.045l-2.613,1.407l-0.394-1.545l3.284-1.755h1.734v15h-1.966V11.851z"/>
	</g>
	<rect id="icon-s-sim1_1_" style="opacity:0;fill:#FFFFFF;" width="32" height="32"/>
</g>
</svg>
