<?xml version="1.0" encoding="iso-8859-1"?>
<!-- Generator: Adobe Illustrator 22.1.0, SVG Export Plug-In . SVG Version: 6.00 Build 0)  -->
<svg version="1.1" id="Layer_1" xmlns="http://www.w3.org/2000/svg" xmlns:xlink="http://www.w3.org/1999/xlink" x="0px" y="0px"	 width="32" height="32" viewBox="0 0 32 32" style="enable-background:new 0 0 32 32;" xml:space="preserve">
<g id="icon-s-sd-card_4_">
	<g>
		<path style="fill:#FFFFFF;" d="M25.189,9.093c0.322,0.3,0.585,1.445,0.585,2.545v14.851c0,1.1-0.9,2-2,2H8.227c-1.1,0-2-0.9-2-2
			V5.512c0-1.1,0.9-2,2-2h9.137c1.1,0,2.649,0.624,3.442,1.386l2.356,2.265C23.955,7.925,24.867,8.793,25.189,9.093z"/>
		<path style="fill:#BABABA;" d="M11.015,15.418c-0.553,0-1-0.448-1-1v-5.5c0-0.552,0.447-1,1-1s1,0.448,1,1v5.5
			C12.015,14.97,11.567,15.418,11.015,15.418z M16.044,14.418v-5.5c0-0.552-0.447-1-1-1s-1,0.448-1,1v5.5c0,0.552,0.447,1,1,1
			S16.044,14.97,16.044,14.418z M19.907,14.418v-5.5c0-0.552-0.447-1-1-1s-1,0.448-1,1v5.5c0,0.552,0.447,1,1,1
			S19.907,14.97,19.907,14.418z"/>
	</g>
	<rect id="icon-s-sd-card_1_" style="opacity:0;fill:#FFFFFF;" width="32" height="32"/>
</g>
</svg>
