<?xml version="1.0" encoding="UTF-8"?>
<!-- Generator: Adobe Illustrator 24.0.2, SVG Export Plug-In . SVG Version: 6.00 Build 0)  -->
<svg version="1.1" id="Layer_1" xmlns="http://www.w3.org/2000/svg" xmlns:xlink="http://www.w3.org/1999/xlink" x="0px" y="0px" width="64" height="64" viewBox="0 0 64 64" style="enable-background:new 0 0 64 64;" xml:space="preserve">
<g id="icon-m-do-not-disturb">
	<rect id="icon-m-do-not-disturb_1_" style="opacity:0;fill:#FFFFFF;" width="64" height="64"/>
	<g>
		<path style="fill:#FFFFFF;" d="M33.264,55.539c-1.15,0-2.311-0.083-3.474-0.255c-12.94-1.909-21.916-13.989-20.008-26.93    c1.483-10.058,9.199-18.046,19.2-19.878c0.55-0.098,1.065,0.26,1.164,0.803c0.1,0.543-0.26,1.064-0.803,1.164    c-9.158,1.678-16.223,8.993-17.582,18.203c-1.747,11.849,6.472,22.912,18.321,24.66c9.208,1.361,18.253-3.294,22.503-11.578    c0.251-0.491,0.856-0.687,1.346-0.434c0.492,0.252,0.686,0.854,0.434,1.346C50.26,50.641,42.062,55.539,33.264,55.539z"/>
		<path style="opacity:0.6;fill:#FFFFFF;" d="M49.377,43.778c-1.161,0-2.325-0.086-3.485-0.257    c-6.266-0.924-11.798-4.234-15.579-9.323s-5.354-11.341-4.43-17.606c0.38-2.582,1.173-5.059,2.355-7.364    c0.252-0.49,0.854-0.685,1.346-0.433c0.491,0.252,0.685,0.855,0.433,1.346c-1.082,2.109-1.808,4.378-2.156,6.743    c-0.846,5.736,0.595,11.462,4.057,16.122c3.462,4.659,8.528,7.691,14.264,8.537c2.365,0.349,4.749,0.309,7.078-0.117    c0.554-0.103,1.065,0.261,1.164,0.803c0.1,0.544-0.26,1.064-0.803,1.164C52.219,43.649,50.8,43.778,49.377,43.778z"/>
	</g>
</g>
</svg>