<?xml version="1.0" encoding="iso-8859-1"?>
<!-- Generator: Adobe Illustrator 22.1.0, SVG Export Plug-In . SVG Version: 6.00 Build 0)  -->
<svg version="1.1" id="Layer_1" xmlns="http://www.w3.org/2000/svg" xmlns:xlink="http://www.w3.org/1999/xlink" x="0px" y="0px"	 width="64" height="64" viewBox="0 0 64 64" style="enable-background:new 0 0 64 64;" xml:space="preserve">
<g id="icon-m-selelct-all">
	<path style="fill:none;stroke:#FFFFFF;stroke-width:2;stroke-linecap:round;stroke-miterlimit:10;" d="M12.526,48.219"/>
	<path style="fill:none;stroke:#FFFFFF;stroke-width:2;stroke-linecap:round;stroke-miterlimit:10;" d="M12.526,55.257"/>
	<rect id="icon-m-selelct-all_1_" style="opacity:0;fill:#FFFFFF;" width="64" height="64"/>
	<g>
		<g>
			<path style="fill:#FFFFFF;" d="M12.128,35.896c-0.552,0-1-0.447-1-1v-3c0-0.552,0.448-1,1-1s1,0.448,1,1v3
				C13.128,35.449,12.681,35.896,12.128,35.896z"/>
			<path style="fill:#FFFFFF;" d="M12.128,26.932c-0.552,0-1-0.448-1-1v-5.965c0-0.552,0.448-1,1-1s1,0.448,1,1v5.965
				C13.128,26.484,12.681,26.932,12.128,26.932z M12.254,15.014c-0.091,0-0.183-0.013-0.275-0.039
				c-0.531-0.151-0.839-0.705-0.687-1.236c0.523-1.834,2.219-3.116,4.123-3.117h1.711c0.552,0,1,0.448,1,1s-0.448,1-1,1h-1.711
				c-1.016,0-1.921,0.685-2.201,1.666C13.09,14.727,12.689,15.014,12.254,15.014z M29.057,12.622h-5.965c-0.552,0-1-0.448-1-1
				s0.448-1,1-1h5.965c0.552,0,1,0.448,1,1S29.609,12.622,29.057,12.622z"/>
			<path style="fill:#FFFFFF;" d="M38.032,12.622h-3c-0.553,0-1-0.448-1-1s0.447-1,1-1h3c0.553,0,1,0.448,1,1
				S38.585,12.622,38.032,12.622z"/>
		</g>
		<g>
			<path style="fill:#FFFFFF;" d="M51.871,33.104c-0.553,0-1-0.448-1-1v-3c0-0.552,0.447-1,1-1s1,0.448,1,1v3
				C52.871,32.655,52.424,33.104,51.871,33.104z"/>
			<path style="fill:#FFFFFF;" d="M43.16,53.378h-5.515c-0.553,0-1-0.447-1-1s0.447-1,1-1h5.515c0.553,0,1,0.447,1,1
				S43.713,53.378,43.16,53.378z M48.674,53.376c-0.539,0-0.984-0.43-0.999-0.973c-0.015-0.553,0.421-1.012,0.973-1.027
				c1.227-0.033,2.224-1.059,2.224-2.285v-0.443c0-0.553,0.447-1,1-1s1,0.447,1,1v0.443c0,2.301-1.87,4.223-4.169,4.285
				C48.692,53.376,48.684,53.376,48.674,53.376z M51.871,44.133c-0.553,0-1-0.447-1-1v-5.515c0-0.553,0.447-1,1-1s1,0.447,1,1v5.515
				C52.871,43.686,52.424,44.133,51.871,44.133z"/>
			<path style="fill:#FFFFFF;" d="M32.122,53.378h-3c-0.552,0-1-0.447-1-1s0.448-1,1-1h3c0.552,0,1,0.447,1,1
				S32.674,53.378,32.122,53.378z"/>
		</g>
	</g>
	<path style="opacity:0.6;fill:none;stroke:#FFFFFF;stroke-width:2;stroke-miterlimit:10;" d="M42.239,24.009"/>
	<path style="opacity:0.6;fill:none;stroke:#FFFFFF;stroke-width:2;stroke-miterlimit:10;" d="M20.989,24.009"/>
	<path style="opacity:0.6;fill:none;stroke:#FFFFFF;stroke-width:2;stroke-miterlimit:10;" d="M42.239,32.116"/>
	<path style="opacity:0.6;fill:none;stroke:#FFFFFF;stroke-width:2;stroke-miterlimit:10;" d="M20.989,32.116"/>
	<path style="opacity:0.6;fill:none;stroke:#FFFFFF;stroke-width:2;stroke-miterlimit:10;" d="M42.239,40.223"/>
	<path style="opacity:0.6;fill:none;stroke:#FFFFFF;stroke-width:2;stroke-miterlimit:10;" d="M20.989,40.223"/>
	<g>
		<path style="opacity:0.6;fill:#FFFFFF;" d="M43,24H21c-0.552,0-1-0.448-1-1s0.448-1,1-1h22c0.553,0,1,0.448,1,1S43.553,24,43,24z"
			/>
		<path style="opacity:0.6;fill:#FFFFFF;" d="M43,33H21c-0.552,0-1-0.448-1-1s0.448-1,1-1h22c0.553,0,1,0.448,1,1S43.553,33,43,33z"
			/>
		<path style="opacity:0.6;fill:#FFFFFF;" d="M43,42H21c-0.552,0-1-0.447-1-1s0.448-1,1-1h22c0.553,0,1,0.447,1,1S43.553,42,43,42z"
			/>
	</g>
</g>
</svg>
