<?xml version="1.0" encoding="iso-8859-1"?>
<!-- Generator: Adobe Illustrator 19.2.1, SVG Export Plug-In . SVG Version: 6.00 Build 0)  -->
<svg version="1.1" id="Layer_1" xmlns="http://www.w3.org/2000/svg" xmlns:xlink="http://www.w3.org/1999/xlink" x="0px" y="0px"
	 viewBox="0 0 64 64" style="enable-background:new 0 0 64 64;" xml:space="preserve">
<g id="icon-m-call-recording-on">
	<path style="fill:#000000;" d="M32,56.5c-13.509,0-24.5-10.99-24.5-24.499C7.5,18.491,18.491,7.5,32,7.5
		c13.51,0,24.5,10.991,24.5,24.501C56.5,45.51,45.51,56.5,32,56.5z M32,9.5C19.593,9.5,9.5,19.594,9.5,32.001
		C9.5,44.407,19.593,54.5,32,54.5c12.406,0,22.5-10.093,22.5-22.499C54.5,19.594,44.406,9.5,32,9.5z"/>
	<path style="fill:#900000;" d="M33.995,22.767c-0.694-0.149-1.347-0.222-1.995-0.222c-0.648,0-1.302,0.072-1.995,0.222
		c-4.259,0.916-7.352,4.743-7.37,9.107c-0.001,0.046-0.002,0.086-0.002,0.126c0,0.04,0.001,0.08,0.002,0.126
		c0.019,4.364,3.111,8.191,7.37,9.107c0.693,0.149,1.347,0.222,1.995,0.222c0.648,0,1.301-0.072,1.995-0.222
		c4.259-0.916,7.352-4.743,7.37-9.107c0.001-0.046,0.002-0.086,0.002-0.126c0-0.039-0.001-0.08-0.002-0.126
		C41.346,27.51,38.254,23.683,33.995,22.767z"/>
	<rect id="icon-m-call-recording-on_1_" style="opacity:0;fill:#FFFFFF;" width="64" height="64"/>
</g>
</svg>
