<?xml version="1.0" encoding="iso-8859-1"?>
<!-- Generator: Adobe Illustrator 17.0.1, SVG Export Plug-In . SVG Version: 6.00 Build 0)  -->
<!DOCTYPE svg PUBLIC "-//W3C//DTD SVG 1.1//EN" "http://www.w3.org/Graphics/SVG/1.1/DTD/svg11.dtd">
<svg version="1.1" id="Layer_1" xmlns="http://www.w3.org/2000/svg" xmlns:xlink="http://www.w3.org/1999/xlink" x="0px" y="0px"
	 width="32px" height="32px" viewBox="0 0 32 32" style="enable-background:new 0 0 32 32;" xml:space="preserve">
<g id="icon-lock-twitter">
	<rect id="icon-lock-twitter_2_" style="opacity:0;fill:#FFFFFF;" width="32" height="32"/>
	<g>
		<path style="fill-rule:evenodd;clip-rule:evenodd;fill:#00ACED;" d="M32,30.667C32,31.4,31.4,32,30.667,32H1.333
			C0.6,32,0,31.4,0,30.667V1.333C0,0.6,0.6,0,1.333,0h29.333C31.4,0,32,0.6,32,1.333V30.667z"/>
		<g>
			<path style="fill-rule:evenodd;clip-rule:evenodd;fill:#FCFDFE;" d="M5.176,22.681c2.331,0.062,4.414-0.499,6.394-1.941
				c-1.018-0.156-1.875-0.41-2.595-0.991c-0.707-0.571-1.237-1.257-1.512-2.178c0.568,0.01,1.105,0.118,1.782-0.115
				c-0.915-0.319-1.619-0.73-2.192-1.35c-0.717-0.776-1.083-1.694-1.2-2.732c-0.039-0.353,0.066-0.393,0.371-0.255
				c0.336,0.153,0.691,0.267,1.043,0.383c0.068,0.022,0.185,0.009,0.232-0.036c0.095-0.091,0.014-0.184-0.058-0.259
				c-0.115-0.119-0.234-0.234-0.349-0.353c-1.334-1.397-1.589-3.608-0.611-5.29C6.7,7.574,6.77,7.772,6.886,7.901
				c2.153,2.379,4.826,3.776,7.998,4.227c0.081,0.012,0.167,0.004,0.247,0.023c0.523,0.119,0.662-0.064,0.615-0.603
				c-0.146-1.65,0.464-3.004,1.786-3.998c1.717-1.29,4.03-1.205,5.669,0.202c0.286,0.244,0.522,0.308,0.884,0.203
				c0.758-0.22,1.48-0.514,2.328-0.966c-0.327,1.065-0.918,1.757-1.754,2.41c0.815-0.019,1.447-0.306,2.246-0.544
				c-0.34,0.74-0.795,1.222-1.303,1.595c-0.631,0.464-0.788,0.999-0.825,1.766C24.498,18,20.54,23.292,14.448,24.379
				c-3.188,0.57-6.216,0.107-9.035-1.535C5.329,22.796,5.254,22.735,5.176,22.681z"/>
		</g>
	</g>
</g>
</svg>
