<?xml version="1.0" encoding="iso-8859-1"?>
<!-- Generator: Adobe Illustrator 19.1.0, SVG Export Plug-In . SVG Version: 6.00 Build 0)  -->
<svg version="1.1" id="Layer_1" xmlns="http://www.w3.org/2000/svg" xmlns:xlink="http://www.w3.org/1999/xlink" x="0px" y="0px"
	 viewBox="0 0 32 32" style="enable-background:new 0 0 32 32;" xml:space="preserve">
<g id="icon-s-clear-opaque-cross">
	<rect id="icon-s-clear-opaque-cross_1_" style="opacity:0;fill:#FFFFFF;" width="32" height="32"/>
	<g>
		<path style="fill:#FFFFFF;" d="M22.6,23.601c-0.256,0-0.512-0.098-0.707-0.293l-3.3-3.3c-1.066-1.066-1.654-2.489-1.654-4.007
			c0-1.517,0.588-2.94,1.654-4.007l3.3-3.3c0.391-0.391,1.023-0.391,1.414,0s0.391,1.024,0,1.414l-3.3,3.3
			c-0.688,0.689-1.068,1.61-1.068,2.593c0,0.983,0.379,1.904,1.068,2.592l3.3,3.3c0.391,0.391,0.391,1.023,0,1.414
			C23.111,23.503,22.855,23.601,22.6,23.601z"/>
		<path style="fill:#FFFFFF;" d="M9.4,23.601c-0.256,0-0.512-0.098-0.707-0.293c-0.391-0.391-0.391-1.023,0-1.414l3.3-3.3
			c0.689-0.688,1.068-1.609,1.068-2.593c0-0.983-0.379-1.904-1.068-2.593l-3.299-3.299c-0.391-0.391-0.391-1.023,0-1.414
			s1.023-0.391,1.414,0l3.299,3.299c1.067,1.066,1.654,2.49,1.654,4.007c0,1.518-0.587,2.94-1.654,4.007l-3.3,3.3
			C9.912,23.503,9.656,23.601,9.4,23.601z"/>
	</g>
</g>
</svg>
