<?xml version="1.0" encoding="iso-8859-1"?>
<!-- Generator: Adobe Illustrator 17.0.1, SVG Export Plug-In . SVG Version: 6.00 Build 0)  -->
<!DOCTYPE svg PUBLIC "-//W3C//DTD SVG 1.1//EN" "http://www.w3.org/Graphics/SVG/1.1/DTD/svg11.dtd">
<svg version="1.1" id="Layer_1" xmlns="http://www.w3.org/2000/svg" xmlns:xlink="http://www.w3.org/1999/xlink" x="0px" y="0px"
	 width="64px" height="64px" viewBox="0 0 64 64" style="enable-background:new 0 0 64 64;" xml:space="preserve">
<g id="icon-m-service-jolla">
	<rect id="icon-m-service-jolla_2_" style="opacity:0;fill:#FFFFFF;" width="64" height="64"/>
	<linearGradient id="SVGID_1_" gradientUnits="userSpaceOnUse" x1="64" y1="-2.154593e-009" x2="2.155865e-009" y2="64">
		<stop  offset="0.0054" style="stop-color:#51EAEE"/>
		<stop  offset="1" style="stop-color:#00B4E6"/>
	</linearGradient>
	<rect style="fill:url(#SVGID_1_);" width="64" height="64"/>
	<g>
		<g>
			<path style="fill:#FFFFFF;" d="M56.943,30.482c-0.05-0.102-0.124-0.22-0.256-0.226c-0.119-0.007-0.248,0.077-0.395,0.248
				c0,0-2.856,4.922-5.334,4.069c-0.545-0.188-0.742-0.489-0.742-0.568c0.004-0.383,0.178-1.035,0.392-1.415
				c0.039-0.065,0.921-1.619,1.236-2.802c0.262-0.986,0.386-2.554-0.352-2.846c-0.149-0.064-0.256-0.093-0.333-0.096
				c-0.022-0.001-0.097-0.003-0.159,0.063c-0.174,0.189-0.447,0.385-0.646,0.297c-0.272-0.119-0.834-0.183-1.452-0.099
				c-1.815,0.242-4.068,1.984-5.481,5.365c-0.054,0.07-1.805,1.859-2.546,1.831c-0.075-0.128-0.176-0.512-0.105-1.338
				c0.055-0.704,0.252-1.923,0.861-3.747l0.001-0.003c6.139-6.579,9.153-11.321,8.714-13.72c-0.106-0.587-0.426-1.026-0.92-1.269
				c-0.157-0.078-0.367-0.094-0.518-0.094c-0.455,0-2.112,0.171-4.141,2.4c-2.135,2.343-3.937,6.113-5.363,11.206
				c-0.219,0.797-0.422,1.563-0.603,2.281c-0.397,0.371-0.786,0.748-1.167,1.117c-1.517,1.473-3.09,2.997-3.873,2.997
				c-0.083,0-0.156-0.023-0.219-0.066c-0.058-0.07-0.207-0.525-0.081-1.721c0.125-1.122,0.446-2.512,0.92-3.92
				c6.119-6.558,9.02-11.009,8.616-13.23c-0.113-0.577-0.436-1.013-0.955-1.266c-0.155-0.077-0.366-0.096-0.515-0.096
				c-0.456,0-2.112,0.175-4.141,2.401c-2.129,2.337-3.929,6.093-5.352,11.163c-0.174,0.219-0.976,0.943-1.452,1.238
				c-0.106-0.818-0.792-1.448-1.497-1.615c-0.163-0.036-0.334-0.058-0.503-0.058c-0.918,0-1.771,0.571-2.486,1.129
				c-0.856,0.666-1.844,1.552-2.673,3.039c-1.123,2.022-2.045,5.291-0.585,6.239c0.33,0.215,0.698,0.326,1.089,0.326h0.001
				c1.985,0,4.083-2.765,4.723-3.83c0.684-1.132,1.365-2.609,1.723-3.553c0.334-0.108,0.707-0.282,1.052-0.468
				c-0.847,3.565-0.89,5.777-0.138,6.742c0.288,0.371,0.683,0.562,1.175,0.562c0.768,0,1.591-0.469,2.145-0.816
				c0.545-0.342,1.825-1.497,3.554-3.206c-0.201,1.559-0.058,2.612,0.435,3.206c0.293,0.351,0.691,0.529,1.187,0.529
				c0.558,0,1.151-0.232,1.653-0.495c0.677-0.329,1.243-0.705,1.275-0.733c0.136-0.114,0.287-0.172,0.42-0.167
				c0.145,0.004,0.264,0.075,0.325,0.201c0.024,0.054,0.831,1.357,1.745,1.357c1.522,0,2.549-1.148,2.611-1.199
				c0.115-0.098,0.246-0.147,0.358-0.142c0.146,0.005,0.255,0.138,0.355,0.264c0.176,0.218,1.032,0.954,2.016,0.995
				c1.519,0.06,2.99-0.643,4.314-2.065c0.424-0.455,2.232-3.184,2.234-3.555C57.088,31.102,57.044,30.691,56.943,30.482z
				 M47.234,16.562c0.775,2.731-2.837,7.323-4.713,9.587C43.673,22.432,46.329,18.011,47.234,16.562z M39.847,16.238
				c0.805,2.677-2.733,6.821-4.617,8.989C36.363,21.596,38.956,17.566,39.847,16.238z M26.789,33.484
				c-0.466,0.495-0.925,0.793-1.234,0.793c-0.036,0-0.074-0.005-0.105-0.017c-0.31-0.101-0.5-0.331-0.578-0.71
				c-0.185-0.871,0.251-2.156,0.601-2.874c0.151,0.25,0.404,0.49,0.816,0.628c0.233,0.078,0.479,0.121,0.728,0.121
				c0.399,0,0.761-0.105,1.061-0.221C27.932,31.893,27.435,32.792,26.789,33.484z M49.252,30.303
				c-0.002,0.011-0.941,2.657-1.181,2.998c-0.2,0.281-0.886,0.953-1.643,0.86c-0.421-0.048-1.269-0.755-0.93-1.8
				c0.628-1.941,2.056-3.16,3.067-3.164C49.339,29.194,49.391,29.931,49.252,30.303z M22.094,23.671
				c-0.278,0.314-0.693,0.504-1.107,0.504l0,0c-0.542,0-0.983-0.306-1.211-0.842c-0.367-0.861-0.569-1.865,0.707-2.744
				c0.143-0.1,0.295-0.151,0.451-0.151c0.653,0,1.151,0.855,1.333,1.224C22.677,22.486,22.628,23.071,22.094,23.671z M20.833,35.057
				c0.24-0.682,0.46-1.299,0.656-1.845c0.762-2.109,1.181-3.275,1.154-4.271c-0.027-0.964-0.498-1.775-1.171-2.011
				c-0.125-0.044-0.255-0.067-0.388-0.067c-0.506,0-0.923,0.303-1.128,0.569c-0.262,0.341-0.187,0.795-0.113,1.234
				c0.032,0.192,0.067,0.39,0.072,0.583c0.032,1.108-0.659,3.954-1.045,4.923c-0.323,0.809-3.474,3.287-4.056,3.711
				c-2.176,1.59-6.076,4.796-7.756,8.427c-1.376,2.98-0.357,4.514-0.235,4.678l0.008,0.01c0.525,0.722,1.205,0.874,1.682,0.874l0,0
				c0.534,0,1.127-0.184,1.764-0.549c2.58-1.476,7.009-7.859,8.824-12.051c0.111-0.261,0.641-1.362,0.785-1.532
				c0.05-0.061,0.214-0.161,0.374-0.251c0.223-0.133,0.477-0.283,0.596-0.427c0.216-0.258,0.413-0.811,0.029-1.189
				c-0.281-0.279-0.2-0.462-0.106-0.677C20.795,35.151,20.816,35.103,20.833,35.057z M8.867,47.237
				c-0.187-0.863,1.18-2.851,2.208-3.991l0.036-0.039c1.101-1.218,1.768-1.948,3.285-3.118c1.385-1.067,2.013-1.341,2.292-1.392
				c-0.151,0.408-0.368,0.92-0.863,1.736c-2.111,3.478-5.019,7.222-6.409,7.222c-0.089,0-0.172-0.017-0.243-0.049
				C9.005,47.535,8.905,47.415,8.867,47.237z"/>
		</g>
	</g>
</g>
</svg>
