<?xml version="1.0" encoding="windows-1252"?>
<!-- Generator: Adobe Illustrator 22.1.0, SVG Export Plug-In . SVG Version: 6.00 Build 0)  -->
<svg version="1.1" id="Layer_1" xmlns="http://www.w3.org/2000/svg" xmlns:xlink="http://www.w3.org/1999/xlink" x="0px" y="0px" width="32" height="32" viewBox="0 0 32 32" style="enable-background:new 0 0 32 32;" xml:space="preserve">
<g id="icon-s-checkmark">
	<g>
		<path style="opacity:0.4;fill:#FFFFFF;" d="M16,28C9.383,28,4,22.617,4,16C4,9.383,9.383,4,16,4c6.617,0,12,5.383,12,12    C28,22.617,22.617,28,16,28z M16,6C10.486,6,6,10.486,6,16c0,5.514,4.486,10,10,10c5.514,0,10-4.486,10-10    C26,10.486,21.514,6,16,6z"/>
	</g>
	<path style="fill:#FFFFFF;" d="M14.611,22.724c-0.555,0-1.083-0.264-1.459-0.729l-3.954-4.898c-0.347-0.43-0.279-1.059,0.15-1.406   c0.429-0.346,1.059-0.28,1.406,0.15l3.843,4.761l6.607-9.438c0.316-0.452,0.94-0.562,1.393-0.246   c0.452,0.317,0.563,0.94,0.246,1.393l-6.707,9.583c-0.355,0.508-0.89,0.811-1.466,0.83C14.65,22.723,14.63,22.724,14.611,22.724z"/>
	<rect id="icon-s-checkmark_1_" style="opacity:0;fill:#FFFFFF;" width="32" height="32"/>
</g>
</svg>